<?xml version="1.0" encoding="UTF-8" standalone="no"?>
<svg
   width="553.07098pt"
   height="256.10001pt"
   viewBox="0 0 553.07098 256.10001"
   version="1.1"
   id="svg10"
   sodipodi:docname="chord_diagram_connected_sum_result.svg"
   inkscape:version="1.4.2 (ebf0e940d0, 2025-05-08)"
   inkscape:export-filename="/home/damian/Projects/mphil-thesis/graphics/chord_diagram_connected_sum_result.pdf"
   inkscape:export-xdpi="96"
   inkscape:export-ydpi="96"
   xmlns:inkscape="http://www.inkscape.org/namespaces/inkscape"
   xmlns:sodipodi="http://sodipodi.sourceforge.net/DTD/sodipodi-0.dtd"
   xmlns="http://www.w3.org/2000/svg"
   xmlns:svg="http://www.w3.org/2000/svg">
  <defs
     id="defs10" />
  <sodipodi:namedview
     id="namedview10"
     pagecolor="#ffffff"
     bordercolor="#000000"
     borderopacity="0.25"
     inkscape:showpageshadow="2"
     inkscape:pageopacity="0.0"
     inkscape:pagecheckerboard="0"
     inkscape:deskcolor="#d1d1d1"
     inkscape:document-units="pt"
     inkscape:zoom="1.3637696"
     inkscape:cx="355.99856"
     inkscape:cy="146.28571"
     inkscape:window-width="2556"
     inkscape:window-height="1394"
     inkscape:window-x="0"
     inkscape:window-y="0"
     inkscape:window-maximized="0"
     inkscape:current-layer="svg10"
     showguides="true">
    <sodipodi:guide
       position="425.021,127.95"
       orientation="0,-1"
       id="guide1"
       inkscape:locked="false" />
  </sodipodi:namedview>
  <path
     fill="none"
     stroke-width="3.84"
     stroke-linecap="butt"
     stroke-linejoin="miter"
     stroke="#000000"
     stroke-opacity="1"
     stroke-miterlimit="10"
     d="M 524.78647,185.64962 C 556.59895,130.54879 537.72146,60.09702 482.62063,28.28454 427.5198,-3.5279399 357.06803,15.349554 325.25555,70.450384 M 325.39266,185.927 c 0.46518,0.80244 0.94036,1.59978 1.4255,2.39181 1.94053,3.16809 4.04021,6.25116 6.29553,9.23602 9.02125,11.93943 20.53249,22.30751 34.3077,30.26063 55.10083,31.81248 125.5526,12.93499 157.36508,-42.16584"
     id="path1"
     sodipodi:nodetypes="csccsssc" />
  <path
     fill="none"
     stroke-width="2.56"
     stroke-linecap="butt"
     stroke-linejoin="miter"
     stroke="#000000"
     stroke-opacity="1"
     stroke-miterlimit="10"
     d="M 524.78647,185.64962 325.25555,70.450384"
     id="path2" />
  <path
     fill-rule="nonzero"
     fill="#000000"
     fill-opacity="1"
     d="m 529.22146,188.21015 c 3.41406,-5.91332 -5.45594,-11.03442 -8.87,-5.12109 -3.41406,5.91333 5.45594,11.03442 8.87,5.12109"
     id="path3" />
  <path
     fill-rule="nonzero"
     fill="#000000"
     fill-opacity="1"
     d="m 329.69056,73.010938 c 3.41406,-5.913326 -5.45594,-11.034419 -8.87,-5.121094 -3.41406,5.913325 5.45594,11.034419 8.87,5.121094"
     id="path4" />
  <path
     fill="none"
     stroke-width="2.56"
     stroke-linecap="butt"
     stroke-linejoin="miter"
     stroke="#000000"
     stroke-opacity="1"
     stroke-miterlimit="10"
     d="M 524.78815,70.451308 425.02265,243.25023"
     id="path5" />
  <path
     fill-rule="nonzero"
     fill="#000000"
     fill-opacity="1"
     d="m 529.21985,73.009809 c 3.41407,-5.913329 -5.45254,-11.032469 -8.86661,-5.11914 -3.41211,5.909947 5.4545,11.029087 8.86661,5.11914"
     id="path6" />
  <path
     fill-rule="nonzero"
     fill="#000000"
     fill-opacity="1"
     d="m 429.45423,245.80894 c 3.41211,-5.90994 -5.4545,-11.02908 -8.86661,-5.11914 -3.41406,5.91333 5.45255,11.03247 8.86661,5.11914"
     id="path7" />
  <path
     fill="none"
     stroke-width="2.56"
     stroke-linecap="butt"
     stroke-linejoin="miter"
     stroke="#000000"
     stroke-opacity="1"
     stroke-miterlimit="10"
     d="M 425.01937,12.849772 325.25386,185.64869"
     id="path8" />
  <path
     fill-rule="nonzero"
     fill="#000000"
     fill-opacity="1"
     d="m 429.4544,15.4102 c 3.41407,-5.9133299 -5.45255,-11.0324704 -8.86661,-5.119141 -3.41211,5.909947 5.4545,11.029088 8.86661,5.119141"
     id="path9" />
  <path
     fill-rule="nonzero"
     fill="#000000"
     fill-opacity="1"
     d="m 329.68878,188.20933 c 3.4121,-5.90994 -5.45451,-11.02908 -8.86661,-5.11914 -3.41407,5.91333 5.45254,11.03247 8.86661,5.11914"
     id="path10" />
  <path
     fill="none"
     stroke-width="3.84"
     stroke-linecap="butt"
     stroke-linejoin="miter"
     stroke="#000000"
     stroke-opacity="1"
     stroke-miterlimit="10"
     d="M 238.7088,92.451479 C 219.04761,31.940546 154.06023,-1.1721751 93.549298,18.489019 33.038368,38.150213 -0.0743617,103.13759 19.586838,163.64852 c 19.66119,60.51093 84.648572,93.62365 145.159502,73.96246 15.12773,-4.9153 28.54308,-12.66348 39.84954,-22.46639 11.30646,-9.8029 20.50404,-21.66053 27.19624,-34.79471 1.67305,-3.28355 3.18951,-6.64687 4.54319,-10.07783 0.67684,-1.71548 1.31299,-3.44786 1.90766,-5.19563 0.29734,-0.87389 0.58431,-1.75162 0.86082,-2.63301"
     id="path1-1"
     sodipodi:nodetypes="csssssssc" />
  <path
     fill="none"
     stroke-width="2.56"
     stroke-linecap="butt"
     stroke-linejoin="miter"
     stroke="#000000"
     stroke-opacity="1"
     stroke-miterlimit="10"
     d="m 238.7088,92.451479 -219.122442,0.0017"
     id="path2-8" />
  <path
     fill-rule="nonzero"
     fill="#000000"
     fill-opacity="1"
     d="m 243.57923,90.868979 c -2.11,-6.493928 -11.8509,-3.328917 -9.7409,3.165011 2.11001,6.49393 11.85091,3.328917 9.7409,-3.165011"
     id="path3-7" />
  <path
     fill-rule="nonzero"
     fill="#000000"
     fill-opacity="1"
     d="m 24.456708,90.870708 c -2.11,-6.493932 -11.8509,-3.328922 -9.74089,3.16501 2.1088,6.490222 11.84969,3.325208 9.74089,-3.16501"
     id="path4-9" />
  <path
     fill="none"
     stroke-width="2.56"
     stroke-linecap="butt"
     stroke-linejoin="miter"
     stroke="#000000"
     stroke-opacity="1"
     stroke-miterlimit="10"
     d="M 196.86159,34.852927 238.70928,163.64686"
     id="path5-2" />
  <path
     fill-rule="nonzero"
     fill="#000000"
     fill-opacity="1"
     d="m 201.73216,33.270424 c -2.11001,-6.493932 -11.85091,-3.328921 -9.7409,3.165011 2.1088,6.490218 11.8497,3.325207 9.7409,-3.165011"
     id="path6-0" />
  <path
     fill-rule="nonzero"
     fill="#000000"
     fill-opacity="1"
     d="m 243.57982,162.06428 c -2.1088,-6.49022 -11.8497,-3.3252 -9.7409,3.16501 2.11,6.49393 11.85091,3.32892 9.7409,-3.16501"
     id="path7-2" />
  <path
     fill="none"
     stroke-width="2.56"
     stroke-linecap="butt"
     stroke-linejoin="miter"
     stroke="#000000"
     stroke-opacity="1"
     stroke-miterlimit="10"
     d="M 129.14641,12.849498 19.586838,163.64852"
     id="path8-3" />
  <path
     fill-rule="nonzero"
     fill="#000000"
     fill-opacity="1"
     d="m 134.01698,11.267084 c -2.1088,-6.4902179 -11.84598,-3.3264154 -9.73718,3.163803 2.11,6.493932 11.84718,3.33013 9.73718,-3.163803"
     id="path9-7" />
  <path
     fill-rule="nonzero"
     fill="#000000"
     fill-opacity="1"
     d="m 24.457298,162.06601 c -2.11,-6.49393 -11.8509,-3.32892 -9.7409,3.16501 2.11001,6.49393 11.85091,3.32892 9.7409,-3.16501"
     id="path10-5" />
  <path
     fill="none"
     stroke-width="2.56"
     stroke-linecap="butt"
     stroke-linejoin="miter"
     stroke="#000000"
     stroke-opacity="1"
     stroke-miterlimit="10"
     d="M 61.435808,34.850005 129.14923,243.2505"
     id="path11" />
  <path
     fill-rule="nonzero"
     fill="#000000"
     fill-opacity="1"
     d="m 66.302498,33.268853 c -2.1088,-6.490218 -11.84599,-3.326415 -9.73719,3.163803 2.11001,6.493932 11.84719,3.330129 9.73719,-3.163803"
     id="path12" />
  <path
     fill-rule="nonzero"
     fill="#000000"
     fill-opacity="1"
     d="m 134.01585,241.66911 c -2.11001,-6.49394 -11.8472,-3.33013 -9.73719,3.1638 2.1088,6.49022 11.84599,3.32642 9.73719,-3.1638"
     id="path13" />
  <path
     fill="none"
     stroke-width="2.56"
     stroke-linecap="butt"
     stroke-linejoin="miter"
     stroke="#000000"
     stroke-opacity="1"
     stroke-miterlimit="10"
     d="m 61.434048,221.24707 135.425782,0.003"
     id="path14" />
  <path
     fill-rule="nonzero"
     fill="#000000"
     fill-opacity="1"
     d="m 66.304378,219.66457 c -2.1088,-6.49022 -11.8497,-3.32521 -9.7409,3.16501 2.11,6.49393 11.8509,3.32892 9.7409,-3.16501"
     id="path15" />
  <path
     fill-rule="nonzero"
     fill="#000000"
     fill-opacity="1"
     d="m 201.73033,219.66734 c -2.11001,-6.49393 -11.84719,-3.33013 -9.73719,3.16381 2.1088,6.49021 11.84599,3.32641 9.73719,-3.16381"
     id="path16" />
  <path
     style="fill:none;fill-opacity:1;stroke:#000000;stroke-width:3.84;stroke-dasharray:none"
     d="m 238.7088,92.451479 c 2.91653,12.735511 29.64485,18.811721 47.33221,14.579851 22.63317,-5.4152 32.50652,-22.727423 39.21454,-36.580946"
     id="path17"
     sodipodi:nodetypes="csc" />
  <path
     style="fill:none;fill-opacity:1;stroke:#000000;stroke-width:3.84;stroke-dasharray:none"
     d="m 238.70928,163.64686 c 2.91653,-12.73551 29.64485,-18.81172 47.33221,-14.57985 22.63317,5.4152 32.50651,22.72743 39.21454,36.58095"
     id="path18"
     sodipodi:nodetypes="csc" />
  <rect
     style="display:none;fill:none;fill-opacity:1;stroke:#000000;stroke-width:0.1;stroke-dasharray:none"
     id="rect18"
     width="552.97101"
     height="256"
     x="0.050000001"
     y="0.050000001"
     ry="0"
     inkscape:label="boundary"
     sodipodi:insensitive="true" />
</svg>
