<?xml version="1.0" encoding="UTF-8" standalone="no"?>
<svg
   width="256pt"
   height="256pt"
   viewBox="0 0 256 256"
   version="1.1"
   id="svg10"
   sodipodi:docname="chord_diagram_connected_sum_2.svg"
   inkscape:version="1.4.2 (ebf0e940d0, 2025-05-08)"
   inkscape:export-filename="../chord_diagram_connected_sum_2.pdf"
   inkscape:export-xdpi="96"
   inkscape:export-ydpi="96"
   xmlns:inkscape="http://www.inkscape.org/namespaces/inkscape"
   xmlns:sodipodi="http://sodipodi.sourceforge.net/DTD/sodipodi-0.dtd"
   xmlns="http://www.w3.org/2000/svg"
   xmlns:svg="http://www.w3.org/2000/svg">
  <defs
     id="defs10" />
  <sodipodi:namedview
     id="namedview10"
     pagecolor="#ffffff"
     bordercolor="#000000"
     borderopacity="0.25"
     inkscape:showpageshadow="2"
     inkscape:pageopacity="0.0"
     inkscape:pagecheckerboard="0"
     inkscape:deskcolor="#d1d1d1"
     inkscape:document-units="pt"
     inkscape:zoom="2.7275391"
     inkscape:cx="170.66667"
     inkscape:cy="170.66667"
     inkscape:window-width="2556"
     inkscape:window-height="1394"
     inkscape:window-x="0"
     inkscape:window-y="0"
     inkscape:window-maximized="0"
     inkscape:current-layer="svg10" />
  <g
     id="g10"
     transform="rotate(30,128,128)">
    <path
       fill="none"
       stroke-width="0.015"
       stroke-linecap="butt"
       stroke-linejoin="miter"
       stroke="#000000"
       stroke-opacity="1"
       stroke-miterlimit="10"
       d="M 0.449997,0 C 0.449997,0.248535 0.248535,0.449997 0,0.449997 -0.248535,0.449997 -0.449997,0.248535 -0.449997,0 c 0,-0.248535 0.201462,-0.449997 0.449997,-0.449997 0.248535,0 0.449997,0.201462 0.449997,0.449997"
       transform="matrix(256,0,0,-256,128,128)"
       id="path1" />
    <path
       fill="none"
       stroke-width="0.01"
       stroke-linecap="butt"
       stroke-linejoin="miter"
       stroke="#000000"
       stroke-opacity="1"
       stroke-miterlimit="10"
       d="M 0.449997,0 H -0.449997"
       transform="matrix(256,0,0,-256,128,128)"
       id="path2" />
    <path
       fill-rule="nonzero"
       fill="#000000"
       fill-opacity="1"
       d="m 248.32031,128 c 0,-6.82812 -10.24219,-6.82812 -10.24219,0 0,6.82812 10.24219,6.82812 10.24219,0"
       id="path3" />
    <path
       fill-rule="nonzero"
       fill="#000000"
       fill-opacity="1"
       d="m 17.921875,128 c 0,-6.82812 -10.242187,-6.82812 -10.242187,0 0,6.82812 10.242187,6.82812 10.242187,0"
       id="path4" />
    <path
       fill="none"
       stroke-width="0.01"
       stroke-linecap="butt"
       stroke-linejoin="miter"
       stroke="#000000"
       stroke-opacity="1"
       stroke-miterlimit="10"
       d="M 0.225006,0.389709 V -0.389709"
       transform="matrix(256,0,0,-256,128,128)"
       id="path5" />
    <path
       fill-rule="nonzero"
       fill="#000000"
       fill-opacity="1"
       d="m 190.71875,28.234375 c 0,-6.828125 -10.23828,-6.828125 -10.23828,0 0,6.824219 10.23828,6.824219 10.23828,0"
       id="path6" />
    <path
       fill-rule="nonzero"
       fill="#000000"
       fill-opacity="1"
       d="m 190.71875,227.76562 c 0,-6.82421 -10.23828,-6.82421 -10.23828,0 0,6.82813 10.23828,6.82813 10.23828,0"
       id="path7" />
    <path
       fill="none"
       stroke-width="0.01"
       stroke-linecap="butt"
       stroke-linejoin="miter"
       stroke="#000000"
       stroke-opacity="1"
       stroke-miterlimit="10"
       d="M -0.225006,0.389709 V -0.389709"
       transform="matrix(256,0,0,-256,128,128)"
       id="path8" />
    <path
       fill-rule="nonzero"
       fill="#000000"
       fill-opacity="1"
       d="m 75.519531,28.234375 c 0,-6.828125 -10.238281,-6.828125 -10.238281,0 0,6.824219 10.238281,6.824219 10.238281,0"
       id="path9" />
    <path
       fill-rule="nonzero"
       fill="#000000"
       fill-opacity="1"
       d="m 75.519531,227.76562 c 0,-6.82421 -10.238281,-6.82421 -10.238281,0 0,6.82813 10.238281,6.82813 10.238281,0"
       id="path10" />
  </g>
</svg>
