<?xml version="1.0" encoding="UTF-8" standalone="no"?>
<svg
   width="256pt"
   height="256pt"
   viewBox="0 0 256 256"
   version="1.1"
   id="svg16"
   sodipodi:docname="chord_diagram_connected_sum_1.svg"
   inkscape:version="1.4.2 (ebf0e940d0, 2025-05-08)"
   inkscape:export-filename="../chord_diagram_connected_sum_1.pdf"
   inkscape:export-xdpi="96"
   inkscape:export-ydpi="96"
   xmlns:inkscape="http://www.inkscape.org/namespaces/inkscape"
   xmlns:sodipodi="http://sodipodi.sourceforge.net/DTD/sodipodi-0.dtd"
   xmlns="http://www.w3.org/2000/svg"
   xmlns:svg="http://www.w3.org/2000/svg">
  <defs
     id="defs16" />
  <sodipodi:namedview
     id="namedview16"
     pagecolor="#ffffff"
     bordercolor="#000000"
     borderopacity="0.25"
     inkscape:showpageshadow="2"
     inkscape:pageopacity="0.0"
     inkscape:pagecheckerboard="0"
     inkscape:deskcolor="#d1d1d1"
     inkscape:document-units="pt"
     inkscape:zoom="2.7275391"
     inkscape:cx="170.66667"
     inkscape:cy="170.66667"
     inkscape:window-width="2556"
     inkscape:window-height="1394"
     inkscape:window-x="0"
     inkscape:window-y="0"
     inkscape:window-maximized="0"
     inkscape:current-layer="svg16" />
  <g
     id="g16"
     transform="rotate(-18,128,128)">
    <path
       fill="none"
       stroke-width="0.015"
       stroke-linecap="butt"
       stroke-linejoin="miter"
       stroke="#000000"
       stroke-opacity="1"
       stroke-miterlimit="10"
       d="M 0.449997,0 C 0.449997,0.248535 0.248535,0.449997 0,0.449997 -0.248535,0.449997 -0.449997,0.248535 -0.449997,0 c 0,-0.248535 0.201462,-0.449997 0.449997,-0.449997 0.248535,0 0.449997,0.201462 0.449997,0.449997"
       transform="matrix(256,0,0,-256,128,128)"
       id="path1" />
    <path
       fill="none"
       stroke-width="0.01"
       stroke-linecap="butt"
       stroke-linejoin="miter"
       stroke="#000000"
       stroke-opacity="1"
       stroke-miterlimit="10"
       d="M 0.449997,0 -0.364059,0.264496"
       transform="matrix(256,0,0,-256,128,128)"
       id="path2" />
    <path
       fill-rule="nonzero"
       fill="#000000"
       fill-opacity="1"
       d="m 248.32031,128 c 0,-6.82812 -10.24219,-6.82812 -10.24219,0 0,6.82812 10.24219,6.82812 10.24219,0"
       id="path3" />
    <path
       fill-rule="nonzero"
       fill="#000000"
       fill-opacity="1"
       d="m 39.921875,60.289062 c 0,-6.828124 -10.242187,-6.828124 -10.242187,0 0,6.824219 10.242187,6.824219 10.242187,0"
       id="path4" />
    <path
       fill="none"
       stroke-width="0.01"
       stroke-linecap="butt"
       stroke-linejoin="miter"
       stroke="#000000"
       stroke-opacity="1"
       stroke-miterlimit="10"
       d="M 0.364059,0.264496 V -0.264496"
       transform="matrix(256,0,0,-256,128,128)"
       id="path5" />
    <path
       fill-rule="nonzero"
       fill="#000000"
       fill-opacity="1"
       d="m 226.32031,60.289062 c 0,-6.828124 -10.24219,-6.828124 -10.24219,0 0,6.824219 10.24219,6.824219 10.24219,0"
       id="path6" />
    <path
       fill-rule="nonzero"
       fill="#000000"
       fill-opacity="1"
       d="m 226.32031,195.71094 c 0,-6.82422 -10.24219,-6.82422 -10.24219,0 0,6.82812 10.24219,6.82812 10.24219,0"
       id="path7" />
    <path
       fill="none"
       stroke-width="0.01"
       stroke-linecap="butt"
       stroke-linejoin="miter"
       stroke="#000000"
       stroke-opacity="1"
       stroke-miterlimit="10"
       d="M 0.139053,0.427979 -0.449997,0"
       transform="matrix(256,0,0,-256,128,128)"
       id="path8" />
    <path
       fill-rule="nonzero"
       fill="#000000"
       fill-opacity="1"
       d="m 168.71875,18.4375 c 0,-6.824219 -10.23828,-6.824219 -10.23828,0 0,6.828125 10.23828,6.828125 10.23828,0"
       id="path9" />
    <path
       fill-rule="nonzero"
       fill="#000000"
       fill-opacity="1"
       d="m 17.921875,128 c 0,-6.82812 -10.242187,-6.82812 -10.242187,0 0,6.82812 10.242187,6.82812 10.242187,0"
       id="path10" />
    <path
       fill="none"
       stroke-width="0.01"
       stroke-linecap="butt"
       stroke-linejoin="miter"
       stroke="#000000"
       stroke-opacity="1"
       stroke-miterlimit="10"
       d="M -0.139053,0.427979 V -0.427979"
       transform="matrix(256,0,0,-256,128,128)"
       id="path11" />
    <path
       fill-rule="nonzero"
       fill="#000000"
       fill-opacity="1"
       d="m 97.519531,18.4375 c 0,-6.824219 -10.238281,-6.824219 -10.238281,0 0,6.828125 10.238281,6.828125 10.238281,0"
       id="path12" />
    <path
       fill-rule="nonzero"
       fill="#000000"
       fill-opacity="1"
       d="m 97.519531,237.5625 c 0,-6.82813 -10.238281,-6.82813 -10.238281,0 0,6.82422 10.238281,6.82422 10.238281,0"
       id="path13" />
    <path
       fill="none"
       stroke-width="0.01"
       stroke-linecap="butt"
       stroke-linejoin="miter"
       stroke="#000000"
       stroke-opacity="1"
       stroke-miterlimit="10"
       d="M -0.364059,-0.264496 0.139053,-0.427979"
       transform="matrix(256,0,0,-256,128,128)"
       id="path14" />
    <path
       fill-rule="nonzero"
       fill="#000000"
       fill-opacity="1"
       d="m 39.921875,195.71094 c 0,-6.82422 -10.242187,-6.82422 -10.242187,0 0,6.82812 10.242187,6.82812 10.242187,0"
       id="path15" />
    <path
       fill-rule="nonzero"
       fill="#000000"
       fill-opacity="1"
       d="m 168.71875,237.5625 c 0,-6.82813 -10.23828,-6.82813 -10.23828,0 0,6.82422 10.23828,6.82422 10.23828,0"
       id="path16" />
  </g>
</svg>
