<?xml version="1.0" encoding="UTF-8"?>
<svg xmlns="http://www.w3.org/2000/svg" xmlns:xlink="http://www.w3.org/1999/xlink" width="256pt" height="256pt" viewBox="0 0 256 256">
<path fill="none" stroke-width="0.015" stroke-linecap="butt" stroke-linejoin="miter" stroke="rgb(0%, 0%, 0%)" stroke-opacity="1" stroke-miterlimit="10" d="M 0.449997 0 C 0.449997 0.248535 0.248535 0.449997 0 0.449997 C -0.248535 0.449997 -0.449997 0.248535 -0.449997 0 C -0.449997 -0.248535 -0.248535 -0.449997 0 -0.449997 C 0.248535 -0.449997 0.449997 -0.248535 0.449997 0 " transform="matrix(256, 0, 0, -256, 128, 128)"/>
<path fill="none" stroke-width="0.01" stroke-linecap="butt" stroke-linejoin="miter" stroke="rgb(0%, 0%, 0%)" stroke-opacity="1" stroke-miterlimit="10" d="M 0.449997 0 L -0.364059 0.264496 " transform="matrix(256, 0, 0, -256, 128, 128)"/>
<path fill-rule="nonzero" fill="rgb(0%, 0%, 0%)" fill-opacity="1" d="M 248.320312 128 C 248.320312 121.171875 238.078125 121.171875 238.078125 128 C 238.078125 134.828125 248.320312 134.828125 248.320312 128 "/>
<path fill-rule="nonzero" fill="rgb(0%, 0%, 0%)" fill-opacity="1" d="M 39.921875 60.289062 C 39.921875 53.460938 29.679688 53.460938 29.679688 60.289062 C 29.679688 67.113281 39.921875 67.113281 39.921875 60.289062 "/>
<path fill="none" stroke-width="0.01" stroke-linecap="butt" stroke-linejoin="miter" stroke="rgb(0%, 0%, 0%)" stroke-opacity="1" stroke-miterlimit="10" d="M 0.364059 0.264496 L 0.364059 -0.264496 " transform="matrix(256, 0, 0, -256, 128, 128)"/>
<path fill-rule="nonzero" fill="rgb(0%, 0%, 0%)" fill-opacity="1" d="M 226.320312 60.289062 C 226.320312 53.460938 216.078125 53.460938 216.078125 60.289062 C 216.078125 67.113281 226.320312 67.113281 226.320312 60.289062 "/>
<path fill-rule="nonzero" fill="rgb(0%, 0%, 0%)" fill-opacity="1" d="M 226.320312 195.710938 C 226.320312 188.886719 216.078125 188.886719 216.078125 195.710938 C 216.078125 202.539062 226.320312 202.539062 226.320312 195.710938 "/>
<path fill="none" stroke-width="0.01" stroke-linecap="butt" stroke-linejoin="miter" stroke="rgb(0%, 0%, 0%)" stroke-opacity="1" stroke-miterlimit="10" d="M 0.139053 0.427979 L -0.449997 0 " transform="matrix(256, 0, 0, -256, 128, 128)"/>
<path fill-rule="nonzero" fill="rgb(0%, 0%, 0%)" fill-opacity="1" d="M 168.71875 18.4375 C 168.71875 11.613281 158.480469 11.613281 158.480469 18.4375 C 158.480469 25.265625 168.71875 25.265625 168.71875 18.4375 "/>
<path fill-rule="nonzero" fill="rgb(0%, 0%, 0%)" fill-opacity="1" d="M 17.921875 128 C 17.921875 121.171875 7.679688 121.171875 7.679688 128 C 7.679688 134.828125 17.921875 134.828125 17.921875 128 "/>
<path fill="none" stroke-width="0.01" stroke-linecap="butt" stroke-linejoin="miter" stroke="rgb(0%, 0%, 0%)" stroke-opacity="1" stroke-miterlimit="10" d="M -0.139053 0.427979 L -0.139053 -0.427979 " transform="matrix(256, 0, 0, -256, 128, 128)"/>
<path fill-rule="nonzero" fill="rgb(0%, 0%, 0%)" fill-opacity="1" d="M 97.519531 18.4375 C 97.519531 11.613281 87.28125 11.613281 87.28125 18.4375 C 87.28125 25.265625 97.519531 25.265625 97.519531 18.4375 "/>
<path fill-rule="nonzero" fill="rgb(0%, 0%, 0%)" fill-opacity="1" d="M 97.519531 237.5625 C 97.519531 230.734375 87.28125 230.734375 87.28125 237.5625 C 87.28125 244.386719 97.519531 244.386719 97.519531 237.5625 "/>
<path fill="none" stroke-width="0.01" stroke-linecap="butt" stroke-linejoin="miter" stroke="rgb(0%, 0%, 0%)" stroke-opacity="1" stroke-miterlimit="10" d="M -0.364059 -0.264496 L 0.139053 -0.427979 " transform="matrix(256, 0, 0, -256, 128, 128)"/>
<path fill-rule="nonzero" fill="rgb(0%, 0%, 0%)" fill-opacity="1" d="M 39.921875 195.710938 C 39.921875 188.886719 29.679688 188.886719 29.679688 195.710938 C 29.679688 202.539062 39.921875 202.539062 39.921875 195.710938 "/>
<path fill-rule="nonzero" fill="rgb(0%, 0%, 0%)" fill-opacity="1" d="M 168.71875 237.5625 C 168.71875 230.734375 158.480469 230.734375 158.480469 237.5625 C 158.480469 244.386719 168.71875 244.386719 168.71875 237.5625 "/>
</svg>
