<?xml version="1.0" encoding="UTF-8" standalone="no"?>
<svg
   width="256pt"
   height="256pt"
   viewBox="0 0 256 256"
   version="1.1"
   id="svg25"
   sodipodi:docname="chord_diagram_connected_sum_result_circular.svg"
   inkscape:version="1.4.2 (ebf0e940d0, 2025-05-08)"
   inkscape:export-filename="../chord_diagram_connected_sum_result_circular.pdf"
   inkscape:export-xdpi="96"
   inkscape:export-ydpi="96"
   xmlns:inkscape="http://www.inkscape.org/namespaces/inkscape"
   xmlns:sodipodi="http://sodipodi.sourceforge.net/DTD/sodipodi-0.dtd"
   xmlns="http://www.w3.org/2000/svg"
   xmlns:svg="http://www.w3.org/2000/svg">
  <defs
     id="defs25" />
  <sodipodi:namedview
     id="namedview25"
     pagecolor="#ffffff"
     bordercolor="#000000"
     borderopacity="0.25"
     inkscape:showpageshadow="2"
     inkscape:pageopacity="0.0"
     inkscape:pagecheckerboard="0"
     inkscape:deskcolor="#d1d1d1"
     inkscape:document-units="pt"
     inkscape:zoom="2.7275391"
     inkscape:cx="170.66667"
     inkscape:cy="170.66667"
     inkscape:window-width="2556"
     inkscape:window-height="1394"
     inkscape:window-x="0"
     inkscape:window-y="0"
     inkscape:window-maximized="0"
     inkscape:current-layer="svg25" />
  <g
     id="g25"
     transform="rotate(-11.25,128,128)">
    <path
       fill="none"
       stroke-width="0.015"
       stroke-linecap="butt"
       stroke-linejoin="miter"
       stroke="#000000"
       stroke-opacity="1"
       stroke-miterlimit="10"
       d="M 0.449997,0 C 0.449997,0.248535 0.248535,0.449997 0,0.449997 -0.248535,0.449997 -0.449997,0.248535 -0.449997,0 c 0,-0.248535 0.201462,-0.449997 0.449997,-0.449997 0.248535,0 0.449997,0.201462 0.449997,0.449997"
       transform="matrix(256,0,0,-256,128,128)"
       id="path1" />
    <path
       fill="none"
       stroke-width="0.01"
       stroke-linecap="butt"
       stroke-linejoin="miter"
       stroke="#000000"
       stroke-opacity="1"
       stroke-miterlimit="10"
       d="M 0.449997,0 0.318192,-0.318192"
       transform="matrix(256,0,0,-256,128,128)"
       id="path2" />
    <path
       fill-rule="nonzero"
       fill="#000000"
       fill-opacity="1"
       d="m 248.32031,128 c 0,-6.82812 -10.24219,-6.82812 -10.24219,0 0,6.82812 10.24219,6.82812 10.24219,0"
       id="path3" />
    <path
       fill-rule="nonzero"
       fill="#000000"
       fill-opacity="1"
       d="m 214.57812,209.45703 c 0,-6.82422 -10.23828,-6.82422 -10.23828,0 0,6.82813 10.23828,6.82813 10.23828,0"
       id="path4" />
    <path
       fill="none"
       stroke-width="0.01"
       stroke-linecap="butt"
       stroke-linejoin="miter"
       stroke="#000000"
       stroke-opacity="1"
       stroke-miterlimit="10"
       d="M 0.415741,0.172211 0.172211,-0.415741"
       transform="matrix(256,0,0,-256,128,128)"
       id="path5" />
    <path
       fill-rule="nonzero"
       fill="#000000"
       fill-opacity="1"
       d="m 239.55078,83.914062 c 0,-6.824218 -10.23828,-6.824218 -10.23828,0 0,6.828126 10.23828,6.828126 10.23828,0"
       id="path6" />
    <path
       fill-rule="nonzero"
       fill="#000000"
       fill-opacity="1"
       d="m 177.20703,234.42969 c 0,-6.82422 -10.24219,-6.82422 -10.24219,0 0,6.82812 10.24219,6.82812 10.24219,0"
       id="path7" />
    <path
       fill="none"
       stroke-width="0.01"
       stroke-linecap="butt"
       stroke-linejoin="miter"
       stroke="#000000"
       stroke-opacity="1"
       stroke-miterlimit="10"
       d="M 0.318192,0.318192 0.415741,-0.172211"
       transform="matrix(256,0,0,-256,128,128)"
       id="path8" />
    <path
       fill-rule="nonzero"
       fill="#000000"
       fill-opacity="1"
       d="m 214.57812,46.542969 c 0,-6.828125 -10.23828,-6.828125 -10.23828,0 0,6.824219 10.23828,6.824219 10.23828,0"
       id="path9" />
    <path
       fill-rule="nonzero"
       fill="#000000"
       fill-opacity="1"
       d="m 239.55078,172.08594 c 0,-6.82813 -10.23828,-6.82813 -10.23828,0 0,6.82422 10.23828,6.82422 10.23828,0"
       id="path10" />
    <path
       fill="none"
       stroke-width="0.01"
       stroke-linecap="butt"
       stroke-linejoin="miter"
       stroke="#000000"
       stroke-opacity="1"
       stroke-miterlimit="10"
       d="M 0.172211,0.415741 -0.415741,0.172211"
       transform="matrix(256,0,0,-256,128,128)"
       id="path11" />
    <path
       fill-rule="nonzero"
       fill="#000000"
       fill-opacity="1"
       d="m 177.20703,21.570312 c 0,-6.828124 -10.24219,-6.828124 -10.24219,0 0,6.824219 10.24219,6.824219 10.24219,0"
       id="path12" />
    <path
       fill-rule="nonzero"
       fill="#000000"
       fill-opacity="1"
       d="m 26.6875,83.914062 c 0,-6.824218 -10.238281,-6.824218 -10.238281,0 0,6.828126 10.238281,6.828126 10.238281,0"
       id="path13" />
    <path
       fill="none"
       stroke-width="0.01"
       stroke-linecap="butt"
       stroke-linejoin="miter"
       stroke="#000000"
       stroke-opacity="1"
       stroke-miterlimit="10"
       d="M 0,0.449997 V -0.449997"
       transform="matrix(256,0,0,-256,128,128)"
       id="path14" />
    <path
       fill-rule="nonzero"
       fill="#000000"
       fill-opacity="1"
       d="m 133.12109,12.800781 c 0,-6.828125 -10.24218,-6.828125 -10.24218,0 0,6.824219 10.24218,6.824219 10.24218,0"
       id="path15" />
    <path
       fill-rule="nonzero"
       fill="#000000"
       fill-opacity="1"
       d="m 133.12109,243.19922 c 0,-6.82422 -10.24218,-6.82422 -10.24218,0 0,6.82812 10.24218,6.82812 10.24218,0"
       id="path16" />
    <path
       fill="none"
       stroke-width="0.01"
       stroke-linecap="butt"
       stroke-linejoin="miter"
       stroke="#000000"
       stroke-opacity="1"
       stroke-miterlimit="10"
       d="M -0.172211,0.415741 -0.449997,0"
       transform="matrix(256,0,0,-256,128,128)"
       id="path17" />
    <path
       fill-rule="nonzero"
       fill="#000000"
       fill-opacity="1"
       d="m 89.035156,21.570312 c 0,-6.828124 -10.242187,-6.828124 -10.242187,0 0,6.824219 10.242187,6.824219 10.242187,0"
       id="path18" />
    <path
       fill-rule="nonzero"
       fill="#000000"
       fill-opacity="1"
       d="m 17.921875,128 c 0,-6.82812 -10.242187,-6.82812 -10.242187,0 0,6.82812 10.242187,6.82812 10.242187,0"
       id="path19" />
    <path
       fill="none"
       stroke-width="0.01"
       stroke-linecap="butt"
       stroke-linejoin="miter"
       stroke="#000000"
       stroke-opacity="1"
       stroke-miterlimit="10"
       d="M -0.318192,0.318192 V -0.318192"
       transform="matrix(256,0,0,-256,128,128)"
       id="path20" />
    <path
       fill-rule="nonzero"
       fill="#000000"
       fill-opacity="1"
       d="m 51.660156,46.542969 c 0,-6.828125 -10.238281,-6.828125 -10.238281,0 0,6.824219 10.238281,6.824219 10.238281,0"
       id="path21" />
    <path
       fill-rule="nonzero"
       fill="#000000"
       fill-opacity="1"
       d="m 51.660156,209.45703 c 0,-6.82422 -10.238281,-6.82422 -10.238281,0 0,6.82813 10.238281,6.82813 10.238281,0"
       id="path22" />
    <path
       fill="none"
       stroke-width="0.01"
       stroke-linecap="butt"
       stroke-linejoin="miter"
       stroke="#000000"
       stroke-opacity="1"
       stroke-miterlimit="10"
       d="m -0.415741,-0.172211 0.24353,-0.24353"
       transform="matrix(256,0,0,-256,128,128)"
       id="path23" />
    <path
       fill-rule="nonzero"
       fill="#000000"
       fill-opacity="1"
       d="m 26.6875,172.08594 c 0,-6.82813 -10.238281,-6.82813 -10.238281,0 0,6.82422 10.238281,6.82422 10.238281,0"
       id="path24" />
    <path
       fill-rule="nonzero"
       fill="#000000"
       fill-opacity="1"
       d="m 89.035156,234.42969 c 0,-6.82422 -10.242187,-6.82422 -10.242187,0 0,6.82812 10.242187,6.82812 10.242187,0"
       id="path25" />
  </g>
</svg>
