<?xml version="1.0" encoding="UTF-8" standalone="no"?>
<svg
   width="553.07098pt"
   height="256.10001pt"
   viewBox="0 0 553.07098 256.10001"
   version="1.1"
   id="svg10"
   sodipodi:docname="chord_diagram_connected_sum_result_rotated.svg"
   inkscape:version="1.4.2 (ebf0e940d0, 2025-05-08)"
   inkscape:export-filename="/home/damian/Projects/mphil-thesis/graphics/chord_diagram_connected_sum_result_rotated.pdf"
   inkscape:export-xdpi="96"
   inkscape:export-ydpi="96"
   xmlns:inkscape="http://www.inkscape.org/namespaces/inkscape"
   xmlns:sodipodi="http://sodipodi.sourceforge.net/DTD/sodipodi-0.dtd"
   xmlns="http://www.w3.org/2000/svg"
   xmlns:svg="http://www.w3.org/2000/svg">
  <defs
     id="defs10">
    <marker
       style="overflow:visible"
       id="ConcaveTriangle"
       refX="0"
       refY="0"
       orient="auto-start-reverse"
       inkscape:stockid="Concave triangle arrow"
       markerWidth="1"
       markerHeight="1"
       viewBox="0 0 1 1"
       inkscape:isstock="true"
       inkscape:collect="always"
       preserveAspectRatio="xMidYMid">
      <path
         transform="scale(0.7)"
         d="M -2,-4 9,0 -2,4 c 2,-2.33 2,-5.66 0,-8 z"
         style="fill:context-stroke;fill-rule:evenodd;stroke:none"
         id="path7" />
    </marker>
  </defs>
  <sodipodi:namedview
     id="namedview10"
     pagecolor="#ffffff"
     bordercolor="#000000"
     borderopacity="0.25"
     inkscape:showpageshadow="2"
     inkscape:pageopacity="0.0"
     inkscape:pagecheckerboard="0"
     inkscape:deskcolor="#d1d1d1"
     inkscape:document-units="pt"
     inkscape:zoom="1.3637696"
     inkscape:cx="391.92837"
     inkscape:cy="254.07518"
     inkscape:window-width="2556"
     inkscape:window-height="1394"
     inkscape:window-x="0"
     inkscape:window-y="0"
     inkscape:window-maximized="0"
     inkscape:current-layer="svg10"
     showguides="true">
    <sodipodi:guide
       position="347.89296,78.564165"
       orientation="0,-1"
       id="guide1"
       inkscape:locked="false" />
    <sodipodi:guide
       position="128.61119,193.65314"
       orientation="1,0"
       id="guide3"
       inkscape:locked="false" />
    <sodipodi:guide
       position="254.09612,78.564165"
       orientation="1,0"
       id="guide4"
       inkscape:locked="false" />
    <sodipodi:guide
       position="278.38664,116.94197"
       orientation="1,0"
       id="guide2"
       inkscape:locked="false" />
  </sodipodi:namedview>
  <rect
     style="display:none;fill:none;fill-opacity:1;stroke:#000000;stroke-width:0.103493;stroke-dasharray:none"
     id="rect18"
     width="574.69611"
     height="290.18851"
     x="-22.212063"
     y="-16.446657"
     ry="0"
     inkscape:label="boundary"
     sodipodi:insensitive="true" />
  <g
     id="g1"
     transform="translate(-11.399502,0.59761067)"
     style="display:inline">
    <path
       fill="none"
       stroke-width="3.84"
       stroke-linecap="butt"
       stroke-linejoin="miter"
       stroke="#000000"
       stroke-opacity="1"
       stroke-miterlimit="10"
       d="M 249.57309,91.853874 C 229.9119,31.342937 164.92452,-1.7697851 104.41359,17.89141 43.902663,37.552604 10.789933,102.53998 30.451133,163.05091 c 19.66119,60.51093 84.648567,93.62365 145.159497,73.96246 15.12773,-4.9153 28.54308,-12.66348 39.84954,-22.46639 11.30646,-9.8029 20.50404,-21.66053 27.19624,-34.79471 1.67305,-3.28355 3.18951,-6.64687 4.54319,-10.07783 0.67684,-1.71548 1.31299,-3.44786 1.90766,-5.19563 0.29734,-0.87389 0.58431,-1.75162 0.86082,-2.63301"
       id="path1-1"
       sodipodi:nodetypes="csssssssc" />
    <path
       fill="none"
       stroke-width="2.56"
       stroke-linecap="butt"
       stroke-linejoin="miter"
       stroke="#000000"
       stroke-opacity="1"
       stroke-miterlimit="10"
       d="m 249.57309,91.853874 -219.122437,0.002"
       id="path2-8" />
    <path
       fill-rule="nonzero"
       fill="#000000"
       fill-opacity="1"
       d="m 254.44352,90.271374 c -2.11,-6.49393 -11.8509,-3.32892 -9.7409,3.16501 2.11001,6.49393 11.85091,3.32891 9.7409,-3.16501"
       id="path3-7" />
    <path
       fill-rule="nonzero"
       fill="#000000"
       fill-opacity="1"
       d="m 35.321003,90.273094 c -2.11,-6.49393 -11.8509,-3.32892 -9.74089,3.16501 2.1088,6.49023 11.84969,3.32521 9.74089,-3.16501"
       id="path4-9" />
    <path
       fill="none"
       stroke-width="2.56"
       stroke-linecap="butt"
       stroke-linejoin="miter"
       stroke="#000000"
       stroke-opacity="1"
       stroke-miterlimit="10"
       d="M 207.72588,34.255318 249.57357,163.04925"
       id="path5-2" />
    <path
       fill-rule="nonzero"
       fill="#000000"
       fill-opacity="1"
       d="m 212.59645,32.672815 c -2.11001,-6.493932 -11.85091,-3.328921 -9.7409,3.165011 2.1088,6.490218 11.8497,3.325207 9.7409,-3.165011"
       id="path6-0" />
    <path
       fill-rule="nonzero"
       fill="#000000"
       fill-opacity="1"
       d="m 254.44411,161.46667 c -2.1088,-6.49022 -11.8497,-3.3252 -9.7409,3.16501 2.11,6.49393 11.85091,3.32892 9.7409,-3.16501"
       id="path7-2" />
    <path
       fill="none"
       stroke-width="2.56"
       stroke-linecap="butt"
       stroke-linejoin="miter"
       stroke="#000000"
       stroke-opacity="1"
       stroke-miterlimit="10"
       d="M 140.0107,12.251889 30.451133,163.05091"
       id="path8-3" />
    <path
       fill-rule="nonzero"
       fill="#000000"
       fill-opacity="1"
       d="m 144.88127,10.669475 c -2.1088,-6.4902181 -11.84598,-3.3264161 -9.73718,3.163803 2.11,6.493932 11.84718,3.33013 9.73718,-3.163803"
       id="path9-7" />
    <path
       fill-rule="nonzero"
       fill="#000000"
       fill-opacity="1"
       d="m 35.321593,161.4684 c -2.11,-6.49393 -11.8509,-3.32892 -9.7409,3.16501 2.11001,6.49393 11.85091,3.32892 9.7409,-3.16501"
       id="path10-5" />
    <path
       fill="none"
       stroke-width="2.56"
       stroke-linecap="butt"
       stroke-linejoin="miter"
       stroke="#000000"
       stroke-opacity="1"
       stroke-miterlimit="10"
       d="M 72.300103,34.252396 140.01352,242.65289"
       id="path11" />
    <path
       fill-rule="nonzero"
       fill="#000000"
       fill-opacity="1"
       d="m 77.166793,32.671244 c -2.1088,-6.490218 -11.84599,-3.326415 -9.73719,3.163803 2.11001,6.493932 11.84719,3.330129 9.73719,-3.163803"
       id="path12" />
    <path
       fill-rule="nonzero"
       fill="#000000"
       fill-opacity="1"
       d="m 144.88014,241.0715 c -2.11001,-6.49394 -11.8472,-3.33013 -9.73719,3.1638 2.1088,6.49022 11.84599,3.32642 9.73719,-3.1638"
       id="path13" />
    <path
       fill="none"
       stroke-width="2.56"
       stroke-linecap="butt"
       stroke-linejoin="miter"
       stroke="#000000"
       stroke-opacity="1"
       stroke-miterlimit="10"
       d="m 72.298343,220.64946 135.425777,0.003"
       id="path14" />
    <path
       fill-rule="nonzero"
       fill="#000000"
       fill-opacity="1"
       d="m 77.168673,219.06696 c -2.1088,-6.49022 -11.8497,-3.32521 -9.7409,3.16501 2.11,6.49393 11.8509,3.32892 9.7409,-3.16501"
       id="path15" />
    <path
       fill-rule="nonzero"
       fill="#000000"
       fill-opacity="1"
       d="m 212.59462,219.06973 c -2.11001,-6.49393 -11.84719,-3.33013 -9.73719,3.16381 2.1088,6.49021 11.84599,3.32641 9.73719,-3.16381"
       id="path16" />
    <path
       style="fill:none;fill-opacity:1;stroke:#000000;stroke-width:3.84;stroke-dasharray:none"
       d="m 249.57309,91.853874 c 2.91653,12.735506 29.64485,18.811716 47.33221,14.579846 22.63317,-5.4152 32.50652,-22.727426 39.21454,-36.580945"
       id="path17"
       sodipodi:nodetypes="csc" />
    <path
       style="fill:none;fill-opacity:1;stroke:#000000;stroke-width:3.84;stroke-dasharray:none"
       d="m 249.57357,163.04925 c 2.91653,-12.73551 29.64485,-18.81172 47.33221,-14.57985 22.63317,5.4152 32.50651,22.72743 39.21454,36.58095"
       id="path18"
       sodipodi:nodetypes="csc" />
    <path
       fill="none"
       stroke-width="3.84"
       stroke-linecap="butt"
       stroke-linejoin="miter"
       stroke="#000000"
       stroke-opacity="1"
       stroke-miterlimit="10"
       d="m 435.8853,242.65163 c 63.62496,0 115.19923,-51.57427 115.19923,-115.19923 0,-63.624959 -51.57427,-115.199231 -115.19923,-115.199231 -15.90624,0 -31.05931,3.223392 -44.84166,9.05262 -13.78235,5.829228 -26.19397,14.264292 -36.61732,24.687636 -5.21167,5.211672 -9.92628,10.920404 -14.06661,17.049031 -0.51754,0.766077 -1.02611,1.538715 -1.52555,2.317763 -0.49945,0.779047 -0.98977,1.564505 -1.47082,2.356221 -0.48105,0.791716 -0.95282,1.589692 -1.41517,2.393775 m 1.41517,117.078145 c 0.9621,1.58343 1.96129,3.14183 2.99637,4.67398 4.14034,6.12862 8.85494,11.83736 14.06661,17.04903 20.84669,20.84669 49.6465,33.74026 81.45898,33.74026"
       id="path1-6"
       sodipodi:nodetypes="csssssssccssc" />
    <path
       fill="none"
       stroke-width="2.56"
       stroke-linecap="butt"
       stroke-linejoin="miter"
       stroke="#000000"
       stroke-opacity="1"
       stroke-miterlimit="10"
       d="M 435.8853,242.65163 V 12.253169"
       id="path2-7" />
    <path
       fill-rule="nonzero"
       fill="#000000"
       fill-opacity="1"
       d="m 435.8853,247.77271 c 6.82812,0 6.82812,-10.24219 0,-10.24219 -6.82812,0 -6.82812,10.24219 0,10.24219"
       id="path3-5" />
    <path
       fill-rule="nonzero"
       fill="#000000"
       fill-opacity="1"
       d="m 435.8853,17.374276 c 6.82812,0 6.82812,-10.2421871 0,-10.2421871 -6.82812,0 -6.82812,10.2421871 0,10.2421871"
       id="path4-3" />
    <path
       fill="none"
       stroke-width="2.56"
       stroke-linecap="butt"
       stroke-linejoin="miter"
       stroke="#000000"
       stroke-opacity="1"
       stroke-miterlimit="10"
       d="M 535.6508,185.05394 H 336.1198"
       id="path5-5" />
    <path
       fill-rule="nonzero"
       fill="#000000"
       fill-opacity="1"
       d="m 535.65092,190.17115 c 6.82813,0 6.82813,-10.23828 0,-10.23828 -6.82421,0 -6.82421,10.23828 0,10.23828"
       id="path6-6" />
    <path
       fill-rule="nonzero"
       fill="#000000"
       fill-opacity="1"
       d="m 336.11968,190.17115 c 6.82421,0 6.82421,-10.23828 0,-10.23828 -6.82813,0 -6.82813,10.23828 0,10.23828"
       id="path7-29" />
    <path
       fill="none"
       stroke-width="2.56"
       stroke-linecap="butt"
       stroke-linejoin="miter"
       stroke="#000000"
       stroke-opacity="1"
       stroke-miterlimit="10"
       d="M 535.6508,69.850865 H 336.1198"
       id="path8-1" />
    <path
       fill-rule="nonzero"
       fill="#000000"
       fill-opacity="1"
       d="m 535.65092,74.971932 c 6.82813,0 6.82813,-10.238281 0,-10.238281 -6.82421,0 -6.82421,10.238281 0,10.238281"
       id="path9-2" />
    <path
       fill-rule="nonzero"
       fill="#000000"
       fill-opacity="1"
       d="m 336.11968,74.971932 c 6.82421,0 6.82421,-10.238281 0,-10.238281 -6.82813,0 -6.82813,10.238281 0,10.238281"
       id="path10-7" />
  </g>
  <path
     id="path3"
     style="display:none;fill:none;stroke:#b3b3b3;stroke-width:1.5;marker-end:url(#ConcaveTriangle)"
     d="m 317.85271,188.26205 c -6.22194,2.43044 -11.86056,-2.52766 -14.87431,-5.83306 -3.01375,-3.3054 -7.19411,-9.04125 -13.51326,-12.6383 -5.10439,-2.90557 -12.73551,-4.86089 -22.06841,-3.59705 -8.99173,1.21764 -10.54169,7.47943 -13.30278,14.10727 -24.92036,59.81984 -88.78121,93.5646 -152.312,80.78661 C 38.251178,248.30953 -7.4519839,192.49902 -7.4522299,127.69595 -7.4524749,62.892871 38.250264,7.0820106 101.78094,-5.6964589 165.31164,-18.474929 229.03865,15.325401 254.09356,75.089011 c 10.56963,20.7433 34.84862,0.60838 45.49105,11.01309"
     sodipodi:nodetypes="cssssssscc" />
  <rect
     style="display:none;fill:none;fill-opacity:1;stroke:#000000;stroke-width:0.1;stroke-dasharray:none"
     id="rect18-2"
     width="552.97101"
     height="256"
     x="0.050000001"
     y="0.050000001"
     ry="0"
     inkscape:label="boundary" />
</svg>
