<?xml version="1.0" encoding="UTF-8" standalone="no"?>
<!-- Created with Inkscape (http://www.inkscape.org/) -->

<svg
   width="243.00064mm"
   height="104.51848mm"
   viewBox="0 0 243.00064 104.51848"
   version="1.1"
   id="svg1"
   inkscape:version="1.4.2 (ebf0e940d0, 2025-05-08)"
   sodipodi:docname="connected_sum_example_before.svg"
   inkscape:export-filename="../connected_sum_example_before.pdf"
   inkscape:export-xdpi="96"
   inkscape:export-ydpi="96"
   xmlns:inkscape="http://www.inkscape.org/namespaces/inkscape"
   xmlns:sodipodi="http://sodipodi.sourceforge.net/DTD/sodipodi-0.dtd"
   xmlns="http://www.w3.org/2000/svg"
   xmlns:svg="http://www.w3.org/2000/svg">
  <sodipodi:namedview
     id="namedview1"
     pagecolor="#ffffff"
     bordercolor="#000000"
     borderopacity="0.25"
     inkscape:showpageshadow="2"
     inkscape:pageopacity="0.0"
     inkscape:pagecheckerboard="0"
     inkscape:deskcolor="#d1d1d1"
     inkscape:document-units="mm"
     inkscape:zoom="2.9470733"
     inkscape:cx="526.62416"
     inkscape:cy="155.23876"
     inkscape:window-width="1916"
     inkscape:window-height="1034"
     inkscape:window-x="0"
     inkscape:window-y="0"
     inkscape:window-maximized="0"
     inkscape:current-layer="layer1" />
  <defs
     id="defs1">
    <inkscape:path-effect
       effect="knot"
       id="path-effect11"
       is_visible="true"
       lpeversion="1"
       switcher_size="15"
       interruption_width="3"
       prop_to_stroke_width="true"
       add_stroke_width="inkscape_1.0_and_up"
       both="false"
       inverse_width="false"
       add_other_stroke_width="inkscape_1.0_and_up"
       crossing_points_vector="84.792825 | 246.1885 | 0 | 0 | 0 | 3 | 3.0772964 | 5.8566079 | -1 | 120.97507 | 237.47441 | 0 | 0 | 1 | 14 | 3.6053068 | 16.899405 | 1 | 131.13554 | 252.76299 | 0 | 0 | 2 | 13 | 4.4672829 | 16.301923 | 1 | 86.621936 | 213.86468 | 0 | 0 | 4 | 9 | 6.6955013 | 11.279427 | -1 | 87.388621 | 200.97617 | 0 | 0 | 5 | 10 | 6.9942621 | 12.658389 | -1 | 101.54085 | 168.15628 | 0 | 0 | 6 | 17 | 7.8331807 | 18.33806 | -1 | 148.9519 | 200.15387 | 0 | 0 | 7 | 12 | 9.1490625 | 14.217689 | 1 | 120.7052 | 222.29851 | 0 | 0 | 8 | 15 | 9.9529358 | 17.212815 | 1 | 119.99313 | 195.33707 | 0 | 0 | 11 | 16 | 13.375947 | 17.673948 | 1" />
    <inkscape:path-effect
       effect="knot"
       id="path-effect10"
       is_visible="true"
       lpeversion="1"
       switcher_size="15"
       interruption_width="3"
       prop_to_stroke_width="true"
       add_stroke_width="inkscape_1.0_and_up"
       both="false"
       inverse_width="false"
       add_other_stroke_width="inkscape_1.0_and_up"
       crossing_points_vector="43.206537 | 189.38335 | 0 | 0 | 1 | 4 | 1.9550001 | 7.6621444 | -1 | 14.413563 | 169.70656 | 0 | 0 | 0 | 9 | 1.0101925 | 13.134268 | 1 | 71.947924 | 211.80121 | 0 | 0 | 2 | 7 | 2.9881108 | 11.09141 | -1 | 75.048583 | 177.99866 | 0 | 0 | 3 | 8 | 7.0300568 | 11.546989 | -1 | 23.47175 | 202.86524 | 0 | 0 | 5 | 10 | 8.3298137 | 13.614916 | 1 | 7.6128182 | 224.54536 | 0 | 0 | 6 | 11 | 9.3578284 | 14.4946 | 1" />
    <inkscape:path-effect
       effect="knot"
       id="path-effect4"
       is_visible="true"
       lpeversion="1"
       switcher_size="15"
       interruption_width="3"
       prop_to_stroke_width="true"
       add_stroke_width="inkscape_1.0_and_up"
       both="false"
       inverse_width="false"
       add_other_stroke_width="inkscape_1.0_and_up"
       crossing_points_vector="" />
    <inkscape:path-effect
       effect="knot"
       id="path-effect1"
       is_visible="true"
       lpeversion="1"
       switcher_size="15"
       interruption_width="3"
       prop_to_stroke_width="true"
       add_stroke_width="inkscape_1.0_and_up"
       both="false"
       inverse_width="false"
       add_other_stroke_width="inkscape_1.0_and_up"
       crossing_points_vector="" />
    <inkscape:path-effect
       effect="knot"
       id="path-effect5"
       is_visible="true"
       lpeversion="1"
       switcher_size="15"
       interruption_width="3"
       prop_to_stroke_width="true"
       add_stroke_width="inkscape_1.0_and_up"
       both="false"
       inverse_width="false"
       add_other_stroke_width="inkscape_1.0_and_up"
       crossing_points_vector="48.989694 | 207.97655 | 0 | 0 | 0 | 19 | 7.2857023e-16 | 22 | 0 | 84.792825 | 246.1885 | 0 | 0 | 1 | 4 | 3.0772964 | 5.8566079 | -1 | 120.97507 | 237.47441 | 0 | 0 | 2 | 15 | 3.6053068 | 16.899405 | 1 | 131.13554 | 252.76299 | 0 | 0 | 3 | 14 | 4.4672829 | 16.301923 | 1 | 86.621936 | 213.86468 | 0 | 0 | 5 | 10 | 6.6955013 | 11.279427 | -1 | 87.388621 | 200.97617 | 0 | 0 | 6 | 11 | 6.9942621 | 12.658389 | -1 | 101.54085 | 168.15628 | 0 | 0 | 7 | 18 | 7.8331807 | 18.33806 | -1 | 148.9519 | 200.15387 | 0 | 0 | 8 | 13 | 9.1490625 | 14.217689 | 1 | 120.7052 | 222.29851 | 0 | 0 | 9 | 16 | 9.9529358 | 17.212815 | 1 | 119.99313 | 195.33707 | 0 | 0 | 12 | 17 | 13.375947 | 17.673948 | 1" />
    <inkscape:path-effect
       effect="knot"
       id="path-effect8"
       is_visible="true"
       lpeversion="1"
       switcher_size="15"
       interruption_width="3"
       prop_to_stroke_width="true"
       add_stroke_width="inkscape_1.0_and_up"
       both="false"
       inverse_width="false"
       add_other_stroke_width="inkscape_1.0_and_up"
       crossing_points_vector="84.792825 | 246.1885 | 0 | 0 | 0 | 3 | 1.0772964 | 3.8566079 | -1 | 120.97507 | 237.47441 | 0 | 0 | 1 | 14 | 1.6053068 | 14.899405 | 1 | 131.13554 | 252.76299 | 0 | 0 | 2 | 13 | 2.4672829 | 14.301923 | 1 | 86.621936 | 213.86468 | 0 | 0 | 4 | 9 | 4.6955013 | 9.2794271 | -1 | 87.388621 | 200.97617 | 0 | 0 | 5 | 10 | 4.9942621 | 10.658389 | -1 | 101.54085 | 168.15628 | 0 | 0 | 6 | 17 | 5.8331807 | 16.33806 | -1 | 148.9519 | 200.15387 | 0 | 0 | 7 | 12 | 7.1490625 | 12.217689 | 1 | 120.7052 | 222.29851 | 0 | 0 | 8 | 15 | 7.9529358 | 15.212815 | 1 | 119.99313 | 195.33707 | 0 | 0 | 11 | 16 | 11.375947 | 15.673948 | 1" />
  </defs>
  <g
     inkscape:label="Layer 1"
     inkscape:groupmode="layer"
     id="layer1"
     transform="translate(17.145212,-143.40436)">
    <path
       style="display:none;fill:none;stroke:#ff0000;stroke-width:4.5;stroke-dasharray:none"
       d="m -9.2540636,182.23536 c 6.5056214,-8.17774 16.7701165,-11.92543 23.1054966,-12.48443 18.488835,-1.63136 26.645848,14.5341 29.813538,20.49682 3.167687,5.96271 11.994425,20.0419 28.881872,21.61483 3.913213,0.36448 9.807046,-0.0668 14.85018,-2.12044 5.043133,-2.05365 9.235569,-5.72967 9.745988,-11.85466 0.46584,-5.59004 -3.040041,-10.09123 -7.471542,-13.38996 -4.431502,-3.29872 -9.788624,-5.39499 -13.025266,-6.17519 -17.675192,-4.26065 -36.894249,14.16143 -44.906635,19.75147 -8.012389,5.59004 -17.701799,8.0124 -23.2918432,15.46579 -5.5900405,7.45339 3.9824802,25.70317 14.3477812,29.81355 10.807407,4.2857 40.620943,-0.559 47.32899,-24.40984 7.299114,-25.95246 7.639714,-53.47807 -3.913027,-63.91281 -11.552744,-10.43475 -41.925284,-11.36642 -50.124016,6.70805 -8.198732,18.07447 16.583793,50.49671 10.248411,60.74512 -6.335381,10.24841 -32.2133094,-2.78621 -36.1489333,-6.52172 -10.9937467,-10.43474 -6.3911697,-24.99004 0.5590057,-33.72658 z"
       id="path3"
       sodipodi:nodetypes="sssssssssssssssss"
       inkscape:label="knot_6_3_thick" />
    <path
       style="display:none;fill:none;stroke:#ff0000;stroke-width:4.5;stroke-dasharray:none"
       d="m 48.989694,207.97655 c -0.165952,7.92118 1.093205,14.2255 3.221758,19.23721 2.128554,5.01171 5.126504,8.7308 8.438138,11.48152 6.623267,5.50145 14.501269,7.12943 19.188303,7.47791 20.590977,1.53093 52.202497,-17.13572 57.103597,-7.65464 4.07264,7.87843 -14.27537,24.13865 -23.95902,26.33196 -8.27559,1.87439 -28.474045,-1.9708 -29.853093,-28.85799 -0.565715,-11.02969 4.917049,-18.36642 4.248338,-35.30702 -0.876154,-22.19582 9.147286,-30.59942 19.098315,-35.1922 19.90207,-9.18557 43.09562,1.68401 43.40181,25.18376 0.30619,23.49974 -16.24386,31.06763 -31.30748,31.76675 -9.07075,0.42098 -13.35847,-1.87799 -23.156961,-5.58221 -9.70083,-3.6673 -23.998439,-7.06113 -23.765977,-9.57398 0.36829,-3.98111 15.24251,-6.30545 31.132038,-9.08449 15.88953,-2.77904 30.80417,-5.78314 39.21409,-2.16783 11.20092,4.81512 20.4379,16.61057 20.20826,33.60387 -0.20689,15.3096 -13.46648,24.27174 -23.34665,24.80103 -8.5732,0.45927 -17.9884,-6.81264 -18.21804,-21.05026 -0.24947,-15.46717 1.99385,-41.72332 -4.82243,-52.89356 -11.07007,-18.14118 -33.374222,-17.43222 -46.080924,-8.34355 -5.64608,4.03845 -10.756808,9.40064 -14.49366,15.55008 -1.868427,3.07473 -3.393384,6.34626 -4.470058,9.74756 -1.076674,3.40129 -1.705064,6.93234 -1.780354,10.52608 z"
       id="path4"
       sodipodi:nodetypes="sssssssssssssssssssssss"
       inkscape:label="knot_9_33_thick"
       transform="translate(62.89944,-18.08784)" />
    <path
       style="display:none;fill:none;stroke:#000000;stroke-width:1.5;stroke-dasharray:none"
       d="m 48.989694,207.97655 c -0.165952,7.92118 1.093205,14.2255 3.221758,19.23721 2.128554,5.01171 5.126504,8.7308 8.438138,11.48152 6.623267,5.50145 14.501269,7.12943 19.188303,7.47791 20.590977,1.53093 52.202497,-17.13572 57.103597,-7.65464 4.07264,7.87843 -14.27537,24.13865 -23.95902,26.33196 -8.27559,1.87439 -28.474045,-1.9708 -29.853093,-28.85799 -0.565715,-11.02969 4.917049,-18.36642 4.248338,-35.30702 -0.876154,-22.19582 9.147286,-30.59942 19.098315,-35.1922 19.90207,-9.18557 43.09562,1.68401 43.40181,25.18376 0.30619,23.49974 -16.24386,31.06763 -31.30748,31.76675 -9.07075,0.42098 -13.35847,-1.87799 -23.156961,-5.58221 -9.70083,-3.6673 -23.998439,-7.06113 -23.765977,-9.57398 0.36829,-3.98111 15.24251,-6.30545 31.132038,-9.08449 15.88953,-2.77904 30.80417,-5.78314 39.21409,-2.16783 11.20092,4.81512 20.4379,16.61057 20.20826,33.60387 -0.20689,15.3096 -13.46648,24.27174 -23.34665,24.80103 -8.5732,0.45927 -17.9884,-6.81264 -18.21804,-21.05026 -0.24947,-15.46717 1.99385,-41.72332 -4.82243,-52.89356 -11.07007,-18.14118 -33.374222,-17.43222 -46.080924,-8.34355 -5.64608,4.03845 -10.756808,9.40064 -14.49366,15.55008 -1.868427,3.07473 -3.393384,6.34626 -4.470058,9.74756 -1.076674,3.40129 -1.705064,6.93234 -1.780354,10.52608 z"
       id="path6"
       sodipodi:nodetypes="sssssssssssssssssssssss"
       inkscape:label="knot_9_33"
       transform="translate(62.89944,-18.087841)" />
    <path
       style="display:none;fill:none;stroke:#000000;stroke-width:1.5;stroke-dasharray:none"
       d="m 5.0248761,223.6761 c -6.8674958,-2.47769 -13.0690428,-6.0352 -14.8379454,-7.71416 -10.9937467,-10.43474 -6.3911697,-24.99004 0.5590057,-33.72658 6.5056214,-8.17774 16.7701165,-11.92543 23.1054966,-12.48443 18.488835,-1.63136 26.645848,14.5341 29.813538,20.49682 2.985668,5.62009 10.998719,18.45068 26.050139,21.22372 m 4.503889,0.49275 c 3.804597,0.11821 8.81035,-0.4435 13.178024,-2.22208 5.043133,-2.05365 9.235569,-5.72967 9.745988,-11.85466 0.46584,-5.59004 -3.040041,-10.09123 -7.471542,-13.38996 -4.431502,-3.29872 -9.788624,-5.39499 -13.025266,-6.17519 -10.947209,-2.63885 -22.486644,3.42339 -31.588978,9.74897 m -3.683353,2.65801 c -3.962503,2.95514 -7.281548,5.70303 -9.634304,7.34449 -2.010838,1.40291 -4.127302,2.60631 -6.258085,3.73979 m -4.02347,2.09251 c -4.973539,2.58223 -9.707449,5.22971 -13.0102882,9.63349 -5.5900405,7.45339 3.9824802,25.70317 14.3477812,29.81355 10.807407,4.2857 40.620943,-0.559 47.32899,-24.40984 3.741903,-13.30457 5.655027,-27.02259 5.074498,-38.63942 m -0.377631,-4.62312 c -1.036058,-8.9572 -3.786291,-16.29346 -8.609894,-20.65027 -11.552744,-10.43475 -41.925284,-11.36642 -50.124016,6.70805 -0.804684,1.77396 -1.291663,3.68613 -1.521538,5.70199 m -0.118462,4.51911 c 0.931543,18.18251 17.152701,42.00826 11.888411,50.52402 -2.787399,4.50903 -9.357778,4.51101 -16.177931,2.78091"
       id="path2"
       sodipodi:nodetypes="sssssssssssssssss"
       inkscape:label="knot_6_3"
       inkscape:path-effect="#path-effect1"
       inkscape:original-d="m -9.2540636,182.23536 c 6.5056214,-8.17774 16.7701165,-11.92543 23.1054966,-12.48443 18.488835,-1.63136 26.645848,14.5341 29.813538,20.49682 3.167687,5.96271 11.994425,20.0419 28.881872,21.61483 3.913213,0.36448 9.807046,-0.0668 14.85018,-2.12044 5.043133,-2.05365 9.235569,-5.72967 9.745988,-11.85466 0.46584,-5.59004 -3.040041,-10.09123 -7.471542,-13.38996 -4.431502,-3.29872 -9.788624,-5.39499 -13.025266,-6.17519 -17.675192,-4.26065 -36.894249,14.16143 -44.906635,19.75147 -8.012389,5.59004 -17.701799,8.0124 -23.2918432,15.46579 -5.5900405,7.45339 3.9824802,25.70317 14.3477812,29.81355 10.807407,4.2857 40.620943,-0.559 47.32899,-24.40984 7.299114,-25.95246 7.639714,-53.47807 -3.913027,-63.91281 -11.552744,-10.43475 -41.925284,-11.36642 -50.124016,6.70805 -8.198732,18.07447 16.583793,50.49671 10.248411,60.74512 -6.335381,10.24841 -32.2133094,-2.78621 -36.1489333,-6.52172 -10.9937467,-10.43474 -6.3911697,-24.99004 0.5590057,-33.72658 z" />
    <path
       style="baseline-shift:baseline;display:inline;overflow:visible;opacity:1;vector-effect:none;enable-background:accumulate;stop-color:#000000;stop-opacity:1"
       d="m 121.625,161.49805 c -5.09276,-0.0966 -10.38595,0.97125 -15.46289,3.31445 -4.89273,2.25818 -9.867056,5.45782 -13.574219,10.75391 -3.707163,5.29609 -6.118565,12.65994 -6.009766,23.13476 l 1.5,-0.20986 c -0.106343,-10.23831 2.23136,-17.0527 5.740234,-22.06551 3.508874,-5.01281 8.217661,-8.05734 12.972661,-10.25195 9.74818,-4.49916 20.27359,-4.07254 28.37695,0.31445 8.10336,4.38699 13.80908,12.69452 13.95898,24.19922 0.0322,2.47074 0.04,4.45441 -0.28248,6.56704 l 1.25093,0.80329 c 0.33586,-2.20033 0.56473,-4.84351 0.53155,-7.38986 -0.15629,-11.99505 -6.19866,-20.87366 -14.74414,-25.5 -4.27274,-2.31317 -9.16505,-3.57334 -14.25781,-3.66992 z m -30.492188,3.6875 c -7.972534,-0.33863 -15.901964,2.11305 -21.835937,6.35742 -5.727403,4.09662 -10.903295,9.52609 -14.697266,15.76953 -1.896985,3.12173 -3.448515,6.44847 -4.544922,9.91211 -1.096406,3.46363 -1.737548,7.0655 -1.814453,10.73633 -0.16779,8.00894 1.105833,14.42482 3.28125,19.54687 2.175419,5.12206 5.252345,8.9428 8.648438,11.76367 6.792185,5.64176 14.815978,7.29372 19.613281,7.65039 12.020746,0.89374 27.274127,-4.85263 39.128427,-8.13671 l -0.32374,-1.44727 c -11.96278,3.31414 -27.251345,8.93875 -38.695312,8.08789 -4.576765,-0.34028 -12.309323,-1.9455 -18.763672,-7.30664 -3.227174,-2.68057 -6.144873,-6.29785 -8.226562,-11.19922 -2.081689,-4.90137 -3.326223,-11.09431 -3.16211,-18.92773 0.07368,-3.51666 0.6872,-6.9755 1.744141,-10.31446 1.056941,-3.33896 2.556616,-6.5582 4.396484,-9.58593 3.679734,-6.05545 8.724306,-11.34785 14.289063,-15.32813 7.519971,-5.37878 18.19743,-8.04127 28.075979,-5.11044 l 1.136673,-1.00502 c -2.595079,-0.76992 -5.59225,-1.34979 -8.249762,-1.46266 z m 13.365218,3.64104 -1.20287,0.97659 c 4.42648,2.28712 8.7644,5.98 11.87867,11.08354 2.43215,3.98572 3.72875,10.18636 4.34375,17.17578 0.615,6.98942 0.57269,14.76583 0.4707,21.96289 l 1.5,-0.0739 c 0.10212,-7.20641 0.14745,-14.92799 -0.47656,-22.01978 -0.62401,-7.09179 -1.89247,-13.46023 -4.55664,-17.82617 -3.25104,-5.32767 -7.294,-8.86952 -11.95705,-11.27888 z m 28.84377,24.81208 c -3.39797,-0.11276 -7.17266,0.17064 -11.20899,0.66406 l 0.1836,1.48829 c 7.98114,-0.97566 14.82097,-1.02664 19.38086,0.93359 10.93008,4.69869 19.97981,16.18739 19.7539,32.9043 -0.10054,7.44031 -3.35554,13.30055 -7.80273,17.40234 -4.44719,4.10179 -10.1018,6.40665 -14.83399,6.66016 -1.73229,0.0928 -3.25565,0.0444 -4.97746,-0.52519 l -0.93254,1.15557 c 1.89403,0.62654 4.06515,0.97078 5.99008,0.86766 5.14799,-0.27578 11.06516,-2.71764 15.76953,-7.05664 4.70437,-4.339 8.18077,-10.61508 8.28711,-18.48437 0.23338,-17.2697 -9.19035,-29.37119 -20.66211,-34.30274 -2.5281,-1.0868 -5.5493,-1.59427 -8.94726,-1.70703 z m -15.6875,1.27735 c -4.78303,0.71816 -9.84643,1.64679 -15.00391,2.54882 -7.940596,1.38879 -15.636522,2.66301 -21.437499,4.10157 -2.900489,0.71927 -5.325218,1.47422 -7.107422,2.33789 -0.891102,0.43183 -1.625238,0.88872 -2.183594,1.41992 -0.558356,0.53119 -0.954429,1.16968 -1.021484,1.89453 -0.04065,0.43942 0.135973,0.84177 0.373046,1.1543 0.237074,0.31253 0.543128,0.57277 0.910157,0.82812 0.734057,0.51071 1.72481,0.99606 2.927734,1.5 2.405848,1.00789 5.653924,2.06935 9.113281,3.18164 l 0.458985,-1.42773 c -3.454791,-1.11082 -6.685318,-2.1703 -8.992188,-3.13672 -1.153435,-0.48321 -2.077776,-0.94927 -2.65039,-1.34766 -0.286308,-0.19919 -0.480841,-0.38338 -0.572266,-0.5039 -0.09143,-0.12053 -0.07152,-0.13857 -0.07422,-0.10938 0.02502,-0.27042 0.174861,-0.57653 0.5625,-0.94531 0.38764,-0.36878 0.999314,-0.76886 1.802735,-1.1582 1.606841,-0.77869 3.964159,-1.52364 6.814453,-2.23047 5.700587,-1.41366 13.385053,-2.69178 21.333982,-4.08203 5.16521,-0.90339 10.2196,-1.82794 14.96875,-2.54102 z m 30.01788,7.19649 c -2.16324,6.9818 -6.47918,11.83125 -11.70343,14.87382 -5.22425,3.04256 -11.43851,4.43074 -17.43359,4.70898 -8.9335,0.41461 -13.03062,-1.82023 -22.857426,-5.53515 -2.07973,-0.78622 -4.358027,-1.55618 -6.65625,-2.30664 l -0.464843,1.42578 c 2.288473,0.74727 4.548128,1.51061 6.591796,2.2832 9.770173,3.69352 14.249033,6.05821 23.457033,5.63086 6.17687,-0.28668 12.62024,-1.70764 18.11914,-4.91016 5.4989,-3.20252 9.82036,-7.92623 12.09279,-15.26046 z m -59.488586,1.1453 -1.5,0.34595 c 0.02805,7.489 -1.163874,12.63476 -2.3125,17.61122 -1.148626,4.97647 -2.26476,9.46402 -1.990235,14.81641 0.152036,2.96424 0.545463,5.45113 1.111755,7.89874 l 1.444886,-0.12921 c -0.544826,-2.35483 -0.910691,-4.96205 -1.058594,-7.8457 -0.261664,-5.10164 0.801274,-9.41191 1.953125,-14.40235 1.151852,-4.99044 2.38022,-10.64331 2.351563,-18.29492 z m 31.748136,21.34224 c -0.046,3.17729 -0.0883,6.12084 -0.0451,8.80229 0.14455,8.96225 3.8552,15.15194 8.82654,18.60527 l 0.87463,-1.04081 c -4.55142,-3.16163 -8.0631,-9.02931 -8.20117,-17.58985 -0.0428,-2.65174 -0.0108,-5.63123 0.0352,-8.80468 z m 12.09171,10.50737 c -2.50768,-0.18236 -5.56415,0.28971 -9.02539,1.0957 l 0.33984,1.46094 c 3.3942,-0.79038 6.34912,-1.2225 8.57617,-1.06054 2.22705,0.16195 3.62622,0.83771 4.36133,2.25976 0.86434,1.67205 0.57168,3.90373 -0.67187,6.45703 -1.24356,2.55331 -3.41184,5.34546 -6.01563,7.9668 -5.20758,5.24268 -12.21956,9.80104 -16.77148,10.83203 -3.19775,0.72428 -8.47308,0.5513 -13.593754,-1.72266 -5.120674,-2.27395 -10.036325,-6.36197 -12.906066,-14.02092 l -1.548769,0.14208 c 3.006354,8.02355 8.406318,12.83456 13.84546,15.24994 5.439139,2.41537 10.950629,2.62633 14.535159,1.81445 5.13173,-1.16232 12.13472,-5.83096 17.5039,-11.23633 2.68459,-2.70268 4.94495,-5.5893 6.29883,-8.36914 1.35388,-2.77983 1.82823,-5.53557 0.65625,-7.80273 -1.01699,-1.96735 -3.07631,-2.88404 -5.58398,-3.06641 z"
       id="path7"
       transform="translate(62.89944,-18.08784)"
       sodipodi:nodetypes="sssccssssccssssssssssssccsssssssccsccssccssccsccssssccssssscssssssssccssscsssscccsssccsssccccssccssscccccsccsccssssssccssssss" />
    <path
       style="baseline-shift:baseline;display:inline;overflow:visible;opacity:1;vector-effect:none;enable-background:accumulate;stop-color:#000000;stop-opacity:1"
       d="m 39.837891,146.94531 c -10.239278,0.73477 -20.188298,5.12543 -24.433594,14.48438 -0.841417,1.85494 -1.346649,3.8445 -1.583984,5.92578 l 1.535413,0.004 c 0.222414,-1.95044 0.645854,-3.61792 1.413805,-5.3109 3.953436,-8.71553 13.29092,-12.89809 23.175781,-13.60742 9.884862,-0.70933 20.221679,2.1408 25.763672,7.14648 4.868513,4.39737 7.631965,12.11542 8.519532,21.63477 0.887566,9.51934 -0.08908,20.79971 -2.525391,32.21289 l 1.47953,0.21064 c 2.461294,-11.53021 3.44516,-22.83519 2.538048,-32.56416 -0.907112,-9.72897 -3.703941,-17.81859 -9.005859,-22.60742 -6.010751,-5.42907 -16.637676,-8.26406 -26.876953,-7.5293 z m -26.052735,22.0586 c -6.5570822,0.57856 -16.9515528,4.37251 -23.6269529,12.76367 -3.5512031,4.46395 -6.5010901,10.39547 -7.1660151,16.61523 -0.664926,6.21977 1.016662,12.74983 6.677734,18.12305 1.0100296,0.95867 3.0085264,2.24802 5.6699218,3.67383 2.6613953,1.42581 6.4582453,3.09584 9.9319904,4.34912 l -0.2599183,-1.62496 c -3.3937507,-1.22441 -6.36461,-2.65432 -8.9630878,-4.04643 -2.5984777,-1.3921 -4.5868303,-2.71916 -5.3457031,-3.43945 -5.332675,-5.06152 -6.846174,-11.02625 -6.220703,-16.87695 0.62547,-5.85071 3.450637,-11.5653 6.8496092,-15.8379 6.3358427,-7.96432 16.4722598,-11.66563 22.5859378,-12.20507 7.818419,-0.68986 13.665708,1.8598 18.115234,5.46484 4.449526,3.60504 7.466195,8.28448 9.435547,11.79492 l 1.256354,-0.86497 C 40.715,183.30976 37.660655,178.59196 32.976562,174.79687 28.29247,171.00179 21.994856,168.27952 13.785156,169.00391 Z m 1.41211,2.91796 -1.498047,0.0762 c 0.476297,9.29669 4.806044,19.83354 8.314453,29.11328 1.754204,4.63987 3.306045,8.96404 4.083984,12.59961 0.777939,3.63557 0.742848,6.52955 -0.40039,8.3789 -1.255136,2.03037 -3.330475,3.04875 -6.029297,3.37891 -2.698822,0.33016 -6.453955,-0.16106 -9.8083251,-1.012 l 0.5262861,1.58136 c 3.465783,0.87918 6.475424,1.28644 9.463679,0.92087 2.988256,-0.36556 5.592737,-1.60141 7.125,-4.08007 1.488907,-2.40853 1.401901,-5.68741 0.589844,-9.48243 -0.812057,-3.79501 -2.388946,-8.1606 -4.148437,-12.81445 -3.518984,-9.30771 -7.763504,-19.77434 -8.21875,-28.66016 z m 57.621093,5.06836 c -8.527892,-0.54955 -17.052425,3.32921 -24.376953,7.9375 -7.324527,4.6083 -13.496041,9.99533 -17.130859,12.53125 -1.973365,1.37677 -3.990492,2.51795 -6.108755,3.64477 l 0.632192,1.37281 c 2.143304,-1.14014 4.285674,-2.35805 6.333985,-3.78711 3.794844,-2.64757 9.872759,-7.96255 17.072265,-12.49218 7.199507,-4.52964 15.635003,-8.22501 23.642517,-7.70899 z m 4.480263,0.67823 0.07149,1.53347 c 3.178891,0.8696 7.831879,2.90332 11.854502,5.89768 4.321348,3.21673 7.609086,7.48007 7.171875,12.72656 -0.484255,5.81103 -4.395136,9.2302 -9.283203,11.2207 -4.888068,1.9905 -10.706515,2.42133 -14.496094,2.06836 -15.528715,-1.44637 -24.1129,-13.74562 -27.679687,-20.10156 l -1.230233,0.78662 c 3.665365,6.5316 12.511277,19.29478 28.769295,20.80908 4.036848,0.376 10.004926,-0.0551 15.203125,-2.17187 5.1982,-2.1168 9.674356,-6.04933 10.210938,-12.48828 0.494469,-5.93359 -3.22983,-10.67201 -7.771484,-14.05274 -4.227703,-3.14701 -9.454904,-5.30734 -12.820519,-6.22802 z m -56.185341,25.57177 c -4.986868,2.58915 -9.842963,5.28607 -13.2656248,9.84961 -1.547304,2.06308 -2.0057428,4.80136 -1.7207031,7.7461 0.2850398,2.94474 1.3120981,6.12755 2.8398438,9.19726 3.0554911,6.13944 8.0900591,11.85135 13.5527341,14.01758 5.713404,2.26566 15.94401,2.06609 25.744141,-1.65039 9.800131,-3.71648 19.153185,-11.06245 22.582031,-23.25391 0.463744,-1.64887 0.900029,-3.30406 1.306641,-4.96093 l -1.469765,-0.25557 c -0.402596,1.64051 -0.821015,3.17747 -1.280235,4.81025 -3.279201,11.65939 -12.186375,18.66066 -21.671875,22.25782 -9.485501,3.59716 -19.5642,3.67824 -24.658203,1.6582 -4.902626,-1.94415 -9.837135,-7.41462 -12.761719,-13.29102 -1.4622922,-2.9382 -2.4279286,-5.97202 -2.6894533,-8.67382 -0.2615246,-2.70181 0.1780651,-5.03755 1.4257813,-6.70118 3.183016,-4.24401 7.674174,-6.80621 12.634383,-9.38152 z"
       id="path8"
       sodipodi:nodetypes="csccssssccsssccsssccccssssccccccsssscccsssscccscccscccscsssccccssccscsssscccssssccccc" />
    <g
       id="g10"
       inkscape:label="arrow"
       inkscape:transform-center-x="-0.40677572"
       inkscape:transform-center-y="7.3300368">
      <g
         id="path5"
         style="opacity:1">
        <path
           style="baseline-shift:baseline;display:inline;overflow:visible;vector-effect:none;fill-rule:evenodd;enable-background:accumulate;stop-color:#000000;stop-opacity:1"
           d="m 97.098722,198.19299 2.634086,2.3583 -2.978816,-8.59879 -2.013572,8.87458 z"
           id="path11" />
      </g>
    </g>
    <g
       id="g1"
       inkscape:label="arrow"
       inkscape:transform-center-x="0.3235583"
       inkscape:transform-center-y="-7.3341884">
      <g
         id="path5-6"
         style="opacity:1">
        <path
           style="baseline-shift:baseline;display:inline;overflow:visible;vector-effect:none;fill-rule:evenodd;enable-background:accumulate;stop-color:#000000;stop-opacity:1"
           d="m 111.93444,190.77597 -2.60721,-2.38798 2.88126,8.63197 2.11393,-8.8512 z"
           id="path10" />
      </g>
    </g>
    <circle
       style="fill:#999999;fill-opacity:0.542065;stroke:none;stroke-width:6.77127"
       id="path1"
       cx="104.06264"
       cy="194.57237"
       r="18.912457"
       inkscape:label="grey circle" />
  </g>
</svg>
