<?xml version="1.0" encoding="UTF-8" standalone="no"?>
<!-- Created with Inkscape (http://www.inkscape.org/) -->

<svg
   width="243.0006mm"
   height="120mm"
   viewBox="0 0 243.0006 120"
   version="1.1"
   id="svg1"
   sodipodi:docname="connected_sum_isotopy_frame_1.svg"
   inkscape:version="1.4.2 (ebf0e940d0, 2025-05-08)"
   inkscape:export-filename="/home/damian/Projects/mphil-thesis/graphics/connected_sum_isotopy_frame_1.pdf"
   inkscape:export-xdpi="96"
   inkscape:export-ydpi="96"
   xmlns:inkscape="http://www.inkscape.org/namespaces/inkscape"
   xmlns:sodipodi="http://sodipodi.sourceforge.net/DTD/sodipodi-0.dtd"
   xmlns="http://www.w3.org/2000/svg"
   xmlns:svg="http://www.w3.org/2000/svg">
  <sodipodi:namedview
     id="namedview1"
     pagecolor="#ffffff"
     bordercolor="#000000"
     borderopacity="0.25"
     inkscape:showpageshadow="2"
     inkscape:pageopacity="0.0"
     inkscape:pagecheckerboard="0"
     inkscape:deskcolor="#d1d1d1"
     inkscape:document-units="mm"
     inkscape:zoom="0.92367987"
     inkscape:cx="434.13309"
     inkscape:cy="228.97543"
     inkscape:window-width="1916"
     inkscape:window-height="1034"
     inkscape:window-x="0"
     inkscape:window-y="0"
     inkscape:window-maximized="0"
     inkscape:current-layer="layer1" />
  <defs
     id="defs1">
    <inkscape:path-effect
       effect="knot"
       id="path-effect4"
       is_visible="true"
       lpeversion="1"
       switcher_size="15"
       interruption_width="3"
       prop_to_stroke_width="true"
       add_stroke_width="inkscape_1.0_and_up"
       both="false"
       inverse_width="false"
       add_other_stroke_width="inkscape_1.0_and_up"
       crossing_points_vector="147.69227 | 228.10066 | 0 | 0 | 0 | 3 | 2.0772964 | 4.856608 | -1 | 183.87451 | 219.38657 | 0 | 0 | 1 | 14 | 2.6053068 | 15.899405 | 1 | 194.03498 | 234.67515 | 0 | 0 | 2 | 13 | 3.4672829 | 15.301923 | 1 | 149.52138 | 195.77685 | 0 | 0 | 4 | 9 | 5.6955013 | 10.279427 | -1 | 150.28807 | 182.88832 | 0 | 0 | 5 | 10 | 5.9942621 | 11.658389 | -1 | 164.44029 | 150.06844 | 0 | 0 | 6 | 17 | 6.8331807 | 17.33806 | -1 | 211.85134 | 182.06603 | 0 | 0 | 7 | 12 | 8.1490625 | 13.217689 | 1 | 183.60464 | 204.21067 | 0 | 0 | 8 | 15 | 8.9529358 | 16.212815 | 1 | 182.89257 | 177.24923 | 0 | 0 | 11 | 16 | 12.375947 | 16.673948 | 1 | 75.048583 | 177.99866 | 0 | 0 | 18 | 23 | 22.030057 | 26.546989 | -1 | 43.206528 | 189.38336 | 0 | 0 | 19 | 28 | 22.662145 | 32.955 | -1 | 23.47175 | 202.86524 | 0 | 0 | 20 | 25 | 23.329814 | 28.614916 | 1 | 7.6128182 | 224.54536 | 0 | 0 | 21 | 26 | 24.357828 | 29.4946 | 1 | 71.947924 | 211.80121 | 0 | 0 | 22 | 29 | 26.09141 | 33.988111 | -1 | 14.413563 | 169.70656 | 0 | 0 | 24 | 27 | 28.134268 | 32.010193 | 1" />
    <inkscape:path-effect
       effect="knot"
       id="path-effect11"
       is_visible="true"
       lpeversion="1"
       switcher_size="15"
       interruption_width="3"
       prop_to_stroke_width="true"
       add_stroke_width="inkscape_1.0_and_up"
       both="false"
       inverse_width="false"
       add_other_stroke_width="inkscape_1.0_and_up"
       crossing_points_vector="147.69227 | 228.10066 | 0 | 0 | 0 | 3 | 2.0772964 | 4.856608 | 1 | 183.87451 | 219.38657 | 0 | 0 | 1 | 14 | 2.6053068 | 15.899405 | 1 | 194.03498 | 234.67515 | 0 | 0 | 2 | 13 | 3.4672829 | 15.301923 | 1 | 149.52138 | 195.77685 | 0 | 0 | 4 | 9 | 5.6955013 | 10.279427 | 1 | 150.28807 | 182.88832 | 0 | 0 | 5 | 10 | 5.9942621 | 11.658389 | 1 | 164.44029 | 150.06844 | 0 | 0 | 6 | 17 | 6.8331807 | 17.33806 | 1 | 211.85134 | 182.06603 | 0 | 0 | 7 | 12 | 8.1490625 | 13.217689 | 1 | 183.60464 | 204.21067 | 0 | 0 | 8 | 15 | 8.9529358 | 16.212815 | 1 | 182.89257 | 177.24923 | 0 | 0 | 11 | 16 | 12.375947 | 16.673948 | 1 | 75.048583 | 177.99866 | 0 | 0 | 18 | 23 | 22.030057 | 26.546989 | 1 | 43.206528 | 189.38336 | 0 | 0 | 19 | 28 | 22.662145 | 32.955 | 1 | 23.47175 | 202.86524 | 0 | 0 | 20 | 25 | 23.329814 | 28.614916 | 1 | 7.6128182 | 224.54536 | 0 | 0 | 21 | 26 | 24.357828 | 29.4946 | 1 | 71.947924 | 211.80121 | 0 | 0 | 22 | 29 | 26.09141 | 33.988111 | 1 | 14.413563 | 169.70656 | 0 | 0 | 24 | 27 | 28.134268 | 32.010193 | 1" />
    <inkscape:path-effect
       effect="knot"
       id="path-effect9"
       is_visible="true"
       lpeversion="1"
       switcher_size="15"
       interruption_width="3"
       prop_to_stroke_width="true"
       add_stroke_width="inkscape_1.0_and_up"
       both="false"
       inverse_width="false"
       add_other_stroke_width="inkscape_1.0_and_up"
       crossing_points_vector="147.69227 | 228.10066 | 0 | 0 | 0 | 3 | 2.0772964 | 4.856608 | -1 | 183.87451 | 219.38657 | 0 | 0 | 1 | 14 | 2.6053068 | 15.899405 | 1 | 194.03498 | 234.67515 | 0 | 0 | 2 | 13 | 3.4672829 | 15.301923 | 1 | 149.52138 | 195.77685 | 0 | 0 | 4 | 9 | 5.6955013 | 10.279427 | -1 | 150.28807 | 182.88832 | 0 | 0 | 5 | 10 | 5.9942621 | 11.658389 | -1 | 164.44029 | 150.06844 | 0 | 0 | 6 | 17 | 6.8331807 | 17.33806 | -1 | 211.85134 | 182.06603 | 0 | 0 | 7 | 12 | 8.1490625 | 13.217689 | 1 | 183.60464 | 204.21067 | 0 | 0 | 8 | 15 | 8.9529358 | 16.212815 | 1 | 182.89257 | 177.24923 | 0 | 0 | 11 | 16 | 12.375947 | 16.673948 | 1 | 75.048583 | 177.99866 | 0 | 0 | 18 | 23 | 22.030057 | 26.546989 | -1 | 43.206528 | 189.38336 | 0 | 0 | 19 | 28 | 22.662145 | 32.955 | -1 | 23.47175 | 202.86524 | 0 | 0 | 20 | 25 | 23.329814 | 28.614916 | 1 | 7.6128182 | 224.54536 | 0 | 0 | 21 | 26 | 24.357828 | 29.4946 | 1 | 71.947924 | 211.80121 | 0 | 0 | 22 | 29 | 26.09141 | 33.988111 | -1 | 14.413563 | 169.70656 | 0 | 0 | 24 | 27 | 28.134268 | 32.010193 | 1" />
    <inkscape:path-effect
       effect="knot"
       id="path-effect5"
       is_visible="true"
       lpeversion="1"
       switcher_size="15"
       interruption_width="3"
       prop_to_stroke_width="true"
       add_stroke_width="inkscape_1.0_and_up"
       both="false"
       inverse_width="false"
       add_other_stroke_width="inkscape_1.0_and_up"
       crossing_points_vector="48.989694 | 207.97655 | 0 | 0 | 0 | 19 | 7.2857023e-16 | 22 | 0 | 84.792825 | 246.1885 | 0 | 0 | 1 | 4 | 3.0772964 | 5.8566079 | -1 | 120.97507 | 237.47441 | 0 | 0 | 2 | 15 | 3.6053068 | 16.899405 | 1 | 131.13554 | 252.76299 | 0 | 0 | 3 | 14 | 4.4672829 | 16.301923 | 1 | 86.621936 | 213.86468 | 0 | 0 | 5 | 10 | 6.6955013 | 11.279427 | -1 | 87.388621 | 200.97617 | 0 | 0 | 6 | 11 | 6.9942621 | 12.658389 | -1 | 101.54085 | 168.15628 | 0 | 0 | 7 | 18 | 7.8331807 | 18.33806 | -1 | 148.9519 | 200.15387 | 0 | 0 | 8 | 13 | 9.1490625 | 14.217689 | 1 | 120.7052 | 222.29851 | 0 | 0 | 9 | 16 | 9.9529358 | 17.212815 | 1 | 119.99313 | 195.33707 | 0 | 0 | 12 | 17 | 13.375947 | 17.673948 | 1" />
    <inkscape:path-effect
       effect="knot"
       id="path-effect8"
       is_visible="true"
       lpeversion="1"
       switcher_size="15"
       interruption_width="3"
       prop_to_stroke_width="true"
       add_stroke_width="inkscape_1.0_and_up"
       both="false"
       inverse_width="false"
       add_other_stroke_width="inkscape_1.0_and_up"
       crossing_points_vector="84.792825 | 246.1885 | 0 | 0 | 0 | 3 | 1.0772964 | 3.8566079 | -1 | 120.97507 | 237.47441 | 0 | 0 | 1 | 14 | 1.6053068 | 14.899405 | 1 | 131.13554 | 252.76299 | 0 | 0 | 2 | 13 | 2.4672829 | 14.301923 | 1 | 86.621936 | 213.86468 | 0 | 0 | 4 | 9 | 4.6955013 | 9.2794271 | -1 | 87.388621 | 200.97617 | 0 | 0 | 5 | 10 | 4.9942621 | 10.658389 | -1 | 101.54085 | 168.15628 | 0 | 0 | 6 | 17 | 5.8331807 | 16.33806 | -1 | 148.9519 | 200.15387 | 0 | 0 | 7 | 12 | 7.1490625 | 12.217689 | 1 | 120.7052 | 222.29851 | 0 | 0 | 8 | 15 | 7.9529358 | 15.212815 | 1 | 119.99313 | 195.33707 | 0 | 0 | 11 | 16 | 11.375947 | 15.673948 | 1" />
  </defs>
  <g
     inkscape:label="Layer 1"
     inkscape:groupmode="layer"
     id="layer1"
     style="display:inline"
     transform="translate(13.645093,-146.14558)">
    <path
       style="display:none;fill:none;stroke:#000000;stroke-width:1.5;stroke-dasharray:none"
       d="m 48.989694,207.97655 c -0.165952,7.92118 1.093205,14.2255 3.221758,19.23721 2.128554,5.01171 5.126504,8.7308 8.438138,11.48152 6.623267,5.50145 14.501269,7.12943 19.188303,7.47791 20.590977,1.53093 52.202497,-17.13572 57.103597,-7.65464 4.07264,7.87843 -14.27537,24.13865 -23.95902,26.33196 -8.27559,1.87439 -28.474045,-1.9708 -29.853093,-28.85799 -0.565715,-11.02969 4.917049,-18.36642 4.248338,-35.30702 -0.876154,-22.19582 9.147286,-30.59942 19.098315,-35.1922 19.90207,-9.18557 43.09562,1.68401 43.40181,25.18376 0.30619,23.49974 -16.24386,31.06763 -31.30748,31.76675 -9.07075,0.42098 -13.35847,-1.87799 -23.156961,-5.58221 -9.70083,-3.6673 -23.998439,-7.06113 -23.765977,-9.57398 0.36829,-3.98111 15.24251,-6.30545 31.132038,-9.08449 15.88953,-2.77904 30.80417,-5.78314 39.21409,-2.16783 11.20092,4.81512 20.4379,16.61057 20.20826,33.60387 -0.20689,15.3096 -13.46648,24.27174 -23.34665,24.80103 -8.5732,0.45927 -17.9884,-6.81264 -18.21804,-21.05026 -0.24947,-15.46717 1.99385,-41.72332 -4.82243,-52.89356 -11.07007,-18.14118 -33.374222,-17.43222 -46.080924,-8.34355 -5.64608,4.03845 -10.756808,9.40064 -14.49366,15.55008 -1.868427,3.07473 -3.393384,6.34626 -4.470058,9.74756 -1.076674,3.40129 -1.705064,6.93234 -1.780354,10.52608 z"
       id="path6"
       sodipodi:nodetypes="sssssssssssssssssssssss"
       inkscape:label="knot_9_33"
       transform="translate(62.89944,-18.087841)" />
    <path
       style="display:none;fill:none;stroke:#000000;stroke-width:1.5;stroke-dasharray:none"
       d="m -9.2540636,182.23536 c 6.5056214,-8.17774 16.7701165,-11.92543 23.1054966,-12.48443 18.488835,-1.63136 26.645848,14.5341 29.813538,20.49682 3.167687,5.96271 11.994425,20.0419 28.881872,21.61483 3.913213,0.36448 9.807046,-0.0668 14.85018,-2.12044 5.043133,-2.05365 9.235569,-5.72967 9.745988,-11.85466 0.46584,-5.59004 -3.040041,-10.09123 -7.471542,-13.38996 -4.431502,-3.29872 -9.788624,-5.39499 -13.025266,-6.17519 -17.675192,-4.26065 -36.894249,14.16143 -44.906635,19.75147 -8.012389,5.59004 -17.701799,8.0124 -23.2918432,15.46579 -5.5900405,7.45339 3.9824802,25.70317 14.3477812,29.81355 10.807407,4.2857 40.620943,-0.559 47.32899,-24.40984 7.299114,-25.95246 7.639714,-53.47807 -3.913027,-63.91281 -11.552744,-10.43475 -41.925284,-11.36642 -50.124016,6.70805 -8.198732,18.07447 16.583793,50.49671 10.248411,60.74512 -6.335381,10.24841 -32.2133094,-2.78621 -36.1489333,-6.52172 -10.9937467,-10.43474 -6.3911697,-24.99004 0.5590057,-33.72658 z"
       id="path2"
       sodipodi:nodetypes="sssssssssssssssss"
       inkscape:label="knot_6_3" />
    <path
       id="path4"
       style="display:none;fill:none;stroke:#000000;stroke-width:1.5;stroke-dasharray:none"
       inkscape:label="knots"
       d="m 115.11089,209.12592 c 3.97015,4.89893 5.12651,8.7308 8.43814,11.48152 6.62327,5.50145 14.50127,7.12943 19.1883,7.47791 20.59098,1.53093 52.2025,-17.13572 57.1036,-7.65464 4.07264,7.87843 -14.27537,24.13865 -23.95902,26.33196 -8.27559,1.87439 -28.47404,-1.9708 -29.85309,-28.85799 -0.56572,-11.02969 4.91705,-18.36642 4.24834,-35.30702 -0.87616,-22.19582 9.14728,-30.59942 19.09831,-35.1922 19.90207,-9.18557 43.09562,1.68401 43.40181,25.18376 0.30619,23.49974 -16.24386,31.06763 -31.30748,31.76675 -9.07075,0.42098 -13.35847,-1.87799 -23.15696,-5.58221 -9.70083,-3.6673 -23.99844,-7.06113 -23.76598,-9.57398 0.36829,-3.98111 15.24251,-6.30545 31.13204,-9.08449 15.88953,-2.77904 30.80417,-5.78314 39.21409,-2.16783 11.20092,4.81512 20.4379,16.61057 20.20826,33.60387 -0.20689,15.3096 -13.46648,24.27174 -23.34665,24.80103 -8.5732,0.45927 -17.9884,-6.81264 -18.21804,-21.05026 -0.24947,-15.46717 1.99385,-41.72332 -4.82243,-52.89356 -11.07007,-18.14118 -33.37422,-17.43222 -46.08092,-8.34355 -5.64608,4.03845 -10.54777,8.47899 -13.56139,13.89272 -2.80296,5.0353 -2.60665,9.35354 -6.95611,13.99455 -4.52562,4.82899 -14.953581,5.87512 -22.444241,2.54526 -2.524077,-1.12204 -9.788624,-5.39499 -13.025266,-6.17519 -17.675192,-4.26065 -36.894249,14.16143 -44.906635,19.75147 -8.012389,5.59004 -17.701799,8.0124 -23.2918432,15.46579 -5.5900405,7.45339 3.9824802,25.70317 14.3477812,29.81355 10.807407,4.2857 40.620943,-0.559 47.32899,-24.40984 7.299114,-25.95246 7.639714,-53.47807 -3.913027,-63.91281 -11.552744,-10.43475 -41.925284,-11.36642 -50.124016,6.70805 -8.198732,18.07447 16.583793,50.49671 10.248411,60.74512 -6.335381,10.24841 -32.2133094,-2.78621 -36.1489333,-6.52172 -10.9937467,-10.43474 -6.3911697,-24.99004 0.5590057,-33.72658 6.5056214,-8.17774 16.7701165,-11.92543 23.1054966,-12.48443 18.488835,-1.63136 26.645848,14.5341 29.813538,20.49682 3.167687,5.96271 11.994425,20.0419 28.881872,21.61483 3.913213,0.36448 11.041547,0.44929 19.088452,-4.23958 8.046905,-4.68887 19.505445,-3.39601 23.475595,1.50292 z"
       sodipodi:nodetypes="zsssssssssssssssssssssssssssssssssszz" />
    <path
       id="path7"
       style="display:none;fill:none;stroke:#ff0000;stroke-width:4.5;stroke-dasharray:none"
       inkscape:label="knots thick"
       d="m 115.11089,209.12592 c 3.97015,4.89893 5.12651,8.7308 8.43814,11.48152 6.62327,5.50145 14.50127,7.12943 19.1883,7.47791 20.59098,1.53093 52.2025,-17.13572 57.1036,-7.65464 4.07264,7.87843 -14.27537,24.13865 -23.95902,26.33196 -8.27559,1.87439 -28.47404,-1.9708 -29.85309,-28.85799 -0.56572,-11.02969 4.91705,-18.36642 4.24834,-35.30702 -0.87616,-22.19582 9.14728,-30.59942 19.09831,-35.1922 19.90207,-9.18557 43.09562,1.68401 43.40181,25.18376 0.30619,23.49974 -16.24386,31.06763 -31.30748,31.76675 -9.07075,0.42098 -13.35847,-1.87799 -23.15696,-5.58221 -9.70083,-3.6673 -23.99844,-7.06113 -23.76598,-9.57398 0.36829,-3.98111 15.24251,-6.30545 31.13204,-9.08449 15.88953,-2.77904 30.80417,-5.78314 39.21409,-2.16783 11.20092,4.81512 20.4379,16.61057 20.20826,33.60387 -0.20689,15.3096 -13.46648,24.27174 -23.34665,24.80103 -8.5732,0.45927 -17.9884,-6.81264 -18.21804,-21.05026 -0.24947,-15.46717 1.99385,-41.72332 -4.82243,-52.89356 -11.07007,-18.14118 -33.37422,-17.43222 -46.08092,-8.34355 -5.64608,4.03845 -10.54777,8.47899 -13.56139,13.89272 -2.80296,5.0353 -2.60665,9.35354 -6.95611,13.99455 -4.52562,4.82899 -14.953581,5.87512 -22.444241,2.54526 -2.524077,-1.12204 -9.788624,-5.39499 -13.025266,-6.17519 -17.675192,-4.26065 -36.894249,14.16143 -44.906635,19.75147 -8.012389,5.59004 -17.701799,8.0124 -23.2918432,15.46579 -5.5900405,7.45339 3.9824802,25.70317 14.3477812,29.81355 10.807407,4.2857 40.620943,-0.559 47.32899,-24.40984 7.299114,-25.95246 7.639714,-53.47807 -3.913027,-63.91281 -11.552744,-10.43475 -41.925284,-11.36642 -50.124016,6.70805 -8.198732,18.07447 16.583793,50.49671 10.248411,60.74512 -6.335381,10.24841 -32.2133094,-2.78621 -36.1489333,-6.52172 -10.9937467,-10.43474 -6.3911697,-24.99004 0.5590057,-33.72658 6.5056214,-8.17774 16.7701165,-11.92543 23.1054966,-12.48443 18.488835,-1.63136 26.645848,14.5341 29.813538,20.49682 3.167687,5.96271 11.994425,20.0419 28.881872,21.61483 3.913213,0.36448 11.041547,0.44929 19.088452,-4.23958 8.046905,-4.68887 19.505445,-3.39601 23.475595,1.50292 z"
       sodipodi:nodetypes="zsssssssssssssssssssssssssssssssssszz"
       sodipodi:insensitive="true" />
    <path
       style="baseline-shift:baseline;display:inline;overflow:visible;opacity:1;vector-effect:none;enable-background:accumulate;stop-color:#000000;stop-opacity:1"
       d="m 188.02509,153.89301 c -5.09276,-0.0966 -10.3879,0.97125 -15.46484,3.31445 -4.89273,2.25818 -9.86511,5.45782 -13.57227,10.75391 -3.70716,5.29608 -6.12052,12.87081 -6.01172,23.34563 l 1.5,-0.22647 c -0.10634,-10.23831 2.23136,-17.24696 5.74024,-22.25977 3.50887,-5.01281 8.21766,-8.05734 12.97265,-10.25195 9.74819,-4.49916 20.27555,-4.07254 28.37891,0.31445 8.10336,4.38699 13.80908,12.69452 13.95898,24.19922 0.0322,2.47074 -0.0269,4.53628 -0.34938,6.64891 l 1.36007,0.64255 c 0.33585,-2.20033 0.52251,-4.76463 0.48931,-7.31099 -0.15629,-11.99505 -6.20061,-20.87366 -14.74609,-25.5 -4.27274,-2.31317 -9.1631,-3.57334 -14.25586,-3.66992 z m -144.687498,3.53515 c -10.239278,0.73477 -20.188298,5.12543 -24.433594,14.48438 -0.841417,1.85494 -1.346649,3.8445 -1.583984,5.92578 l 1.501953,0.0176 c 0.222414,-1.95044 0.679314,-3.63123 1.447265,-5.32421 3.953436,-8.71553 13.29092,-12.89809 23.175781,-13.60742 9.884862,-0.70933 20.221679,2.1408 25.763672,7.14648 4.868513,4.39737 7.631965,12.11542 8.519532,21.63477 0.887566,9.51934 -0.08908,20.79971 -2.525391,32.21289 l 1.466797,0.3125 c 2.461294,-11.53021 3.457893,-22.93705 2.550781,-32.66602 -0.907112,-9.72897 -3.703941,-17.81859 -9.005859,-22.60742 -6.010751,-5.42907 -16.637676,-8.26406 -26.876953,-7.5293 z m 114.193358,0.15235 c -7.97253,-0.33864 -15.90001,2.11305 -21.83398,6.35742 -5.69061,4.0703 -10.68431,8.57525 -13.78125,14.13867 -1.44942,2.60376 -2.11442,4.99904 -2.94532,7.25 -0.83089,2.25096 -1.81083,4.36399 -3.90234,6.5957 -2.08475,2.2245 -5.66226,3.66454 -9.64453,4.09961 -3.98227,0.43508 -8.346622,-0.12595 -11.947267,-1.72656 -1.103881,-0.49072 -3.337485,-1.70843 -5.697265,-2.93359 -2.35978,-1.22516 -5.102754,-2.54965 -6.949388,-3.15175 l 0.0021,1.54253 c 1.640046,0.53474 3.914563,1.72569 6.255844,2.94125 2.341281,1.21555 4.528252,2.41652 5.779296,2.97265 3.890016,1.72925 8.48493,2.30848 12.7207,1.84571 4.23578,-0.46277 8.13335,-1.95996 10.57422,-4.56446 2.25794,-2.40929 3.35579,-4.77432 4.21484,-7.10156 0.85906,-2.32724 1.49607,-4.60948 2.84961,-7.04101 2.93029,-5.26404 7.7422,-9.63989 13.34375,-13.64649 7.51998,-5.37878 18.05679,-7.88716 27.93534,-4.95633 l 1.25973,-1.2437 c -2.59508,-0.76992 -5.57662,-1.26522 -8.23413,-1.37809 z m 13.46958,3.56416 -1.28769,1.06935 c 4.42647,2.28712 8.74681,5.96412 11.86108,11.06766 2.43215,3.98572 3.72679,10.18636 4.3418,17.17578 0.615,6.98942 0.57465,14.76584 0.47265,21.96289 l 1.47553,-0.0764 c 0.10213,-7.20641 0.16997,-14.92556 -0.45404,-22.01735 -0.62401,-7.09179 -1.89247,-13.46023 -4.55664,-17.82617 -3.25104,-5.32767 -7.18964,-8.9464 -11.85269,-11.35576 z M 17.284857,179.48676 c -6.557082,0.57856 -16.95155277,4.37251 -23.6269529,12.76367 -3.5512031,4.46395 -6.5010901,10.39547 -7.1660151,16.61523 -0.664926,6.21977 1.016662,12.74983 6.677734,18.12305 1.0100296,0.95867 3.0085264,2.24802 5.6699218,3.67383 2.6613953,1.42581 6.472959,3.09799 9.9467041,4.35127 l -0.2740983,-1.66033 c -3.3937507,-1.22441 -6.3651437,-2.6211 -8.96362147,-4.01321 -2.59847773,-1.3921 -4.58683033,-2.71916 -5.34570313,-3.43945 -5.332675,-5.06152 -6.846174,-11.02625 -6.220703,-16.87695 0.62547,-5.85071 3.450637,-11.5653 6.8496092,-15.8379 6.3358427,-7.96432 16.4722598,-11.66563 22.5859378,-12.20507 7.818419,-0.68986 13.665708,1.8598 18.115234,5.46484 4.449526,3.60504 7.509888,8.36701 9.47924,11.87745 l 1.264901,-0.8169 c -2.010104,-3.58308 -5.116689,-8.43148 -9.800782,-12.22657 -4.684092,-3.79508 -10.981706,-6.51735 -19.191406,-5.79296 z m 1.41211,2.91796 -1.498047,0.0762 c 0.476297,9.29669 4.806044,19.83354 8.314453,29.11328 1.754204,4.63987 3.306045,8.96404 4.083984,12.59961 0.777939,3.63557 0.742848,6.52955 -0.40039,8.3789 -1.255136,2.03037 -3.330475,3.04875 -6.029297,3.37891 -2.698822,0.33016 -6.238649,-0.13073 -9.593019,-0.98167 l 0.348011,1.60518 c 3.465783,0.87918 6.438393,1.23229 9.426648,0.86672 2.988256,-0.36556 5.592737,-1.60141 7.125,-4.08007 1.488907,-2.40853 1.401901,-5.68741 0.589844,-9.48243 -0.812057,-3.79501 -2.388946,-8.1606 -4.148437,-12.81445 -3.518984,-9.30771 -7.763504,-19.77434 -8.21875,-28.66016 z m 181.044923,3.62891 c -3.39797,-0.11276 -7.17266,0.17064 -11.20899,0.66406 l 0.18164,1.48828 c 7.98115,-0.97565 14.82293,-1.02663 19.38282,0.9336 10.93008,4.69869 19.97981,16.18739 19.7539,32.9043 -0.10054,7.44031 -3.35749,13.30054 -7.80469,17.40234 -4.44719,4.10179 -10.09984,6.40665 -14.83203,6.66016 -1.73227,0.0928 -3.29901,-0.11527 -5.02083,-0.68485 l -0.98193,1.29603 c 1.89402,0.62654 4.15789,0.99003 6.08284,0.88686 5.14799,-0.27578 11.06516,-2.71764 15.76953,-7.05664 4.70437,-4.339 8.18077,-10.61509 8.28711,-18.48437 0.23338,-17.2697 -9.19035,-29.37119 -20.66211,-34.30274 -2.5281,-1.08679 -5.5493,-1.59427 -8.94726,-1.70703 z m -15.68946,1.27734 c -4.78302,0.71817 -9.84643,1.6468 -15.0039,2.54883 -7.9406,1.38879 -15.63652,2.66301 -21.4375,4.10157 -2.90049,0.71927 -5.32327,1.47422 -7.10547,2.33789 -0.8911,0.43183 -1.62524,0.88872 -2.18359,1.41992 -0.55836,0.53119 -0.95443,1.16968 -1.02149,1.89453 -0.0406,0.43942 0.13402,0.84177 0.37109,1.1543 0.23708,0.31252 0.54509,0.57277 0.91211,0.82812 0.73406,0.51071 1.72286,0.99606 2.92579,1.5 2.40584,1.00789 5.75348,2.15232 9.21284,3.26461 l 0.36137,-1.5107 c -3.45479,-1.11083 -6.68727,-2.1703 -8.99414,-3.13672 -1.15343,-0.48321 -2.07777,-0.94927 -2.65039,-1.34766 -0.2863,-0.19919 -0.48084,-0.38338 -0.57226,-0.5039 -0.0914,-0.12053 -0.0715,-0.13857 -0.0742,-0.10938 0.025,-0.27042 0.17486,-0.57653 0.5625,-0.94531 0.38764,-0.36878 1.00127,-0.76886 1.80469,-1.1582 1.60684,-0.77869 3.9622,-1.52365 6.8125,-2.23047 5.70058,-1.41366 13.387,-2.69179 21.33593,-4.08203 5.16521,-0.90339 10.21765,-1.82794 14.9668,-2.54102 z m -107.73437,0.16211 c -8.527892,-0.54955 -17.052425,3.32921 -24.376953,7.9375 -7.324527,4.6083 -13.496041,9.99533 -17.130859,12.53125 -1.973365,1.37677 -4.063378,2.56654 -6.181641,3.69336 l 0.705078,1.32422 c 2.143304,-1.14014 4.285674,-2.35805 6.333985,-3.78711 3.794844,-2.64757 9.872759,-7.96255 17.072265,-12.49218 7.199507,-4.52964 15.61031,-8.19901 23.617824,-7.68299 z m 137.78343,7.01713 c -2.16324,6.98181 -6.5084,11.84851 -11.73265,14.89108 -5.22425,3.04256 -11.43851,4.43075 -17.43359,4.70898 -8.9335,0.41461 -13.03062,-1.82023 -22.85743,-5.53515 -2.07972,-0.78622 -4.47419,-1.55619 -6.77241,-2.30665 l -0.30085,1.44238 c 2.28846,0.74726 4.49834,1.49402 6.54201,2.26661 9.77018,3.69351 14.24904,6.05821 23.45704,5.63086 6.17687,-0.28667 12.62024,-1.70764 18.11914,-4.91016 5.4989,-3.20252 9.91772,-8.01884 12.19015,-15.35307 z m -59.53343,0.9595 -1.48438,0.20906 c 0.0281,7.489 -1.16582,12.97471 -2.31445,17.95117 -1.14862,4.97647 -2.26476,9.46402 -1.99023,14.81641 0.15203,2.96424 0.53136,5.54798 1.09765,7.99559 l 1.46094,-0.22606 c -0.54483,-2.35483 -0.91264,-4.96204 -1.06055,-7.8457 -0.26166,-5.10164 0.80323,-9.41191 1.95508,-14.40235 1.15185,-4.99044 2.3646,-10.84637 2.33594,-18.49798 z m -106.159988,5.99341 -1.279465,0.78778 c 3.665365,6.5316 12.589638,19.34702 28.847656,20.86132 3.986258,0.37129 11.320334,0.44997 19.53711,-4.33789 3.863746,-2.25137 8.601897,-3.08236 12.828127,-2.74414 4.22622,0.33823 7.90237,1.86998 9.68554,4.07032 3.89456,4.80564 5.034,8.6713 8.54297,11.58593 6.79219,5.64176 14.81403,7.29372 19.61133,7.65039 12.02075,0.89375 27.26382,-4.81312 39.11812,-8.0972 l -0.31148,-1.48678 c -11.96278,3.31414 -27.25134,8.93875 -38.69531,8.08789 -4.57676,-0.34028 -12.31127,-1.9455 -18.76563,-7.30664 -3.11429,-2.58681 -4.28823,-6.38474 -8.33398,-11.37695 -2.18698,-2.6986 -6.22511,-4.26233 -10.73242,-4.62305 -4.50731,-0.36072 -9.519968,0.50586 -13.703127,2.94336 -7.877034,4.58989 -14.800456,4.4983 -18.640625,4.14062 -15.528715,-1.44637 -24.142029,-13.79902 -27.708816,-20.15496 z m -23.79509,12.27996 c -4.986868,2.58915 -9.842963,5.28607 -13.265625,9.84961 -1.5473038,2.06308 -2.0057426,4.80136 -1.7207029,7.7461 0.2850398,2.94474 1.3120979,6.12755 2.8398439,9.19726 3.055491,6.13944 8.090059,11.85135 13.552734,14.01758 5.713404,2.26566 15.94401,2.06609 25.744141,-1.65039 9.800131,-3.71648 19.153185,-11.06245 22.582031,-23.25391 0.463744,-1.64887 0.900029,-3.30406 1.306641,-4.96093 l -1.457032,-0.35743 c -0.402596,1.64051 -0.833748,3.27933 -1.292968,4.91211 -3.279201,11.65939 -12.186375,18.66066 -21.671875,22.25782 -9.485501,3.59716 -19.5642,3.67824 -24.658203,1.6582 -4.902626,-1.94415 -9.837135,-7.41462 -12.761719,-13.29102 -1.462292,-2.9382 -2.427929,-5.97202 -2.689453,-8.67382 -0.261525,-2.70181 0.178065,-5.03755 1.425781,-6.70118 3.183016,-4.24401 7.79565,-6.84265 12.755859,-9.41796 z m 161.707028,3.29607 c -0.0459,3.17728 -0.0764,6.0967 -0.0332,8.77815 0.14455,8.96225 3.76058,15.26367 8.73192,18.717 l 0.9673,-1.15254 c -4.55142,-3.16163 -8.06115,-9.02931 -8.19922,-17.58985 -0.0428,-2.65174 -0.0127,-5.63121 0.0332,-8.80469 z m 12.10156,10.48323 c -2.50767,-0.18236 -5.49304,0.27983 -8.95428,1.08582 l 0.27069,1.47082 c 0,0 6.34912,-1.2225 8.57617,-1.06055 2.22705,0.16196 3.62427,0.83772 4.35938,2.25977 0.86434,1.67205 0.57363,3.90373 -0.66992,6.45703 -1.24356,2.55331 -3.41184,5.34546 -6.01563,7.9668 -5.20758,5.24268 -12.21956,9.80104 -16.77148,10.83203 -3.19774,0.72428 -8.47308,0.55129 -13.59375,-1.72266 -5.12068,-2.27395 -10.07062,-6.41106 -12.94035,-14.07001 l -1.45223,0.15991 c 3.00635,8.02355 8.34406,12.86582 13.7832,15.2812 5.43914,2.41537 10.94868,2.62633 14.5332,1.81445 5.13174,-1.16232 12.13668,-5.83096 17.50586,-11.23633 2.68459,-2.70268 4.94495,-5.5893 6.29883,-8.36914 1.35389,-2.77984 1.82823,-5.53557 0.65625,-7.80273 -1.01699,-1.96735 -3.07826,-2.88404 -5.58594,-3.06641 z"
       id="path8"
       inkscape:label="knots_path"
       sodipodi:nodetypes="sssccsssscccssscsccssssccssscsssssssccsssssssccccsccccccscccsssccsssssscccscscsssccssssscsccssssccccssscccsscssscccsscsssscccccccsscccccscccsscccccsccccsccccssssscccssssscccsssssccsssssscccccccccccccsssssccccssssc" />
    <path
       id="path3"
       style="display:none;opacity:0.377952;fill:none;stroke:#000000;stroke-width:1.5;stroke-dasharray:none"
       inkscape:label="knots"
       d="m 44.283686,191.3809 c 3.616076,6.44377 12.36979,19.00134 28.263157,20.48168 3.913213,0.36448 11.041547,0.44929 19.088452,-4.23958 8.046905,-4.68887 19.505445,-3.39601 23.475595,1.50292 3.97015,4.89893 5.12651,8.7308 8.43814,11.48152 6.62327,5.50145 14.50127,7.12943 19.1883,7.47791 11.73236,0.8723 27.04254,-4.81257 38.95108,-8.11168 m 4.3793,-1.12811 c 6.85544,-1.59638 12.02112,-1.80425 13.77322,1.58515 4.07264,7.87843 -14.27537,24.13865 -23.95902,26.33196 -6.78227,1.53616 -21.57272,-0.76932 -27.44881,-16.45182 m -1.32622,-4.42956 c -0.55556,-2.40122 -0.92809,-5.05266 -1.07806,-7.97661 -0.53619,-10.45403 4.36121,-17.59052 4.30451,-32.73113 m -0.10622,-4.56733 c -0.21515,-20.71313 9.50064,-28.74797 19.14836,-33.20076 19.90207,-9.18557 43.09562,1.68401 43.40181,25.18376 0.0327,2.50855 -0.12671,4.83555 -0.45587,6.99203 m -1.10149,4.84407 c -4.43567,14.31604 -17.57816,19.36574 -29.75012,19.93065 -9.07075,0.42098 -13.35847,-1.87799 -23.15696,-5.58221 -2.0617,-0.7794 -4.33103,-1.54646 -6.62437,-2.29532 m -4.335,-1.398 c -6.91415,-2.22312 -12.95841,-4.23973 -12.80661,-5.88066 0.36829,-3.98111 15.24251,-6.30545 31.13204,-9.08449 5.16134,-0.90271 10.21983,-1.82916 14.98592,-2.54478 m 4.45908,-0.61205 c 8.0269,-0.98125 14.96104,-1.07791 19.76909,0.989 11.20092,4.81512 20.4379,16.61057 20.20826,33.60387 -0.20689,15.3096 -13.46648,24.27174 -23.34665,24.80103 -1.82861,0.098 -3.69552,-0.1558 -5.50344,-0.75386 m -4.19221,-2.1039 c -4.76138,-3.30748 -8.38108,-9.43111 -8.52239,-18.1925 -0.043,-2.6666 -0.0119,-5.65388 0.034,-8.82926 m 0.0677,-4.52431 c 0.20412,-14.40347 0.1722,-31.18833 -4.92413,-39.53999 -3.18265,-5.2156 -7.29388,-8.87312 -11.83864,-11.22136 m -5.142,-2.06497 c -10.12943,-3.00526 -21.38431,-0.57619 -29.10028,4.94278 -5.64608,4.03845 -10.54777,8.47899 -13.56139,13.89272 -2.80296,5.0353 -2.60665,9.35354 -6.95611,13.99455 -4.52562,4.82899 -14.953581,5.87512 -22.444241,2.54526 -2.354926,-1.04685 -8.836245,-4.83644 -12.322925,-5.97328 m -4.578374,-0.78525 c -16.535407,-1.06558 -33.60094,15.15132 -41.030602,20.33481 -2.010838,1.40291 -4.127302,2.60631 -6.258085,3.73979 m -4.02347,2.09251 c -4.973539,2.58223 -9.707449,5.22971 -13.0102882,9.63349 -5.5900405,7.45339 3.9824802,25.70317 14.3477812,29.81355 10.807407,4.2857 40.620943,-0.559 47.32899,-24.40984 0.461482,-1.64083 0.895148,-3.28794 1.299752,-4.93663 m 1.01299,-4.41476 c 4.897607,-22.94338 3.944662,-45.37522 -6.225769,-54.56142 -11.552744,-10.43475 -41.925284,-11.36642 -50.124016,6.70805 -0.804684,1.77396 -1.291663,3.68613 -1.521538,5.70199 m -0.118462,4.51911 c 0.931543,18.18251 17.152701,42.00826 11.888411,50.52402 -2.787399,4.50903 -9.357778,4.51101 -16.177931,2.78091 M 5.0248761,223.6761 c -6.8674958,-2.47769 -13.0690428,-6.0352 -14.8379454,-7.71416 -10.9937467,-10.43474 -6.3911697,-24.99004 0.5590057,-33.72658 6.5056214,-8.17774 16.7701165,-11.92543 23.1054966,-12.48443 16.028119,-1.41424 24.291569,10.54636 28.271025,17.63988"
       sodipodi:nodetypes="zsssssssssssssssssssssssssssssssssszz"
       inkscape:path-effect="#path-effect4"
       inkscape:original-d="m 115.11089,209.12592 c 3.97015,4.89893 5.12651,8.7308 8.43814,11.48152 6.62327,5.50145 14.50127,7.12943 19.1883,7.47791 20.59098,1.53093 52.2025,-17.13572 57.1036,-7.65464 4.07264,7.87843 -14.27537,24.13865 -23.95902,26.33196 -8.27559,1.87439 -28.47404,-1.9708 -29.85309,-28.85799 -0.56572,-11.02969 4.91705,-18.36642 4.24834,-35.30702 -0.87616,-22.19582 9.14728,-30.59942 19.09831,-35.1922 19.90207,-9.18557 43.09562,1.68401 43.40181,25.18376 0.30619,23.49974 -16.24386,31.06763 -31.30748,31.76675 -9.07075,0.42098 -13.35847,-1.87799 -23.15696,-5.58221 -9.70083,-3.6673 -23.99844,-7.06113 -23.76598,-9.57398 0.36829,-3.98111 15.24251,-6.30545 31.13204,-9.08449 15.88953,-2.77904 30.80417,-5.78314 39.21409,-2.16783 11.20092,4.81512 20.4379,16.61057 20.20826,33.60387 -0.20689,15.3096 -13.46648,24.27174 -23.34665,24.80103 -8.5732,0.45927 -17.9884,-6.81264 -18.21804,-21.05026 -0.24947,-15.46717 1.99385,-41.72332 -4.82243,-52.89356 -11.07007,-18.14118 -33.37422,-17.43222 -46.08092,-8.34355 -5.64608,4.03845 -10.54777,8.47899 -13.56139,13.89272 -2.80296,5.0353 -2.60665,9.35354 -6.95611,13.99455 -4.52562,4.82899 -14.953581,5.87512 -22.444241,2.54526 -2.524077,-1.12204 -9.788624,-5.39499 -13.025266,-6.17519 -17.675192,-4.26065 -36.894249,14.16143 -44.906635,19.75147 -8.012389,5.59004 -17.701799,8.0124 -23.2918432,15.46579 -5.5900405,7.45339 3.9824802,25.70317 14.3477812,29.81355 10.807407,4.2857 40.620943,-0.559 47.32899,-24.40984 7.299114,-25.95246 7.639714,-53.47807 -3.913027,-63.91281 -11.552744,-10.43475 -41.925284,-11.36642 -50.124016,6.70805 -8.198732,18.07447 16.583793,50.49671 10.248411,60.74512 -6.335381,10.24841 -32.2133094,-2.78621 -36.1489333,-6.52172 -10.9937467,-10.43474 -6.3911697,-24.99004 0.5590057,-33.72658 6.5056214,-8.17774 16.7701165,-11.92543 23.1054966,-12.48443 18.488835,-1.63136 26.645848,14.5341 29.813538,20.49682 3.167687,5.96271 11.994425,20.0419 28.881872,21.61483 3.913213,0.36448 11.041547,0.44929 19.088452,-4.23958 8.046905,-4.68887 19.505445,-3.39601 23.475595,1.50292 z"
       sodipodi:insensitive="true" />
  </g>
</svg>
