<?xml version="1.0" encoding="UTF-8" standalone="no"?>
<!-- Created with Inkscape (http://www.inkscape.org/) -->

<svg
   width="113.33266mm"
   height="120mm"
   viewBox="0 0 113.33268 120"
   version="1.1"
   id="svg1"
   sodipodi:docname="connected_sum_isotopy_frame_3.svg"
   inkscape:version="1.4.2 (ebf0e940d0, 2025-05-08)"
   inkscape:export-filename="/home/damian/Projects/mphil-thesis/graphics/connected_sum_isotopy_frame_3.pdf"
   inkscape:export-xdpi="96"
   inkscape:export-ydpi="96"
   xmlns:inkscape="http://www.inkscape.org/namespaces/inkscape"
   xmlns:sodipodi="http://sodipodi.sourceforge.net/DTD/sodipodi-0.dtd"
   xmlns="http://www.w3.org/2000/svg"
   xmlns:svg="http://www.w3.org/2000/svg">
  <sodipodi:namedview
     id="namedview1"
     pagecolor="#ffffff"
     bordercolor="#000000"
     borderopacity="0.25"
     inkscape:showpageshadow="2"
     inkscape:pageopacity="0.0"
     inkscape:pagecheckerboard="0"
     inkscape:deskcolor="#d1d1d1"
     inkscape:document-units="mm"
     inkscape:zoom="1.5"
     inkscape:cx="214.33333"
     inkscape:cy="213"
     inkscape:window-width="1916"
     inkscape:window-height="1034"
     inkscape:window-x="0"
     inkscape:window-y="0"
     inkscape:window-maximized="0"
     inkscape:current-layer="layer1" />
  <defs
     id="defs1">
    <inkscape:path-effect
       effect="knot"
       id="path-effect14"
       is_visible="true"
       lpeversion="1"
       switcher_size="15"
       interruption_width="3"
       prop_to_stroke_width="true"
       add_stroke_width="inkscape_1.0_and_up"
       both="false"
       inverse_width="false"
       add_other_stroke_width="inkscape_1.0_and_up"
       crossing_points_vector="63.092241 | 170.23093 | 0 | 0 | 0 | 11 | 0.57969346 | 11.741666 | -1 | 70.327085 | 175.48102 | 0 | 0 | 1 | 28 | 1.4000486 | 28.560145 | -1 | 61.257922 | 188.88703 | 0 | 0 | 2 | 7 | 2.4784504 | 7.2095175 | -1 | 55.773852 | 190.35852 | 0 | 0 | 3 | 8 | 3.0041842 | 8.6597969 | -1 | 45.695772 | 189.4984 | 0 | 0 | 4 | 15 | 3.9080354 | 14.177631 | -1 | 49.696018 | 174.80314 | 0 | 0 | 5 | 10 | 5.1497439 | 10.219076 | -1 | 58.645581 | 179.34481 | 0 | 0 | 6 | 13 | 5.9639914 | 13.173258 | -1 | 50.773592 | 181.6158 | 0 | 0 | 9 | 14 | 9.4735918 | 13.730235 | -1 | 64.378099 | 175.53595 | 0 | 0 | 12 | 29 | 12.484779 | 28.746715 | -1 | 41.315175 | 193.57562 | 0 | 0 | 16 | 25 | 14.509115 | 24.863379 | -1 | 23.154857 | 202.01504 | 0 | 0 | 17 | 22 | 15.323205 | 20.602042 | 1 | 8.3359532 | 226.72371 | 0 | 0 | 18 | 23 | 16.417988 | 21.49517 | 1 | 67.295761 | 225.83954 | 0 | 0 | 19 | 26 | 17.894993 | 26.14052 | -1 | 74.788043 | 175.39818 | 0 | 0 | 20 | 27 | 18.58687 | 28.440484 | -1 | 14.413516 | 169.70859 | 0 | 0 | 21 | 24 | 20.134299 | 24.010196 | 1" />
    <inkscape:path-effect
       effect="knot"
       id="path-effect6"
       is_visible="true"
       lpeversion="1"
       switcher_size="15"
       interruption_width="3"
       prop_to_stroke_width="true"
       add_stroke_width="inkscape_1.0_and_up"
       both="false"
       inverse_width="false"
       add_other_stroke_width="inkscape_1.0_and_up"
       crossing_points_vector="63.092241 | 170.23093 | 0 | 0 | 0 | 11 | 0.57969346 | 11.741666 | -1 | 70.327085 | 175.48102 | 0 | 0 | 1 | 28 | 1.4000486 | 28.560145 | -1 | 61.257922 | 188.88703 | 0 | 0 | 2 | 7 | 2.4784504 | 7.2095175 | -1 | 55.773852 | 190.35852 | 0 | 0 | 3 | 8 | 3.0041842 | 8.6597969 | -1 | 45.695772 | 189.4984 | 0 | 0 | 4 | 15 | 3.9080354 | 14.177631 | -1 | 49.696018 | 174.80314 | 0 | 0 | 5 | 10 | 5.1497439 | 10.219076 | -1 | 58.645581 | 179.34481 | 0 | 0 | 6 | 13 | 5.9639914 | 13.173258 | -1 | 50.773592 | 181.6158 | 0 | 0 | 9 | 14 | 9.4735918 | 13.730235 | -1 | 64.378099 | 175.53595 | 0 | 0 | 12 | 29 | 12.484779 | 28.746715 | -1 | 41.315175 | 193.57562 | 0 | 0 | 16 | 25 | 14.509115 | 24.863379 | -1 | 23.154857 | 202.01504 | 0 | 0 | 17 | 22 | 15.323205 | 20.602042 | 1 | 8.3359532 | 226.72371 | 0 | 0 | 18 | 23 | 16.417988 | 21.49517 | 1 | 67.295761 | 225.83954 | 0 | 0 | 19 | 26 | 17.894993 | 26.14052 | -1 | 74.788043 | 175.39818 | 0 | 0 | 20 | 27 | 18.58687 | 28.440484 | -1 | 14.413516 | 169.70859 | 0 | 0 | 21 | 24 | 20.134299 | 24.010196 | 1" />
    <inkscape:path-effect
       effect="knot"
       id="path-effect2"
       is_visible="true"
       lpeversion="1"
       switcher_size="15"
       interruption_width="3"
       prop_to_stroke_width="true"
       add_stroke_width="inkscape_1.0_and_up"
       both="false"
       inverse_width="false"
       add_other_stroke_width="inkscape_1.0_and_up"
       crossing_points_vector="63.092241 | 170.23093 | 0 | 0 | 0 | 11 | 0.57969346 | 11.741666 | -1 | 70.327085 | 175.48102 | 0 | 0 | 1 | 28 | 1.4000486 | 28.560145 | -1 | 61.257922 | 188.88703 | 0 | 0 | 2 | 7 | 2.4784504 | 7.2095175 | -1 | 55.773852 | 190.35852 | 0 | 0 | 3 | 8 | 3.0041842 | 8.6597969 | -1 | 45.695772 | 189.4984 | 0 | 0 | 4 | 15 | 3.9080354 | 14.177631 | -1 | 49.696018 | 174.80314 | 0 | 0 | 5 | 10 | 5.1497439 | 10.219076 | -1 | 58.645581 | 179.34481 | 0 | 0 | 6 | 13 | 5.9639914 | 13.173258 | -1 | 50.773592 | 181.6158 | 0 | 0 | 9 | 14 | 9.4735918 | 13.730235 | -1 | 64.378099 | 175.53595 | 0 | 0 | 12 | 29 | 12.484779 | 28.746715 | -1 | 41.315175 | 193.57562 | 0 | 0 | 16 | 25 | 14.509115 | 24.863379 | -1 | 23.154857 | 202.01504 | 0 | 0 | 17 | 22 | 15.323205 | 20.602042 | 1 | 8.3359532 | 226.72371 | 0 | 0 | 18 | 23 | 16.417988 | 21.49517 | 1 | 67.295761 | 225.83954 | 0 | 0 | 19 | 26 | 17.894993 | 26.14052 | -1 | 74.788043 | 175.39818 | 0 | 0 | 20 | 27 | 18.58687 | 28.440484 | -1 | 14.413516 | 169.70859 | 0 | 0 | 21 | 24 | 20.134299 | 24.010196 | 1" />
    <inkscape:path-effect
       effect="knot"
       id="path-effect17"
       is_visible="true"
       lpeversion="1"
       switcher_size="15"
       interruption_width="3"
       prop_to_stroke_width="true"
       add_stroke_width="inkscape_1.0_and_up"
       both="false"
       inverse_width="false"
       add_other_stroke_width="inkscape_1.0_and_up"
       crossing_points_vector="102.34648 | 210.72355 | 0 | 0 | 0 | 11 | 0.57969318 | 11.741665 | 1 | 95.321518 | 215.716 | 0 | 0 | 1 | 28 | 1.3786713 | 29.310344 | -1 | 85.606842 | 202.28559 | 0 | 0 | 2 | 7 | 2.4784505 | 7.2095173 | -1 | 86.211797 | 196.63985 | 0 | 0 | 3 | 8 | 3.0041841 | 8.6597969 | -1 | 93.174143 | 186.55588 | 0 | 0 | 4 | 15 | 4.1088602 | 14.246318 | -1 | 102.91228 | 196.57986 | 0 | 0 | 5 | 10 | 5.1497438 | 10.219076 | 1 | 95.159013 | 203.37097 | 0 | 0 | 6 | 13 | 5.9884197 | 13.178262 | 1 | 94.433382 | 195.35526 | 0 | 0 | 9 | 14 | 9.3234692 | 13.76812 | 1 | 96.610635 | 209.66195 | 0 | 0 | 12 | 29 | 12.543522 | 29.636379 | 1 | 74.773167 | 175.2754 | 0 | 0 | 16 | 21 | 15.193472 | 19.588787 | -1 | 40.925389 | 192.82881 | 0 | 0 | 17 | 26 | 15.82881 | 26.011164 | -1 | 23.242626 | 202.24971 | 0 | 0 | 18 | 23 | 16.325764 | 21.605583 | 1 | 8.3359532 | 226.72371 | 0 | 0 | 19 | 24 | 17.417988 | 22.49517 | 1 | 65.701492 | 228.4076 | 0 | 0 | 20 | 27 | 18.850344 | 27.310743 | -1 | 14.413548 | 169.7072 | 0 | 0 | 22 | 25 | 21.134278 | 25.010209 | 1" />
    <inkscape:path-effect
       effect="knot"
       id="path-effect15"
       is_visible="true"
       lpeversion="1"
       switcher_size="15"
       interruption_width="3"
       prop_to_stroke_width="true"
       add_stroke_width="inkscape_1.0_and_up"
       both="false"
       inverse_width="false"
       add_other_stroke_width="inkscape_1.0_and_up"
       crossing_points_vector="102.34648 | 210.72355 | 0 | 0 | 0 | 11 | 0.57969318 | 11.741665 | 1 | 95.321518 | 215.716 | 0 | 0 | 1 | 28 | 1.3786713 | 29.310344 | -1 | 85.606842 | 202.28559 | 0 | 0 | 2 | 7 | 2.4784505 | 7.2095173 | -1 | 86.211797 | 196.63985 | 0 | 0 | 3 | 8 | 3.0041841 | 8.6597969 | -1 | 93.174143 | 186.55588 | 0 | 0 | 4 | 15 | 4.1088602 | 14.246318 | -1 | 102.91228 | 196.57986 | 0 | 0 | 5 | 10 | 5.1497438 | 10.219076 | 1 | 95.159013 | 203.37097 | 0 | 0 | 6 | 13 | 5.9884197 | 13.178262 | 1 | 94.433382 | 195.35526 | 0 | 0 | 9 | 14 | 9.3234692 | 13.76812 | 1 | 96.610635 | 209.66195 | 0 | 0 | 12 | 29 | 12.543522 | 29.636379 | 1 | 74.773167 | 175.2754 | 0 | 0 | 16 | 21 | 15.193472 | 19.588787 | -1 | 40.925389 | 192.82881 | 0 | 0 | 17 | 26 | 15.82881 | 26.011164 | -1 | 23.242626 | 202.24971 | 0 | 0 | 18 | 23 | 16.325764 | 21.605583 | 1 | 8.3359532 | 226.72371 | 0 | 0 | 19 | 24 | 17.417988 | 22.49517 | 1 | 65.701492 | 228.4076 | 0 | 0 | 20 | 27 | 18.850344 | 27.310743 | -1 | 14.413548 | 169.7072 | 0 | 0 | 22 | 25 | 21.134278 | 25.010209 | 1" />
    <inkscape:path-effect
       effect="knot"
       id="path-effect13"
       is_visible="true"
       lpeversion="1"
       switcher_size="15"
       interruption_width="3"
       prop_to_stroke_width="true"
       add_stroke_width="inkscape_1.0_and_up"
       both="false"
       inverse_width="false"
       add_other_stroke_width="inkscape_1.0_and_up"
       crossing_points_vector="63.092241 | 170.23093 | 0 | 0 | 0 | 11 | 0.57969346 | 11.741666 | -1 | 70.327085 | 175.48102 | 0 | 0 | 1 | 28 | 1.4000486 | 28.560145 | -1 | 61.257922 | 188.88703 | 0 | 0 | 2 | 7 | 2.4784504 | 7.2095175 | -1 | 55.773852 | 190.35852 | 0 | 0 | 3 | 8 | 3.0041842 | 8.6597969 | -1 | 45.695772 | 189.4984 | 0 | 0 | 4 | 15 | 3.9080354 | 14.177631 | -1 | 49.696018 | 174.80314 | 0 | 0 | 5 | 10 | 5.1497439 | 10.219076 | -1 | 58.645581 | 179.34481 | 0 | 0 | 6 | 13 | 5.9639914 | 13.173258 | -1 | 50.773592 | 181.6158 | 0 | 0 | 9 | 14 | 9.4735918 | 13.730235 | -1 | 64.378099 | 175.53595 | 0 | 0 | 12 | 29 | 12.484779 | 28.746715 | -1 | 41.315175 | 193.57562 | 0 | 0 | 16 | 25 | 14.509115 | 24.863379 | -1 | 23.154857 | 202.01504 | 0 | 0 | 17 | 22 | 15.323205 | 20.602042 | 1 | 8.3359532 | 226.72371 | 0 | 0 | 18 | 23 | 16.417988 | 21.49517 | 1 | 67.295761 | 225.83954 | 0 | 0 | 19 | 26 | 17.894993 | 26.14052 | -1 | 74.788043 | 175.39818 | 0 | 0 | 20 | 27 | 18.58687 | 28.440484 | -1 | 14.413516 | 169.70859 | 0 | 0 | 21 | 24 | 20.134299 | 24.010196 | 1" />
    <inkscape:path-effect
       effect="knot"
       id="path-effect12"
       is_visible="true"
       lpeversion="1"
       switcher_size="15"
       interruption_width="3"
       prop_to_stroke_width="true"
       add_stroke_width="inkscape_1.0_and_up"
       both="false"
       inverse_width="false"
       add_other_stroke_width="inkscape_1.0_and_up"
       crossing_points_vector="31.739568 | 198.0738 | 0 | 1 | 3 | 0 | 1 | 0 | 1 | 75.048583 | 177.99866 | 0 | 4 | 1 | 2 | 0.030056849 | 0.54698861 | -1 | 43.206528 | 189.38336 | 0 | 10 | 2 | 2 | 0.66214459 | 0.95500006 | -1 | 76.646203 | 178.32233 | 0 | 12 | 0 | 19 | 0 | 24 | -1 | 8.4477248 | 213.53959 | 1 | 2 | 2 | 0 | 1 | 0 | 1 | 23.47175 | 202.86524 | 1 | 6 | 1 | 2 | 0.32981374 | 0.61491599 | 1 | 22.795506 | 243.35314 | 2 | 3 | 2 | 0 | 1 | 7.2164497e-15 | 1 | 7.6128182 | 224.54536 | 2 | 7 | 1 | 1 | 0.3578284 | 0.49459952 | 1 | 70.124496 | 218.9433 | 3 | 4 | 1 | 0 | 1 | 3.8803158e-15 | -1 | 66.211469 | 155.03049 | 4 | 5 | 3 | 0 | 1 | 5.5442437e-15 | -1 | 71.947924 | 211.80121 | 4 | 11 | 1 | 1 | 0.091409604 | 0.98811083 | -1 | 16.087453 | 161.73854 | 5 | 6 | 1 | 0 | 1 | 0 | 1 | 26.335864 | 222.48366 | 6 | 7 | 3 | 0 | 1 | 9.0036166e-15 | 1 | 14.413563 | 169.70656 | 6 | 10 | 1 | 1 | 0.13426764 | 0.010192537 | 1 | -9.8130693 | 215.96194 | 7 | 8 | 2 | 0 | 1 | 0 | 1 | -9.2540636 | 182.23536 | 8 | 9 | 1 | 0 | 1 | 6.1062266e-16 | 1 | 13.851433 | 169.75093 | 9 | 10 | 1 | 0 | 1 | 5.1347815e-15 | 1 | 43.664971 | 190.24775 | 10 | 11 | 3 | 0 | 1 | 0 | -1 | 72.546843 | 211.86258 | 11 | 12 | 2 | 0 | 1 | 8.0768725e-15 | -1 | 147.69227 | 228.10066 | 12 | 12 | 1 | 4 | 4.0772964 | 6.856608 | -1 | 183.87451 | 219.38657 | 12 | 12 | 2 | 15 | 4.6053068 | 17.899405 | 1 | 194.03498 | 234.67515 | 12 | 12 | 3 | 14 | 5.4672829 | 17.301923 | 1 | 149.52138 | 195.77685 | 12 | 12 | 5 | 10 | 7.6955013 | 12.279427 | -1 | 150.28807 | 182.88832 | 12 | 12 | 6 | 11 | 7.9942621 | 13.658389 | -1 | 164.44029 | 150.06844 | 12 | 12 | 7 | 18 | 8.8331807 | 19.33806 | -1 | 211.85134 | 182.06603 | 12 | 12 | 8 | 13 | 10.149063 | 15.217689 | 1 | 183.60464 | 204.21067 | 12 | 12 | 9 | 16 | 10.952936 | 18.212815 | 1 | 182.89257 | 177.24923 | 12 | 12 | 12 | 17 | 14.375947 | 18.673948 | 1" />
    <inkscape:path-effect
       effect="knot"
       id="path-effect4"
       is_visible="true"
       lpeversion="1"
       switcher_size="15"
       interruption_width="3"
       prop_to_stroke_width="true"
       add_stroke_width="inkscape_1.0_and_up"
       both="false"
       inverse_width="false"
       add_other_stroke_width="inkscape_1.0_and_up"
       crossing_points_vector="75.048583 | 177.99866 | 0 | 0 | 0 | 5 | 2.0300568 | 6.5469886 | -1 | 43.206528 | 189.38336 | 0 | 0 | 1 | 10 | 2.6621446 | 12.955 | -1 | 23.47175 | 202.86524 | 0 | 0 | 2 | 7 | 3.3298137 | 8.614916 | 1 | 7.6128182 | 224.54536 | 0 | 0 | 3 | 8 | 4.3578284 | 9.4945995 | 1 | 71.947924 | 211.80121 | 0 | 0 | 4 | 11 | 6.0914096 | 13.988111 | -1 | 14.413563 | 169.70656 | 0 | 0 | 6 | 9 | 8.1342676 | 12.010193 | 1" />
    <inkscape:path-effect
       effect="knot"
       id="path-effect11"
       is_visible="true"
       lpeversion="1"
       switcher_size="15"
       interruption_width="3"
       prop_to_stroke_width="true"
       add_stroke_width="inkscape_1.0_and_up"
       both="false"
       inverse_width="false"
       add_other_stroke_width="inkscape_1.0_and_up"
       crossing_points_vector="147.69227 | 228.10066 | 0 | 0 | 0 | 3 | 2.0772964 | 4.856608 | 1 | 183.87451 | 219.38657 | 0 | 0 | 1 | 14 | 2.6053068 | 15.899405 | 1 | 194.03498 | 234.67515 | 0 | 0 | 2 | 13 | 3.4672829 | 15.301923 | 1 | 149.52138 | 195.77685 | 0 | 0 | 4 | 9 | 5.6955013 | 10.279427 | 1 | 150.28807 | 182.88832 | 0 | 0 | 5 | 10 | 5.9942621 | 11.658389 | 1 | 164.44029 | 150.06844 | 0 | 0 | 6 | 17 | 6.8331807 | 17.33806 | 1 | 211.85134 | 182.06603 | 0 | 0 | 7 | 12 | 8.1490625 | 13.217689 | 1 | 183.60464 | 204.21067 | 0 | 0 | 8 | 15 | 8.9529358 | 16.212815 | 1 | 182.89257 | 177.24923 | 0 | 0 | 11 | 16 | 12.375947 | 16.673948 | 1 | 75.048583 | 177.99866 | 0 | 0 | 18 | 23 | 22.030057 | 26.546989 | 1 | 43.206528 | 189.38336 | 0 | 0 | 19 | 28 | 22.662145 | 32.955 | 1 | 23.47175 | 202.86524 | 0 | 0 | 20 | 25 | 23.329814 | 28.614916 | 1 | 7.6128182 | 224.54536 | 0 | 0 | 21 | 26 | 24.357828 | 29.4946 | 1 | 71.947924 | 211.80121 | 0 | 0 | 22 | 29 | 26.09141 | 33.988111 | 1 | 14.413563 | 169.70656 | 0 | 0 | 24 | 27 | 28.134268 | 32.010193 | 1" />
    <inkscape:path-effect
       effect="knot"
       id="path-effect9"
       is_visible="true"
       lpeversion="1"
       switcher_size="15"
       interruption_width="3"
       prop_to_stroke_width="true"
       add_stroke_width="inkscape_1.0_and_up"
       both="false"
       inverse_width="false"
       add_other_stroke_width="inkscape_1.0_and_up"
       crossing_points_vector="147.69227 | 228.10066 | 0 | 0 | 0 | 3 | 2.0772964 | 4.856608 | -1 | 183.87451 | 219.38657 | 0 | 0 | 1 | 14 | 2.6053068 | 15.899405 | 1 | 194.03498 | 234.67515 | 0 | 0 | 2 | 13 | 3.4672829 | 15.301923 | 1 | 149.52138 | 195.77685 | 0 | 0 | 4 | 9 | 5.6955013 | 10.279427 | -1 | 150.28807 | 182.88832 | 0 | 0 | 5 | 10 | 5.9942621 | 11.658389 | -1 | 164.44029 | 150.06844 | 0 | 0 | 6 | 17 | 6.8331807 | 17.33806 | -1 | 211.85134 | 182.06603 | 0 | 0 | 7 | 12 | 8.1490625 | 13.217689 | 1 | 183.60464 | 204.21067 | 0 | 0 | 8 | 15 | 8.9529358 | 16.212815 | 1 | 182.89257 | 177.24923 | 0 | 0 | 11 | 16 | 12.375947 | 16.673948 | 1 | 75.048583 | 177.99866 | 0 | 0 | 18 | 23 | 22.030057 | 26.546989 | -1 | 43.206528 | 189.38336 | 0 | 0 | 19 | 28 | 22.662145 | 32.955 | -1 | 23.47175 | 202.86524 | 0 | 0 | 20 | 25 | 23.329814 | 28.614916 | 1 | 7.6128182 | 224.54536 | 0 | 0 | 21 | 26 | 24.357828 | 29.4946 | 1 | 71.947924 | 211.80121 | 0 | 0 | 22 | 29 | 26.09141 | 33.988111 | -1 | 14.413563 | 169.70656 | 0 | 0 | 24 | 27 | 28.134268 | 32.010193 | 1" />
    <inkscape:path-effect
       effect="knot"
       id="path-effect5"
       is_visible="true"
       lpeversion="1"
       switcher_size="15"
       interruption_width="3"
       prop_to_stroke_width="true"
       add_stroke_width="inkscape_1.0_and_up"
       both="false"
       inverse_width="false"
       add_other_stroke_width="inkscape_1.0_and_up"
       crossing_points_vector="48.989694 | 207.97655 | 0 | 0 | 0 | 19 | 7.2857023e-16 | 22 | 0 | 84.792825 | 246.1885 | 0 | 0 | 1 | 4 | 3.0772964 | 5.8566079 | -1 | 120.97507 | 237.47441 | 0 | 0 | 2 | 15 | 3.6053068 | 16.899405 | 1 | 131.13554 | 252.76299 | 0 | 0 | 3 | 14 | 4.4672829 | 16.301923 | 1 | 86.621936 | 213.86468 | 0 | 0 | 5 | 10 | 6.6955013 | 11.279427 | -1 | 87.388621 | 200.97617 | 0 | 0 | 6 | 11 | 6.9942621 | 12.658389 | -1 | 101.54085 | 168.15628 | 0 | 0 | 7 | 18 | 7.8331807 | 18.33806 | -1 | 148.9519 | 200.15387 | 0 | 0 | 8 | 13 | 9.1490625 | 14.217689 | 1 | 120.7052 | 222.29851 | 0 | 0 | 9 | 16 | 9.9529358 | 17.212815 | 1 | 119.99313 | 195.33707 | 0 | 0 | 12 | 17 | 13.375947 | 17.673948 | 1" />
    <inkscape:path-effect
       effect="knot"
       id="path-effect8"
       is_visible="true"
       lpeversion="1"
       switcher_size="15"
       interruption_width="3"
       prop_to_stroke_width="true"
       add_stroke_width="inkscape_1.0_and_up"
       both="false"
       inverse_width="false"
       add_other_stroke_width="inkscape_1.0_and_up"
       crossing_points_vector="84.792825 | 246.1885 | 0 | 0 | 0 | 3 | 1.0772964 | 3.8566079 | -1 | 120.97507 | 237.47441 | 0 | 0 | 1 | 14 | 1.6053068 | 14.899405 | 1 | 131.13554 | 252.76299 | 0 | 0 | 2 | 13 | 2.4672829 | 14.301923 | 1 | 86.621936 | 213.86468 | 0 | 0 | 4 | 9 | 4.6955013 | 9.2794271 | -1 | 87.388621 | 200.97617 | 0 | 0 | 5 | 10 | 4.9942621 | 10.658389 | -1 | 101.54085 | 168.15628 | 0 | 0 | 6 | 17 | 5.8331807 | 16.33806 | -1 | 148.9519 | 200.15387 | 0 | 0 | 7 | 12 | 7.1490625 | 12.217689 | 1 | 120.7052 | 222.29851 | 0 | 0 | 8 | 15 | 7.9529358 | 15.212815 | 1 | 119.99313 | 195.33707 | 0 | 0 | 11 | 16 | 11.375947 | 15.673948 | 1" />
  </defs>
  <g
     inkscape:groupmode="layer"
     id="layer2"
     inkscape:label="Layer 2"
     style="display:none"
     sodipodi:insensitive="true"
     transform="translate(-3.5,-5.65696)">
    <path
       style="baseline-shift:baseline;display:inline;overflow:visible;vector-effect:none;fill:#008080;fill-opacity:0.702583;enable-background:accumulate;stop-color:#000000"
       d="M 55.727022,0.11451 C 45.487744,0.84928 35.538724,5.23994 31.293428,14.59889 c -0.841606,1.85536 -1.420892,4.24465 -1.658161,6.32643 l 1.536594,-0.11751 c 0.222354,-1.95092 0.718677,-3.89642 1.486801,-5.58978 3.953436,-8.71553 13.29092,-12.89809 23.175781,-13.60742 9.884862,-0.70933 20.221679,2.1408 25.763672,7.14648 5.530215,4.99504 8.336891,14.28573 8.779297,25.60938 0.442406,11.32364 -1.454268,24.63033 -5.085937,37.54296 -0.762742,2.71198 -1.994981,5.3973 -3.301764,7.61791 l 1.265462,0.81477 c 1.371093,-2.32988 2.682112,-5.19069 3.479661,-8.02643 C 90.402279,59.27585 92.32616,45.84383 91.875459,34.30787 91.424758,22.77191 88.626501,13.08351 82.603975,7.64381 76.593224,2.21474 65.966299,-0.62025 55.727022,0.11451 Z M 29.674287,22.17311 C 23.117205,22.75167 12.722734,26.54562 6.0473341,34.93678 -1.078325,43.89391 -2.671048,56.42057 5.437959,69.52662 8.2612389,74.0897 15.631149,78.4349 22.415267,80.24818 l -0.64137,-1.76843 C 15.276689,76.53284 9.1943403,72.74547 6.7133497,68.73561 -1.127895,56.06232 0.446471,44.38828 7.2211622,35.87232 13.557005,27.908 23.693422,24.20669 29.8071,23.66725 c 8.250907,-0.72802 13.655732,2.59631 17.533203,7.02734 3.877471,4.43103 6.267208,10.24555 7.927845,13.8556 l 1.256198,-0.82922 C 54.894178,40.17715 52.564096,34.38579 48.469209,29.70631 44.374322,25.02683 38.38855,21.4042 29.674287,22.17311 Z m 1.391432,2.62847 -1.498047,0.10721 c 0.476397,9.29666 4.826756,20.0921 8.335131,29.37176 1.754187,4.63983 3.30606,8.96407 4.083984,12.59961 0.777924,3.63554 0.742841,6.52956 -0.40039,8.3789 -1.271476,2.0568 -3.304073,3.35813 -5.863282,4.05469 -2.559208,0.69656 -6.540718,0.82997 -9.743163,0.17627 l 0.721679,1.61668 c 3.333265,0.47461 6.588646,0.42384 9.416016,-0.3457 2.827369,-0.76955 5.244924,-2.28453 6.746093,-4.71289 1.488897,-2.40851 1.401886,-5.68744 0.589844,-9.48243 C 42.641542,62.7707 41.064622,58.40505 39.305147,53.75123 35.786196,44.4436 31.521061,33.68738 31.065719,24.80158 Z m 61.486824,2.70664 0.209444,1.4838 c 2.546157,-0.12654 5.239851,0.16096 7.744333,1.00335 4.29578,1.4449 6.24126,4.52308 7.34038,8.06865 l 1.42341,-0.46567 c -1.18342,-3.81751 -3.54561,-7.43066 -8.28527,-9.02485 -2.69062,-0.905 -5.71876,-1.20014 -8.432297,-1.06528 z m -3.957684,0.55326 c -13.745741,3.07323 -27.792625,15.84113 -41.297525,22.50811 -2.157942,1.06531 -4.544603,2.22599 -6.686896,3.28764 l 0.601297,1.35993 c 2.125939,-1.05355 4.576941,-2.22926 6.749662,-3.30187 13.814509,-6.81982 27.692488,-19.44471 40.774591,-22.36957 z m 22.778651,10.65655 c -1.45733,-0.0244 -2.96538,0.28329 -4.40821,0.94922 -2.43323,1.12302 -5.27333,3.53932 -5.58566,8.20416 l 1.54074,-0.26276 c 0.44126,-4.04404 2.48414,-5.56946 4.67383,-6.58008 2.4819,-1.14549 5.1408,-1.03424 7.17187,0.0527 2.03108,1.08697 3.45817,3.10812 3.52344,6.01562 l 1.48305,1.01756 c 0.41518,-3.43157 -1.82775,-7.03266 -4.29945,-8.35545 -1.23586,-0.66139 -2.64228,-1.01663 -4.09961,-1.04101 z m -1.21692,2.75308 -1.47224,0.42388 c 0.12542,0.80409 0.27666,1.78721 0.38252,2.61405 0.53163,4.15248 0.88695,7.6399 1.09179,10.3152 l 1.4961,-0.49362 c -0.20848,-2.72274 -0.5692,-5.85486 -1.10157,-10.01298 -0.10658,-0.83249 -0.2678,-2.02079 -0.3966,-2.84653 z m 4.87317,5.97739 c -0.7894,-0.0577 -1.63923,-0.024 -2.53907,0.0547 l 0.13086,1.49414 c 1.69347,-0.1481 3.09832,-0.0653 3.98633,0.31641 2.76458,1.18846 5.08194,4.07752 5.02344,8.40625 -0.0248,1.83407 -0.78388,3.33082 -1.89258,4.2793 l 0.44325,1.64402 c 1.49919,-0.9735 2.91881,-3.64476 2.94933,-5.90183 0.066,-4.88153 -2.62343,-8.38533 -5.92969,-9.80665 -0.65293,-0.28068 -1.38248,-0.42859 -2.17187,-0.48632 z M 58.412547,47.428 57.129882,48.18048 c 4.911581,9.02384 11.344019,19.58311 17.499483,27.50048 3.722355,4.78782 7.023218,7.2832 10.259766,8.49609 3.236548,1.2129 6.340788,1.12708 9.597656,0.9336 4.220571,-0.25074 8.356763,-1.05697 11.542973,-2.73438 3.1862,-1.67741 5.44665,-4.34677 5.54297,-8.05273 0.0555,-2.13424 0.34098,-6.07047 0.97523,-9.04218 l -1.26897,-1.0667 c -0.75631,3.06394 -1.14914,7.87184 -1.20626,10.06981 -0.0815,3.13454 -1.8573,5.24788 -4.74024,6.76563 -2.88294,1.51775 -6.848004,2.31978 -10.933593,2.5625 -3.225458,0.19162 -6.064645,0.25432 -8.984375,-0.83984 C 82.494791,81.67859 79.427187,79.40978 75.812959,74.76104 69.742227,66.95265 63.296336,56.40078 58.412547,47.428 Z m 49.558613,0.72366 c -0.60124,0.1049 -1.20956,0.21315 -1.82226,0.32031 -2.11136,0.36928 -4.20519,0.54789 -5.84375,0.86524 -0.819286,0.15868 -1.52674,0.34311 -2.113285,0.66992 -0.586544,0.32681 -1.098828,0.93295 -1.101562,1.66406 -0.0048,1.27188 1.264185,2.59023 2.334736,3.42393 l 0.509014,-1.4708 c -0.891403,-0.69419 -1.345806,-1.39675 -1.34375,-1.94727 5.15e-4,-0.13783 0.0089,-0.17933 0.332031,-0.35937 0.323128,-0.18004 0.917145,-0.3624 1.667966,-0.50782 1.50165,-0.29083 3.62176,-0.47553 5.81641,-0.85937 0.6161,-0.10775 1.22493,-0.2161 1.82227,-0.32031 z m 9.56079,3.06137 c -1.34791,2.44629 -4.16989,3.9268 -6.81665,4.6398 -2.43757,0.65665 -4.94566,0.46348 -7.29674,-0.34275 l -0.39978,1.44246 c 2.58899,0.88781 5.40334,1.07249 8.08715,0.34951 2.77601,-0.74782 5.88469,-1.97923 7.53515,-4.97461 z m -16.21704,0.51978 c -0.23904,2.98619 -1.24884,5.07767 -1.11133,7.7587 0.11061,2.15643 1.25121,4.07736 2.83594,5.65234 1.58473,1.57497 4.00172,2.98672 6.07922,3.84616 l 0.28039,-1.53168 c -1.91979,-0.7942 -3.89572,-1.98034 -5.30297,-3.37893 -1.40725,-1.39859 -2.30876,-2.99385 -2.39453,-4.66602 -0.11515,-2.24502 0.87337,-4.5155 1.13386,-7.76958 z m -64.160136,3.86455 c -4.997382,2.71936 -9.998296,6.10214 -13.417987,10.66172 -1.547304,2.06308 -2.005743,4.80136 -1.720703,7.7461 0.28504,2.94474 1.312098,6.12755 2.839844,9.19726 3.055491,6.13944 8.090059,11.85135 13.552734,14.01758 4.665037,1.84993 12.327023,2.03751 20.332031,0.041 8.005009,-1.9965 16.531239,-6.45865 22.284349,-13.64856 l -1.197429,-0.89887 c -5.48982,6.86087 -13.690684,11.15708 -21.450201,13.09235 -7.759516,1.93527 -15.256724,1.66891 -19.416015,0.0195 -4.902626,-1.94415 -9.837135,-7.41462 -12.761719,-13.29102 -1.462292,-2.9382 -2.427929,-5.97202 -2.689453,-8.67382 -0.261525,-2.70181 0.178065,-5.03755 1.425781,-6.70118 3.230436,-4.30724 7.898769,-7.49587 12.8077,-10.1671 z m 74.691176,2.65655 -1.47635,0.50215 c 0.10446,4.40934 3.19845,6.72969 5.94763,6.45503 0,0 0.0614,-0.50643 0.0534,-0.75964 -0.008,-0.25322 -0.10161,-0.75965 -0.10161,-0.75965 -1.84377,0.2586 -4.49072,-1.21899 -4.42305,-5.43791 z m 3.88107,1.15752 c -0.97566,-0.25871 -1.94417,0.1308 -2.59179,0.81445 0,0 0.20695,0.49299 0.35257,0.68933 0.14561,0.19634 0.55233,0.59144 0.55233,0.59144 0.39631,-0.41835 0.8368,-0.76744 1.30213,-0.64405 0.51319,0.13608 1.51673,1.1414 1.97656,2.50976 0.45983,1.36837 0.46354,2.98497 -0.44727,4.34766 -0.4199,0.62823 -1.81753,1.01205 -3.55914,0.84378 l -0.22093,1.46476 c 2.00028,0.19326 4.10981,-0.10065 5.02812,-1.47455 1.21615,-1.81954 1.19566,-3.94842 0.62109,-5.65821 -0.57456,-1.70979 -1.61734,-3.11411 -3.01367,-3.48437 z"
       id="path15"
       inkscape:label="prev_frame"
       sodipodi:nodetypes="sscccssssccssssccsccssssccscccssssccsssscccsccsccsccsccccccscccsccccsccscscccsccssssccsssssccsssssccssscccsssscccsccscccssccsscccsssssccscsscccccczcccsczcsssccsss" />
  </g>
  <g
     inkscape:label="Layer 1"
     inkscape:groupmode="layer"
     id="layer1"
     style="display:inline"
     transform="translate(12.389131,-152.48776)">
    <path
       style="display:none;fill:none;stroke:#000000;stroke-width:1.5;stroke-dasharray:none"
       d="m 48.989694,207.97655 c -0.165952,7.92118 1.093205,14.2255 3.221758,19.23721 2.128554,5.01171 5.126504,8.7308 8.438138,11.48152 6.623267,5.50145 14.501269,7.12943 19.188303,7.47791 20.590977,1.53093 52.202497,-17.13572 57.103597,-7.65464 4.07264,7.87843 -14.27537,24.13865 -23.95902,26.33196 -8.27559,1.87439 -28.474045,-1.9708 -29.853093,-28.85799 -0.565715,-11.02969 4.917049,-18.36642 4.248338,-35.30702 -0.876154,-22.19582 9.147286,-30.59942 19.098315,-35.1922 19.90207,-9.18557 43.09562,1.68401 43.40181,25.18376 0.30619,23.49974 -16.24386,31.06763 -31.30748,31.76675 -9.07075,0.42098 -13.35847,-1.87799 -23.156961,-5.58221 -9.70083,-3.6673 -23.998439,-7.06113 -23.765977,-9.57398 0.36829,-3.98111 15.24251,-6.30545 31.132038,-9.08449 15.88953,-2.77904 30.80417,-5.78314 39.21409,-2.16783 11.20092,4.81512 20.4379,16.61057 20.20826,33.60387 -0.20689,15.3096 -13.46648,24.27174 -23.34665,24.80103 -8.5732,0.45927 -17.9884,-6.81264 -18.21804,-21.05026 -0.24947,-15.46717 1.99385,-41.72332 -4.82243,-52.89356 -11.07007,-18.14118 -33.374222,-17.43222 -46.080924,-8.34355 -5.64608,4.03845 -10.756808,9.40064 -14.49366,15.55008 -1.868427,3.07473 -3.393384,6.34626 -4.470058,9.74756 -1.076674,3.40129 -1.705064,6.93234 -1.780354,10.52608 z"
       id="path6"
       sodipodi:nodetypes="sssssssssssssssssssssss"
       inkscape:label="knot_9_33"
       transform="translate(62.89944,-18.087841)" />
    <path
       style="display:none;fill:none;stroke:#000000;stroke-width:1.5;stroke-dasharray:none"
       d="m -9.2540636,182.23536 c 6.5056214,-8.17774 16.7701165,-11.92543 23.1054966,-12.48443 18.488835,-1.63136 26.645848,14.5341 29.813538,20.49682 3.167687,5.96271 11.994425,20.0419 28.881872,21.61483 3.913213,0.36448 9.807046,-0.0668 14.85018,-2.12044 5.043133,-2.05365 9.235569,-5.72967 9.745988,-11.85466 0.46584,-5.59004 -3.040041,-10.09123 -7.471542,-13.38996 -4.431502,-3.29872 -9.788624,-5.39499 -13.025266,-6.17519 -17.675192,-4.26065 -36.894249,14.16143 -44.906635,19.75147 -8.012389,5.59004 -17.701799,8.0124 -23.2918432,15.46579 -5.5900405,7.45339 3.9824802,25.70317 14.3477812,29.81355 10.807407,4.2857 40.620943,-0.559 47.32899,-24.40984 7.299114,-25.95246 7.639714,-53.47807 -3.913027,-63.91281 -11.552744,-10.43475 -41.925284,-11.36642 -50.124016,6.70805 -8.198732,18.07447 16.583793,50.49671 10.248411,60.74512 -6.335381,10.24841 -32.2133094,-2.78621 -36.1489333,-6.52172 -10.9937467,-10.43474 -6.3911697,-24.99004 0.5590057,-33.72658 z"
       id="path2"
       sodipodi:nodetypes="sssssssssssssssss"
       inkscape:label="knot_6_3" />
    <path
       id="path4"
       style="display:none;fill:none;stroke:#000000;stroke-width:1.5;stroke-dasharray:none"
       inkscape:label="knots"
       d="m 115.11089,209.12592 c 3.97015,4.89893 5.12651,8.7308 8.43814,11.48152 6.62327,5.50145 14.50127,7.12943 19.1883,7.47791 20.59098,1.53093 52.2025,-17.13572 57.1036,-7.65464 4.07264,7.87843 -14.27537,24.13865 -23.95902,26.33196 -8.27559,1.87439 -28.47404,-1.9708 -29.85309,-28.85799 -0.56572,-11.02969 4.91705,-18.36642 4.24834,-35.30702 -0.87616,-22.19582 9.14728,-30.59942 19.09831,-35.1922 19.90207,-9.18557 43.09562,1.68401 43.40181,25.18376 0.30619,23.49974 -16.24386,31.06763 -31.30748,31.76675 -9.07075,0.42098 -13.35847,-1.87799 -23.15696,-5.58221 -9.70083,-3.6673 -23.99844,-7.06113 -23.76598,-9.57398 0.36829,-3.98111 15.24251,-6.30545 31.13204,-9.08449 15.88953,-2.77904 30.80417,-5.78314 39.21409,-2.16783 11.20092,4.81512 20.4379,16.61057 20.20826,33.60387 -0.20689,15.3096 -13.46648,24.27174 -23.34665,24.80103 -8.5732,0.45927 -17.9884,-6.81264 -18.21804,-21.05026 -0.24947,-15.46717 1.99385,-41.72332 -4.82243,-52.89356 -11.07007,-18.14118 -33.37422,-17.43222 -46.08092,-8.34355 -5.64608,4.03845 -10.54777,8.47899 -13.56139,13.89272 -2.80296,5.0353 -2.60665,9.35354 -6.95611,13.99455 -4.52562,4.82899 -14.953581,5.87512 -22.444241,2.54526 -2.524077,-1.12204 -9.788624,-5.39499 -13.025266,-6.17519 -17.675192,-4.26065 -36.894249,14.16143 -44.906635,19.75147 -8.012389,5.59004 -17.701799,8.0124 -23.2918432,15.46579 -5.5900405,7.45339 3.9824802,25.70317 14.3477812,29.81355 10.807407,4.2857 40.620943,-0.559 47.32899,-24.40984 7.299114,-25.95246 7.639714,-53.47807 -3.913027,-63.91281 -11.552744,-10.43475 -41.925284,-11.36642 -50.124016,6.70805 -8.198732,18.07447 16.583793,50.49671 10.248411,60.74512 -6.335381,10.24841 -32.2133094,-2.78621 -36.1489333,-6.52172 -10.9937467,-10.43474 -6.3911697,-24.99004 0.5590057,-33.72658 6.5056214,-8.17774 16.7701165,-11.92543 23.1054966,-12.48443 18.488835,-1.63136 26.645848,14.5341 29.813538,20.49682 3.167687,5.96271 11.994425,20.0419 28.881872,21.61483 3.913213,0.36448 11.041547,0.44929 19.088452,-4.23958 8.046905,-4.68887 19.505445,-3.39601 23.475595,1.50292 z"
       sodipodi:nodetypes="zsssssssssssssssssssssssssssssssssszz" />
    <path
       id="path7"
       style="display:none;fill:none;stroke:#ff0000;stroke-width:4.5;stroke-dasharray:none"
       inkscape:label="knots thick"
       d="m 115.11089,209.12592 c 3.97015,4.89893 5.12651,8.7308 8.43814,11.48152 6.62327,5.50145 14.50127,7.12943 19.1883,7.47791 20.59098,1.53093 52.2025,-17.13572 57.1036,-7.65464 4.07264,7.87843 -14.27537,24.13865 -23.95902,26.33196 -8.27559,1.87439 -28.47404,-1.9708 -29.85309,-28.85799 -0.56572,-11.02969 4.91705,-18.36642 4.24834,-35.30702 -0.87616,-22.19582 9.14728,-30.59942 19.09831,-35.1922 19.90207,-9.18557 43.09562,1.68401 43.40181,25.18376 0.30619,23.49974 -16.24386,31.06763 -31.30748,31.76675 -9.07075,0.42098 -13.35847,-1.87799 -23.15696,-5.58221 -9.70083,-3.6673 -23.99844,-7.06113 -23.76598,-9.57398 0.36829,-3.98111 15.24251,-6.30545 31.13204,-9.08449 15.88953,-2.77904 30.80417,-5.78314 39.21409,-2.16783 11.20092,4.81512 20.4379,16.61057 20.20826,33.60387 -0.20689,15.3096 -13.46648,24.27174 -23.34665,24.80103 -8.5732,0.45927 -17.9884,-6.81264 -18.21804,-21.05026 -0.24947,-15.46717 1.99385,-41.72332 -4.82243,-52.89356 -11.07007,-18.14118 -33.37422,-17.43222 -46.08092,-8.34355 -5.64608,4.03845 -10.54777,8.47899 -13.56139,13.89272 -2.80296,5.0353 -2.60665,9.35354 -6.95611,13.99455 -4.52562,4.82899 -14.953581,5.87512 -22.444241,2.54526 -2.524077,-1.12204 -9.788624,-5.39499 -13.025266,-6.17519 -17.675192,-4.26065 -36.894249,14.16143 -44.906635,19.75147 -8.012389,5.59004 -17.701799,8.0124 -23.2918432,15.46579 -5.5900405,7.45339 3.9824802,25.70317 14.3477812,29.81355 10.807407,4.2857 40.620943,-0.559 47.32899,-24.40984 7.299114,-25.95246 7.639714,-53.47807 -3.913027,-63.91281 -11.552744,-10.43475 -41.925284,-11.36642 -50.124016,6.70805 -8.198732,18.07447 16.583793,50.49671 10.248411,60.74512 -6.335381,10.24841 -32.2133094,-2.78621 -36.1489333,-6.52172 -10.9937467,-10.43474 -6.3911697,-24.99004 0.5590057,-33.72658 6.5056214,-8.17774 16.7701165,-11.92543 23.1054966,-12.48443 18.488835,-1.63136 26.645848,14.5341 29.813538,20.49682 3.167687,5.96271 11.994425,20.0419 28.881872,21.61483 3.913213,0.36448 11.041547,0.44929 19.088452,-4.23958 8.046905,-4.68887 19.505445,-3.39601 23.475595,1.50292 z"
       sodipodi:nodetypes="zsssssssssssssssssssssssssssssssssszz"
       sodipodi:insensitive="true" />
    <path
       style="baseline-shift:baseline;display:none;overflow:visible;opacity:1;vector-effect:none;enable-background:accumulate;stop-color:#000000;stop-opacity:1"
       d="m 184.52539,143.41016 c -5.09276,-0.0966 -10.3879,0.97125 -15.46484,3.31445 -4.89273,2.25818 -9.86511,5.45782 -13.57227,10.75391 -3.70716,5.29608 -6.12052,12.87081 -6.01172,23.34563 l 1.5,-0.22647 c -0.10634,-10.23831 2.23136,-17.24696 5.74024,-22.25977 3.50887,-5.01281 8.21766,-8.05734 12.97265,-10.25195 9.74819,-4.49916 20.27555,-4.07254 28.37891,0.31445 8.10336,4.38699 13.80908,12.69452 13.95898,24.19922 0.0322,2.47074 -0.0269,4.53628 -0.34938,6.64891 l 1.36007,0.64255 c 0.33585,-2.20033 0.52251,-4.76463 0.48931,-7.31099 -0.15629,-11.99505 -6.20061,-20.87366 -14.74609,-25.5 -4.27274,-2.31317 -9.1631,-3.57334 -14.25586,-3.66992 z m -144.687499,3.53515 c -10.239278,0.73477 -20.188298,5.12543 -24.433594,14.48438 -0.841417,1.85494 -1.346649,3.8445 -1.583984,5.92578 l 1.501953,0.0176 c 0.222414,-1.95044 0.679314,-3.63123 1.447265,-5.32421 3.953436,-8.71553 13.29092,-12.89809 23.175781,-13.60742 9.884862,-0.70933 20.221679,2.1408 25.763672,7.14648 4.868513,4.39737 7.631965,12.11542 8.519532,21.63477 0.887566,9.51934 -0.08908,20.79971 -2.525391,32.21289 l 1.466797,0.3125 c 2.461294,-11.53021 3.457893,-22.93705 2.550781,-32.66602 -0.907112,-9.72897 -3.703941,-17.81859 -9.005859,-22.60742 -6.010751,-5.42907 -16.637676,-8.26406 -26.876953,-7.5293 z m 114.193359,0.15235 c -7.97253,-0.33864 -15.90001,2.11305 -21.83398,6.35742 -5.69061,4.0703 -10.68431,8.57525 -13.78125,14.13867 -1.44942,2.60376 -2.11442,4.99904 -2.94532,7.25 -0.83089,2.25096 -1.81083,4.36399 -3.90234,6.5957 -2.08475,2.2245 -5.66226,3.66454 -9.64453,4.09961 -3.982276,0.43508 -8.346623,-0.12595 -11.947268,-1.72656 -1.103881,-0.49072 -3.337485,-1.70843 -5.697265,-2.93359 -2.35978,-1.22516 -5.102754,-2.54965 -6.949388,-3.15175 l 0.0021,1.54253 c 1.640046,0.53474 3.914563,1.72569 6.255844,2.94125 2.341281,1.21555 4.528252,2.41652 5.779296,2.97265 3.890016,1.72925 8.484928,2.30848 12.720701,1.84571 4.23578,-0.46277 8.13335,-1.95996 10.57422,-4.56446 2.25794,-2.40929 3.35579,-4.77432 4.21484,-7.10156 0.85906,-2.32724 1.49607,-4.60948 2.84961,-7.04101 2.93029,-5.26404 7.7422,-9.63989 13.34375,-13.64649 7.51998,-5.37878 18.05679,-7.88716 27.93534,-4.95633 l 1.25973,-1.2437 c -2.59508,-0.76992 -5.57662,-1.26522 -8.23413,-1.37809 z m 13.46958,3.56416 -1.28769,1.06935 c 4.42647,2.28712 8.74681,5.96412 11.86108,11.06766 2.43215,3.98572 3.72679,10.18636 4.3418,17.17578 0.615,6.98942 0.57465,14.76584 0.47265,21.96289 l 1.47553,-0.0764 c 0.10213,-7.20641 0.16997,-14.92556 -0.45404,-22.01735 -0.62401,-7.09179 -1.89247,-13.46023 -4.55664,-17.82617 -3.25104,-5.32767 -7.18964,-8.9464 -11.85269,-11.35576 z M 13.785156,169.00391 c -6.5570822,0.57856 -16.9515528,4.37251 -23.6269529,12.76367 -3.5512031,4.46395 -6.5010901,10.39547 -7.1660151,16.61523 -0.664926,6.21977 1.016662,12.74983 6.677734,18.12305 1.0100296,0.95867 3.0085264,2.24802 5.6699218,3.67383 2.6613953,1.42581 6.472959,3.09799 9.9467041,4.35127 l -0.2740983,-1.66033 c -3.3937507,-1.22441 -6.3651437,-2.6211 -8.9636215,-4.01321 -2.5984777,-1.3921 -4.5868303,-2.71916 -5.3457031,-3.43945 -5.332675,-5.06152 -6.846174,-11.02625 -6.220703,-16.87695 0.62547,-5.85071 3.450637,-11.5653 6.8496092,-15.8379 6.3358427,-7.96432 16.4722598,-11.66563 22.5859378,-12.20507 7.818419,-0.68986 13.665708,1.8598 18.115234,5.46484 4.449526,3.60504 7.509888,8.36701 9.47924,11.87745 l 1.264901,-0.8169 c -2.010104,-3.58308 -5.116689,-8.43148 -9.800782,-12.22657 -4.684092,-3.79508 -10.981706,-6.51735 -19.191406,-5.79296 z m 1.41211,2.91796 -1.498047,0.0762 c 0.476297,9.29669 4.806044,19.83354 8.314453,29.11328 1.754204,4.63987 3.306045,8.96404 4.083984,12.59961 0.777939,3.63557 0.742848,6.52955 -0.40039,8.3789 -1.255136,2.03037 -3.330475,3.04875 -6.029297,3.37891 -2.698822,0.33016 -6.238649,-0.13073 -9.593019,-0.98167 l 0.348011,1.60518 c 3.465783,0.87918 6.438393,1.23229 9.426648,0.86672 2.988256,-0.36556 5.592737,-1.60141 7.125,-4.08007 1.488907,-2.40853 1.401901,-5.68741 0.589844,-9.48243 -0.812057,-3.79501 -2.388946,-8.1606 -4.148437,-12.81445 -3.518984,-9.30771 -7.763504,-19.77434 -8.21875,-28.66016 z m 181.044924,3.62891 c -3.39797,-0.11276 -7.17266,0.17064 -11.20899,0.66406 l 0.18164,1.48828 c 7.98115,-0.97565 14.82293,-1.02663 19.38282,0.9336 10.93008,4.69869 19.97981,16.18739 19.7539,32.9043 -0.10054,7.44031 -3.35749,13.30054 -7.80469,17.40234 -4.44719,4.10179 -10.09984,6.40665 -14.83203,6.66016 -1.73227,0.0928 -3.29901,-0.11527 -5.02083,-0.68485 l -0.98193,1.29603 c 1.89402,0.62654 4.15789,0.99003 6.08284,0.88686 5.14799,-0.27578 11.06516,-2.71764 15.76953,-7.05664 4.70437,-4.339 8.18077,-10.61509 8.28711,-18.48437 0.23338,-17.2697 -9.19035,-29.37119 -20.66211,-34.30274 -2.5281,-1.08679 -5.5493,-1.59427 -8.94726,-1.70703 z m -15.68946,1.27734 c -4.78302,0.71817 -9.84643,1.6468 -15.0039,2.54883 -7.9406,1.38879 -15.63652,2.66301 -21.4375,4.10157 -2.90049,0.71927 -5.32327,1.47422 -7.10547,2.33789 -0.8911,0.43183 -1.62524,0.88872 -2.18359,1.41992 -0.55836,0.53119 -0.95443,1.16968 -1.02149,1.89453 -0.0406,0.43942 0.13402,0.84177 0.37109,1.1543 0.23708,0.31252 0.54509,0.57277 0.91211,0.82812 0.73406,0.51071 1.72286,0.99606 2.92579,1.5 2.40584,1.00789 5.75348,2.15232 9.21284,3.26461 l 0.36137,-1.5107 c -3.45479,-1.11083 -6.68727,-2.1703 -8.99414,-3.13672 -1.15343,-0.48321 -2.07777,-0.94927 -2.65039,-1.34766 -0.2863,-0.19919 -0.48084,-0.38338 -0.57226,-0.5039 -0.0914,-0.12053 -0.0715,-0.13857 -0.0742,-0.10938 0.025,-0.27042 0.17486,-0.57653 0.5625,-0.94531 0.38764,-0.36878 1.00127,-0.76886 1.80469,-1.1582 1.60684,-0.77869 3.9622,-1.52365 6.8125,-2.23047 5.70058,-1.41366 13.387,-2.69179 21.33593,-4.08203 5.16521,-0.90339 10.21765,-1.82794 14.9668,-2.54102 z m -107.734371,0.16211 c -8.527892,-0.54955 -17.052425,3.32921 -24.376953,7.9375 -7.324527,4.6083 -13.496041,9.99533 -17.130859,12.53125 -1.973365,1.37677 -4.063378,2.56654 -6.181641,3.69336 l 0.705078,1.32422 c 2.143304,-1.14014 4.285674,-2.35805 6.333985,-3.78711 3.794844,-2.64757 9.872759,-7.96255 17.072265,-12.49218 7.199507,-4.52964 15.61031,-8.19901 23.617824,-7.68299 z m 137.783431,7.01713 c -2.16324,6.98181 -6.5084,11.84851 -11.73265,14.89108 -5.22425,3.04256 -11.43851,4.43075 -17.43359,4.70898 -8.9335,0.41461 -13.03062,-1.82023 -22.85743,-5.53515 -2.07972,-0.78622 -4.47419,-1.55619 -6.77241,-2.30665 l -0.30085,1.44238 c 2.28846,0.74726 4.49834,1.49402 6.54201,2.26661 9.77018,3.69351 14.24904,6.05821 23.45704,5.63086 6.17687,-0.28667 12.62024,-1.70764 18.11914,-4.91016 5.4989,-3.20252 9.91772,-8.01884 12.19015,-15.35307 z m -59.53343,0.9595 -1.48438,0.20906 c 0.0281,7.489 -1.16582,12.97471 -2.31445,17.95117 -1.14862,4.97647 -2.26476,9.46402 -1.99023,14.81641 0.15203,2.96424 0.53136,5.54798 1.09765,7.99559 l 1.46094,-0.22606 c -0.54483,-2.35483 -0.91264,-4.96204 -1.06055,-7.8457 -0.26166,-5.10164 0.80323,-9.41191 1.95508,-14.40235 1.15185,-4.99044 2.3646,-10.84637 2.33594,-18.49798 z m -106.159989,5.99341 -1.279465,0.78778 c 3.665365,6.5316 12.589638,19.34702 28.847656,20.86132 3.986258,0.37129 11.320334,0.44997 19.53711,-4.33789 3.863746,-2.25137 8.601898,-3.08236 12.828128,-2.74414 4.22622,0.33823 7.90237,1.86998 9.68554,4.07032 3.89456,4.80564 5.034,8.6713 8.54297,11.58593 6.79219,5.64176 14.81403,7.29372 19.61133,7.65039 12.02075,0.89375 27.26382,-4.81312 39.11812,-8.0972 L 181.48828,219.25 c -11.96278,3.31414 -27.25134,8.93875 -38.69531,8.08789 -4.57676,-0.34028 -12.31127,-1.9455 -18.76563,-7.30664 -3.11429,-2.58681 -4.28823,-6.38474 -8.33398,-11.37695 -2.18698,-2.6986 -6.22511,-4.26233 -10.73242,-4.62305 -4.50731,-0.36072 -9.519969,0.50586 -13.703128,2.94336 -7.877034,4.58989 -14.800456,4.4983 -18.640625,4.14062 -15.528715,-1.44637 -24.142029,-13.79902 -27.708816,-20.15496 z m -23.79509,12.27996 c -4.986868,2.58915 -9.842963,5.28607 -13.2656248,9.84961 -1.547304,2.06308 -2.0057428,4.80136 -1.7207031,7.7461 0.2850398,2.94474 1.3120981,6.12755 2.8398438,9.19726 3.0554911,6.13944 8.0900591,11.85135 13.5527341,14.01758 5.713404,2.26566 15.94401,2.06609 25.744141,-1.65039 9.800131,-3.71648 19.153185,-11.06245 22.582031,-23.25391 0.463744,-1.64887 0.900029,-3.30406 1.306641,-4.96093 l -1.457032,-0.35743 c -0.402596,1.64051 -0.833748,3.27933 -1.292968,4.91211 -3.279201,11.65939 -12.186375,18.66066 -21.671875,22.25782 -9.485501,3.59716 -19.5642,3.67824 -24.658203,1.6582 -4.902626,-1.94415 -9.837135,-7.41462 -12.761719,-13.29102 -1.4622922,-2.9382 -2.4279286,-5.97202 -2.6894533,-8.67382 -0.2615246,-2.70181 0.1780651,-5.03755 1.4257813,-6.70118 3.183016,-4.24401 7.79565,-6.84265 12.755859,-9.41796 z m 161.707029,3.29607 c -0.0459,3.17728 -0.0764,6.0967 -0.0332,8.77815 0.14455,8.96225 3.76058,15.26367 8.73192,18.717 l 0.9673,-1.15254 c -4.55142,-3.16163 -8.06115,-9.02931 -8.19922,-17.58985 -0.0428,-2.65174 -0.0127,-5.63121 0.0332,-8.80469 z m 12.10156,10.48323 c -2.50767,-0.18236 -5.49304,0.27983 -8.95428,1.08582 l 0.27069,1.47082 c 0,0 6.34912,-1.2225 8.57617,-1.06055 2.22705,0.16196 3.62427,0.83772 4.35938,2.25977 0.86434,1.67205 0.57363,3.90373 -0.66992,6.45703 -1.24356,2.55331 -3.41184,5.34546 -6.01563,7.9668 -5.20758,5.24268 -12.21956,9.80104 -16.77148,10.83203 -3.19774,0.72428 -8.47308,0.55129 -13.59375,-1.72266 -5.12068,-2.27395 -10.07062,-6.41106 -12.94035,-14.07001 l -1.45223,0.15991 c 3.00635,8.02355 8.34406,12.86582 13.7832,15.2812 5.43914,2.41537 10.94868,2.62633 14.5332,1.81445 5.13174,-1.16232 12.13668,-5.83096 17.50586,-11.23633 2.68459,-2.70268 4.94495,-5.5893 6.29883,-8.36914 1.35389,-2.77984 1.82823,-5.53557 0.65625,-7.80273 -1.01699,-1.96735 -3.07826,-2.88404 -5.58594,-3.06641 z"
       id="path8"
       inkscape:label="knots_path"
       sodipodi:nodetypes="sssccsssscccssscsccssssccssscsssssssccsssssssccccsccccccscccsssccsssssscccscscsssccssssscsccssssccccssscccsscssscccsscsssscccccccsscccccscccsscccccsccccsccccssssscccssssscccsssssccsssssscccccccccccccsssssccccssssc" />
    <path
       id="path1"
       style="display:none;opacity:1;fill:none;stroke:#ff0000;stroke-width:4;stroke-dasharray:none"
       d="m 60.562798,174.10378 c -0.21626,-1.96364 3.020522,-5.54949 6.755612,-4.71306 4.263653,0.95478 4.525625,15.58588 -2.135783,18.56177 -2.732654,1.22077 -5.122887,0.55183 -9.339553,2.37624 -5.524736,2.39035 -8.628336,0.67794 -10.761606,-1.38856 -4.26656,-4.13299 -3.785485,-11.05767 2.124534,-13.43137 5.910006,-2.37373 9.28992,0.89464 11.704214,4.19181 1.666486,2.2759 2.398047,4.57008 2.419217,7.40876 0.02097,2.8104 -0.56458,5.89432 -2.280454,6.55031 -1.623312,0.62058 -3.083249,-3.23664 -5.338362,-6.98142 -2.255115,-3.74479 -4.471855,-7.22116 -4.379814,-9.70016 0.122592,-3.30174 2.20147,-6.78914 6.519246,-8.39161 3.889978,-1.44367 7.450968,1.03212 8.550199,3.47777 0.953833,2.12215 0.03576,5.21256 -3.540595,6.66185 -3.885198,1.57445 -10.297973,0.35089 -12.898456,6.38752 -4.419691,10.25962 -7.454262,7.9224 -16.474738,12.59435 -8.675188,4.49313 -17.44869,8.37822 -23.0387342,15.83161 -5.5900405,7.45339 3.9824802,25.70317 14.3477812,29.81355 10.807407,4.2857 40.620943,-0.559 47.32899,-24.40984 7.299114,-25.95246 7.639714,-53.47807 -3.913027,-63.91281 -11.552744,-10.43475 -41.925284,-11.36642 -50.124016,6.70805 -8.198732,18.07447 16.583793,50.49671 10.248411,60.74512 -6.335381,10.24841 -30.1944581,3.10211 -36.1489333,-6.52172 -7.9751257,-12.88967 -6.3911697,-24.99004 0.5590057,-33.72658 6.5056214,-8.17774 16.7701165,-11.92543 23.1054966,-12.48443 18.488835,-1.63136 25.846709,21.14211 29.0144,27.10483 5.039608,9.48633 10.20543,18.87249 18.754254,25.50831 13.410853,10.40984 27.688701,4.90778 32.319491,-5.81033 5.074223,-11.74444 2.890561,-29.03791 -5.177745,-37.75535 -6.085422,-6.57502 -27.776343,-0.85653 -28.199035,-4.69461 z"
       sodipodi:nodetypes="ssssssssssssssssssssssscssssss"
       inkscape:label="knots_deform_knotted_thick"
       sodipodi:insensitive="true" />
    <path
       id="path12"
       style="display:none;opacity:0.334588;fill:none;stroke:#000000;stroke-width:1.5;stroke-dasharray:none"
       d="m 72.525081,175.42501 c -6.230634,0.1284 -11.751092,0.5964 -11.962283,-1.32123 -0.07406,-0.67245 0.256831,-1.53514 0.874005,-2.34533 m 3.947293,-2.42752 c 0.61774,-0.0979 1.2681,-0.0894 1.934314,0.0598 1.275161,0.28555 2.192384,1.79441 2.673507,3.84892 m 0.364936,4.49144 c -0.19705,4.20181 -1.794612,8.71162 -5.174226,10.22141 -2.251778,1.00595 -4.271046,0.72874 -7.271341,1.62084 m -4.291953,1.53958 c -4.167935,1.10968 -6.709348,-0.40145 -8.537865,-2.17274 -4.26656,-4.13299 -3.785485,-11.05767 2.124534,-13.43137 4.475767,-1.79767 7.500441,-0.35941 9.753548,1.87666 m 3.0064,3.99124 c 0.852091,1.61263 1.277496,3.29633 1.352,5.22873 m -0.486005,4.61564 c -0.35883,1.19045 -0.931843,2.11322 -1.782966,2.43861 -1.623312,0.62058 -3.083249,-3.23664 -5.338362,-6.98142 -2.207085,-3.66503 -4.377413,-7.07296 -4.382575,-9.54042 m 1.551127,-4.79667 c 1.073965,-1.56873 2.717535,-2.91839 4.97088,-3.75468 3.889978,-1.44367 7.450968,1.03212 8.550199,3.47777 0.173079,0.38508 0.284522,0.80203 0.329633,1.23528 m -2.07547,4.41087 c -0.501059,0.38807 -1.097368,0.73309 -1.794758,1.0157 -2.253885,0.91337 -5.358403,0.8851 -8.075793,1.87889 m -3.717301,2.61174 c -0.417153,0.53714 -0.789397,1.16343 -1.105362,1.89689 -0.38397,0.89133 -0.757485,1.68757 -1.125379,2.4016 m -2.505368,3.77542 c -3.018912,3.31871 -6.407713,3.08381 -12.843991,6.41733 -2.11904,1.09751 -4.243946,2.15874 -6.326889,3.24457 m -3.994543,2.16473 c -4.90819,2.79475 -9.380051,5.97264 -12.7173022,10.42231 -5.5900405,7.45339 3.9824802,25.70317 14.3477812,29.81355 9.312066,3.69272 32.734645,0.60686 43.329101,-15.57506 m 2.193504,-3.94512 c 0.712788,-1.53258 1.320259,-3.16121 1.806385,-4.88966 7.299114,-25.95246 7.639714,-53.47807 -3.913027,-63.91281 -11.552744,-10.43475 -41.925284,-11.36642 -50.124016,6.70805 -0.805248,1.77521 -1.292345,3.68881 -1.522021,5.70623 m -0.117918,4.51607 c 0.932195,18.18236 17.152525,42.00725 11.88835,50.52282 -2.772645,4.48516 -8.901653,5.63867 -15.417307,4.71092 m -5.249768,-1.1658 c -6.62562033,-1.98539 -12.8297231,-5.78037 -15.4818583,-10.06684 -7.9751257,-12.88967 -6.3911697,-24.99004 0.5590057,-33.72658 6.5056214,-8.17774 16.7701165,-11.92543 23.1054966,-12.48443 14.75612,-1.302 22.422049,12.94136 26.526335,21.77695 m 1.876995,4.09437 c 0.219483,0.46484 0.422686,0.8789 0.61107,1.23351 5.039608,9.48633 10.20543,18.87249 18.754254,25.50831 13.410853,10.40984 27.688701,4.90778 32.319491,-5.81033 5.074223,-11.74444 2.890561,-29.03791 -5.177745,-37.75535 -2.317218,-2.50365 -6.897152,-3.2248 -11.703953,-3.36983"
       sodipodi:nodetypes="ssssssssssssssssssssssscssssss"
       inkscape:label="knots_deform"
       inkscape:original-d="m 60.562798,174.10378 c -0.21626,-1.96364 3.020522,-5.54949 6.755612,-4.71306 4.263653,0.95478 4.525625,15.58588 -2.135783,18.56177 -2.732654,1.22077 -5.122887,0.55183 -9.339553,2.37624 -5.524736,2.39035 -8.628336,0.67794 -10.761606,-1.38856 -4.26656,-4.13299 -3.785485,-11.05767 2.124534,-13.43137 5.910006,-2.37373 9.28992,0.89464 11.704214,4.19181 1.666486,2.2759 2.398047,4.57008 2.419217,7.40876 0.02097,2.8104 -0.56458,5.89432 -2.280454,6.55031 -1.623312,0.62058 -3.083249,-3.23664 -5.338362,-6.98142 -2.255115,-3.74479 -4.471855,-7.22116 -4.379814,-9.70016 0.122592,-3.30174 2.20147,-6.78914 6.519246,-8.39161 3.889978,-1.44367 7.450968,1.03212 8.550199,3.47777 0.953833,2.12215 0.03576,5.21256 -3.540595,6.66185 -3.885198,1.57445 -10.297973,0.35089 -12.898456,6.38752 -4.419691,10.25962 -7.454262,7.9224 -16.474738,12.59435 -8.675188,4.49313 -17.44869,8.37822 -23.0387342,15.83161 -5.5900405,7.45339 3.9824802,25.70317 14.3477812,29.81355 10.807407,4.2857 40.620943,-0.559 47.32899,-24.40984 7.299114,-25.95246 7.639714,-53.47807 -3.913027,-63.91281 -11.552744,-10.43475 -41.925284,-11.36642 -50.124016,6.70805 -8.198732,18.07447 16.583793,50.49671 10.248411,60.74512 -6.335381,10.24841 -30.1944581,3.10211 -36.1489333,-6.52172 -7.9751257,-12.88967 -6.3911697,-24.99004 0.5590057,-33.72658 6.5056214,-8.17774 16.7701165,-11.92543 23.1054966,-12.48443 18.488835,-1.63136 25.846709,21.14211 29.0144,27.10483 5.039608,9.48633 10.20543,18.87249 18.754254,25.50831 13.410853,10.40984 27.688701,4.90778 32.319491,-5.81033 5.074223,-11.74444 2.890561,-29.03791 -5.177745,-37.75535 -6.085422,-6.57502 -27.776343,-0.85653 -28.199035,-4.69461 z"
       inkscape:path-effect="#path-effect13"
       sodipodi:insensitive="true" />
    <path
       id="path3"
       style="display:none;opacity:1;fill:none;stroke:#000000;stroke-width:1.5;stroke-dasharray:none"
       d="m 72.525081,175.42501 c -6.230634,0.1284 -11.751092,0.5964 -11.962283,-1.32123 -0.07406,-0.67245 0.256831,-1.53514 0.874005,-2.34533 m 3.947293,-2.42752 c 0.61774,-0.0979 1.2681,-0.0894 1.934314,0.0598 1.275161,0.28555 2.192384,1.79441 2.673507,3.84892 m 0.364936,4.49144 c -0.19705,4.20181 -1.794612,8.71162 -5.174226,10.22141 -2.251778,1.00595 -4.271046,0.72874 -7.271341,1.62084 m -4.291953,1.53958 c -4.167935,1.10968 -6.709348,-0.40145 -8.537865,-2.17274 -4.26656,-4.13299 -3.785485,-11.05767 2.124534,-13.43137 4.475767,-1.79767 7.500441,-0.35941 9.753548,1.87666 m 3.0064,3.99124 c 0.852091,1.61263 1.277496,3.29633 1.352,5.22873 m -0.486005,4.61564 c -0.35883,1.19045 -0.931843,2.11322 -1.782966,2.43861 -1.623312,0.62058 -3.083249,-3.23664 -5.338362,-6.98142 -2.207085,-3.66503 -4.377413,-7.07296 -4.382575,-9.54042 m 1.551127,-4.79667 c 1.073965,-1.56873 2.717535,-2.91839 4.97088,-3.75468 3.889978,-1.44367 7.450968,1.03212 8.550199,3.47777 0.173079,0.38508 0.284522,0.80203 0.329633,1.23528 m -2.07547,4.41087 c -0.501059,0.38807 -1.097368,0.73309 -1.794758,1.0157 -2.253885,0.91337 -5.358403,0.8851 -8.075793,1.87889 m -3.717301,2.61174 c -0.417153,0.53714 -0.789397,1.16343 -1.105362,1.89689 -0.38397,0.89133 -0.757485,1.68757 -1.125379,2.4016 m -2.505368,3.77542 c -3.018912,3.31871 -6.407713,3.08381 -12.843991,6.41733 -2.11904,1.09751 -4.243946,2.15874 -6.326889,3.24457 m -3.994543,2.16473 c -4.90819,2.79475 -9.380051,5.97264 -12.7173022,10.42231 -5.5900405,7.45339 3.9824802,25.70317 14.3477812,29.81355 9.312066,3.69272 32.734645,0.60686 43.329101,-15.57506 m 2.193504,-3.94512 c 0.712788,-1.53258 1.320259,-3.16121 1.806385,-4.88966 7.299114,-25.95246 7.639714,-53.47807 -3.913027,-63.91281 -11.552744,-10.43475 -41.925284,-11.36642 -50.124016,6.70805 -0.805248,1.77521 -1.292345,3.68881 -1.522021,5.70623 m -0.117918,4.51607 c 0.932195,18.18236 17.152525,42.00725 11.88835,50.52282 -2.772645,4.48516 -8.901653,5.63867 -15.417307,4.71092 m -5.249768,-1.1658 c -6.62562033,-1.98539 -12.8297231,-5.78037 -15.4818583,-10.06684 -7.9751257,-12.88967 -6.3911697,-24.99004 0.5590057,-33.72658 6.5056214,-8.17774 16.7701165,-11.92543 23.1054966,-12.48443 14.75612,-1.302 22.422049,12.94136 26.526335,21.77695 m 1.876995,4.09437 c 0.219483,0.46484 0.422686,0.8789 0.61107,1.23351 5.039608,9.48633 10.20543,18.87249 18.754254,25.50831 13.410853,10.40984 27.688701,4.90778 32.319491,-5.81033 5.074223,-11.74444 2.890561,-29.03791 -5.177745,-37.75535 -2.317218,-2.50365 -6.897152,-3.2248 -11.703953,-3.36983"
       sodipodi:nodetypes="ssssssssssssssssssssssscssssss"
       inkscape:label="knots_deform_knotted"
       inkscape:original-d="m 60.562798,174.10378 c -0.21626,-1.96364 3.020522,-5.54949 6.755612,-4.71306 4.263653,0.95478 4.525625,15.58588 -2.135783,18.56177 -2.732654,1.22077 -5.122887,0.55183 -9.339553,2.37624 -5.524736,2.39035 -8.628336,0.67794 -10.761606,-1.38856 -4.26656,-4.13299 -3.785485,-11.05767 2.124534,-13.43137 5.910006,-2.37373 9.28992,0.89464 11.704214,4.19181 1.666486,2.2759 2.398047,4.57008 2.419217,7.40876 0.02097,2.8104 -0.56458,5.89432 -2.280454,6.55031 -1.623312,0.62058 -3.083249,-3.23664 -5.338362,-6.98142 -2.255115,-3.74479 -4.471855,-7.22116 -4.379814,-9.70016 0.122592,-3.30174 2.20147,-6.78914 6.519246,-8.39161 3.889978,-1.44367 7.450968,1.03212 8.550199,3.47777 0.953833,2.12215 0.03576,5.21256 -3.540595,6.66185 -3.885198,1.57445 -10.297973,0.35089 -12.898456,6.38752 -4.419691,10.25962 -7.454262,7.9224 -16.474738,12.59435 -8.675188,4.49313 -17.44869,8.37822 -23.0387342,15.83161 -5.5900405,7.45339 3.9824802,25.70317 14.3477812,29.81355 10.807407,4.2857 40.620943,-0.559 47.32899,-24.40984 7.299114,-25.95246 7.639714,-53.47807 -3.913027,-63.91281 -11.552744,-10.43475 -41.925284,-11.36642 -50.124016,6.70805 -8.198732,18.07447 16.583793,50.49671 10.248411,60.74512 -6.335381,10.24841 -30.1944581,3.10211 -36.1489333,-6.52172 -7.9751257,-12.88967 -6.3911697,-24.99004 0.5590057,-33.72658 6.5056214,-8.17774 16.7701165,-11.92543 23.1054966,-12.48443 18.488835,-1.63136 25.846709,21.14211 29.0144,27.10483 5.039608,9.48633 10.20543,18.87249 18.754254,25.50831 13.410853,10.40984 27.688701,4.90778 32.319491,-5.81033 5.074223,-11.74444 2.890561,-29.03791 -5.177745,-37.75535 -6.085422,-6.57502 -27.776343,-0.85653 -28.199035,-4.69461 z"
       inkscape:path-effect="#path-effect6"
       sodipodi:insensitive="true" />
    <path
       style="baseline-shift:baseline;display:inline;overflow:visible;opacity:1;vector-effect:none;enable-background:accumulate;stop-color:#000000;stop-opacity:1"
       d="m 43.337891,163.25924 c -10.239278,0.73477 -20.188298,5.12543 -24.433594,14.48438 -0.842007,1.85624 -1.436767,4.23643 -1.673894,6.31929 l 1.535189,-0.12977 c 0.222224,-1.95196 0.73545,-3.87621 1.503939,-5.57038 3.953436,-8.71553 13.29092,-12.89809 23.175781,-13.60742 9.884862,-0.70933 20.221679,2.1408 25.763672,7.14648 5.530215,4.99504 8.336891,14.28573 8.779297,25.60938 0.442406,11.32364 -1.454268,24.63033 -5.085937,37.54296 -0.475282,1.68989 -1.06785,3.28125 -1.763672,4.77735 l 1.359375,0.63086 c 0.729755,-1.56906 1.350685,-3.23495 1.847656,-5.00196 3.667445,-13.03983 5.591326,-26.47185 5.140625,-38.00781 -0.450701,-11.53596 -3.248958,-21.22436 -9.271484,-26.66406 -6.010751,-5.42907 -16.637676,-8.26406 -26.876953,-7.5293 z m 18.886718,20.48633 c -1.00124,-0.0745 -2.06172,0.0529 -3.134765,0.45117 -2.38859,0.88649 -4.961272,3.01869 -5.868974,4.90338 l 1.777177,-0.0206 c 0.985748,-1.43986 2.495181,-2.69046 4.613281,-3.47656 1.743888,-0.6472 3.371606,-0.41702 4.728516,0.25 1.356909,0.66703 2.412691,1.79911 2.876953,2.83203 0.139438,0.31023 0.243919,0.82418 0.280986,1.18017 l 1.492187,-0.0202 c -0.05315,-0.5105 -0.199267,-1.31527 -0.405986,-1.77519 -0.634969,-1.41273 -1.911143,-2.74113 -3.582031,-3.5625 -0.835444,-0.41068 -1.776104,-0.68722 -2.777344,-0.76172 z m 5.88596,1.23865 0.998651,1.41539 c 0.530739,-0.0841 0.974506,-0.0904 1.545077,0.0374 0.400116,0.0896 0.797911,0.38344 1.175781,0.94726 0.37787,0.56383 0.705911,1.37593 0.931641,2.33985 l 1.51457,-0.0736 c -0.255393,-1.09059 -0.680305,-2.32653 -1.200117,-3.10216 -0.519813,-0.77562 -1.218705,-1.38021 -2.09375,-1.57617 -0.761857,-0.17061 -2.193929,-0.20686 -2.871853,0.012 z m -50.825413,0.33362 c -6.557082,0.57856 -16.9515528,4.37251 -23.6269529,12.76367 -7.1256591,8.95713 -8.7183821,21.48379 -0.6093751,34.58984 2.8232799,4.56308 10.1987839,8.86767 17.002076,10.71922 l -0.6661384,-1.76609 c -6.4972072,-1.94691 -12.5795563,-5.73428 -15.0605469,-9.74414 -7.8412447,-12.67329 -6.2668787,-24.34733 0.5078125,-32.86329 6.3358427,-7.96432 16.4722598,-11.66563 22.5859378,-12.20507 7.128211,-0.62896 12.474372,2.4603 16.646484,6.85547 4.172112,4.39516 7.189796,10.32521 9.231649,14.72085 l 1.317401,-0.73165 C 42.551068,203.2167 39.528298,197.2461 35.152344,192.6362 30.77639,188.02629 24.913065,184.64479 17.285156,185.31784 Z m 47.215588,2.05943 c -0.694389,0.91154 -1.292648,2.13875 -1.184338,3.12221 0.04604,0.41805 0.263454,0.80926 0.554688,1.08007 0.291234,0.27082 0.640705,0.44585 1.027343,0.58008 0.773277,0.26846 1.725552,0.3806 2.851563,0.43555 2.252022,0.10991 5.525112,-0.0416 8.626225,-0.10547 l -0.138517,-1.5 c -3.129523,0.0645 -6.296779,0.21082 -8.415442,0.10742 -1.059332,-0.0517 -1.915727,-0.1744 -2.431641,-0.35351 -0.257957,-0.0896 -0.422619,-0.19158 -0.498047,-0.26172 -0.07543,-0.0701 -0.07723,-0.0851 -0.08398,-0.14649 -0.03981,-0.36144 0.165703,-1.07765 0.705663,-1.78647 z m -45.848433,0.55883 -1.513032,0.15305 c 0.476628,9.2966 4.866097,20.05859 8.374393,29.33806 1.754148,4.63974 3.306096,8.9622 4.083984,12.59766 0.777888,3.63546 0.742823,6.52959 -0.40039,8.3789 -1.271476,2.0568 -3.304073,3.35813 -5.863282,4.05469 -2.559208,0.69656 -6.236105,0.79558 -9.399456,0.22449 l 0.79512,1.62076 c 3.370604,0.39246 6.171498,0.37156 8.998868,-0.39798 2.827369,-0.76955 5.244924,-2.28453 6.746093,-4.71289 1.488874,-2.40848 1.40185,-5.68752 0.589844,-9.48243 -0.812005,-3.7949 -2.389001,-8.16072 -4.148437,-12.81445 -3.518874,-9.30745 -7.80814,-20.07409 -8.263705,-28.95986 z m 35.078158,2.37978 c -1.025316,0.0818 -2.126539,0.33735 -3.304688,0.81055 -3.182538,1.27823 -4.984179,3.8624 -5.341797,6.65625 -0.357617,2.79385 0.682813,5.78782 2.976563,8.00977 1.924849,1.8646 5.245773,3.69664 9.576605,2.27496 l -0.711371,-1.36481 c -3.931105,1.04664 -6.09008,-0.30836 -7.822265,-1.98633 -1.972811,-1.91105 -2.825035,-4.44702 -2.53125,-6.74218 0.293784,-2.29517 1.686581,-4.35962 4.414062,-5.45508 4.238941,-1.70256 6.467662,-0.40004 8.744188,1.5654 l 1.767282,-0.38063 c -1.461085,-2.14484 -4.691381,-3.63318 -7.767329,-3.3879 z m 26.500992,0.67774 0.142797,1.49804 c 4.746244,0.14321 9.305327,0.93608 11.336681,3.13086 7.778262,8.40406 9.977851,25.52082 5.041016,36.94727 -2.222619,5.14432 -6.76179,9.03804 -12.357422,10.39648 -5.595631,1.35845 -12.261428,0.20577 -18.814453,-4.88086 -8.393821,-6.5155 -13.516587,-15.78776 -18.552734,-25.26757 -0.179734,-0.33833 -0.519922,-1.02798 -0.736513,-1.48671 l -1.313495,0.73398 c 0.222374,0.47097 0.528755,1.08496 0.725789,1.45585 5.043068,9.49284 10.253204,18.99386 18.957031,25.75 6.857828,5.32322 14.036141,6.62395 20.089844,5.1543 6.053703,-1.46965 10.970735,-5.68598 13.378906,-11.25977 5.211612,-12.06243 3.041942,-29.53168 -5.316406,-38.5625 -2.603082,-2.81251 -7.713681,-3.46251 -12.581039,-3.60937 z m -14.750683,2.57158 c -0.443447,0.34345 -0.764258,0.52128 -1.402653,0.77998 -2.026718,0.82131 -5.549829,0.87907 -8.415508,2.01406 l 0.728109,1.32769 c 2.540027,-0.92892 5.768846,-0.9457 8.249899,-1.95113 0.756386,-0.30651 2.446429,-1.20937 2.897832,-1.93705 z m -11.892331,-0.39329 c 0,0 -0.501941,0.0112 -0.755161,0.0578 -0.253219,0.0465 -0.755161,0.22293 -0.755161,0.22293 0.0061,2.9058 2.289247,6.27088 4.490234,9.92578 1.105748,1.83618 2.02527,3.72673 2.91211,5.14063 0.44342,0.70695 0.870395,1.29927 1.386718,1.72851 0.516324,0.42925 1.266307,0.68686 1.949219,0.42578 1.188022,-0.45418 2.189249,-2.19526 2.380275,-3.53863 l -1.5834,0.18317 c -0.326065,1.08174 -0.817807,1.75848 -1.332031,1.95507 -0.128744,0.0492 -0.170635,0.0587 -0.455078,-0.17773 -0.284444,-0.23647 -0.667851,-0.72517 -1.074219,-1.37305 -0.812735,-1.29575 -1.749072,-3.20858 -2.898437,-5.11718 -2.213184,-3.67516 -4.529207,-7.41422 -4.265069,-9.43301 v -2e-5 z m 19.518975,0.71662 c -0.18934,4.03742 -1.778322,8.37412 -4.730469,9.69295 -2.052472,0.91691 -4.498612,0.79839 -7.627707,1.72879 l 0.771865,1.32907 c 2.871495,-0.8538 5.016085,-0.59374 7.46717,-1.68872 3.807081,-1.70076 5.466062,-6.71942 5.670821,-11.08563 z m -9.032149,3.27645 -1.487073,0.51345 c 0.960424,1.47292 1.409243,3.76249 1.480159,5.60183 l 1.533159,-0.23766 c -0.07809,-2.02547 -0.634993,-4.20572 -1.526245,-5.87762 z m -11.674838,1.32991 c -0.457801,0.58948 -1.28968,1.84785 -1.628951,2.63542 -0.378259,0.87807 -0.74298,1.65951 -1.101562,2.35546 l 1.124384,1.14432 c 0.377206,-0.7321 0.966405,-2.00145 1.356085,-2.90603 0.292658,-0.67937 0.631308,-1.24762 1.007812,-1.73243 z m -4.823956,8.25117 c -1.257581,1.67519 -3.155898,2.60033 -5.152651,3.36081 -1.996752,0.76048 -4.510943,1.55521 -7.783203,3.25 -2.112545,1.09415 -4.362687,2.17932 -6.453407,3.2692 l 0.593134,1.44283 c 2.075167,-1.08177 4.426144,-2.28108 6.551679,-3.38195 3.164018,-1.63873 5.563555,-2.39261 7.625,-3.17774 2.061446,-0.78512 4.215467,-1.89457 5.770352,-3.71186 z m -22.932722,11.8197 c -4.950414,2.81879 -9.868735,6.26816 -13.296101,10.83798 -1.5473038,2.06308 -2.0057426,4.80136 -1.7207029,7.7461 0.2850398,2.94474 1.3120979,6.12755 2.8398439,9.19726 3.055491,6.13944 8.090059,11.85135 13.552734,14.01758 4.922883,1.95218 13.187568,2.05858 21.66211,-0.31055 8.474541,-2.36912 17.228486,-7.42026 22.652488,-15.70486 l -1.264178,-0.7709 c -5.170453,7.89732 -13.579229,12.73629 -21.792607,15.0324 -8.213379,2.29612 -16.315894,2.09992 -20.705078,0.35938 -4.902626,-1.94415 -9.837135,-7.41462 -12.761719,-13.29102 -1.462292,-2.9382 -2.427929,-5.97202 -2.689453,-8.67382 -0.261525,-2.70181 0.178065,-5.03755 1.425781,-6.70118 3.247137,-4.32951 7.73702,-7.52516 12.602987,-10.29587 z"
       id="path9"
       inkscape:label="knots_deform_path"
       sodipodi:nodetypes="ssccsssssccsssscccccssccssscscscccsccscsccssssccssccsssccccccccccssssccsssscccsscccscccccccsssscccssssscccccscccczcsssccccsssccccccccccccccccccsccccsccsscccssssscccssscccs" />
  </g>
</svg>
