<?xml version="1.0" encoding="UTF-8" standalone="no"?>
<!-- Created with Inkscape (http://www.inkscape.org/) -->

<svg
   width="210mm"
   height="297mm"
   viewBox="0 0 210 297"
   version="1.1"
   id="svg1"
   inkscape:version="1.4.2 (ebf0e940d0, 2025-05-08)"
   sodipodi:docname="connected_sum_example_before.svg"
   xmlns:inkscape="http://www.inkscape.org/namespaces/inkscape"
   xmlns:sodipodi="http://sodipodi.sourceforge.net/DTD/sodipodi-0.dtd"
   xmlns="http://www.w3.org/2000/svg"
   xmlns:svg="http://www.w3.org/2000/svg">
  <sodipodi:namedview
     id="namedview1"
     pagecolor="#ffffff"
     bordercolor="#000000"
     borderopacity="0.25"
     inkscape:showpageshadow="2"
     inkscape:pageopacity="0.0"
     inkscape:pagecheckerboard="0"
     inkscape:deskcolor="#d1d1d1"
     inkscape:document-units="mm"
     inkscape:zoom="0.67880694"
     inkscape:cx="178.25392"
     inkscape:cy="707.85959"
     inkscape:window-width="1916"
     inkscape:window-height="1034"
     inkscape:window-x="0"
     inkscape:window-y="0"
     inkscape:window-maximized="0"
     inkscape:current-layer="layer1" />
  <defs
     id="defs1">
    <inkscape:path-effect
       effect="knot"
       id="path-effect5"
       is_visible="true"
       lpeversion="1"
       switcher_size="15"
       interruption_width="3"
       prop_to_stroke_width="true"
       add_stroke_width="inkscape_1.0_and_up"
       both="false"
       inverse_width="false"
       add_other_stroke_width="inkscape_1.0_and_up"
       crossing_points_vector="48.989694 | 207.97655 | 0 | 0 | 0 | 19 | 7.2857023e-16 | 22 | 0 | 84.792825 | 246.1885 | 0 | 0 | 1 | 4 | 3.0772964 | 5.8566079 | -1 | 120.97507 | 237.47441 | 0 | 0 | 2 | 15 | 3.6053068 | 16.899405 | 1 | 131.13554 | 252.76299 | 0 | 0 | 3 | 14 | 4.4672829 | 16.301923 | 1 | 86.621936 | 213.86468 | 0 | 0 | 5 | 10 | 6.6955013 | 11.279427 | -1 | 87.388621 | 200.97617 | 0 | 0 | 6 | 11 | 6.9942621 | 12.658389 | -1 | 101.54085 | 168.15628 | 0 | 0 | 7 | 18 | 7.8331807 | 18.33806 | -1 | 148.9519 | 200.15387 | 0 | 0 | 8 | 13 | 9.1490625 | 14.217689 | 1 | 120.7052 | 222.29851 | 0 | 0 | 9 | 16 | 9.9529358 | 17.212815 | 1 | 119.99313 | 195.33707 | 0 | 0 | 12 | 17 | 13.375947 | 17.673948 | 1" />
    <inkscape:path-effect
       effect="knot"
       id="path-effect8"
       is_visible="true"
       lpeversion="1"
       switcher_size="15"
       interruption_width="3"
       prop_to_stroke_width="true"
       add_stroke_width="inkscape_1.0_and_up"
       both="false"
       inverse_width="false"
       add_other_stroke_width="inkscape_1.0_and_up"
       crossing_points_vector="84.792825 | 246.1885 | 0 | 0 | 0 | 3 | 1.0772964 | 3.8566079 | -1 | 120.97507 | 237.47441 | 0 | 0 | 1 | 14 | 1.6053068 | 14.899405 | 1 | 131.13554 | 252.76299 | 0 | 0 | 2 | 13 | 2.4672829 | 14.301923 | 1 | 86.621936 | 213.86468 | 0 | 0 | 4 | 9 | 4.6955013 | 9.2794271 | -1 | 87.388621 | 200.97617 | 0 | 0 | 5 | 10 | 4.9942621 | 10.658389 | -1 | 101.54085 | 168.15628 | 0 | 0 | 6 | 17 | 5.8331807 | 16.33806 | -1 | 148.9519 | 200.15387 | 0 | 0 | 7 | 12 | 7.1490625 | 12.217689 | 1 | 120.7052 | 222.29851 | 0 | 0 | 8 | 15 | 7.9529358 | 15.212815 | 1 | 119.99313 | 195.33707 | 0 | 0 | 11 | 16 | 11.375947 | 15.673948 | 1" />
  </defs>
  <g
     inkscape:label="Layer 1"
     inkscape:groupmode="layer"
     id="layer1">
    <path
       style="display:none;fill:none;stroke:#000000;stroke-width:1.5;stroke-dasharray:none"
       d="m 48.989694,207.97655 c -0.165952,7.92118 1.093205,14.2255 3.221758,19.23721 2.128554,5.01171 5.126504,8.7308 8.438138,11.48152 6.623267,5.50145 14.501269,7.12943 19.188303,7.47791 20.590977,1.53093 52.202497,-17.13572 57.103597,-7.65464 4.07264,7.87843 -14.27537,24.13865 -23.95902,26.33196 -8.27559,1.87439 -28.474045,-1.9708 -29.853093,-28.85799 -0.565715,-11.02969 4.917049,-18.36642 4.248338,-35.30702 -0.876154,-22.19582 9.147286,-30.59942 19.098315,-35.1922 19.90207,-9.18557 43.09562,1.68401 43.40181,25.18376 0.30619,23.49974 -16.24386,31.06763 -31.30748,31.76675 -9.07075,0.42098 -13.35847,-1.87799 -23.156961,-5.58221 -9.70083,-3.6673 -23.998439,-7.06113 -23.765977,-9.57398 0.36829,-3.98111 15.24251,-6.30545 31.132038,-9.08449 15.88953,-2.77904 30.80417,-5.78314 39.21409,-2.16783 11.20092,4.81512 20.4379,16.61057 20.20826,33.60387 -0.20689,15.3096 -13.46648,24.27174 -23.34665,24.80103 -8.5732,0.45927 -17.9884,-6.81264 -18.21804,-21.05026 -0.24947,-15.46717 1.99385,-41.72332 -4.82243,-52.89356 -11.07007,-18.14118 -33.374222,-17.43222 -46.080924,-8.34355 -5.64608,4.03845 -10.756808,9.40064 -14.49366,15.55008 -1.868427,3.07473 -3.393384,6.34626 -4.470058,9.74756 -1.076674,3.40129 -1.705064,6.93234 -1.780354,10.52608 z"
       id="path6"
       sodipodi:nodetypes="sssssssssssssssssssssss"
       inkscape:label="knot_9_33"
       transform="translate(62.89944,-18.087841)" />
    <path
       style="display:none;fill:none;stroke:#000000;stroke-width:1.5;stroke-dasharray:none"
       d="m -9.2540636,182.23536 c 6.5056214,-8.17774 16.7701165,-11.92543 23.1054966,-12.48443 18.488835,-1.63136 26.645848,14.5341 29.813538,20.49682 3.167687,5.96271 11.994425,20.0419 28.881872,21.61483 3.913213,0.36448 9.807046,-0.0668 14.85018,-2.12044 5.043133,-2.05365 9.235569,-5.72967 9.745988,-11.85466 0.46584,-5.59004 -3.040041,-10.09123 -7.471542,-13.38996 -4.431502,-3.29872 -9.788624,-5.39499 -13.025266,-6.17519 -17.675192,-4.26065 -36.894249,14.16143 -44.906635,19.75147 -8.012389,5.59004 -17.701799,8.0124 -23.2918432,15.46579 -5.5900405,7.45339 3.9824802,25.70317 14.3477812,29.81355 10.807407,4.2857 40.620943,-0.559 47.32899,-24.40984 7.299114,-25.95246 7.639714,-53.47807 -3.913027,-63.91281 -11.552744,-10.43475 -41.925284,-11.36642 -50.124016,6.70805 -8.198732,18.07447 16.583793,50.49671 10.248411,60.74512 -6.335381,10.24841 -32.2133094,-2.78621 -36.1489333,-6.52172 -10.9937467,-10.43474 -6.3911697,-24.99004 0.5590057,-33.72658 z"
       id="path2"
       sodipodi:nodetypes="sssssssssssssssss"
       inkscape:label="knot_6_3" />
    <circle
       style="fill:#999999;fill-opacity:0.542065;stroke:none;stroke-width:6.77127"
       id="path1"
       cx="104.06264"
       cy="194.57237"
       r="18.912457" />
    <path
       id="path4"
       style="display:inline;fill:none;stroke:#000000;stroke-width:1.5;stroke-dasharray:none"
       inkscape:label="knot_6_3"
       d="m 115.11089,209.12592 c 3.97015,4.89893 5.12651,8.7308 8.43814,11.48152 6.62327,5.50145 14.50127,7.12943 19.1883,7.47791 20.59098,1.53093 52.2025,-17.13572 57.1036,-7.65464 4.07264,7.87843 -14.27537,24.13865 -23.95902,26.33196 -8.27559,1.87439 -28.47404,-1.9708 -29.85309,-28.85799 -0.56572,-11.02969 4.91705,-18.36642 4.24834,-35.30702 -0.87616,-22.19582 9.14728,-30.59942 19.09831,-35.1922 19.90207,-9.18557 43.09562,1.68401 43.40181,25.18376 0.30619,23.49974 -16.24386,31.06763 -31.30748,31.76675 -9.07075,0.42098 -13.35847,-1.87799 -23.15696,-5.58221 -9.70083,-3.6673 -23.99844,-7.06113 -23.76598,-9.57398 0.36829,-3.98111 15.24251,-6.30545 31.13204,-9.08449 15.88953,-2.77904 30.80417,-5.78314 39.21409,-2.16783 11.20092,4.81512 20.4379,16.61057 20.20826,33.60387 -0.20689,15.3096 -13.46648,24.27174 -23.34665,24.80103 -8.5732,0.45927 -17.9884,-6.81264 -18.21804,-21.05026 -0.24947,-15.46717 1.99385,-41.72332 -4.82243,-52.89356 -11.07007,-18.14118 -33.37422,-17.43222 -46.08092,-8.34355 -5.64608,4.03845 -10.54777,8.47899 -13.56139,13.89272 -2.80296,5.0353 -2.60665,9.35354 -6.95611,13.99455 -4.52562,4.82899 -14.953581,5.87512 -22.444241,2.54526 -2.524077,-1.12204 -9.788624,-5.39499 -13.025266,-6.17519 -17.675192,-4.26065 -36.894249,14.16143 -44.906635,19.75147 -8.012389,5.59004 -17.701799,8.0124 -23.2918432,15.46579 -5.5900405,7.45339 3.9824802,25.70317 14.3477812,29.81355 10.807407,4.2857 40.620943,-0.559 47.32899,-24.40984 7.299114,-25.95246 7.639714,-53.47807 -3.913027,-63.91281 -11.552744,-10.43475 -41.925284,-11.36642 -50.124016,6.70805 -8.198732,18.07447 16.583793,50.49671 10.248411,60.74512 -6.335381,10.24841 -32.2133094,-2.78621 -36.1489333,-6.52172 -10.9937467,-10.43474 -6.3911697,-24.99004 0.5590057,-33.72658 6.5056214,-8.17774 16.7701165,-11.92543 23.1054966,-12.48443 18.488835,-1.63136 26.645848,14.5341 29.813538,20.49682 3.167687,5.96271 11.994425,20.0419 28.881872,21.61483 3.913213,0.36448 11.041547,0.44929 19.088452,-4.23958 8.046905,-4.68887 19.505445,-3.39601 23.475595,1.50292 z"
       sodipodi:nodetypes="zsssssssssssssssssssssssssssssssssszz" />
  </g>
</svg>
