<?xml version="1.0" encoding="UTF-8" standalone="no"?>
<!-- Created with Inkscape (http://www.inkscape.org/) -->

<svg
   width="123.13253mm"
   height="120mm"
   viewBox="0 0 123.13254 120"
   version="1.1"
   id="svg1"
   sodipodi:docname="connected_sum_isotopy_frame_2.svg"
   inkscape:version="1.4.2 (ebf0e940d0, 2025-05-08)"
   inkscape:export-filename="/home/damian/Projects/mphil-thesis/graphics/connected_sum_isotopy_frame_2.pdf"
   inkscape:export-xdpi="96"
   inkscape:export-ydpi="96"
   xmlns:inkscape="http://www.inkscape.org/namespaces/inkscape"
   xmlns:sodipodi="http://sodipodi.sourceforge.net/DTD/sodipodi-0.dtd"
   xmlns="http://www.w3.org/2000/svg"
   xmlns:svg="http://www.w3.org/2000/svg">
  <sodipodi:namedview
     id="namedview1"
     pagecolor="#ffffff"
     bordercolor="#000000"
     borderopacity="0.25"
     inkscape:showpageshadow="2"
     inkscape:pageopacity="0.0"
     inkscape:pagecheckerboard="0"
     inkscape:deskcolor="#d1d1d1"
     inkscape:document-units="mm"
     inkscape:zoom="0.69482327"
     inkscape:cx="495.08992"
     inkscape:cy="254.02143"
     inkscape:window-width="1916"
     inkscape:window-height="1034"
     inkscape:window-x="0"
     inkscape:window-y="0"
     inkscape:window-maximized="0"
     inkscape:current-layer="layer1" />
  <defs
     id="defs1">
    <inkscape:path-effect
       effect="knot"
       id="path-effect17"
       is_visible="true"
       lpeversion="1"
       switcher_size="15"
       interruption_width="3"
       prop_to_stroke_width="true"
       add_stroke_width="inkscape_1.0_and_up"
       both="false"
       inverse_width="false"
       add_other_stroke_width="inkscape_1.0_and_up"
       crossing_points_vector="102.34648 | 210.72355 | 0 | 0 | 0 | 11 | 0.57969318 | 11.741665 | 1 | 95.321518 | 215.716 | 0 | 0 | 1 | 28 | 1.3786713 | 29.310344 | -1 | 85.606842 | 202.28559 | 0 | 0 | 2 | 7 | 2.4784505 | 7.2095173 | -1 | 86.211797 | 196.63985 | 0 | 0 | 3 | 8 | 3.0041841 | 8.6597969 | -1 | 93.174143 | 186.55588 | 0 | 0 | 4 | 15 | 4.1088602 | 14.246318 | -1 | 102.91228 | 196.57986 | 0 | 0 | 5 | 10 | 5.1497438 | 10.219076 | 1 | 95.159013 | 203.37097 | 0 | 0 | 6 | 13 | 5.9884197 | 13.178262 | 1 | 94.433382 | 195.35526 | 0 | 0 | 9 | 14 | 9.3234692 | 13.76812 | 1 | 96.610635 | 209.66195 | 0 | 0 | 12 | 29 | 12.543522 | 29.636379 | 1 | 74.773167 | 175.2754 | 0 | 0 | 16 | 21 | 15.193472 | 19.588787 | -1 | 40.925389 | 192.82881 | 0 | 0 | 17 | 26 | 15.82881 | 26.011164 | -1 | 23.242626 | 202.24971 | 0 | 0 | 18 | 23 | 16.325764 | 21.605583 | 1 | 8.3359532 | 226.72371 | 0 | 0 | 19 | 24 | 17.417988 | 22.49517 | 1 | 65.701492 | 228.4076 | 0 | 0 | 20 | 27 | 18.850344 | 27.310743 | -1 | 14.413548 | 169.7072 | 0 | 0 | 22 | 25 | 21.134278 | 25.010209 | 1" />
    <inkscape:path-effect
       effect="knot"
       id="path-effect15"
       is_visible="true"
       lpeversion="1"
       switcher_size="15"
       interruption_width="3"
       prop_to_stroke_width="true"
       add_stroke_width="inkscape_1.0_and_up"
       both="false"
       inverse_width="false"
       add_other_stroke_width="inkscape_1.0_and_up"
       crossing_points_vector="102.34648 | 210.72355 | 0 | 0 | 0 | 11 | 0.57969318 | 11.741665 | 1 | 95.321518 | 215.716 | 0 | 0 | 1 | 28 | 1.3786713 | 29.310344 | -1 | 85.606842 | 202.28559 | 0 | 0 | 2 | 7 | 2.4784505 | 7.2095173 | -1 | 86.211797 | 196.63985 | 0 | 0 | 3 | 8 | 3.0041841 | 8.6597969 | -1 | 93.174143 | 186.55588 | 0 | 0 | 4 | 15 | 4.1088602 | 14.246318 | -1 | 102.91228 | 196.57986 | 0 | 0 | 5 | 10 | 5.1497438 | 10.219076 | 1 | 95.159013 | 203.37097 | 0 | 0 | 6 | 13 | 5.9884197 | 13.178262 | 1 | 94.433382 | 195.35526 | 0 | 0 | 9 | 14 | 9.3234692 | 13.76812 | 1 | 96.610635 | 209.66195 | 0 | 0 | 12 | 29 | 12.543522 | 29.636379 | 1 | 74.773167 | 175.2754 | 0 | 0 | 16 | 21 | 15.193472 | 19.588787 | -1 | 40.925389 | 192.82881 | 0 | 0 | 17 | 26 | 15.82881 | 26.011164 | -1 | 23.242626 | 202.24971 | 0 | 0 | 18 | 23 | 16.325764 | 21.605583 | 1 | 8.3359532 | 226.72371 | 0 | 0 | 19 | 24 | 17.417988 | 22.49517 | 1 | 65.701492 | 228.4076 | 0 | 0 | 20 | 27 | 18.850344 | 27.310743 | -1 | 14.413548 | 169.7072 | 0 | 0 | 22 | 25 | 21.134278 | 25.010209 | 1" />
    <inkscape:path-effect
       effect="knot"
       id="path-effect13"
       is_visible="true"
       lpeversion="1"
       switcher_size="15"
       interruption_width="3"
       prop_to_stroke_width="true"
       add_stroke_width="inkscape_1.0_and_up"
       both="false"
       inverse_width="false"
       add_other_stroke_width="inkscape_1.0_and_up"
       crossing_points_vector="102.34648 | 210.72355 | 0 | 0 | 0 | 11 | 0.57969318 | 11.741665 | 1 | 95.321518 | 215.716 | 0 | 0 | 1 | 28 | 1.3786713 | 29.310344 | -1 | 85.606842 | 202.28559 | 0 | 0 | 2 | 7 | 2.4784505 | 7.2095173 | -1 | 86.211797 | 196.63985 | 0 | 0 | 3 | 8 | 3.0041841 | 8.6597969 | -1 | 93.174143 | 186.55588 | 0 | 0 | 4 | 15 | 4.1088602 | 14.246318 | -1 | 102.91228 | 196.57986 | 0 | 0 | 5 | 10 | 5.1497438 | 10.219076 | 1 | 95.159013 | 203.37097 | 0 | 0 | 6 | 13 | 5.9884197 | 13.178262 | 1 | 94.433382 | 195.35526 | 0 | 0 | 9 | 14 | 9.3234692 | 13.76812 | 1 | 96.610635 | 209.66195 | 0 | 0 | 12 | 29 | 12.543522 | 29.636379 | 1 | 74.773167 | 175.2754 | 0 | 0 | 16 | 21 | 15.193472 | 19.588787 | -1 | 40.925389 | 192.82881 | 0 | 0 | 17 | 26 | 15.82881 | 26.011164 | -1 | 23.242626 | 202.24971 | 0 | 0 | 18 | 23 | 16.325764 | 21.605583 | 1 | 8.3359532 | 226.72371 | 0 | 0 | 19 | 24 | 17.417988 | 22.49517 | 1 | 65.701492 | 228.4076 | 0 | 0 | 20 | 27 | 18.850344 | 27.310743 | -1 | 14.413548 | 169.7072 | 0 | 0 | 22 | 25 | 21.134278 | 25.010209 | 1" />
    <inkscape:path-effect
       effect="knot"
       id="path-effect12"
       is_visible="true"
       lpeversion="1"
       switcher_size="15"
       interruption_width="3"
       prop_to_stroke_width="true"
       add_stroke_width="inkscape_1.0_and_up"
       both="false"
       inverse_width="false"
       add_other_stroke_width="inkscape_1.0_and_up"
       crossing_points_vector="31.739568 | 198.0738 | 0 | 1 | 3 | 0 | 1 | 0 | 1 | 75.048583 | 177.99866 | 0 | 4 | 1 | 2 | 0.030056849 | 0.54698861 | -1 | 43.206528 | 189.38336 | 0 | 10 | 2 | 2 | 0.66214459 | 0.95500006 | -1 | 76.646203 | 178.32233 | 0 | 12 | 0 | 19 | 0 | 24 | -1 | 8.4477248 | 213.53959 | 1 | 2 | 2 | 0 | 1 | 0 | 1 | 23.47175 | 202.86524 | 1 | 6 | 1 | 2 | 0.32981374 | 0.61491599 | 1 | 22.795506 | 243.35314 | 2 | 3 | 2 | 0 | 1 | 7.2164497e-15 | 1 | 7.6128182 | 224.54536 | 2 | 7 | 1 | 1 | 0.3578284 | 0.49459952 | 1 | 70.124496 | 218.9433 | 3 | 4 | 1 | 0 | 1 | 3.8803158e-15 | -1 | 66.211469 | 155.03049 | 4 | 5 | 3 | 0 | 1 | 5.5442437e-15 | -1 | 71.947924 | 211.80121 | 4 | 11 | 1 | 1 | 0.091409604 | 0.98811083 | -1 | 16.087453 | 161.73854 | 5 | 6 | 1 | 0 | 1 | 0 | 1 | 26.335864 | 222.48366 | 6 | 7 | 3 | 0 | 1 | 9.0036166e-15 | 1 | 14.413563 | 169.70656 | 6 | 10 | 1 | 1 | 0.13426764 | 0.010192537 | 1 | -9.8130693 | 215.96194 | 7 | 8 | 2 | 0 | 1 | 0 | 1 | -9.2540636 | 182.23536 | 8 | 9 | 1 | 0 | 1 | 6.1062266e-16 | 1 | 13.851433 | 169.75093 | 9 | 10 | 1 | 0 | 1 | 5.1347815e-15 | 1 | 43.664971 | 190.24775 | 10 | 11 | 3 | 0 | 1 | 0 | -1 | 72.546843 | 211.86258 | 11 | 12 | 2 | 0 | 1 | 8.0768725e-15 | -1 | 147.69227 | 228.10066 | 12 | 12 | 1 | 4 | 4.0772964 | 6.856608 | -1 | 183.87451 | 219.38657 | 12 | 12 | 2 | 15 | 4.6053068 | 17.899405 | 1 | 194.03498 | 234.67515 | 12 | 12 | 3 | 14 | 5.4672829 | 17.301923 | 1 | 149.52138 | 195.77685 | 12 | 12 | 5 | 10 | 7.6955013 | 12.279427 | -1 | 150.28807 | 182.88832 | 12 | 12 | 6 | 11 | 7.9942621 | 13.658389 | -1 | 164.44029 | 150.06844 | 12 | 12 | 7 | 18 | 8.8331807 | 19.33806 | -1 | 211.85134 | 182.06603 | 12 | 12 | 8 | 13 | 10.149063 | 15.217689 | 1 | 183.60464 | 204.21067 | 12 | 12 | 9 | 16 | 10.952936 | 18.212815 | 1 | 182.89257 | 177.24923 | 12 | 12 | 12 | 17 | 14.375947 | 18.673948 | 1" />
    <inkscape:path-effect
       effect="knot"
       id="path-effect4"
       is_visible="true"
       lpeversion="1"
       switcher_size="15"
       interruption_width="3"
       prop_to_stroke_width="true"
       add_stroke_width="inkscape_1.0_and_up"
       both="false"
       inverse_width="false"
       add_other_stroke_width="inkscape_1.0_and_up"
       crossing_points_vector="75.048583 | 177.99866 | 0 | 0 | 0 | 5 | 2.0300568 | 6.5469886 | -1 | 43.206528 | 189.38336 | 0 | 0 | 1 | 10 | 2.6621446 | 12.955 | -1 | 23.47175 | 202.86524 | 0 | 0 | 2 | 7 | 3.3298137 | 8.614916 | 1 | 7.6128182 | 224.54536 | 0 | 0 | 3 | 8 | 4.3578284 | 9.4945995 | 1 | 71.947924 | 211.80121 | 0 | 0 | 4 | 11 | 6.0914096 | 13.988111 | -1 | 14.413563 | 169.70656 | 0 | 0 | 6 | 9 | 8.1342676 | 12.010193 | 1" />
    <inkscape:path-effect
       effect="knot"
       id="path-effect11"
       is_visible="true"
       lpeversion="1"
       switcher_size="15"
       interruption_width="3"
       prop_to_stroke_width="true"
       add_stroke_width="inkscape_1.0_and_up"
       both="false"
       inverse_width="false"
       add_other_stroke_width="inkscape_1.0_and_up"
       crossing_points_vector="147.69227 | 228.10066 | 0 | 0 | 0 | 3 | 2.0772964 | 4.856608 | 1 | 183.87451 | 219.38657 | 0 | 0 | 1 | 14 | 2.6053068 | 15.899405 | 1 | 194.03498 | 234.67515 | 0 | 0 | 2 | 13 | 3.4672829 | 15.301923 | 1 | 149.52138 | 195.77685 | 0 | 0 | 4 | 9 | 5.6955013 | 10.279427 | 1 | 150.28807 | 182.88832 | 0 | 0 | 5 | 10 | 5.9942621 | 11.658389 | 1 | 164.44029 | 150.06844 | 0 | 0 | 6 | 17 | 6.8331807 | 17.33806 | 1 | 211.85134 | 182.06603 | 0 | 0 | 7 | 12 | 8.1490625 | 13.217689 | 1 | 183.60464 | 204.21067 | 0 | 0 | 8 | 15 | 8.9529358 | 16.212815 | 1 | 182.89257 | 177.24923 | 0 | 0 | 11 | 16 | 12.375947 | 16.673948 | 1 | 75.048583 | 177.99866 | 0 | 0 | 18 | 23 | 22.030057 | 26.546989 | 1 | 43.206528 | 189.38336 | 0 | 0 | 19 | 28 | 22.662145 | 32.955 | 1 | 23.47175 | 202.86524 | 0 | 0 | 20 | 25 | 23.329814 | 28.614916 | 1 | 7.6128182 | 224.54536 | 0 | 0 | 21 | 26 | 24.357828 | 29.4946 | 1 | 71.947924 | 211.80121 | 0 | 0 | 22 | 29 | 26.09141 | 33.988111 | 1 | 14.413563 | 169.70656 | 0 | 0 | 24 | 27 | 28.134268 | 32.010193 | 1" />
    <inkscape:path-effect
       effect="knot"
       id="path-effect9"
       is_visible="true"
       lpeversion="1"
       switcher_size="15"
       interruption_width="3"
       prop_to_stroke_width="true"
       add_stroke_width="inkscape_1.0_and_up"
       both="false"
       inverse_width="false"
       add_other_stroke_width="inkscape_1.0_and_up"
       crossing_points_vector="147.69227 | 228.10066 | 0 | 0 | 0 | 3 | 2.0772964 | 4.856608 | -1 | 183.87451 | 219.38657 | 0 | 0 | 1 | 14 | 2.6053068 | 15.899405 | 1 | 194.03498 | 234.67515 | 0 | 0 | 2 | 13 | 3.4672829 | 15.301923 | 1 | 149.52138 | 195.77685 | 0 | 0 | 4 | 9 | 5.6955013 | 10.279427 | -1 | 150.28807 | 182.88832 | 0 | 0 | 5 | 10 | 5.9942621 | 11.658389 | -1 | 164.44029 | 150.06844 | 0 | 0 | 6 | 17 | 6.8331807 | 17.33806 | -1 | 211.85134 | 182.06603 | 0 | 0 | 7 | 12 | 8.1490625 | 13.217689 | 1 | 183.60464 | 204.21067 | 0 | 0 | 8 | 15 | 8.9529358 | 16.212815 | 1 | 182.89257 | 177.24923 | 0 | 0 | 11 | 16 | 12.375947 | 16.673948 | 1 | 75.048583 | 177.99866 | 0 | 0 | 18 | 23 | 22.030057 | 26.546989 | -1 | 43.206528 | 189.38336 | 0 | 0 | 19 | 28 | 22.662145 | 32.955 | -1 | 23.47175 | 202.86524 | 0 | 0 | 20 | 25 | 23.329814 | 28.614916 | 1 | 7.6128182 | 224.54536 | 0 | 0 | 21 | 26 | 24.357828 | 29.4946 | 1 | 71.947924 | 211.80121 | 0 | 0 | 22 | 29 | 26.09141 | 33.988111 | -1 | 14.413563 | 169.70656 | 0 | 0 | 24 | 27 | 28.134268 | 32.010193 | 1" />
    <inkscape:path-effect
       effect="knot"
       id="path-effect5"
       is_visible="true"
       lpeversion="1"
       switcher_size="15"
       interruption_width="3"
       prop_to_stroke_width="true"
       add_stroke_width="inkscape_1.0_and_up"
       both="false"
       inverse_width="false"
       add_other_stroke_width="inkscape_1.0_and_up"
       crossing_points_vector="48.989694 | 207.97655 | 0 | 0 | 0 | 19 | 7.2857023e-16 | 22 | 0 | 84.792825 | 246.1885 | 0 | 0 | 1 | 4 | 3.0772964 | 5.8566079 | -1 | 120.97507 | 237.47441 | 0 | 0 | 2 | 15 | 3.6053068 | 16.899405 | 1 | 131.13554 | 252.76299 | 0 | 0 | 3 | 14 | 4.4672829 | 16.301923 | 1 | 86.621936 | 213.86468 | 0 | 0 | 5 | 10 | 6.6955013 | 11.279427 | -1 | 87.388621 | 200.97617 | 0 | 0 | 6 | 11 | 6.9942621 | 12.658389 | -1 | 101.54085 | 168.15628 | 0 | 0 | 7 | 18 | 7.8331807 | 18.33806 | -1 | 148.9519 | 200.15387 | 0 | 0 | 8 | 13 | 9.1490625 | 14.217689 | 1 | 120.7052 | 222.29851 | 0 | 0 | 9 | 16 | 9.9529358 | 17.212815 | 1 | 119.99313 | 195.33707 | 0 | 0 | 12 | 17 | 13.375947 | 17.673948 | 1" />
    <inkscape:path-effect
       effect="knot"
       id="path-effect8"
       is_visible="true"
       lpeversion="1"
       switcher_size="15"
       interruption_width="3"
       prop_to_stroke_width="true"
       add_stroke_width="inkscape_1.0_and_up"
       both="false"
       inverse_width="false"
       add_other_stroke_width="inkscape_1.0_and_up"
       crossing_points_vector="84.792825 | 246.1885 | 0 | 0 | 0 | 3 | 1.0772964 | 3.8566079 | -1 | 120.97507 | 237.47441 | 0 | 0 | 1 | 14 | 1.6053068 | 14.899405 | 1 | 131.13554 | 252.76299 | 0 | 0 | 2 | 13 | 2.4672829 | 14.301923 | 1 | 86.621936 | 213.86468 | 0 | 0 | 4 | 9 | 4.6955013 | 9.2794271 | -1 | 87.388621 | 200.97617 | 0 | 0 | 5 | 10 | 4.9942621 | 10.658389 | -1 | 101.54085 | 168.15628 | 0 | 0 | 6 | 17 | 5.8331807 | 16.33806 | -1 | 148.9519 | 200.15387 | 0 | 0 | 7 | 12 | 7.1490625 | 12.217689 | 1 | 120.7052 | 222.29851 | 0 | 0 | 8 | 15 | 7.9529358 | 15.212815 | 1 | 119.99313 | 195.33707 | 0 | 0 | 11 | 16 | 11.375947 | 15.673948 | 1" />
  </defs>
  <g
     inkscape:label="Layer 1"
     inkscape:groupmode="layer"
     id="layer1"
     style="display:inline"
     transform="translate(12.389131,-152.4887)">
    <path
       style="display:none;fill:none;stroke:#000000;stroke-width:1.5;stroke-dasharray:none"
       d="m 48.989694,207.97655 c -0.165952,7.92118 1.093205,14.2255 3.221758,19.23721 2.128554,5.01171 5.126504,8.7308 8.438138,11.48152 6.623267,5.50145 14.501269,7.12943 19.188303,7.47791 20.590977,1.53093 52.202497,-17.13572 57.103597,-7.65464 4.07264,7.87843 -14.27537,24.13865 -23.95902,26.33196 -8.27559,1.87439 -28.474045,-1.9708 -29.853093,-28.85799 -0.565715,-11.02969 4.917049,-18.36642 4.248338,-35.30702 -0.876154,-22.19582 9.147286,-30.59942 19.098315,-35.1922 19.90207,-9.18557 43.09562,1.68401 43.40181,25.18376 0.30619,23.49974 -16.24386,31.06763 -31.30748,31.76675 -9.07075,0.42098 -13.35847,-1.87799 -23.156961,-5.58221 -9.70083,-3.6673 -23.998439,-7.06113 -23.765977,-9.57398 0.36829,-3.98111 15.24251,-6.30545 31.132038,-9.08449 15.88953,-2.77904 30.80417,-5.78314 39.21409,-2.16783 11.20092,4.81512 20.4379,16.61057 20.20826,33.60387 -0.20689,15.3096 -13.46648,24.27174 -23.34665,24.80103 -8.5732,0.45927 -17.9884,-6.81264 -18.21804,-21.05026 -0.24947,-15.46717 1.99385,-41.72332 -4.82243,-52.89356 -11.07007,-18.14118 -33.374222,-17.43222 -46.080924,-8.34355 -5.64608,4.03845 -10.756808,9.40064 -14.49366,15.55008 -1.868427,3.07473 -3.393384,6.34626 -4.470058,9.74756 -1.076674,3.40129 -1.705064,6.93234 -1.780354,10.52608 z"
       id="path6"
       sodipodi:nodetypes="sssssssssssssssssssssss"
       inkscape:label="knot_9_33"
       transform="translate(62.89944,-18.087841)" />
    <path
       style="display:none;fill:none;stroke:#000000;stroke-width:1.5;stroke-dasharray:none"
       d="m -9.2540636,182.23536 c 6.5056214,-8.17774 16.7701165,-11.92543 23.1054966,-12.48443 18.488835,-1.63136 26.645848,14.5341 29.813538,20.49682 3.167687,5.96271 11.994425,20.0419 28.881872,21.61483 3.913213,0.36448 9.807046,-0.0668 14.85018,-2.12044 5.043133,-2.05365 9.235569,-5.72967 9.745988,-11.85466 0.46584,-5.59004 -3.040041,-10.09123 -7.471542,-13.38996 -4.431502,-3.29872 -9.788624,-5.39499 -13.025266,-6.17519 -17.675192,-4.26065 -36.894249,14.16143 -44.906635,19.75147 -8.012389,5.59004 -17.701799,8.0124 -23.2918432,15.46579 -5.5900405,7.45339 3.9824802,25.70317 14.3477812,29.81355 10.807407,4.2857 40.620943,-0.559 47.32899,-24.40984 7.299114,-25.95246 7.639714,-53.47807 -3.913027,-63.91281 -11.552744,-10.43475 -41.925284,-11.36642 -50.124016,6.70805 -8.198732,18.07447 16.583793,50.49671 10.248411,60.74512 -6.335381,10.24841 -32.2133094,-2.78621 -36.1489333,-6.52172 -10.9937467,-10.43474 -6.3911697,-24.99004 0.5590057,-33.72658 z"
       id="path2"
       sodipodi:nodetypes="sssssssssssssssss"
       inkscape:label="knot_6_3" />
    <path
       id="path4"
       style="display:none;fill:none;stroke:#000000;stroke-width:1.5;stroke-dasharray:none"
       inkscape:label="knots"
       d="m 115.11089,209.12592 c 3.97015,4.89893 5.12651,8.7308 8.43814,11.48152 6.62327,5.50145 14.50127,7.12943 19.1883,7.47791 20.59098,1.53093 52.2025,-17.13572 57.1036,-7.65464 4.07264,7.87843 -14.27537,24.13865 -23.95902,26.33196 -8.27559,1.87439 -28.47404,-1.9708 -29.85309,-28.85799 -0.56572,-11.02969 4.91705,-18.36642 4.24834,-35.30702 -0.87616,-22.19582 9.14728,-30.59942 19.09831,-35.1922 19.90207,-9.18557 43.09562,1.68401 43.40181,25.18376 0.30619,23.49974 -16.24386,31.06763 -31.30748,31.76675 -9.07075,0.42098 -13.35847,-1.87799 -23.15696,-5.58221 -9.70083,-3.6673 -23.99844,-7.06113 -23.76598,-9.57398 0.36829,-3.98111 15.24251,-6.30545 31.13204,-9.08449 15.88953,-2.77904 30.80417,-5.78314 39.21409,-2.16783 11.20092,4.81512 20.4379,16.61057 20.20826,33.60387 -0.20689,15.3096 -13.46648,24.27174 -23.34665,24.80103 -8.5732,0.45927 -17.9884,-6.81264 -18.21804,-21.05026 -0.24947,-15.46717 1.99385,-41.72332 -4.82243,-52.89356 -11.07007,-18.14118 -33.37422,-17.43222 -46.08092,-8.34355 -5.64608,4.03845 -10.54777,8.47899 -13.56139,13.89272 -2.80296,5.0353 -2.60665,9.35354 -6.95611,13.99455 -4.52562,4.82899 -14.953581,5.87512 -22.444241,2.54526 -2.524077,-1.12204 -9.788624,-5.39499 -13.025266,-6.17519 -17.675192,-4.26065 -36.894249,14.16143 -44.906635,19.75147 -8.012389,5.59004 -17.701799,8.0124 -23.2918432,15.46579 -5.5900405,7.45339 3.9824802,25.70317 14.3477812,29.81355 10.807407,4.2857 40.620943,-0.559 47.32899,-24.40984 7.299114,-25.95246 7.639714,-53.47807 -3.913027,-63.91281 -11.552744,-10.43475 -41.925284,-11.36642 -50.124016,6.70805 -8.198732,18.07447 16.583793,50.49671 10.248411,60.74512 -6.335381,10.24841 -32.2133094,-2.78621 -36.1489333,-6.52172 -10.9937467,-10.43474 -6.3911697,-24.99004 0.5590057,-33.72658 6.5056214,-8.17774 16.7701165,-11.92543 23.1054966,-12.48443 18.488835,-1.63136 26.645848,14.5341 29.813538,20.49682 3.167687,5.96271 11.994425,20.0419 28.881872,21.61483 3.913213,0.36448 11.041547,0.44929 19.088452,-4.23958 8.046905,-4.68887 19.505445,-3.39601 23.475595,1.50292 z"
       sodipodi:nodetypes="zsssssssssssssssssssssssssssssssssszz" />
    <path
       id="path7"
       style="display:none;fill:none;stroke:#ff0000;stroke-width:4.5;stroke-dasharray:none"
       inkscape:label="knots thick"
       d="m 115.11089,209.12592 c 3.97015,4.89893 5.12651,8.7308 8.43814,11.48152 6.62327,5.50145 14.50127,7.12943 19.1883,7.47791 20.59098,1.53093 52.2025,-17.13572 57.1036,-7.65464 4.07264,7.87843 -14.27537,24.13865 -23.95902,26.33196 -8.27559,1.87439 -28.47404,-1.9708 -29.85309,-28.85799 -0.56572,-11.02969 4.91705,-18.36642 4.24834,-35.30702 -0.87616,-22.19582 9.14728,-30.59942 19.09831,-35.1922 19.90207,-9.18557 43.09562,1.68401 43.40181,25.18376 0.30619,23.49974 -16.24386,31.06763 -31.30748,31.76675 -9.07075,0.42098 -13.35847,-1.87799 -23.15696,-5.58221 -9.70083,-3.6673 -23.99844,-7.06113 -23.76598,-9.57398 0.36829,-3.98111 15.24251,-6.30545 31.13204,-9.08449 15.88953,-2.77904 30.80417,-5.78314 39.21409,-2.16783 11.20092,4.81512 20.4379,16.61057 20.20826,33.60387 -0.20689,15.3096 -13.46648,24.27174 -23.34665,24.80103 -8.5732,0.45927 -17.9884,-6.81264 -18.21804,-21.05026 -0.24947,-15.46717 1.99385,-41.72332 -4.82243,-52.89356 -11.07007,-18.14118 -33.37422,-17.43222 -46.08092,-8.34355 -5.64608,4.03845 -10.54777,8.47899 -13.56139,13.89272 -2.80296,5.0353 -2.60665,9.35354 -6.95611,13.99455 -4.52562,4.82899 -14.953581,5.87512 -22.444241,2.54526 -2.524077,-1.12204 -9.788624,-5.39499 -13.025266,-6.17519 -17.675192,-4.26065 -36.894249,14.16143 -44.906635,19.75147 -8.012389,5.59004 -17.701799,8.0124 -23.2918432,15.46579 -5.5900405,7.45339 3.9824802,25.70317 14.3477812,29.81355 10.807407,4.2857 40.620943,-0.559 47.32899,-24.40984 7.299114,-25.95246 7.639714,-53.47807 -3.913027,-63.91281 -11.552744,-10.43475 -41.925284,-11.36642 -50.124016,6.70805 -8.198732,18.07447 16.583793,50.49671 10.248411,60.74512 -6.335381,10.24841 -32.2133094,-2.78621 -36.1489333,-6.52172 -10.9937467,-10.43474 -6.3911697,-24.99004 0.5590057,-33.72658 6.5056214,-8.17774 16.7701165,-11.92543 23.1054966,-12.48443 18.488835,-1.63136 26.645848,14.5341 29.813538,20.49682 3.167687,5.96271 11.994425,20.0419 28.881872,21.61483 3.913213,0.36448 11.041547,0.44929 19.088452,-4.23958 8.046905,-4.68887 19.505445,-3.39601 23.475595,1.50292 z"
       sodipodi:nodetypes="zsssssssssssssssssssssssssssssssssszz"
       sodipodi:insensitive="true" />
    <path
       style="baseline-shift:baseline;display:none;overflow:visible;opacity:1;vector-effect:none;enable-background:accumulate;stop-color:#000000;stop-opacity:1"
       d="m 184.52539,143.41016 c -5.09276,-0.0966 -10.3879,0.97125 -15.46484,3.31445 -4.89273,2.25818 -9.86511,5.45782 -13.57227,10.75391 -3.70716,5.29608 -6.12052,12.87081 -6.01172,23.34563 l 1.5,-0.22647 c -0.10634,-10.23831 2.23136,-17.24696 5.74024,-22.25977 3.50887,-5.01281 8.21766,-8.05734 12.97265,-10.25195 9.74819,-4.49916 20.27555,-4.07254 28.37891,0.31445 8.10336,4.38699 13.80908,12.69452 13.95898,24.19922 0.0322,2.47074 -0.0269,4.53628 -0.34938,6.64891 l 1.36007,0.64255 c 0.33585,-2.20033 0.52251,-4.76463 0.48931,-7.31099 -0.15629,-11.99505 -6.20061,-20.87366 -14.74609,-25.5 -4.27274,-2.31317 -9.1631,-3.57334 -14.25586,-3.66992 z m -144.687499,3.53515 c -10.239278,0.73477 -20.188298,5.12543 -24.433594,14.48438 -0.841417,1.85494 -1.346649,3.8445 -1.583984,5.92578 l 1.501953,0.0176 c 0.222414,-1.95044 0.679314,-3.63123 1.447265,-5.32421 3.953436,-8.71553 13.29092,-12.89809 23.175781,-13.60742 9.884862,-0.70933 20.221679,2.1408 25.763672,7.14648 4.868513,4.39737 7.631965,12.11542 8.519532,21.63477 0.887566,9.51934 -0.08908,20.79971 -2.525391,32.21289 l 1.466797,0.3125 c 2.461294,-11.53021 3.457893,-22.93705 2.550781,-32.66602 -0.907112,-9.72897 -3.703941,-17.81859 -9.005859,-22.60742 -6.010751,-5.42907 -16.637676,-8.26406 -26.876953,-7.5293 z m 114.193359,0.15235 c -7.97253,-0.33864 -15.90001,2.11305 -21.83398,6.35742 -5.69061,4.0703 -10.68431,8.57525 -13.78125,14.13867 -1.44942,2.60376 -2.11442,4.99904 -2.94532,7.25 -0.83089,2.25096 -1.81083,4.36399 -3.90234,6.5957 -2.08475,2.2245 -5.66226,3.66454 -9.64453,4.09961 -3.982276,0.43508 -8.346623,-0.12595 -11.947268,-1.72656 -1.103881,-0.49072 -3.337485,-1.70843 -5.697265,-2.93359 -2.35978,-1.22516 -5.102754,-2.54965 -6.949388,-3.15175 l 0.0021,1.54253 c 1.640046,0.53474 3.914563,1.72569 6.255844,2.94125 2.341281,1.21555 4.528252,2.41652 5.779296,2.97265 3.890016,1.72925 8.484928,2.30848 12.720701,1.84571 4.23578,-0.46277 8.13335,-1.95996 10.57422,-4.56446 2.25794,-2.40929 3.35579,-4.77432 4.21484,-7.10156 0.85906,-2.32724 1.49607,-4.60948 2.84961,-7.04101 2.93029,-5.26404 7.7422,-9.63989 13.34375,-13.64649 7.51998,-5.37878 18.05679,-7.88716 27.93534,-4.95633 l 1.25973,-1.2437 c -2.59508,-0.76992 -5.57662,-1.26522 -8.23413,-1.37809 z m 13.46958,3.56416 -1.28769,1.06935 c 4.42647,2.28712 8.74681,5.96412 11.86108,11.06766 2.43215,3.98572 3.72679,10.18636 4.3418,17.17578 0.615,6.98942 0.57465,14.76584 0.47265,21.96289 l 1.47553,-0.0764 c 0.10213,-7.20641 0.16997,-14.92556 -0.45404,-22.01735 -0.62401,-7.09179 -1.89247,-13.46023 -4.55664,-17.82617 -3.25104,-5.32767 -7.18964,-8.9464 -11.85269,-11.35576 z M 13.785156,169.00391 c -6.5570822,0.57856 -16.9515528,4.37251 -23.6269529,12.76367 -3.5512031,4.46395 -6.5010901,10.39547 -7.1660151,16.61523 -0.664926,6.21977 1.016662,12.74983 6.677734,18.12305 1.0100296,0.95867 3.0085264,2.24802 5.6699218,3.67383 2.6613953,1.42581 6.472959,3.09799 9.9467041,4.35127 l -0.2740983,-1.66033 c -3.3937507,-1.22441 -6.3651437,-2.6211 -8.9636215,-4.01321 -2.5984777,-1.3921 -4.5868303,-2.71916 -5.3457031,-3.43945 -5.332675,-5.06152 -6.846174,-11.02625 -6.220703,-16.87695 0.62547,-5.85071 3.450637,-11.5653 6.8496092,-15.8379 6.3358427,-7.96432 16.4722598,-11.66563 22.5859378,-12.20507 7.818419,-0.68986 13.665708,1.8598 18.115234,5.46484 4.449526,3.60504 7.509888,8.36701 9.47924,11.87745 l 1.264901,-0.8169 c -2.010104,-3.58308 -5.116689,-8.43148 -9.800782,-12.22657 -4.684092,-3.79508 -10.981706,-6.51735 -19.191406,-5.79296 z m 1.41211,2.91796 -1.498047,0.0762 c 0.476297,9.29669 4.806044,19.83354 8.314453,29.11328 1.754204,4.63987 3.306045,8.96404 4.083984,12.59961 0.777939,3.63557 0.742848,6.52955 -0.40039,8.3789 -1.255136,2.03037 -3.330475,3.04875 -6.029297,3.37891 -2.698822,0.33016 -6.238649,-0.13073 -9.593019,-0.98167 l 0.348011,1.60518 c 3.465783,0.87918 6.438393,1.23229 9.426648,0.86672 2.988256,-0.36556 5.592737,-1.60141 7.125,-4.08007 1.488907,-2.40853 1.401901,-5.68741 0.589844,-9.48243 -0.812057,-3.79501 -2.388946,-8.1606 -4.148437,-12.81445 -3.518984,-9.30771 -7.763504,-19.77434 -8.21875,-28.66016 z m 181.044924,3.62891 c -3.39797,-0.11276 -7.17266,0.17064 -11.20899,0.66406 l 0.18164,1.48828 c 7.98115,-0.97565 14.82293,-1.02663 19.38282,0.9336 10.93008,4.69869 19.97981,16.18739 19.7539,32.9043 -0.10054,7.44031 -3.35749,13.30054 -7.80469,17.40234 -4.44719,4.10179 -10.09984,6.40665 -14.83203,6.66016 -1.73227,0.0928 -3.29901,-0.11527 -5.02083,-0.68485 l -0.98193,1.29603 c 1.89402,0.62654 4.15789,0.99003 6.08284,0.88686 5.14799,-0.27578 11.06516,-2.71764 15.76953,-7.05664 4.70437,-4.339 8.18077,-10.61509 8.28711,-18.48437 0.23338,-17.2697 -9.19035,-29.37119 -20.66211,-34.30274 -2.5281,-1.08679 -5.5493,-1.59427 -8.94726,-1.70703 z m -15.68946,1.27734 c -4.78302,0.71817 -9.84643,1.6468 -15.0039,2.54883 -7.9406,1.38879 -15.63652,2.66301 -21.4375,4.10157 -2.90049,0.71927 -5.32327,1.47422 -7.10547,2.33789 -0.8911,0.43183 -1.62524,0.88872 -2.18359,1.41992 -0.55836,0.53119 -0.95443,1.16968 -1.02149,1.89453 -0.0406,0.43942 0.13402,0.84177 0.37109,1.1543 0.23708,0.31252 0.54509,0.57277 0.91211,0.82812 0.73406,0.51071 1.72286,0.99606 2.92579,1.5 2.40584,1.00789 5.75348,2.15232 9.21284,3.26461 l 0.36137,-1.5107 c -3.45479,-1.11083 -6.68727,-2.1703 -8.99414,-3.13672 -1.15343,-0.48321 -2.07777,-0.94927 -2.65039,-1.34766 -0.2863,-0.19919 -0.48084,-0.38338 -0.57226,-0.5039 -0.0914,-0.12053 -0.0715,-0.13857 -0.0742,-0.10938 0.025,-0.27042 0.17486,-0.57653 0.5625,-0.94531 0.38764,-0.36878 1.00127,-0.76886 1.80469,-1.1582 1.60684,-0.77869 3.9622,-1.52365 6.8125,-2.23047 5.70058,-1.41366 13.387,-2.69179 21.33593,-4.08203 5.16521,-0.90339 10.21765,-1.82794 14.9668,-2.54102 z m -107.734371,0.16211 c -8.527892,-0.54955 -17.052425,3.32921 -24.376953,7.9375 -7.324527,4.6083 -13.496041,9.99533 -17.130859,12.53125 -1.973365,1.37677 -4.063378,2.56654 -6.181641,3.69336 l 0.705078,1.32422 c 2.143304,-1.14014 4.285674,-2.35805 6.333985,-3.78711 3.794844,-2.64757 9.872759,-7.96255 17.072265,-12.49218 7.199507,-4.52964 15.61031,-8.19901 23.617824,-7.68299 z m 137.783431,7.01713 c -2.16324,6.98181 -6.5084,11.84851 -11.73265,14.89108 -5.22425,3.04256 -11.43851,4.43075 -17.43359,4.70898 -8.9335,0.41461 -13.03062,-1.82023 -22.85743,-5.53515 -2.07972,-0.78622 -4.47419,-1.55619 -6.77241,-2.30665 l -0.30085,1.44238 c 2.28846,0.74726 4.49834,1.49402 6.54201,2.26661 9.77018,3.69351 14.24904,6.05821 23.45704,5.63086 6.17687,-0.28667 12.62024,-1.70764 18.11914,-4.91016 5.4989,-3.20252 9.91772,-8.01884 12.19015,-15.35307 z m -59.53343,0.9595 -1.48438,0.20906 c 0.0281,7.489 -1.16582,12.97471 -2.31445,17.95117 -1.14862,4.97647 -2.26476,9.46402 -1.99023,14.81641 0.15203,2.96424 0.53136,5.54798 1.09765,7.99559 l 1.46094,-0.22606 c -0.54483,-2.35483 -0.91264,-4.96204 -1.06055,-7.8457 -0.26166,-5.10164 0.80323,-9.41191 1.95508,-14.40235 1.15185,-4.99044 2.3646,-10.84637 2.33594,-18.49798 z m -106.159989,5.99341 -1.279465,0.78778 c 3.665365,6.5316 12.589638,19.34702 28.847656,20.86132 3.986258,0.37129 11.320334,0.44997 19.53711,-4.33789 3.863746,-2.25137 8.601898,-3.08236 12.828128,-2.74414 4.22622,0.33823 7.90237,1.86998 9.68554,4.07032 3.89456,4.80564 5.034,8.6713 8.54297,11.58593 6.79219,5.64176 14.81403,7.29372 19.61133,7.65039 12.02075,0.89375 27.26382,-4.81312 39.11812,-8.0972 L 181.48828,219.25 c -11.96278,3.31414 -27.25134,8.93875 -38.69531,8.08789 -4.57676,-0.34028 -12.31127,-1.9455 -18.76563,-7.30664 -3.11429,-2.58681 -4.28823,-6.38474 -8.33398,-11.37695 -2.18698,-2.6986 -6.22511,-4.26233 -10.73242,-4.62305 -4.50731,-0.36072 -9.519969,0.50586 -13.703128,2.94336 -7.877034,4.58989 -14.800456,4.4983 -18.640625,4.14062 -15.528715,-1.44637 -24.142029,-13.79902 -27.708816,-20.15496 z m -23.79509,12.27996 c -4.986868,2.58915 -9.842963,5.28607 -13.2656248,9.84961 -1.547304,2.06308 -2.0057428,4.80136 -1.7207031,7.7461 0.2850398,2.94474 1.3120981,6.12755 2.8398438,9.19726 3.0554911,6.13944 8.0900591,11.85135 13.5527341,14.01758 5.713404,2.26566 15.94401,2.06609 25.744141,-1.65039 9.800131,-3.71648 19.153185,-11.06245 22.582031,-23.25391 0.463744,-1.64887 0.900029,-3.30406 1.306641,-4.96093 l -1.457032,-0.35743 c -0.402596,1.64051 -0.833748,3.27933 -1.292968,4.91211 -3.279201,11.65939 -12.186375,18.66066 -21.671875,22.25782 -9.485501,3.59716 -19.5642,3.67824 -24.658203,1.6582 -4.902626,-1.94415 -9.837135,-7.41462 -12.761719,-13.29102 -1.4622922,-2.9382 -2.4279286,-5.97202 -2.6894533,-8.67382 -0.2615246,-2.70181 0.1780651,-5.03755 1.4257813,-6.70118 3.183016,-4.24401 7.79565,-6.84265 12.755859,-9.41796 z m 161.707029,3.29607 c -0.0459,3.17728 -0.0764,6.0967 -0.0332,8.77815 0.14455,8.96225 3.76058,15.26367 8.73192,18.717 l 0.9673,-1.15254 c -4.55142,-3.16163 -8.06115,-9.02931 -8.19922,-17.58985 -0.0428,-2.65174 -0.0127,-5.63121 0.0332,-8.80469 z m 12.10156,10.48323 c -2.50767,-0.18236 -5.49304,0.27983 -8.95428,1.08582 l 0.27069,1.47082 c 0,0 6.34912,-1.2225 8.57617,-1.06055 2.22705,0.16196 3.62427,0.83772 4.35938,2.25977 0.86434,1.67205 0.57363,3.90373 -0.66992,6.45703 -1.24356,2.55331 -3.41184,5.34546 -6.01563,7.9668 -5.20758,5.24268 -12.21956,9.80104 -16.77148,10.83203 -3.19774,0.72428 -8.47308,0.55129 -13.59375,-1.72266 -5.12068,-2.27395 -10.07062,-6.41106 -12.94035,-14.07001 l -1.45223,0.15991 c 3.00635,8.02355 8.34406,12.86582 13.7832,15.2812 5.43914,2.41537 10.94868,2.62633 14.5332,1.81445 5.13174,-1.16232 12.13668,-5.83096 17.50586,-11.23633 2.68459,-2.70268 4.94495,-5.5893 6.29883,-8.36914 1.35389,-2.77984 1.82823,-5.53557 0.65625,-7.80273 -1.01699,-1.96735 -3.07826,-2.88404 -5.58594,-3.06641 z"
       id="path8"
       inkscape:label="knots_path"
       sodipodi:nodetypes="sssccsssscccssscsccssssccssscsssssssccsssssssccccsccccccscccsssccsssssscccscscsssccssssscsccssssccccssscccsscssscccsscsssscccccccsscccccscccsscccccsccccsccccssssscccssssscccsssssccsssssscccccccccccccsssssccccssssc" />
    <path
       id="path9"
       style="display:none;opacity:0.377952;fill:none;stroke:#000000;stroke-width:1.5;stroke-dasharray:none"
       d="m 99.646237,206.96779 c 1.909523,0.50634 4.087023,4.81837 1.960063,8.00059 -2.427957,3.63255 -16.169247,-1.3988 -16.542957,-8.68513 -0.15331,-2.98901 1.3325,-4.97724 1.15128,-9.56809 -0.23744,-6.01499 2.47888,-8.29234 5.175584,-9.53696 5.39339,-2.48926 11.678763,0.45636 11.761743,6.82471 0.083,6.36835 -4.184228,8.34238 -8.130143,9.40536 -2.7237,0.73373 -5.127325,0.58884 -7.782685,-0.41499 -2.62889,-0.99382 -5.294219,-2.65198 -5.287359,-4.48896 0.0065,-1.73788 4.13067,-1.70876 8.43668,-2.46187 4.306014,-0.75311 8.347834,-1.56721 10.626887,-0.58748 3.03542,1.30489 5.53861,4.50141 5.47637,9.10654 -0.0561,4.14885 -3.64937,6.57756 -6.32686,6.72099 -2.323313,0.12446 -4.874793,-1.8462 -4.937023,-5.70455 -0.0676,-4.19155 -0.472156,-7.81426 -1.30687,-14.33397 -0.828458,-6.47085 -1.921412,-12.7263 -9.064671,-15.12895 -17.232779,-5.79628 -35.245856,13.13645 -53.116708,21.95877 -8.760345,4.32473 -17.701799,8.0124 -23.2918432,15.46579 -5.5900405,7.45339 3.9824802,25.70317 14.3477812,29.81355 10.807407,4.2857 40.620943,-0.559 47.32899,-24.40984 7.299114,-25.95246 7.639714,-53.47807 -3.913027,-63.91281 -11.552744,-10.43475 -41.925284,-11.36642 -50.124016,6.70805 -8.198732,18.07447 16.583793,50.49671 10.248411,60.74512 -6.335381,10.24841 -30.1944581,3.10211 -36.1489333,-6.52172 -7.9751257,-12.88967 -6.3911697,-24.99004 0.5590057,-33.72658 6.5056214,-8.17774 16.7701165,-11.92543 23.1054966,-12.48443 18.488835,-1.63136 23.736791,16.7967 26.904482,22.75942 5.039608,9.48633 11.933489,20.99823 18.575899,29.54193 7.336582,9.43657 12.739687,9.52496 19.222012,9.13985 8.30616,-0.49346 16.202467,-3.2168 16.380255,-10.0573 0.115924,-4.46025 0.979857,-15.15672 4.712156,-14.16704 z"
       sodipodi:nodetypes="sssssssssssssssssssssssscssssss"
       inkscape:label="knots_deform"
       sodipodi:insensitive="true" />
    <path
       id="path12"
       style="display:none;opacity:1;fill:none;stroke:#000000;stroke-width:1.5;stroke-dasharray:none"
       d="m 97.790178,207.57218 c 0.521964,-0.551 1.135566,-0.79544 1.856059,-0.60439 1.909523,0.50634 4.087023,4.81837 1.960063,8.00059 -0.6691,1.00107 -2.197402,1.34415 -4.068346,1.16338 m -4.393827,-1.16026 c -3.997289,-1.65364 -7.884418,-4.85965 -8.080784,-8.68825 -0.126331,-2.46302 0.860331,-4.2465 1.110098,-7.36663 m 0.111596,-4.55836 c 0.467837,-4.28768 2.793709,-6.11324 5.10517,-7.18006 5.367559,-2.47734 11.618573,0.42827 11.760123,6.73345 m -1.05486,4.8848 c -1.49918,2.72084 -4.362278,3.88141 -7.073663,4.61182 -2.560688,0.68982 -4.838467,0.60304 -7.308502,-0.24399 m -4.129893,-2.11762 c -0.980977,-0.76395 -1.635052,-1.63115 -1.631649,-2.54234 0.0065,-1.73788 4.13067,-1.70876 8.43668,-2.46187 0.614401,-0.10746 1.223424,-0.21616 1.822715,-0.32071 m 4.455361,-0.64157 c 1.746573,-0.15275 3.251875,-0.0968 4.348811,0.3748 3.03542,1.30489 5.53861,4.50141 5.47637,9.10654 -0.0277,2.04557 -0.91519,3.67299 -2.12886,4.81452 m -4.19808,1.90647 c -2.301788,0.12326 -4.827502,-1.80994 -4.934577,-5.5979 m -0.213307,-4.60779 c -0.206662,-2.69902 -0.563929,-5.67753 -1.095929,-9.83283 -0.106221,-0.82966 -0.216791,-1.65579 -0.343903,-2.4707 m -0.964099,-4.39655 c -1.141268,-3.68154 -3.238945,-6.74215 -7.756669,-8.2617 -2.597548,-0.87369 -5.212825,-1.18553 -7.842671,-1.05483 m -4.457613,0.62084 c -13.413922,2.99905 -27.15672,15.64936 -40.816424,22.39276 -2.165331,1.06896 -4.341728,2.099 -6.475844,3.15661 m -4.026956,2.0794 c -4.953157,2.69529 -9.46398,5.79636 -12.7890432,10.22978 -5.5900405,7.45339 3.9824802,25.70317 14.3477812,29.81355 8.824329,3.49931 30.319748,0.91152 41.562679,-13.13926 m 2.554563,-3.7047 c 1.338938,-2.27525 2.431602,-4.79203 3.211748,-7.56588 7.299114,-25.95246 7.639714,-53.47807 -3.913027,-63.91281 -11.552744,-10.43475 -41.925284,-11.36642 -50.124016,6.70805 -0.804865,1.77436 -1.291882,3.68699 -1.521693,5.70335 M 14.447472,171.96 c 0.931739,18.18247 17.152647,42.00795 11.888392,50.52366 -2.772645,4.48516 -8.901653,5.63867 -15.417307,4.71092 m -5.249768,-1.1658 c -6.62562033,-1.98539 -12.8297231,-5.78037 -15.4818583,-10.06684 -7.9751257,-12.88967 -6.3911697,-24.99004 0.5590057,-33.72658 6.5056214,-8.17774 16.7701165,-11.92543 23.1054966,-12.48443 16.96517,-1.49692 22.781898,13.89562 26.072703,21.04949 m 2.070806,4.01379 c 4.897685,8.99831 11.223774,19.37519 17.336872,27.23807 7.336582,9.43657 12.739687,9.52496 19.222012,9.13985 8.30616,-0.49346 16.202467,-3.2168 16.380255,-10.0573 0.0563,-2.16611 0.289016,-5.80304 0.941023,-8.85796"
       sodipodi:nodetypes="sssssssssssssssssssssssscssssss"
       inkscape:label="knots_deform_knotted"
       inkscape:path-effect="#path-effect13"
       inkscape:original-d="m 99.646237,206.96779 c 1.909523,0.50634 4.087023,4.81837 1.960063,8.00059 -2.427957,3.63255 -16.169247,-1.3988 -16.542957,-8.68513 -0.15331,-2.98901 1.3325,-4.97724 1.15128,-9.56809 -0.23744,-6.01499 2.47888,-8.29234 5.175584,-9.53696 5.39339,-2.48926 11.678763,0.45636 11.761743,6.82471 0.083,6.36835 -4.184228,8.34238 -8.130143,9.40536 -2.7237,0.73373 -5.127325,0.58884 -7.782685,-0.41499 -2.62889,-0.99382 -5.294219,-2.65198 -5.287359,-4.48896 0.0065,-1.73788 4.13067,-1.70876 8.43668,-2.46187 4.306014,-0.75311 8.347834,-1.56721 10.626887,-0.58748 3.03542,1.30489 5.53861,4.50141 5.47637,9.10654 -0.0561,4.14885 -3.64937,6.57756 -6.32686,6.72099 -2.323313,0.12446 -4.874793,-1.8462 -4.937023,-5.70455 -0.0676,-4.19155 -0.472156,-7.81426 -1.30687,-14.33397 -0.828458,-6.47085 -1.921412,-12.7263 -9.064671,-15.12895 -17.232779,-5.79628 -35.245856,13.13645 -53.116708,21.95877 -8.760345,4.32473 -17.701799,8.0124 -23.2918432,15.46579 -5.5900405,7.45339 3.9824802,25.70317 14.3477812,29.81355 10.807407,4.2857 40.620943,-0.559 47.32899,-24.40984 7.299114,-25.95246 7.639714,-53.47807 -3.913027,-63.91281 -11.552744,-10.43475 -41.925284,-11.36642 -50.124016,6.70805 -8.198732,18.07447 16.583793,50.49671 10.248411,60.74512 -6.335381,10.24841 -30.1944581,3.10211 -36.1489333,-6.52172 -7.9751257,-12.88967 -6.3911697,-24.99004 0.5590057,-33.72658 6.5056214,-8.17774 16.7701165,-11.92543 23.1054966,-12.48443 18.488835,-1.63136 23.736791,16.7967 26.904482,22.75942 5.039608,9.48633 11.933489,20.99823 18.575899,29.54193 7.336582,9.43657 12.739687,9.52496 19.222012,9.13985 8.30616,-0.49346 16.202467,-3.2168 16.380255,-10.0573 0.115924,-4.46025 0.979857,-15.15672 4.712156,-14.16704 z"
       sodipodi:insensitive="true" />
    <path
       id="path13"
       style="display:none;opacity:0.377952;fill:none;stroke:#ff0000;stroke-width:4;stroke-dasharray:none"
       d="m 99.646237,206.96779 c 1.909523,0.50634 4.087023,4.81837 1.960063,8.00059 -2.427957,3.63255 -16.169247,-1.3988 -16.542957,-8.68513 -0.15331,-2.98901 1.3325,-4.97724 1.15128,-9.56809 -0.23744,-6.01499 2.47888,-8.29234 5.175584,-9.53696 5.39339,-2.48926 11.678763,0.45636 11.761743,6.82471 0.083,6.36835 -4.184228,8.34238 -8.130143,9.40536 -2.7237,0.73373 -5.127325,0.58884 -7.782685,-0.41499 -2.62889,-0.99382 -5.294219,-2.65198 -5.287359,-4.48896 0.0065,-1.73788 4.13067,-1.70876 8.43668,-2.46187 4.306014,-0.75311 8.347834,-1.56721 10.626887,-0.58748 3.03542,1.30489 5.53861,4.50141 5.47637,9.10654 -0.0561,4.14885 -3.64937,6.57756 -6.32686,6.72099 -2.323313,0.12446 -4.874793,-1.8462 -4.937023,-5.70455 -0.0676,-4.19155 -0.472156,-7.81426 -1.30687,-14.33397 -0.828458,-6.47085 -1.921412,-12.7263 -9.064671,-15.12895 -17.232779,-5.79628 -35.245856,13.13645 -53.116708,21.95877 -8.760345,4.32473 -17.701799,8.0124 -23.2918432,15.46579 -5.5900405,7.45339 3.9824802,25.70317 14.3477812,29.81355 10.807407,4.2857 40.620943,-0.559 47.32899,-24.40984 7.299114,-25.95246 7.639714,-53.47807 -3.913027,-63.91281 -11.552744,-10.43475 -41.925284,-11.36642 -50.124016,6.70805 -8.198732,18.07447 16.583793,50.49671 10.248411,60.74512 -6.335381,10.24841 -30.1944581,3.10211 -36.1489333,-6.52172 -7.9751257,-12.88967 -6.3911697,-24.99004 0.5590057,-33.72658 6.5056214,-8.17774 16.7701165,-11.92543 23.1054966,-12.48443 18.488835,-1.63136 23.736791,16.7967 26.904482,22.75942 5.039608,9.48633 11.933489,20.99823 18.575899,29.54193 7.336582,9.43657 12.739687,9.52496 19.222012,9.13985 8.30616,-0.49346 16.202467,-3.2168 16.380255,-10.0573 0.115924,-4.46025 0.979857,-15.15672 4.712156,-14.16704 z"
       sodipodi:nodetypes="sssssssssssssssssssssssscssssss"
       inkscape:label="knots_deform_thick"
       sodipodi:insensitive="true" />
    <path
       style="baseline-shift:baseline;display:inline;overflow:visible;opacity:1;vector-effect:none;enable-background:accumulate;stop-color:#000000;stop-opacity:1"
       d="m 43.337892,163.26111 c -10.239278,0.73477 -20.188298,5.12543 -24.433594,14.48438 -0.841606,1.85536 -1.420892,4.24465 -1.658161,6.32643 l 1.536594,-0.11751 c 0.222354,-1.95092 0.718677,-3.89642 1.486801,-5.58978 3.953436,-8.71553 13.29092,-12.89809 23.175781,-13.60742 9.884862,-0.70933 20.221679,2.1408 25.763672,7.14648 5.530215,4.99504 8.336891,14.28573 8.779297,25.60938 0.442406,11.32364 -1.454268,24.63033 -5.085937,37.54296 -0.762742,2.71198 -1.994981,5.3973 -3.301764,7.61791 l 1.265462,0.81477 c 1.371093,-2.32988 2.682112,-5.19069 3.479661,-8.02643 3.667445,-13.03983 5.591326,-26.47185 5.140625,-38.00781 -0.450701,-11.53596 -3.248958,-21.22436 -9.271484,-26.66406 -6.010751,-5.42907 -16.637676,-8.26406 -26.876953,-7.5293 z m -26.052735,22.0586 c -6.557084,0.57856 -16.95155494,4.37251 -23.626955,12.76367 -7.125657,8.95713 -8.71838,21.48379 -0.6093751,34.58984 2.8232799,4.56308 10.1931899,8.90828 16.9773081,10.72156 L 9.3847645,241.62635 C 2.8875572,239.67944 -3.1947918,235.89207 -5.6757824,231.88221 -13.517025,219.20892 -11.942659,207.53488 -5.1679699,199.01892 1.1678727,191.0546 11.30429,187.35329 17.41797,186.81385 c 8.250907,-0.72802 13.655732,2.59631 17.533203,7.02734 3.877471,4.43103 6.267208,10.24555 7.927845,13.8556 l 1.256198,-0.82922 c -1.630168,-3.54382 -3.96025,-9.33518 -8.055137,-14.01466 -4.094887,-4.67948 -10.080659,-8.30211 -18.794922,-7.5332 z m 1.391432,2.62847 -1.498047,0.10721 c 0.476397,9.29666 4.826756,20.0921 8.335131,29.37176 1.754187,4.63983 3.30606,8.96407 4.083984,12.59961 0.777924,3.63554 0.742841,6.52956 -0.40039,8.3789 -1.271476,2.0568 -3.304073,3.35813 -5.863282,4.05469 -2.559208,0.69656 -6.540718,0.82997 -9.743163,0.17627 l 0.721679,1.61668 c 3.333265,0.47461 6.588646,0.42384 9.416016,-0.3457 2.827369,-0.76955 5.244924,-2.28453 6.746093,-4.71289 1.488897,-2.40851 1.401886,-5.68744 0.589844,-9.48243 -0.812042,-3.79498 -2.388962,-8.16063 -4.148437,-12.81445 -3.518951,-9.30763 -7.784086,-20.06385 -8.239428,-28.94965 z m 61.486824,2.70664 0.209444,1.4838 c 2.546157,-0.12654 5.239851,0.16096 7.744332,1.00335 4.295786,1.4449 6.241259,4.52308 7.340376,8.06865 l 1.423414,-0.46567 c -1.183419,-3.81751 -3.545612,-7.43066 -8.285274,-9.02485 -2.690615,-0.905 -5.718755,-1.20014 -8.432292,-1.06528 z m -3.957684,0.55326 c -13.745741,3.07323 -27.792625,15.84113 -41.297525,22.50811 -2.157942,1.06531 -4.544603,2.22599 -6.686896,3.28764 l 0.601297,1.35993 c 2.125939,-1.05355 4.576941,-2.22926 6.749662,-3.30187 13.814509,-6.81982 27.692488,-19.44471 40.774591,-22.36957 z m 22.778647,10.65655 c -1.457329,-0.0244 -2.965373,0.28329 -4.408203,0.94922 -2.433235,1.12302 -5.273332,3.53932 -5.585666,8.20416 l 1.540744,-0.26276 c 0.441254,-4.04404 2.484141,-5.56946 4.673828,-6.58008 2.4819,-1.14549 5.140801,-1.03424 7.171881,0.0527 2.03109,1.08697 3.45818,3.10812 3.52345,6.01562 l 1.48305,1.01756 c 0.41518,-3.43157 -1.82775,-7.03266 -4.29946,-8.35545 -1.23586,-0.66139 -2.64229,-1.01663 -4.099624,-1.04101 z m -1.216915,2.75308 -1.472242,0.42388 c 0.125425,0.80409 0.276657,1.78721 0.382516,2.61405 0.531638,4.15248 0.886951,7.6399 1.091797,10.3152 l 1.496094,-0.49362 c -0.208479,-2.72274 -0.569201,-5.85486 -1.101563,-10.01298 -0.106582,-0.83249 -0.2678,-2.02079 -0.396602,-2.84653 z m 4.873179,5.97739 c -0.7894,-0.0577 -1.63923,-0.024 -2.53908,0.0547 l 0.13086,1.49414 c 1.69348,-0.1481 3.09834,-0.0653 3.98635,0.31641 2.76458,1.18846 5.08194,4.07752 5.02344,8.40625 -0.0248,1.83407 -0.78388,3.33082 -1.89258,4.2793 l 0.44325,1.64402 c 1.49919,-0.9735 2.91881,-3.64476 2.94933,-5.90183 0.066,-4.88153 -2.62343,-8.38533 -5.92969,-9.80665 -0.65293,-0.28068 -1.38248,-0.42859 -2.17188,-0.48632 z m -56.617223,-0.0205 -1.282665,0.75248 c 4.911581,9.02384 11.344019,19.58311 17.499483,27.50048 3.722355,4.78782 7.023218,7.2832 10.259766,8.49609 3.236548,1.2129 6.340788,1.12708 9.597656,0.9336 4.220571,-0.25074 8.356765,-1.05697 11.542969,-2.73438 3.186204,-1.67741 5.446649,-4.34677 5.542969,-8.05273 0.05547,-2.13424 0.340989,-6.07047 0.975235,-9.04218 l -1.26897,-1.0667 c -0.756313,3.06394 -1.149139,7.87184 -1.206265,10.06981 -0.08147,3.13454 -1.857299,5.24788 -4.740235,6.76563 -2.882936,1.51775 -6.848004,2.31978 -10.933593,2.5625 -3.225458,0.19162 -6.064645,0.25432 -8.984375,-0.83984 -2.919731,-1.09417 -5.987335,-3.36298 -9.601563,-8.01172 -6.070732,-7.80839 -12.516623,-18.36026 -17.400412,-27.33304 z m 49.558615,0.72366 c -0.601244,0.1049 -1.209562,0.21315 -1.822265,0.32031 -2.111362,0.36928 -4.205185,0.54789 -5.84375,0.86524 -0.819283,0.15868 -1.526737,0.34311 -2.113282,0.66992 -0.586544,0.32681 -1.098828,0.93295 -1.101562,1.66406 -0.0048,1.27188 1.264185,2.59023 2.334736,3.42393 l 0.509014,-1.4708 c -0.891403,-0.69419 -1.345806,-1.39675 -1.34375,-1.94727 5.15e-4,-0.13783 0.0089,-0.17933 0.332031,-0.35937 0.323128,-0.18004 0.917145,-0.3624 1.667969,-0.50782 1.501647,-0.29083 3.621758,-0.47553 5.816406,-0.85937 0.616099,-0.10775 1.224928,-0.2161 1.822266,-0.32031 z m 9.560808,3.06137 c -1.34791,2.44629 -4.16991,3.9268 -6.816667,4.6398 -2.437573,0.65665 -4.945663,0.46348 -7.296739,-0.34275 l -0.399789,1.44246 c 2.588994,0.88781 5.403349,1.07249 8.087153,0.34951 2.776022,-0.74782 5.884712,-1.97923 7.535172,-4.97461 z m -16.217058,0.51978 c -0.239045,2.98619 -1.248841,5.07767 -1.111328,7.7587 0.110602,2.15643 1.251209,4.07736 2.835938,5.65234 1.584728,1.57497 4.001721,2.98672 6.079219,3.84616 l 0.280386,-1.53168 c -1.91979,-0.7942 -3.895715,-1.98034 -5.302965,-3.37893 -1.40725,-1.39859 -2.308767,-2.99385 -2.394531,-4.66602 -0.11515,-2.24502 0.873373,-4.5155 1.133863,-7.76958 z m -64.160138,3.86455 c -4.997382,2.71936 -9.998296,6.10214 -13.417988,10.66172 -1.5473049,2.06308 -2.0057437,4.80136 -1.720704,7.7461 0.2850398,2.94474 1.312099,6.12755 2.839845,9.19726 3.055492,6.13944 8.09006,11.85135 13.552735,14.01758 4.665037,1.84993 12.327023,2.03751 20.332031,0.041 8.005009,-1.9965 16.531239,-6.45865 22.284349,-13.64856 l -1.197429,-0.89887 c -5.48982,6.86087 -13.690684,11.15708 -21.450201,13.09235 -7.759516,1.93527 -15.256724,1.66891 -19.416015,0.0195 -4.902626,-1.94415 -9.837135,-7.41462 -12.761719,-13.29102 -1.462293,-2.9382 -2.42793,-5.97202 -2.689455,-8.67382 -0.261524,-2.70181 0.178065,-5.03755 1.425782,-6.70118 3.230437,-4.30724 7.89877,-7.49587 12.807701,-10.1671 z m 74.691177,2.65655 -1.476351,0.50215 c 0.10446,4.40934 3.19845,6.72969 5.94765,6.45503 0,0 0.0614,-0.50643 0.0534,-0.75964 -0.008,-0.25322 -0.10161,-0.75965 -0.10161,-0.75965 -1.84378,0.2586 -4.490743,-1.21899 -4.423069,-5.43791 z m 3.881089,1.15752 c -0.97567,-0.25871 -1.94419,0.1308 -2.59181,0.81445 0,0 0.20696,0.49299 0.35257,0.68933 0.14561,0.19634 0.55234,0.59144 0.55234,0.59144 0.39631,-0.41835 0.8368,-0.76744 1.30213,-0.64405 0.5132,0.13608 1.51674,1.1414 1.97657,2.50976 0.45983,1.36837 0.46354,2.98497 -0.44727,4.34766 -0.4199,0.62823 -1.81753,1.01205 -3.55915,0.84378 l -0.22094,1.46476 c 2.00029,0.19326 4.10983,-0.10065 5.02814,-1.47455 1.21615,-1.81954 1.19566,-3.94842 0.62109,-5.65821 -0.57456,-1.70979 -1.61734,-3.11411 -3.01367,-3.48437 z"
       id="path15"
       inkscape:label="knots_deform_path"
       sodipodi:nodetypes="sscccssssccssssccsccssssccscccssssccsssscccsccsccsccsccccccscccsccccsccscscccsccssssccsssssccsssssccssscccsssscccsccscccssccsscccsssssccscsscccccczcccsczcsssccsss" />
  </g>
</svg>
