<?xml version="1.0" encoding="UTF-8" standalone="no"?>
<!-- Created with Inkscape (http://www.inkscape.org/) -->

<svg
   width="210mm"
   height="297mm"
   viewBox="0 0 210 297"
   version="1.1"
   id="svg1"
   sodipodi:docname="connected_sum_example_after.svg"
   inkscape:version="1.4.2 (ebf0e940d0, 2025-05-08)"
   xmlns:inkscape="http://www.inkscape.org/namespaces/inkscape"
   xmlns:sodipodi="http://sodipodi.sourceforge.net/DTD/sodipodi-0.dtd"
   xmlns="http://www.w3.org/2000/svg"
   xmlns:svg="http://www.w3.org/2000/svg">
  <sodipodi:namedview
     id="namedview1"
     pagecolor="#ffffff"
     bordercolor="#000000"
     borderopacity="0.25"
     inkscape:showpageshadow="2"
     inkscape:pageopacity="0.0"
     inkscape:pagecheckerboard="0"
     inkscape:deskcolor="#d1d1d1"
     inkscape:document-units="mm"
     inkscape:zoom="2.7519048"
     inkscape:cx="152.25818"
     inkscape:cy="703.69441"
     inkscape:window-width="1916"
     inkscape:window-height="1034"
     inkscape:window-x="0"
     inkscape:window-y="0"
     inkscape:window-maximized="0"
     inkscape:current-layer="layer1" />
  <defs
     id="defs1">
    <inkscape:path-effect
       effect="knot"
       id="path-effect11"
       is_visible="true"
       lpeversion="1"
       switcher_size="15"
       interruption_width="3"
       prop_to_stroke_width="true"
       add_stroke_width="inkscape_1.0_and_up"
       both="false"
       inverse_width="false"
       add_other_stroke_width="inkscape_1.0_and_up"
       crossing_points_vector="147.69227 | 228.10066 | 0 | 0 | 0 | 3 | 2.0772964 | 4.856608 | 1 | 183.87451 | 219.38657 | 0 | 0 | 1 | 14 | 2.6053068 | 15.899405 | 1 | 194.03498 | 234.67515 | 0 | 0 | 2 | 13 | 3.4672829 | 15.301923 | 1 | 149.52138 | 195.77685 | 0 | 0 | 4 | 9 | 5.6955013 | 10.279427 | 1 | 150.28807 | 182.88832 | 0 | 0 | 5 | 10 | 5.9942621 | 11.658389 | 1 | 164.44029 | 150.06844 | 0 | 0 | 6 | 17 | 6.8331807 | 17.33806 | 1 | 211.85134 | 182.06603 | 0 | 0 | 7 | 12 | 8.1490625 | 13.217689 | 1 | 183.60464 | 204.21067 | 0 | 0 | 8 | 15 | 8.9529358 | 16.212815 | 1 | 182.89257 | 177.24923 | 0 | 0 | 11 | 16 | 12.375947 | 16.673948 | 1 | 75.048583 | 177.99866 | 0 | 0 | 18 | 23 | 22.030057 | 26.546989 | 1 | 43.206528 | 189.38336 | 0 | 0 | 19 | 28 | 22.662145 | 32.955 | 1 | 23.47175 | 202.86524 | 0 | 0 | 20 | 25 | 23.329814 | 28.614916 | 1 | 7.6128182 | 224.54536 | 0 | 0 | 21 | 26 | 24.357828 | 29.4946 | 1 | 71.947924 | 211.80121 | 0 | 0 | 22 | 29 | 26.09141 | 33.988111 | 1 | 14.413563 | 169.70656 | 0 | 0 | 24 | 27 | 28.134268 | 32.010193 | 1" />
    <inkscape:path-effect
       effect="knot"
       id="path-effect9"
       is_visible="true"
       lpeversion="1"
       switcher_size="15"
       interruption_width="3"
       prop_to_stroke_width="true"
       add_stroke_width="inkscape_1.0_and_up"
       both="false"
       inverse_width="false"
       add_other_stroke_width="inkscape_1.0_and_up"
       crossing_points_vector="147.69227 | 228.10066 | 0 | 0 | 0 | 3 | 2.0772964 | 4.856608 | 1 | 183.87451 | 219.38657 | 0 | 0 | 1 | 14 | 2.6053068 | 15.899405 | 1 | 194.03498 | 234.67515 | 0 | 0 | 2 | 13 | 3.4672829 | 15.301923 | 1 | 149.52138 | 195.77685 | 0 | 0 | 4 | 9 | 5.6955013 | 10.279427 | 1 | 150.28807 | 182.88832 | 0 | 0 | 5 | 10 | 5.9942621 | 11.658389 | 1 | 164.44029 | 150.06844 | 0 | 0 | 6 | 17 | 6.8331807 | 17.33806 | 1 | 211.85134 | 182.06603 | 0 | 0 | 7 | 12 | 8.1490625 | 13.217689 | 1 | 183.60464 | 204.21067 | 0 | 0 | 8 | 15 | 8.9529358 | 16.212815 | 1 | 182.89257 | 177.24923 | 0 | 0 | 11 | 16 | 12.375947 | 16.673948 | 1 | 75.048583 | 177.99866 | 0 | 0 | 18 | 23 | 22.030057 | 26.546989 | 1 | 43.206528 | 189.38336 | 0 | 0 | 19 | 28 | 22.662145 | 32.955 | 1 | 23.47175 | 202.86524 | 0 | 0 | 20 | 25 | 23.329814 | 28.614916 | 1 | 7.6128182 | 224.54536 | 0 | 0 | 21 | 26 | 24.357828 | 29.4946 | 1 | 71.947924 | 211.80121 | 0 | 0 | 22 | 29 | 26.09141 | 33.988111 | 1 | 14.413563 | 169.70656 | 0 | 0 | 24 | 27 | 28.134268 | 32.010193 | 1" />
    <inkscape:path-effect
       effect="knot"
       id="path-effect5"
       is_visible="true"
       lpeversion="1"
       switcher_size="15"
       interruption_width="3"
       prop_to_stroke_width="true"
       add_stroke_width="inkscape_1.0_and_up"
       both="false"
       inverse_width="false"
       add_other_stroke_width="inkscape_1.0_and_up"
       crossing_points_vector="48.989694 | 207.97655 | 0 | 0 | 0 | 19 | 7.2857023e-16 | 22 | 0 | 84.792825 | 246.1885 | 0 | 0 | 1 | 4 | 3.0772964 | 5.8566079 | -1 | 120.97507 | 237.47441 | 0 | 0 | 2 | 15 | 3.6053068 | 16.899405 | 1 | 131.13554 | 252.76299 | 0 | 0 | 3 | 14 | 4.4672829 | 16.301923 | 1 | 86.621936 | 213.86468 | 0 | 0 | 5 | 10 | 6.6955013 | 11.279427 | -1 | 87.388621 | 200.97617 | 0 | 0 | 6 | 11 | 6.9942621 | 12.658389 | -1 | 101.54085 | 168.15628 | 0 | 0 | 7 | 18 | 7.8331807 | 18.33806 | -1 | 148.9519 | 200.15387 | 0 | 0 | 8 | 13 | 9.1490625 | 14.217689 | 1 | 120.7052 | 222.29851 | 0 | 0 | 9 | 16 | 9.9529358 | 17.212815 | 1 | 119.99313 | 195.33707 | 0 | 0 | 12 | 17 | 13.375947 | 17.673948 | 1" />
    <inkscape:path-effect
       effect="knot"
       id="path-effect8"
       is_visible="true"
       lpeversion="1"
       switcher_size="15"
       interruption_width="3"
       prop_to_stroke_width="true"
       add_stroke_width="inkscape_1.0_and_up"
       both="false"
       inverse_width="false"
       add_other_stroke_width="inkscape_1.0_and_up"
       crossing_points_vector="84.792825 | 246.1885 | 0 | 0 | 0 | 3 | 1.0772964 | 3.8566079 | -1 | 120.97507 | 237.47441 | 0 | 0 | 1 | 14 | 1.6053068 | 14.899405 | 1 | 131.13554 | 252.76299 | 0 | 0 | 2 | 13 | 2.4672829 | 14.301923 | 1 | 86.621936 | 213.86468 | 0 | 0 | 4 | 9 | 4.6955013 | 9.2794271 | -1 | 87.388621 | 200.97617 | 0 | 0 | 5 | 10 | 4.9942621 | 10.658389 | -1 | 101.54085 | 168.15628 | 0 | 0 | 6 | 17 | 5.8331807 | 16.33806 | -1 | 148.9519 | 200.15387 | 0 | 0 | 7 | 12 | 7.1490625 | 12.217689 | 1 | 120.7052 | 222.29851 | 0 | 0 | 8 | 15 | 7.9529358 | 15.212815 | 1 | 119.99313 | 195.33707 | 0 | 0 | 11 | 16 | 11.375947 | 15.673948 | 1" />
  </defs>
  <g
     inkscape:label="Layer 1"
     inkscape:groupmode="layer"
     id="layer1">
    <path
       style="display:none;fill:none;stroke:#000000;stroke-width:1.5;stroke-dasharray:none"
       d="m 48.989694,207.97655 c -0.165952,7.92118 1.093205,14.2255 3.221758,19.23721 2.128554,5.01171 5.126504,8.7308 8.438138,11.48152 6.623267,5.50145 14.501269,7.12943 19.188303,7.47791 20.590977,1.53093 52.202497,-17.13572 57.103597,-7.65464 4.07264,7.87843 -14.27537,24.13865 -23.95902,26.33196 -8.27559,1.87439 -28.474045,-1.9708 -29.853093,-28.85799 -0.565715,-11.02969 4.917049,-18.36642 4.248338,-35.30702 -0.876154,-22.19582 9.147286,-30.59942 19.098315,-35.1922 19.90207,-9.18557 43.09562,1.68401 43.40181,25.18376 0.30619,23.49974 -16.24386,31.06763 -31.30748,31.76675 -9.07075,0.42098 -13.35847,-1.87799 -23.156961,-5.58221 -9.70083,-3.6673 -23.998439,-7.06113 -23.765977,-9.57398 0.36829,-3.98111 15.24251,-6.30545 31.132038,-9.08449 15.88953,-2.77904 30.80417,-5.78314 39.21409,-2.16783 11.20092,4.81512 20.4379,16.61057 20.20826,33.60387 -0.20689,15.3096 -13.46648,24.27174 -23.34665,24.80103 -8.5732,0.45927 -17.9884,-6.81264 -18.21804,-21.05026 -0.24947,-15.46717 1.99385,-41.72332 -4.82243,-52.89356 -11.07007,-18.14118 -33.374222,-17.43222 -46.080924,-8.34355 -5.64608,4.03845 -10.756808,9.40064 -14.49366,15.55008 -1.868427,3.07473 -3.393384,6.34626 -4.470058,9.74756 -1.076674,3.40129 -1.705064,6.93234 -1.780354,10.52608 z"
       id="path6"
       sodipodi:nodetypes="sssssssssssssssssssssss"
       inkscape:label="knot_9_33"
       transform="translate(62.89944,-18.087841)" />
    <path
       style="display:none;fill:none;stroke:#000000;stroke-width:1.5;stroke-dasharray:none"
       d="m -9.2540636,182.23536 c 6.5056214,-8.17774 16.7701165,-11.92543 23.1054966,-12.48443 18.488835,-1.63136 26.645848,14.5341 29.813538,20.49682 3.167687,5.96271 11.994425,20.0419 28.881872,21.61483 3.913213,0.36448 9.807046,-0.0668 14.85018,-2.12044 5.043133,-2.05365 9.235569,-5.72967 9.745988,-11.85466 0.46584,-5.59004 -3.040041,-10.09123 -7.471542,-13.38996 -4.431502,-3.29872 -9.788624,-5.39499 -13.025266,-6.17519 -17.675192,-4.26065 -36.894249,14.16143 -44.906635,19.75147 -8.012389,5.59004 -17.701799,8.0124 -23.2918432,15.46579 -5.5900405,7.45339 3.9824802,25.70317 14.3477812,29.81355 10.807407,4.2857 40.620943,-0.559 47.32899,-24.40984 7.299114,-25.95246 7.639714,-53.47807 -3.913027,-63.91281 -11.552744,-10.43475 -41.925284,-11.36642 -50.124016,6.70805 -8.198732,18.07447 16.583793,50.49671 10.248411,60.74512 -6.335381,10.24841 -32.2133094,-2.78621 -36.1489333,-6.52172 -10.9937467,-10.43474 -6.3911697,-24.99004 0.5590057,-33.72658 z"
       id="path2"
       sodipodi:nodetypes="sssssssssssssssss"
       inkscape:label="knot_6_3" />
    <circle
       style="fill:#999999;fill-opacity:0.542065;stroke:none;stroke-width:6.77127"
       id="path1"
       cx="104.06264"
       cy="194.57237"
       r="18.912457" />
    <path
       id="path4"
       style="display:none;fill:none;stroke:#000000;stroke-width:1.5;stroke-dasharray:none"
       inkscape:label="knots"
       d="m 115.11089,209.12592 c 3.97015,4.89893 5.12651,8.7308 8.43814,11.48152 6.62327,5.50145 14.50127,7.12943 19.1883,7.47791 20.59098,1.53093 52.2025,-17.13572 57.1036,-7.65464 4.07264,7.87843 -14.27537,24.13865 -23.95902,26.33196 -8.27559,1.87439 -28.47404,-1.9708 -29.85309,-28.85799 -0.56572,-11.02969 4.91705,-18.36642 4.24834,-35.30702 -0.87616,-22.19582 9.14728,-30.59942 19.09831,-35.1922 19.90207,-9.18557 43.09562,1.68401 43.40181,25.18376 0.30619,23.49974 -16.24386,31.06763 -31.30748,31.76675 -9.07075,0.42098 -13.35847,-1.87799 -23.15696,-5.58221 -9.70083,-3.6673 -23.99844,-7.06113 -23.76598,-9.57398 0.36829,-3.98111 15.24251,-6.30545 31.13204,-9.08449 15.88953,-2.77904 30.80417,-5.78314 39.21409,-2.16783 11.20092,4.81512 20.4379,16.61057 20.20826,33.60387 -0.20689,15.3096 -13.46648,24.27174 -23.34665,24.80103 -8.5732,0.45927 -17.9884,-6.81264 -18.21804,-21.05026 -0.24947,-15.46717 1.99385,-41.72332 -4.82243,-52.89356 -11.07007,-18.14118 -33.37422,-17.43222 -46.08092,-8.34355 -5.64608,4.03845 -10.54777,8.47899 -13.56139,13.89272 -2.80296,5.0353 -2.60665,9.35354 -6.95611,13.99455 -4.52562,4.82899 -14.953581,5.87512 -22.444241,2.54526 -2.524077,-1.12204 -9.788624,-5.39499 -13.025266,-6.17519 -17.675192,-4.26065 -36.894249,14.16143 -44.906635,19.75147 -8.012389,5.59004 -17.701799,8.0124 -23.2918432,15.46579 -5.5900405,7.45339 3.9824802,25.70317 14.3477812,29.81355 10.807407,4.2857 40.620943,-0.559 47.32899,-24.40984 7.299114,-25.95246 7.639714,-53.47807 -3.913027,-63.91281 -11.552744,-10.43475 -41.925284,-11.36642 -50.124016,6.70805 -8.198732,18.07447 16.583793,50.49671 10.248411,60.74512 -6.335381,10.24841 -32.2133094,-2.78621 -36.1489333,-6.52172 -10.9937467,-10.43474 -6.3911697,-24.99004 0.5590057,-33.72658 6.5056214,-8.17774 16.7701165,-11.92543 23.1054966,-12.48443 18.488835,-1.63136 26.645848,14.5341 29.813538,20.49682 3.167687,5.96271 11.994425,20.0419 28.881872,21.61483 3.913213,0.36448 11.041547,0.44929 19.088452,-4.23958 8.046905,-4.68887 19.505445,-3.39601 23.475595,1.50292 z"
       sodipodi:nodetypes="zsssssssssssssssssssssssssssssssssszz" />
    <path
       id="path7"
       style="display:inline;fill:none;stroke:#ff0000;stroke-width:4.5;stroke-dasharray:none"
       inkscape:label="knots thick"
       d="m 115.11089,209.12592 c 3.97015,4.89893 5.12651,8.7308 8.43814,11.48152 6.62327,5.50145 14.50127,7.12943 19.1883,7.47791 20.59098,1.53093 52.2025,-17.13572 57.1036,-7.65464 4.07264,7.87843 -14.27537,24.13865 -23.95902,26.33196 -8.27559,1.87439 -28.47404,-1.9708 -29.85309,-28.85799 -0.56572,-11.02969 4.91705,-18.36642 4.24834,-35.30702 -0.87616,-22.19582 9.14728,-30.59942 19.09831,-35.1922 19.90207,-9.18557 43.09562,1.68401 43.40181,25.18376 0.30619,23.49974 -16.24386,31.06763 -31.30748,31.76675 -9.07075,0.42098 -13.35847,-1.87799 -23.15696,-5.58221 -9.70083,-3.6673 -23.99844,-7.06113 -23.76598,-9.57398 0.36829,-3.98111 15.24251,-6.30545 31.13204,-9.08449 15.88953,-2.77904 30.80417,-5.78314 39.21409,-2.16783 11.20092,4.81512 20.4379,16.61057 20.20826,33.60387 -0.20689,15.3096 -13.46648,24.27174 -23.34665,24.80103 -8.5732,0.45927 -17.9884,-6.81264 -18.21804,-21.05026 -0.24947,-15.46717 1.99385,-41.72332 -4.82243,-52.89356 -11.07007,-18.14118 -33.37422,-17.43222 -46.08092,-8.34355 -5.64608,4.03845 -10.54777,8.47899 -13.56139,13.89272 -2.80296,5.0353 -2.60665,9.35354 -6.95611,13.99455 -4.52562,4.82899 -14.953581,5.87512 -22.444241,2.54526 -2.524077,-1.12204 -9.788624,-5.39499 -13.025266,-6.17519 -17.675192,-4.26065 -36.894249,14.16143 -44.906635,19.75147 -8.012389,5.59004 -17.701799,8.0124 -23.2918432,15.46579 -5.5900405,7.45339 3.9824802,25.70317 14.3477812,29.81355 10.807407,4.2857 40.620943,-0.559 47.32899,-24.40984 7.299114,-25.95246 7.639714,-53.47807 -3.913027,-63.91281 -11.552744,-10.43475 -41.925284,-11.36642 -50.124016,6.70805 -8.198732,18.07447 16.583793,50.49671 10.248411,60.74512 -6.335381,10.24841 -32.2133094,-2.78621 -36.1489333,-6.52172 -10.9937467,-10.43474 -6.3911697,-24.99004 0.5590057,-33.72658 6.5056214,-8.17774 16.7701165,-11.92543 23.1054966,-12.48443 18.488835,-1.63136 26.645848,14.5341 29.813538,20.49682 3.167687,5.96271 11.994425,20.0419 28.881872,21.61483 3.913213,0.36448 11.041547,0.44929 19.088452,-4.23958 8.046905,-4.68887 19.505445,-3.39601 23.475595,1.50292 z"
       sodipodi:nodetypes="zsssssssssssssssssssssssssssssssssszz" />
    <path
       id="path8"
       style="display:inline;opacity:0.426816;fill:none;stroke:#000000;stroke-width:1.5;stroke-dasharray:none"
       inkscape:label="knots"
       d="m 74.215388,211.97996 c 4.097578,0.18965 10.410228,-0.27247 17.419907,-4.35696 8.046905,-4.68887 19.505445,-3.39601 23.475595,1.50292 3.97015,4.89893 5.12651,8.7308 8.43814,11.48152 6.62327,5.50145 14.50127,7.12943 19.1883,7.47791 0.85825,0.0638 1.73565,0.0925 2.62946,0.0897 m 4.61668,-0.26382 c 10.34782,-1.08704 22.12669,-5.28399 31.70494,-7.93752 m 4.3793,-1.12811 c 6.85544,-1.59638 12.02112,-1.80425 13.77322,1.58515 4.07264,7.87843 -14.27537,24.13865 -23.95902,26.33196 -8.27559,1.87439 -28.47404,-1.9708 -29.85309,-28.85799 -0.35827,-6.9851 1.70932,-12.48907 3.10402,-19.88926 m 0.70742,-4.49956 c 0.39529,-3.19324 0.60075,-6.76744 0.4369,-10.9182 -0.66208,-16.77242 4.89971,-25.66925 11.95101,-30.99739 m 4.66969,-2.96429 c 0.82217,-0.44035 1.65014,-0.84861 2.47761,-1.23052 19.90207,-9.18557 43.09562,1.68401 43.40181,25.18376 0.0327,2.50855 -0.12671,4.83555 -0.45587,6.99203 m -1.10149,4.84407 c -4.43567,14.31604 -17.57816,19.36574 -29.75012,19.93065 -9.07075,0.42098 -13.35847,-1.87799 -23.15696,-5.58221 -9.70083,-3.6673 -23.99844,-7.06113 -23.76598,-9.57398 0.22184,-2.39798 5.70661,-4.19486 13.50612,-5.85208 m 4.47106,-0.8938 c 4.08582,-0.77545 8.57822,-1.53817 13.15486,-2.33861 5.16134,-0.90271 10.21983,-1.82916 14.98592,-2.54478 m 4.45908,-0.61205 c 8.0269,-0.98125 14.96104,-1.07791 19.76909,0.989 11.20092,4.81512 20.4379,16.61057 20.20826,33.60387 -0.20689,15.3096 -13.46648,24.27174 -23.34665,24.80103 -1.82861,0.098 -3.69552,-0.1558 -5.50344,-0.75386 m -4.19221,-2.1039 c -4.76138,-3.30748 -8.38108,-9.43111 -8.52239,-18.1925 -0.043,-2.6666 -0.0119,-5.65388 0.034,-8.82926 m 0.0677,-4.52431 c 0.20412,-14.40347 0.1722,-31.18833 -4.92413,-39.53999 -11.07007,-18.14118 -33.37422,-17.43222 -46.08092,-8.34355 -5.64608,4.03845 -10.54777,8.47899 -13.56139,13.89272 -2.80296,5.0353 -2.60665,9.35354 -6.95611,13.99455 -4.52562,4.82899 -14.953581,5.87512 -22.444241,2.54526 -2.524077,-1.12204 -9.788624,-5.39499 -13.025266,-6.17519 -10.947209,-2.63885 -22.486644,3.42339 -31.588978,9.74897 m -3.683353,2.65801 c -3.962503,2.95514 -7.281548,5.70303 -9.634304,7.34449 -2.010838,1.40291 -4.127302,2.60631 -6.258085,3.73979 m -4.02347,2.09251 c -4.973539,2.58223 -9.707449,5.22971 -13.0102882,9.63349 -5.5900405,7.45339 3.9824802,25.70317 14.3477812,29.81355 10.807407,4.2857 40.620943,-0.559 47.32899,-24.40984 3.741903,-13.30457 5.655027,-27.02259 5.074498,-38.63942 m -0.377631,-4.62312 c -1.036058,-8.9572 -3.786291,-16.29346 -8.609894,-20.65027 -11.552744,-10.43475 -41.925284,-11.36642 -50.124016,6.70805 -0.804684,1.77396 -1.291663,3.68613 -1.521538,5.70199 m -0.118462,4.51911 c 0.931543,18.18251 17.152701,42.00826 11.888411,50.52402 -2.787399,4.50903 -9.357778,4.51101 -16.177931,2.78091 M 5.0248761,223.6761 c -6.8674958,-2.47769 -13.0690428,-6.0352 -14.8379454,-7.71416 -10.9937467,-10.43474 -6.3911697,-24.99004 0.5590057,-33.72658 6.5056214,-8.17774 16.7701165,-11.92543 23.1054966,-12.48443 18.488835,-1.63136 26.645848,14.5341 29.813538,20.49682 2.985668,5.62009 10.998719,18.45068 26.050139,21.22372"
       sodipodi:nodetypes="zsssssssssssssssssssssssssssssssssszz"
       inkscape:path-effect="#path-effect9"
       inkscape:original-d="m 115.11089,209.12592 c 3.97015,4.89893 5.12651,8.7308 8.43814,11.48152 6.62327,5.50145 14.50127,7.12943 19.1883,7.47791 20.59098,1.53093 52.2025,-17.13572 57.1036,-7.65464 4.07264,7.87843 -14.27537,24.13865 -23.95902,26.33196 -8.27559,1.87439 -28.47404,-1.9708 -29.85309,-28.85799 -0.56572,-11.02969 4.91705,-18.36642 4.24834,-35.30702 -0.87616,-22.19582 9.14728,-30.59942 19.09831,-35.1922 19.90207,-9.18557 43.09562,1.68401 43.40181,25.18376 0.30619,23.49974 -16.24386,31.06763 -31.30748,31.76675 -9.07075,0.42098 -13.35847,-1.87799 -23.15696,-5.58221 -9.70083,-3.6673 -23.99844,-7.06113 -23.76598,-9.57398 0.36829,-3.98111 15.24251,-6.30545 31.13204,-9.08449 15.88953,-2.77904 30.80417,-5.78314 39.21409,-2.16783 11.20092,4.81512 20.4379,16.61057 20.20826,33.60387 -0.20689,15.3096 -13.46648,24.27174 -23.34665,24.80103 -8.5732,0.45927 -17.9884,-6.81264 -18.21804,-21.05026 -0.24947,-15.46717 1.99385,-41.72332 -4.82243,-52.89356 -11.07007,-18.14118 -33.37422,-17.43222 -46.08092,-8.34355 -5.64608,4.03845 -10.54777,8.47899 -13.56139,13.89272 -2.80296,5.0353 -2.60665,9.35354 -6.95611,13.99455 -4.52562,4.82899 -14.953581,5.87512 -22.444241,2.54526 -2.524077,-1.12204 -9.788624,-5.39499 -13.025266,-6.17519 -17.675192,-4.26065 -36.894249,14.16143 -44.906635,19.75147 -8.012389,5.59004 -17.701799,8.0124 -23.2918432,15.46579 -5.5900405,7.45339 3.9824802,25.70317 14.3477812,29.81355 10.807407,4.2857 40.620943,-0.559 47.32899,-24.40984 7.299114,-25.95246 7.639714,-53.47807 -3.913027,-63.91281 -11.552744,-10.43475 -41.925284,-11.36642 -50.124016,6.70805 -8.198732,18.07447 16.583793,50.49671 10.248411,60.74512 -6.335381,10.24841 -32.2133094,-2.78621 -36.1489333,-6.52172 -10.9937467,-10.43474 -6.3911697,-24.99004 0.5590057,-33.72658 6.5056214,-8.17774 16.7701165,-11.92543 23.1054966,-12.48443 18.488835,-1.63136 26.645848,14.5341 29.813538,20.49682 3.167687,5.96271 11.994425,20.0419 28.881872,21.61483 3.913213,0.36448 11.041547,0.44929 19.088452,-4.23958 8.046905,-4.68887 19.505445,-3.39601 23.475595,1.50292 z" />
    <path
       style="baseline-shift:baseline;display:inline;overflow:visible;opacity:1;vector-effect:none;enable-background:accumulate;stop-color:#000000;stop-opacity:1"
       d="m 184.52539,143.41016 c -5.09276,-0.0966 -10.3879,0.97125 -15.46484,3.31445 -0.83929,0.38736 -1.68075,0.8018 -2.51758,1.25 l 0.70898,1.32226 c 0.8075,-0.43249 1.62184,-0.83448 2.4375,-1.21093 9.74819,-4.49916 20.27555,-4.07254 28.37891,0.31445 8.10336,4.38699 13.80908,12.69452 13.95898,24.19922 0.0322,2.47074 -0.1248,4.75651 -0.44726,6.86914 l 1.48242,0.22656 c 0.33585,-2.20033 0.49802,-4.56888 0.46484,-7.11523 -0.15629,-11.99505 -6.20061,-20.87366 -14.74609,-25.5 -4.27274,-2.31317 -9.1631,-3.57334 -14.25586,-3.66992 z m -144.687499,3.53515 c -10.239278,0.73477 -20.188298,5.12543 -24.433594,14.48438 -0.841417,1.85494 -1.346649,3.8445 -1.583984,5.92578 l 1.490234,0.16992 c 0.222415,-1.95043 0.691033,-3.78358 1.458984,-5.47656 3.953436,-8.71553 13.29092,-12.89809 23.175781,-13.60742 9.884862,-0.70933 20.221679,2.1408 25.763672,7.14648 4.618049,4.17114 7.343166,11.03939 8.367188,19.89254 l 1.490234,0.11332 c -1.048094,-9.06126 -3.822405,-16.57667 -8.851562,-21.11914 -6.010751,-5.42907 -16.637676,-8.26406 -26.876953,-7.5293 z m 109.982419,0.23242 c -6.50172,0.50724 -12.73699,2.78252 -17.62304,6.27735 -5.69061,4.0703 -10.68431,8.57525 -13.78125,14.13867 -1.44942,2.60376 -2.11442,4.99904 -2.94532,7.25 -0.83089,2.25096 -1.81083,4.36399 -3.90234,6.5957 -2.08475,2.2245 -5.66226,3.66454 -9.64453,4.09961 -3.982276,0.43508 -8.346623,-0.12595 -11.947268,-1.72656 -1.18317,-0.52596 -3.65853,-1.88493 -6.207031,-3.19727 -2.5485,-1.31233 -5.149981,-2.58824 -6.947265,-3.02148 -11.318329,-2.72831 -23.031498,3.49438 -32.19336,9.86133 l 0.855469,1.23242 c 9.042807,-6.28421 20.410239,-12.18611 30.986328,-9.63672 1.439358,0.34696 4.087375,1.59874 6.611328,2.89844 2.523953,1.2997 4.94425,2.63829 6.285156,3.23437 3.890016,1.72925 8.484928,2.30848 12.720703,1.84571 4.23578,-0.46277 8.13335,-1.95996 10.57422,-4.56446 2.25794,-2.40929 3.35579,-4.77432 4.21484,-7.10156 0.85906,-2.32724 1.49607,-4.60948 2.84961,-7.04101 2.93029,-5.26404 7.7422,-9.63989 13.34375,-13.64649 6.19197,-4.4289 14.78337,-6.83666 23.13477,-5.9043 8.35139,0.93236 16.45303,5.15165 21.86914,14.02735 2.43216,3.98572 3.72679,10.18636 4.3418,17.17578 0.615,6.98942 0.57464,14.76583 0.47265,21.96289 l 1.5,0.0215 c 0.10212,-7.20641 0.1455,-15.02344 -0.47851,-22.11523 -0.62401,-7.09179 -1.89247,-13.46023 -4.55664,-17.82617 -5.65397,-9.26549 -14.23755,-13.762 -22.98243,-14.73828 -2.18621,-0.24408 -4.38354,-0.27064 -6.55078,-0.10157 z m 11.95508,3.82422 c -7.22035,5.45588 -12.91706,14.67672 -12.24805,31.625 0.16221,4.10912 -0.0408,7.63992 -0.43164,10.79688 l 1.48828,0.18359 c 0.39979,-3.2295 0.60885,-6.84665 0.44336,-11.03906 -0.65513,-16.59657 4.7701,-25.16874 11.65235,-30.36914 z M 13.785156,169.00391 c -6.5570822,0.57856 -16.9515528,4.37251 -23.6269529,12.76367 -3.5512031,4.46395 -6.5010901,10.39547 -7.1660151,16.61523 -0.664926,6.21977 1.016662,12.74983 6.677734,18.12305 1.0100298,0.95867 3.0085265,2.24802 5.6699218,3.67383 2.6613952,1.42581 5.9559426,2.94789 9.4296874,4.20117 l 0.5097657,-1.41016 c -3.393751,-1.22441 -6.6319909,-2.72117 -9.2304688,-4.11328 -2.5984779,-1.3921 -4.5868304,-2.71916 -5.3457031,-3.43945 -5.332675,-5.06152 -6.846174,-11.02625 -6.220703,-16.87695 0.62547,-5.85071 3.450637,-11.5653 6.8496092,-15.8379 6.3358427,-7.96432 16.4722598,-11.66563 22.5859378,-12.20507 9.018742,-0.79577 15.427888,2.71654 20.064453,7.19336 4.636565,4.47681 7.429076,9.9144 9.019531,12.9082 3.024626,5.69342 11.167942,18.77024 26.578125,21.60937 l 0.271484,-1.47461 c -14.692657,-2.70693 -22.576728,-15.29113 -25.523437,-20.83789 -1.577235,-2.96891 -4.446661,-8.59639 -9.302734,-13.28515 -4.856073,-4.68876 -11.770142,-8.44302 -21.240235,-7.60742 z m 1.41211,2.91796 -1.498047,0.0762 c 0.476296,9.29669 4.806044,19.83354 8.314453,29.11328 1.754204,4.63987 3.306045,8.96404 4.083984,12.59961 0.777939,3.63557 0.742848,6.52955 -0.40039,8.3789 -1.255136,2.03037 -3.330475,3.04875 -6.029297,3.37891 -2.698822,0.33016 -5.971801,-0.0807 -9.326172,-0.93164 l -0.3691407,1.45508 c 3.4657827,0.87918 6.8886977,1.33236 9.8769527,0.96679 2.988256,-0.36556 5.592737,-1.60141 7.125,-4.08007 1.488907,-2.40853 1.401901,-5.68741 0.589844,-9.48243 -0.812057,-3.79501 -2.388945,-8.1606 -4.148437,-12.81445 -3.518984,-9.3077 -7.763504,-19.77434 -8.21875,-28.66016 z m 181.044924,3.62891 c -3.39797,-0.11276 -7.17266,0.17064 -11.20899,0.66406 l 0.18164,1.48828 c 7.98115,-0.97565 14.82293,-1.02663 19.38282,0.9336 10.93008,4.69869 19.97981,16.18739 19.7539,32.9043 -0.10054,7.44031 -3.35749,13.30054 -7.80469,17.40234 -4.44719,4.10179 -10.09984,6.40665 -14.83203,6.66016 -1.73229,0.0928 -3.5067,-0.14722 -5.22851,-0.7168 l -0.47071,1.42383 c 1.89403,0.62654 3.85437,0.89413 5.7793,0.79101 5.14799,-0.27578 11.06516,-2.71764 15.76953,-7.05664 4.70437,-4.339 8.18077,-10.61509 8.28711,-18.48437 0.23338,-17.2697 -9.19035,-29.37119 -20.66211,-34.30274 -2.5281,-1.0868 -5.5493,-1.59427 -8.94726,-1.70703 z m -15.68946,1.27734 c -4.78303,0.71817 -9.84642,1.6468 -15.0039,2.54883 -4.57424,0.80003 -9.06781,1.56242 -13.16406,2.33985 l 0.27929,1.47461 c 4.07539,-0.77348 8.5655,-1.53703 13.14453,-2.33789 5.16521,-0.90339 10.21764,-1.82795 14.9668,-2.54102 z m -104.629393,3.65287 -1.474118,-0.13917 c 0.57496,11.5054 -1.323312,25.15907 -5.046875,38.39843 -3.279201,11.65939 -12.186375,18.66066 -21.671875,22.25782 -9.485501,3.59716 -19.5642,3.67824 -24.658203,1.6582 -4.902626,-1.94415 -9.837135,-7.41462 -12.761719,-13.29102 -1.4622922,-2.9382 -2.4279286,-5.97202 -2.6894533,-8.67382 -0.2615246,-2.70181 0.1780651,-5.03755 1.4257813,-6.70118 3.183016,-4.24402 7.795649,-6.84265 12.755859,-9.41796 l -0.689453,-1.33204 c -4.986867,2.58916 -9.842963,5.28607 -13.2656248,9.84961 -1.547304,2.06308 -2.0057428,4.80136 -1.7207031,7.7461 0.2850398,2.94474 1.3120981,6.12755 2.8398438,9.19726 3.0554911,6.13944 8.0900591,11.85135 13.5527341,14.01758 5.713404,2.26566 15.94401,2.06609 25.744141,-1.65039 9.800131,-3.71648 19.153185,-11.06245 22.582031,-23.25391 3.760243,-13.36978 5.663731,-26.93722 5.077634,-38.66549 z m 71.973143,2.13229 c -3.9187,0.83264 -7.26519,1.69928 -9.71875,2.6875 -1.22678,0.49411 -2.23129,1.01454 -2.99023,1.61914 -0.75894,0.60461 -1.30594,1.33773 -1.38672,2.21094 -0.0623,0.67291 0.33669,1.20078 0.80859,1.61523 0.47191,0.41445 1.09214,0.78379 1.85352,1.16407 1.52276,0.76054 3.60861,1.53879 6,2.35351 4.78279,1.62944 10.77599,3.39333 15.58398,5.21094 9.77018,3.69351 14.24904,6.05821 23.45704,5.63086 6.17687,-0.28668 12.62024,-1.70764 18.11914,-4.91016 5.4989,-3.20252 10.04007,-8.2146 12.3125,-15.54883 l -1.43164,-0.44336 c -2.16324,6.98181 -6.41052,11.65275 -11.63477,14.69532 -5.22425,3.04256 -11.43851,4.43074 -17.43359,4.70898 -8.9335,0.41461 -13.03062,-1.82023 -22.85743,-5.53515 -4.89283,-1.84969 -10.89775,-3.61601 -15.63085,-5.22852 -2.36656,-0.80626 -4.41865,-1.57825 -5.81446,-2.27539 -0.6979,-0.34857 -1.23176,-0.68277 -1.53515,-0.94922 -0.3034,-0.26645 -0.30056,-0.39431 -0.30469,-0.34961 0.0301,-0.32577 0.25254,-0.71725 0.82812,-1.17578 0.57558,-0.45853 1.47011,-0.94033 2.61719,-1.40234 2.29416,-0.92402 5.58989,-1.7848 9.4707,-2.60938 z m -106.970699,7.51563 c -3.980224,2.96835 -7.313154,5.72397 -9.615234,7.33007 -1.973365,1.37677 -4.063378,2.56654 -6.181641,3.69336 l 0.705078,1.32422 c 2.143303,-1.14014 4.285673,-2.35805 6.333985,-3.78711 2.403432,-1.67681 5.709515,-4.41746 9.654297,-7.35937 z m 107.470699,7.74804 c -1.38224,7.33413 -3.48405,12.91376 -3.11718,20.06641 0.69902,13.62884 6.22827,21.5894 12.67968,25.80469 6.45142,4.21529 13.71412,4.73673 18.08789,3.74609 5.13174,-1.16232 12.13668,-5.83096 17.50586,-11.23633 2.68459,-2.70268 4.94495,-5.5893 6.29883,-8.36914 1.35389,-2.77984 1.82823,-5.53557 0.65625,-7.80273 -1.01699,-1.96735 -3.07826,-2.88405 -5.58594,-3.06641 -2.50767,-0.18236 -5.56219,0.28971 -9.02343,1.0957 l 0.33984,1.46094 c 3.3942,-0.79038 6.34912,-1.2225 8.57617,-1.06055 2.22705,0.16196 3.62427,0.83772 4.35938,2.25977 0.86434,1.67205 0.57363,3.90373 -0.66992,6.45703 -1.24356,2.55331 -3.41184,5.34546 -6.01563,7.9668 -5.20758,5.24268 -12.21956,9.80104 -16.77148,10.83203 -3.90182,0.88375 -10.87603,0.42144 -16.9375,-3.53906 -6.06147,-3.96051 -11.32193,-11.36665 -12.00196,-24.625 -0.34967,-6.81756 1.68465,-12.24664 3.0918,-19.71289 z m -46.88867,6.11914 c -3.507662,0.20587 -7.112628,1.1504 -10.249998,2.97852 -6.861704,3.99826 -13.001981,4.44127 -17.007812,4.25586 l -0.06836,1.49805 c 4.189325,0.1939 10.674377,-0.28633 17.832031,-4.45704 3.863746,-2.25137 8.601899,-3.08236 12.828129,-2.74414 4.22622,0.33823 7.90237,1.86998 9.68554,4.07032 3.89456,4.80564 5.034,8.6713 8.54297,11.58593 6.79219,5.64176 14.81403,7.29372 19.61133,7.65039 0.87935,0.0654 1.77605,0.0947 2.6875,0.0918 l -0.004,-1.5 c -0.87617,0.003 -1.73511,-0.0257 -2.57226,-0.0879 -4.57676,-0.34028 -12.31127,-1.9455 -18.76563,-7.30664 -3.11429,-2.58681 -4.28823,-6.38474 -8.33398,-11.37695 -2.18698,-2.6986 -6.22511,-4.26233 -10.73242,-4.62305 -1.12683,-0.0902 -2.28391,-0.10378 -3.45313,-0.0352 z m 81.3125,2.4668 c -0.046,3.17729 -0.0764,6.17011 -0.0332,8.85156 0.14455,8.96225 3.87241,15.34355 8.84375,18.79688 l 0.85547,-1.23242 c -4.55142,-3.16163 -8.06115,-9.02931 -8.19922,-17.58985 -0.0428,-2.65174 -0.0128,-5.63123 0.0332,-8.80469 z M 181.48828,219.25 c -9.62188,2.66562 -21.37683,6.84375 -31.58398,7.91602 l 0.1582,1.49023 c 10.48849,-1.10182 22.29155,-5.31754 31.82617,-7.95898 z"
       id="path9"
       sodipodi:nodetypes="sscccssccsssssccsssccsssssssssssccsssssssssssccssssscsccsccsssssccsssssssccsssccssssccssssscsccssssccssssscsccsccccssssssccsssssscccsscssssssccsssssscsscccsccscccsssssssccssssssscccsccssssscccsssccccccsccccccc"
       inkscape:label="knots path" />
  </g>
</svg>
