<?xml version="1.0" encoding="UTF-8" standalone="no"?>
<!-- Created with Inkscape (http://www.inkscape.org/) -->

<svg
   width="240.78473mm"
   height="120mm"
   viewBox="0 0 240.78473 120"
   version="1.1"
   id="svg1"
   sodipodi:docname="connected_sum_isotopy_frame_4.svg"
   inkscape:version="1.4.2 (ebf0e940d0, 2025-05-08)"
   inkscape:export-filename="/home/damian/Projects/mphil-thesis/graphics/connected_sum_isotopy_frame_4.pdf"
   inkscape:export-xdpi="96"
   inkscape:export-ydpi="96"
   xmlns:inkscape="http://www.inkscape.org/namespaces/inkscape"
   xmlns:sodipodi="http://sodipodi.sourceforge.net/DTD/sodipodi-0.dtd"
   xmlns="http://www.w3.org/2000/svg"
   xmlns:svg="http://www.w3.org/2000/svg">
  <sodipodi:namedview
     id="namedview1"
     pagecolor="#ffffff"
     bordercolor="#000000"
     borderopacity="0.25"
     inkscape:showpageshadow="2"
     inkscape:pageopacity="0.0"
     inkscape:pagecheckerboard="0"
     inkscape:deskcolor="#d1d1d1"
     inkscape:document-units="mm"
     inkscape:zoom="1.3106375"
     inkscape:cx="482.97106"
     inkscape:cy="252.93034"
     inkscape:window-width="1916"
     inkscape:window-height="1034"
     inkscape:window-x="0"
     inkscape:window-y="0"
     inkscape:window-maximized="0"
     inkscape:current-layer="layer1" />
  <defs
     id="defs1">
    <inkscape:path-effect
       effect="knot"
       id="path-effect10"
       is_visible="true"
       lpeversion="1"
       switcher_size="15"
       interruption_width="3"
       prop_to_stroke_width="true"
       add_stroke_width="inkscape_1.0_and_up"
       both="false"
       inverse_width="false"
       add_other_stroke_width="inkscape_1.0_and_up"
       crossing_points_vector="135.2532 | 214.02346 | 0 | 0 | 0 | 3 | 1.0772965 | 3.8566079 | -1 | 171.10927 | 223.99505 | 0 | 0 | 1 | 14 | 1.6053069 | 14.899405 | 1 | 172.55743 | 242.29474 | 0 | 0 | 2 | 13 | 2.4672829 | 14.301923 | 1 | 152.56326 | 186.66407 | 0 | 0 | 4 | 9 | 4.6955013 | 9.279427 | -1 | 159.49797 | 175.77318 | 0 | 0 | 5 | 10 | 4.9942621 | 10.658389 | -1 | 187.97856 | 153.96115 | 0 | 0 | 6 | 17 | 5.8378458 | 16.331992 | -1 | 213.69911 | 204.97847 | 0 | 0 | 7 | 12 | 7.1490625 | 12.217689 | 1 | 178.24993 | 210.60134 | 0 | 0 | 8 | 15 | 7.9529358 | 15.212815 | 1 | 190.73272 | 186.69304 | 0 | 0 | 11 | 16 | 11.375947 | 15.673948 | 1 | 57.230516 | 149.94364 | 0 | 0 | 18 | 25 | 19.423547 | 25.202269 | 1 | 43.510688 | 189.95687 | 0 | 0 | 19 | 30 | 20.522382 | 30.984162 | -1 | 23.47175 | 202.86524 | 0 | 0 | 20 | 27 | 21.329814 | 26.614916 | 1 | 7.6128182 | 224.54536 | 0 | 0 | 21 | 28 | 22.357828 | 27.4946 | 1 | 71.940591 | 211.83315 | 0 | 0 | 22 | 31 | 24.091001 | 31.988007 | -1 | 75.049416 | 178.00894 | 0 | 0 | 23 | 32 | 24.546833 | 34.074825 | -1 | 68.128968 | 157.04703 | 0 | 0 | 24 | 33 | 24.941136 | 35.590846 | -1 | 14.413563 | 169.70656 | 0 | 0 | 26 | 29 | 26.134268 | 30.010193 | 1" />
    <inkscape:path-effect
       effect="knot"
       id="path-effect6"
       is_visible="true"
       lpeversion="1"
       switcher_size="15"
       interruption_width="3"
       prop_to_stroke_width="true"
       add_stroke_width="inkscape_1.0_and_up"
       both="false"
       inverse_width="false"
       add_other_stroke_width="inkscape_1.0_and_up"
       crossing_points_vector="135.2532 | 214.02346 | 0 | 0 | 0 | 3 | 1.0772965 | 3.8566079 | -1 | 171.10927 | 223.99505 | 0 | 0 | 1 | 14 | 1.6053069 | 14.899405 | 1 | 172.55743 | 242.29474 | 0 | 0 | 2 | 13 | 2.4672829 | 14.301923 | 1 | 152.56326 | 186.66407 | 0 | 0 | 4 | 9 | 4.6955013 | 9.279427 | -1 | 159.49797 | 175.77318 | 0 | 0 | 5 | 10 | 4.9942621 | 10.658389 | -1 | 187.97856 | 153.96115 | 0 | 0 | 6 | 17 | 5.8378458 | 16.331992 | -1 | 213.69911 | 204.97847 | 0 | 0 | 7 | 12 | 7.1490625 | 12.217689 | 1 | 178.24993 | 210.60134 | 0 | 0 | 8 | 15 | 7.9529358 | 15.212815 | 1 | 190.73272 | 186.69304 | 0 | 0 | 11 | 16 | 11.375947 | 15.673948 | 1 | 57.230516 | 149.94364 | 0 | 0 | 18 | 25 | 19.423547 | 25.202269 | 1 | 43.510688 | 189.95687 | 0 | 0 | 19 | 30 | 20.522382 | 30.984162 | -1 | 23.47175 | 202.86524 | 0 | 0 | 20 | 27 | 21.329814 | 26.614916 | 1 | 7.6128182 | 224.54536 | 0 | 0 | 21 | 28 | 22.357828 | 27.4946 | 1 | 71.940591 | 211.83315 | 0 | 0 | 22 | 31 | 24.091001 | 31.988007 | -1 | 75.049416 | 178.00894 | 0 | 0 | 23 | 32 | 24.546833 | 34.074825 | -1 | 68.128968 | 157.04703 | 0 | 0 | 24 | 33 | 24.941136 | 35.590846 | -1 | 14.413563 | 169.70656 | 0 | 0 | 26 | 29 | 26.134268 | 30.010193 | 1" />
    <inkscape:path-effect
       effect="knot"
       id="path-effect2"
       is_visible="true"
       lpeversion="1"
       switcher_size="15"
       interruption_width="3"
       prop_to_stroke_width="true"
       add_stroke_width="inkscape_1.0_and_up"
       both="false"
       inverse_width="false"
       add_other_stroke_width="inkscape_1.0_and_up"
       crossing_points_vector="135.2532 | 214.02346 | 0 | 0 | 0 | 3 | 1.0772965 | 3.8566079 | -1 | 171.10927 | 223.99505 | 0 | 0 | 1 | 14 | 1.6053069 | 14.899405 | 1 | 172.55743 | 242.29474 | 0 | 0 | 2 | 13 | 2.4672829 | 14.301923 | 1 | 152.56326 | 186.66407 | 0 | 0 | 4 | 9 | 4.6955013 | 9.279427 | -1 | 159.49797 | 175.77318 | 0 | 0 | 5 | 10 | 4.9942621 | 10.658389 | -1 | 187.97856 | 153.96115 | 0 | 0 | 6 | 17 | 5.8378458 | 16.331992 | -1 | 213.69911 | 204.97847 | 0 | 0 | 7 | 12 | 7.1490625 | 12.217689 | 1 | 178.24993 | 210.60134 | 0 | 0 | 8 | 15 | 7.9529358 | 15.212815 | 1 | 190.73272 | 186.69304 | 0 | 0 | 11 | 16 | 11.375947 | 15.673948 | 1 | 57.230516 | 149.94364 | 0 | 0 | 18 | 25 | 19.423547 | 25.202269 | 1 | 43.510688 | 189.95687 | 0 | 0 | 19 | 30 | 20.522382 | 30.984162 | -1 | 23.47175 | 202.86524 | 0 | 0 | 20 | 27 | 21.329814 | 26.614916 | 1 | 7.6128182 | 224.54536 | 0 | 0 | 21 | 28 | 22.357828 | 27.4946 | 1 | 71.940591 | 211.83315 | 0 | 0 | 22 | 31 | 24.091001 | 31.988007 | -1 | 75.049416 | 178.00894 | 0 | 0 | 23 | 32 | 24.546833 | 34.074825 | -1 | 68.128968 | 157.04703 | 0 | 0 | 24 | 33 | 24.941136 | 35.590846 | -1 | 14.413563 | 169.70656 | 0 | 0 | 26 | 29 | 26.134268 | 30.010193 | 1" />
    <inkscape:path-effect
       effect="knot"
       id="path-effect4"
       is_visible="true"
       lpeversion="1"
       switcher_size="15"
       interruption_width="3"
       prop_to_stroke_width="true"
       add_stroke_width="inkscape_1.0_and_up"
       both="false"
       inverse_width="false"
       add_other_stroke_width="inkscape_1.0_and_up"
       crossing_points_vector="135.2532 | 214.02346 | 0 | 0 | 0 | 3 | 1.0772965 | 3.8566079 | -1 | 171.10927 | 223.99505 | 0 | 0 | 1 | 14 | 1.6053069 | 14.899405 | 1 | 172.55743 | 242.29474 | 0 | 0 | 2 | 13 | 2.4672829 | 14.301923 | 1 | 152.56326 | 186.66407 | 0 | 0 | 4 | 9 | 4.6955013 | 9.279427 | -1 | 159.49797 | 175.77318 | 0 | 0 | 5 | 10 | 4.9942621 | 10.658389 | -1 | 187.97856 | 153.96115 | 0 | 0 | 6 | 17 | 5.8378458 | 16.331992 | -1 | 213.69911 | 204.97847 | 0 | 0 | 7 | 12 | 7.1490625 | 12.217689 | 1 | 178.24993 | 210.60134 | 0 | 0 | 8 | 15 | 7.9529358 | 15.212815 | 1 | 190.73272 | 186.69304 | 0 | 0 | 11 | 16 | 11.375947 | 15.673948 | 1 | 57.230516 | 149.94364 | 0 | 0 | 18 | 25 | 19.423547 | 25.202269 | 1 | 43.510688 | 189.95687 | 0 | 0 | 19 | 30 | 20.522382 | 30.984162 | -1 | 23.47175 | 202.86524 | 0 | 0 | 20 | 27 | 21.329814 | 26.614916 | 1 | 7.6128182 | 224.54536 | 0 | 0 | 21 | 28 | 22.357828 | 27.4946 | 1 | 71.940591 | 211.83315 | 0 | 0 | 22 | 31 | 24.091001 | 31.988007 | -1 | 75.049416 | 178.00894 | 0 | 0 | 23 | 32 | 24.546833 | 34.074825 | -1 | 68.128968 | 157.04703 | 0 | 0 | 24 | 33 | 24.941136 | 35.590846 | -1 | 14.413563 | 169.70656 | 0 | 0 | 26 | 29 | 26.134268 | 30.010193 | 1" />
    <inkscape:path-effect
       effect="knot"
       id="path-effect11"
       is_visible="true"
       lpeversion="1"
       switcher_size="15"
       interruption_width="3"
       prop_to_stroke_width="true"
       add_stroke_width="inkscape_1.0_and_up"
       both="false"
       inverse_width="false"
       add_other_stroke_width="inkscape_1.0_and_up"
       crossing_points_vector="147.69227 | 228.10066 | 0 | 0 | 0 | 3 | 2.0772964 | 4.856608 | 1 | 183.87451 | 219.38657 | 0 | 0 | 1 | 14 | 2.6053068 | 15.899405 | 1 | 194.03498 | 234.67515 | 0 | 0 | 2 | 13 | 3.4672829 | 15.301923 | 1 | 149.52138 | 195.77685 | 0 | 0 | 4 | 9 | 5.6955013 | 10.279427 | 1 | 150.28807 | 182.88832 | 0 | 0 | 5 | 10 | 5.9942621 | 11.658389 | 1 | 164.44029 | 150.06844 | 0 | 0 | 6 | 17 | 6.8331807 | 17.33806 | 1 | 211.85134 | 182.06603 | 0 | 0 | 7 | 12 | 8.1490625 | 13.217689 | 1 | 183.60464 | 204.21067 | 0 | 0 | 8 | 15 | 8.9529358 | 16.212815 | 1 | 182.89257 | 177.24923 | 0 | 0 | 11 | 16 | 12.375947 | 16.673948 | 1 | 75.048583 | 177.99866 | 0 | 0 | 18 | 23 | 22.030057 | 26.546989 | 1 | 43.206528 | 189.38336 | 0 | 0 | 19 | 28 | 22.662145 | 32.955 | 1 | 23.47175 | 202.86524 | 0 | 0 | 20 | 25 | 23.329814 | 28.614916 | 1 | 7.6128182 | 224.54536 | 0 | 0 | 21 | 26 | 24.357828 | 29.4946 | 1 | 71.947924 | 211.80121 | 0 | 0 | 22 | 29 | 26.09141 | 33.988111 | 1 | 14.413563 | 169.70656 | 0 | 0 | 24 | 27 | 28.134268 | 32.010193 | 1" />
    <inkscape:path-effect
       effect="knot"
       id="path-effect9"
       is_visible="true"
       lpeversion="1"
       switcher_size="15"
       interruption_width="3"
       prop_to_stroke_width="true"
       add_stroke_width="inkscape_1.0_and_up"
       both="false"
       inverse_width="false"
       add_other_stroke_width="inkscape_1.0_and_up"
       crossing_points_vector="147.69227 | 228.10066 | 0 | 0 | 0 | 3 | 2.0772964 | 4.856608 | -1 | 183.87451 | 219.38657 | 0 | 0 | 1 | 14 | 2.6053068 | 15.899405 | 1 | 194.03498 | 234.67515 | 0 | 0 | 2 | 13 | 3.4672829 | 15.301923 | 1 | 149.52138 | 195.77685 | 0 | 0 | 4 | 9 | 5.6955013 | 10.279427 | -1 | 150.28807 | 182.88832 | 0 | 0 | 5 | 10 | 5.9942621 | 11.658389 | -1 | 164.44029 | 150.06844 | 0 | 0 | 6 | 17 | 6.8331807 | 17.33806 | -1 | 211.85134 | 182.06603 | 0 | 0 | 7 | 12 | 8.1490625 | 13.217689 | 1 | 183.60464 | 204.21067 | 0 | 0 | 8 | 15 | 8.9529358 | 16.212815 | 1 | 182.89257 | 177.24923 | 0 | 0 | 11 | 16 | 12.375947 | 16.673948 | 1 | 75.048583 | 177.99866 | 0 | 0 | 18 | 23 | 22.030057 | 26.546989 | -1 | 43.206528 | 189.38336 | 0 | 0 | 19 | 28 | 22.662145 | 32.955 | -1 | 23.47175 | 202.86524 | 0 | 0 | 20 | 25 | 23.329814 | 28.614916 | 1 | 7.6128182 | 224.54536 | 0 | 0 | 21 | 26 | 24.357828 | 29.4946 | 1 | 71.947924 | 211.80121 | 0 | 0 | 22 | 29 | 26.09141 | 33.988111 | -1 | 14.413563 | 169.70656 | 0 | 0 | 24 | 27 | 28.134268 | 32.010193 | 1" />
    <inkscape:path-effect
       effect="knot"
       id="path-effect5"
       is_visible="true"
       lpeversion="1"
       switcher_size="15"
       interruption_width="3"
       prop_to_stroke_width="true"
       add_stroke_width="inkscape_1.0_and_up"
       both="false"
       inverse_width="false"
       add_other_stroke_width="inkscape_1.0_and_up"
       crossing_points_vector="48.989694 | 207.97655 | 0 | 0 | 0 | 19 | 7.2857023e-16 | 22 | 0 | 84.792825 | 246.1885 | 0 | 0 | 1 | 4 | 3.0772964 | 5.8566079 | -1 | 120.97507 | 237.47441 | 0 | 0 | 2 | 15 | 3.6053068 | 16.899405 | 1 | 131.13554 | 252.76299 | 0 | 0 | 3 | 14 | 4.4672829 | 16.301923 | 1 | 86.621936 | 213.86468 | 0 | 0 | 5 | 10 | 6.6955013 | 11.279427 | -1 | 87.388621 | 200.97617 | 0 | 0 | 6 | 11 | 6.9942621 | 12.658389 | -1 | 101.54085 | 168.15628 | 0 | 0 | 7 | 18 | 7.8331807 | 18.33806 | -1 | 148.9519 | 200.15387 | 0 | 0 | 8 | 13 | 9.1490625 | 14.217689 | 1 | 120.7052 | 222.29851 | 0 | 0 | 9 | 16 | 9.9529358 | 17.212815 | 1 | 119.99313 | 195.33707 | 0 | 0 | 12 | 17 | 13.375947 | 17.673948 | 1" />
    <inkscape:path-effect
       effect="knot"
       id="path-effect8"
       is_visible="true"
       lpeversion="1"
       switcher_size="15"
       interruption_width="3"
       prop_to_stroke_width="true"
       add_stroke_width="inkscape_1.0_and_up"
       both="false"
       inverse_width="false"
       add_other_stroke_width="inkscape_1.0_and_up"
       crossing_points_vector="84.792825 | 246.1885 | 0 | 0 | 0 | 3 | 1.0772964 | 3.8566079 | -1 | 120.97507 | 237.47441 | 0 | 0 | 1 | 14 | 1.6053068 | 14.899405 | 1 | 131.13554 | 252.76299 | 0 | 0 | 2 | 13 | 2.4672829 | 14.301923 | 1 | 86.621936 | 213.86468 | 0 | 0 | 4 | 9 | 4.6955013 | 9.2794271 | -1 | 87.388621 | 200.97617 | 0 | 0 | 5 | 10 | 4.9942621 | 10.658389 | -1 | 101.54085 | 168.15628 | 0 | 0 | 6 | 17 | 5.8331807 | 16.33806 | -1 | 148.9519 | 200.15387 | 0 | 0 | 7 | 12 | 7.1490625 | 12.217689 | 1 | 120.7052 | 222.29851 | 0 | 0 | 8 | 15 | 7.9529358 | 15.212815 | 1 | 119.99313 | 195.33707 | 0 | 0 | 11 | 16 | 11.375947 | 15.673948 | 1" />
  </defs>
  <g
     inkscape:label="Layer 1"
     inkscape:groupmode="layer"
     id="layer1"
     style="display:inline"
     transform="translate(13.644794,-140.13006)">
    <path
       id="path3"
       style="display:none;opacity:0.377952;fill:none;stroke:#ff0000;stroke-width:4;stroke-dasharray:none"
       inkscape:label="knots_thick"
       d="m 117.79612,195.73973 c 2.05792,8.36055 9.20758,13.27916 13.13429,15.86192 17.25076,11.34652 53.94999,10.39867 53.62472,21.06665 -0.27028,8.86471 -24.20856,14.15649 -33.7374,11.36636 -8.1433,-2.38443 -23.92613,-15.56263 -12.06232,-39.73023 4.86678,-9.91406 13.22444,-13.66078 20.87431,-28.79057 10.02298,-19.82327 22.86739,-22.29529 33.79621,-21.47214 21.85765,1.64628 36.84363,22.41907 25.68875,43.10483 -11.15487,20.68575 -29.29682,19.25505 -42.80106,12.54409 -8.13174,-4.0411 -10.76142,-8.13434 -17.52402,-16.13426 -6.69521,-7.92019 -17.54056,-17.83574 -16.116,-19.91878 2.25695,-3.30016 16.38563,1.89843 31.62263,7.19315 15.237,5.29472 29.73141,9.9189 35.32374,17.16618 7.44824,9.65244 9.78725,24.45053 1.32667,39.18972 -7.6223,13.27882 -23.56635,14.66597 -32.45811,10.3261 -7.71553,-3.76579 -12.40904,-14.69729 -5.68928,-27.25147 7.30007,-13.63835 22.02282,-35.49375 21.49542,-48.56883 -0.85653,-21.23477 -20.87213,-32.62999 -36.21557,-29.69005 -13.71952,2.62879 -17.39434,13.64156 -23.22387,10.72739 -4.64427,-2.32166 -14.02822,-11.53523 -45.22084,-12.05576 -38.166875,-0.63691 -42.594268,21.87333 -40.463783,36.22911 1.686509,10.96851 -9.662538,15.63852 -17.431039,21.17066 -8.012388,5.59004 -17.701799,8.0124 -23.2918432,15.46579 -5.5900405,7.45339 3.9824802,25.70317 14.3477812,29.81355 10.807407,4.2857 40.620943,-0.559 47.32899,-24.40984 7.299114,-25.95246 7.639714,-53.47807 -3.913027,-63.91281 -11.552744,-10.43475 -41.925284,-11.36642 -50.124016,6.70805 -8.198732,18.07447 16.583793,50.49671 10.248411,60.74512 -6.335381,10.24841 -32.2133094,-2.78621 -36.1489333,-6.52172 -10.9937467,-10.43474 -6.3911697,-24.99004 0.5590057,-33.72658 6.5056214,-8.17774 16.7701165,-11.92543 23.1054966,-12.48443 18.488835,-1.63136 26.645848,14.5341 29.813538,20.49682 3.167687,5.96271 11.933676,20.96782 28.881872,21.61483 9.547477,0.36448 22.348831,-4.02279 23.744357,-12.92559 1.469943,-9.37753 -6.403252,-17.4227 -19.644997,-20.61466 -7.212331,-1.73855 -13.194505,1.41238 -14.284044,-3.09181 -2.784534,-11.51134 1.953175,-23.87775 27.906694,-21.99086 14.273157,1.03769 30.620557,4.70467 33.636497,14.15673 3.01594,9.45207 -9.31174,15.33271 -6.10923,28.34334 z"
       sodipodi:nodetypes="sssssssssssssssssssssssssssssssssasssss"
       sodipodi:insensitive="true" />
    <path
       id="path1"
       style="display:none;opacity:0.377952;fill:none;stroke:#000000;stroke-width:1.5;stroke-dasharray:none"
       inkscape:label="knots"
       d="m 72.77347,177.77899 c -5.395444,-0.28799 -9.524399,1.11805 -10.411311,-2.54847 -2.784534,-11.51134 1.953175,-23.87775 27.906694,-21.99086 14.273157,1.03769 30.620557,4.70467 33.636497,14.15673 3.01594,9.45207 -9.31174,15.33271 -6.10923,28.34334 2.05792,8.36055 9.20758,13.27916 13.13429,15.86192 9.82916,6.46504 25.97229,8.9387 37.98301,11.84389 m 4.3755,1.14276 c 6.76706,1.93709 11.38249,4.2663 11.26621,8.08 -0.27028,8.86471 -24.20856,14.15649 -33.7374,11.36636 -6.67386,-1.95416 -18.47892,-11.15813 -15.99141,-27.71957 m 0.99406,-4.51571 c 0.68164,-2.36852 1.64486,-4.86675 2.93503,-7.49495 4.61277,-9.39663 12.36154,-13.25288 19.67134,-26.51214 m 2.12721,-4.04312 c 9.87996,-18.20621 22.27626,-20.50551 32.87197,-19.70745 21.85765,1.64628 36.84363,22.41907 25.68875,43.10483 -1.19076,2.20816 -2.46114,4.1643 -3.79699,5.8889 m -3.31717,3.69794 c -10.83498,10.35505 -24.77498,8.37995 -35.6869,2.95725 -8.13174,-4.0411 -10.76142,-8.13434 -17.52402,-16.13426 -1.42292,-1.68326 -3.0333,-3.45665 -4.6735,-5.22583 m -3.10892,-3.32884 c -4.96184,-5.30357 -9.26384,-10.00385 -8.33358,-11.36411 2.25695,-3.30016 16.38563,1.89843 31.62263,7.19315 4.94938,1.71987 9.82042,3.36898 14.33344,5.06023 m 4.19439,1.63253 c 7.49183,3.04408 13.59871,6.33007 16.79591,10.47342 7.44824,9.65244 9.78725,24.45053 1.32667,39.18972 -7.6223,13.27882 -23.56635,14.66597 -32.45811,10.3261 -1.64567,-0.80322 -3.15387,-1.93244 -4.44315,-3.33387 m -2.64102,-3.87634 c -2.55341,-5.20482 -2.74024,-12.3158 1.39489,-20.04126 1.25856,-2.3513 2.73775,-4.94685 4.32137,-7.69952 m 2.25824,-3.92101 c 7.17944,-12.48829 15.31013,-27.17245 14.91581,-36.9483 -0.24236,-6.00849 -2.01867,-11.22919 -4.78903,-15.56025 m -3.35249,-4.32604 c -7.42709,-7.99558 -18.63472,-11.61242 -28.07405,-9.80376 -13.71952,2.62879 -17.39434,13.64156 -23.22387,10.72739 -4.64427,-2.32166 -14.02822,-11.53523 -45.22084,-12.05576 -38.166875,-0.63691 -42.594268,21.87333 -40.463783,36.22911 1.686509,10.96851 -9.662538,15.63852 -17.431039,21.17066 -2.010838,1.40291 -4.127302,2.60631 -6.258085,3.73979 m -4.02347,2.09251 c -4.973539,2.58223 -9.707449,5.22971 -13.0102882,9.63349 -5.5900405,7.45339 3.9824802,25.70317 14.3477812,29.81355 10.807407,4.2857 40.620943,-0.559 47.32899,-24.40984 0.456889,-1.6245 0.886514,-3.25516 1.287664,-4.88741 m 1.021573,-4.44757 c 4.31701,-20.21221 4.094178,-40.02978 -2.970417,-50.74662 m -2.881909,-3.48737 c -0.121931,-0.11659 -0.245242,-0.23121 -0.369938,-0.34384 -1.81017,-1.63499 -4.082385,-3.03668 -6.658949,-4.1685 m -4.792897,-1.6992 c -13.810387,-3.85891 -32.508122,-1.01317 -38.67217,12.57575 -0.804684,1.77396 -1.291663,3.68613 -1.521538,5.70199 m -0.118462,4.51911 c 0.931543,18.18251 17.152701,42.00826 11.888411,50.52402 -2.787399,4.50903 -9.357778,4.51101 -16.177931,2.78091 M 5.0248761,223.6761 c -6.8674958,-2.47769 -13.0690428,-6.0352 -14.8379454,-7.71416 -10.9937467,-10.43474 -6.3911697,-24.99004 0.5590057,-33.72658 6.5056214,-8.17774 16.7701165,-11.92543 23.1054966,-12.48443 16.439934,-1.45058 24.711074,11.1698 28.569336,18.1767 m 2.1903,4.04952 c 3.794382,6.71458 12.449174,19.29422 27.935774,19.88543 9.547477,0.36448 22.348831,-4.02279 23.744357,-12.92559 1.443852,-9.21108 -6.126698,-17.13668 -18.944972,-20.44012"
       sodipodi:nodetypes="sssssssssssssssssssssssssssssssssasssss"
       inkscape:path-effect="#path-effect2"
       inkscape:original-d="m 117.79612,195.73973 c 2.05792,8.36055 9.20758,13.27916 13.13429,15.86192 17.25076,11.34652 53.94999,10.39867 53.62472,21.06665 -0.27028,8.86471 -24.20856,14.15649 -33.7374,11.36636 -8.1433,-2.38443 -23.92613,-15.56263 -12.06232,-39.73023 4.86678,-9.91406 13.22444,-13.66078 20.87431,-28.79057 10.02298,-19.82327 22.86739,-22.29529 33.79621,-21.47214 21.85765,1.64628 36.84363,22.41907 25.68875,43.10483 -11.15487,20.68575 -29.29682,19.25505 -42.80106,12.54409 -8.13174,-4.0411 -10.76142,-8.13434 -17.52402,-16.13426 -6.69521,-7.92019 -17.54056,-17.83574 -16.116,-19.91878 2.25695,-3.30016 16.38563,1.89843 31.62263,7.19315 15.237,5.29472 29.73141,9.9189 35.32374,17.16618 7.44824,9.65244 9.78725,24.45053 1.32667,39.18972 -7.6223,13.27882 -23.56635,14.66597 -32.45811,10.3261 -7.71553,-3.76579 -12.40904,-14.69729 -5.68928,-27.25147 7.30007,-13.63835 22.02282,-35.49375 21.49542,-48.56883 -0.85653,-21.23477 -20.87213,-32.62999 -36.21557,-29.69005 -13.71952,2.62879 -17.39434,13.64156 -23.22387,10.72739 -4.64427,-2.32166 -14.02822,-11.53523 -45.22084,-12.05576 -38.166875,-0.63691 -42.594268,21.87333 -40.463783,36.22911 1.686509,10.96851 -9.662538,15.63852 -17.431039,21.17066 -8.012388,5.59004 -17.701799,8.0124 -23.2918432,15.46579 -5.5900405,7.45339 3.9824802,25.70317 14.3477812,29.81355 10.807407,4.2857 40.620943,-0.559 47.32899,-24.40984 7.299114,-25.95246 7.639714,-53.47807 -3.913027,-63.91281 -11.552744,-10.43475 -41.925284,-11.36642 -50.124016,6.70805 -8.198732,18.07447 16.583793,50.49671 10.248411,60.74512 -6.335381,10.24841 -32.2133094,-2.78621 -36.1489333,-6.52172 -10.9937467,-10.43474 -6.3911697,-24.99004 0.5590057,-33.72658 6.5056214,-8.17774 16.7701165,-11.92543 23.1054966,-12.48443 18.488835,-1.63136 26.645848,14.5341 29.813538,20.49682 3.167687,5.96271 11.933676,20.96782 28.881872,21.61483 9.547477,0.36448 22.348831,-4.02279 23.744357,-12.92559 1.469943,-9.37753 -6.403252,-17.4227 -19.644997,-20.61466 -7.212331,-1.73855 -13.194505,1.41238 -14.284044,-3.09181 -2.784534,-11.51134 1.953175,-23.87775 27.906694,-21.99086 14.273157,1.03769 30.620557,4.70467 33.636497,14.15673 3.01594,9.45207 -9.31174,15.33271 -6.10923,28.34334 z"
       sodipodi:insensitive="true" />
    <path
       style="baseline-shift:baseline;display:inline;overflow:visible;opacity:1;vector-effect:none;enable-background:accumulate;stop-color:#000000;stop-opacity:1"
       d="m 93.146484,144.86279 c -19.231305,-0.32092 -30.170899,5.22372 -35.951172,12.78711 -5.780272,7.56339 -6.350298,16.99391 -5.265625,24.30273 v 0.002 0.002 c 0.802422,5.21869 -1.431845,8.81058 -4.929687,11.95117 -3.497842,3.14059 -8.251718,5.68581 -12.195313,8.49414 -1.971663,1.37506 -4.140005,2.61734 -6.256199,3.74306 l 0.606789,1.3957 c 2.143303,-1.14014 4.46438,-2.48314 6.512692,-3.9122 l 0.0039,-0.002 0.002,-0.002 c 3.824906,-2.72381 8.630946,-5.28004 12.328125,-8.59961 3.696285,-3.31877 6.292347,-7.54528 5.410156,-13.29297 v -0.004 c -1.045066,-7.04641 -0.466966,-16.04776 4.97461,-23.16797 5.442521,-7.12144 15.798806,-12.51325 34.734375,-12.19726 15.523745,0.25905 25.570995,2.67715 32.306635,5.30078 6.73565,2.62363 10.09545,5.42786 12.5918,6.67578 1.65456,0.82711 3.31036,0.65466 4.82031,-0.0723 1.50995,-0.72692 2.96311,-1.94496 4.64063,-3.30078 3.35504,-2.71162 7.55843,-6.00876 14.24023,-7.28906 9.15008,-1.75323 19.98022,1.70676 27.22801,9.50932 l 1.96701,-0.22714 c -7.48597,-8.42942 -19.74963,-12.61892 -29.47822,-10.75484 -7.03772,1.3485 -11.53076,4.87229 -14.90039,7.59571 -1.68481,1.36171 -3.10029,2.51472 -4.34766,3.11523 -1.24737,0.60051 -2.23784,0.71201 -3.49804,0.082 -2.14792,-1.07373 -5.8032,-4.03676 -12.71875,-6.73047 -6.91555,-2.6937 -17.15731,-5.14282 -32.826175,-5.40429 z m -45.876953,6.91211 c -3.854994,-0.0646 -7.746039,0.36323 -11.408203,1.34765 -7.324327,1.96884 -13.765292,6.20977 -16.957031,13.2461 -0.841417,1.85494 -1.433247,4.26666 -1.670582,6.34794 l 1.576832,-0.10069 c 0.222415,-1.95043 0.691033,-3.93513 1.458984,-5.62811 2.972309,-6.55259 8.96232,-10.52948 15.980469,-12.41602 7.018149,-1.88653 15.033912,-1.64103 21.808594,0.25196 l 1.036919,-1.26725 c -3.517852,-0.98297 -7.970988,-1.71696 -11.825982,-1.78158 z m 16.083985,3.33984 -1.132904,1.17894 c 2.51646,1.10541 5.25165,2.66452 6.988372,4.23317 0.119383,0.10783 0.236673,0.2164 0.353516,0.32813 l 1.231208,-0.86563 c -0.12702,-0.12145 -0.448854,-0.45835 -0.578864,-0.57578 -1.883619,-1.70134 -4.224662,-3.14061 -6.861328,-4.29883 z m 21.591796,2.24609 c -7.957917,0.5501 -13.226912,2.87805 -16.451171,6.27149 -4.299013,4.52458 -4.79088,10.80309 -3.361329,16.71289 0.25557,1.05653 0.806907,1.86526 1.5625,2.35742 0.755594,0.49217 1.650691,0.67946 2.623047,0.75586 1.944714,0.1528 4.487434,-0.13218 7.110115,0.008 l -0.115969,-1.49804 c -2.772762,-0.148 -5.1866,0.12695 -6.876953,-0.006 -0.845177,-0.0664 -1.485238,-0.23317 -1.921875,-0.51758 -0.436638,-0.28441 -0.733989,-0.67444 -0.921875,-1.45117 -1.354983,-5.60154 -0.871854,-11.26339 2.990234,-15.32813 3.862088,-4.06473 11.277528,-6.67289 24.132813,-5.73828 7.093501,0.51571 14.697701,1.68994 20.841801,3.88086 6.14409,2.19092 10.73755,5.37693 12.13477,9.75586 0.70216,2.2006 0.51734,4.14316 -0.13086,6.125 -0.64822,1.98184 -1.7815,3.97747 -2.93946,6.12695 -2.31591,4.29897 -4.71364,9.29532 -3.05273,16.04297 2.13796,8.68573 9.50646,13.71529 13.44922,16.3086 10.07077,6.62395 26.26274,9.05335 38.21875,11.94531 l 0.46428,-1.4671 c -12.06542,-2.91843 -28.27126,-5.426 -37.85881,-11.73212 -3.91067,-2.57221 -10.84048,-7.37869 -12.81836,-15.41406 -1.54161,-6.26298 0.62465,-10.71368 2.91797,-14.97071 1.14665,-2.12851 2.33001,-4.18729 3.04492,-6.37304 0.71491,-2.18576 0.93862,-4.5234 0.13281,-7.04883 -1.61872,-5.07313 -6.70671,-8.44593 -13.05859,-10.71094 -6.35188,-2.26501 -14.05864,-3.44287 -21.238289,-3.96484 -3.274559,-0.23807 -6.224314,-0.25368 -8.876954,-0.0703 z m 112.037108,0.8711 c -5.37349,-0.40473 -11.27386,-0.0256 -17.08789,2.80078 -5.81402,2.82643 -11.50361,8.08982 -16.5,17.29687 l 1.31836,0.7168 c 4.88358,-8.99916 10.33289,-13.98881 15.83594,-16.66406 5.50304,-2.67525 11.09809,-3.04763 16.32031,-2.6543 10.70604,0.80636 19.69911,6.2957 24.64844,14.06836 4.94932,7.77267 5.89856,17.80653 0.4375,27.9336 -1.17282,2.17488 -2.37615,4.00436 -3.68484,5.69389 l 0.88136,1.37426 c 1.36302,-1.75967 2.91509,-4.11578 4.12379,-6.35722 5.69382,-10.55869 4.72717,-21.25443 -0.49219,-29.45117 -5.21936,-8.19674 -14.64917,-13.91789 -25.80078,-14.75781 z m -3.26581,2.50315 -1.743,0.0958 c 2.70136,4.22319 4.83419,9.95227 5.07131,15.83079 0.18819,4.66539 -1.69286,10.71395 -4.55273,17.12109 -2.85987,6.40714 -6.72986,13.27302 -10.31724,19.51311 l 1.35435,0.65681 c 3.59205,-6.2482 7.43027,-13.05762 10.33203,-19.55859 2.90175,-6.50098 4.88973,-12.68251 4.68359,-17.79297 -0.2476,-6.13847 -1.98894,-11.42705 -4.82831,-15.86599 z m -120.236351,2.48744 -1.195925,0.93158 c 6.834742,10.36816 7.14018,30.41351 2.845188,50.52263 l 1.528211,0.12509 c 4.339027,-20.31529 4.116973,-40.51378 -3.177474,-51.5793 z m -56.195103,10.72035 c -6.557083,0.57856 -16.95155269,4.37251 -23.6269528,12.76367 -3.5512031,4.46395 -6.5010902,10.39547 -7.1660152,16.61523 -0.664926,6.21977 1.016662,12.74983 6.6777341,18.12305 1.0100298,0.95867 3.0085265,2.24802 5.6699218,3.67383 2.6613952,1.42581 6.6895835,3.22773 10.1633285,4.48101 l -0.360015,-1.72782 c -3.393751,-1.22441 -6.4958513,-2.68335 -9.09432923,-4.07546 -2.59847787,-1.3921 -4.58683037,-2.71916 -5.34570307,-3.43945 -5.3326751,-5.06152 -6.8461741,-11.02625 -6.2207031,-16.87695 0.62547,-5.85071 3.4506371,-11.5653 6.8496093,-15.8379 6.3358427,-7.96432 16.4722597,-11.66563 22.5859377,-12.20507 8.0193,-0.70759 13.966326,1.99173 18.455078,5.74414 4.488752,3.7524 7.570002,8.75722 9.481677,12.22897 l 1.158364,-0.9958 c -1.946588,-3.53516 -4.955783,-8.4367 -9.677151,-12.38356 -4.721367,-3.94687 -11.130147,-6.83089 -19.550781,-6.08789 z m 132.681644,2.87109 c -0.98866,-0.0557 -1.85346,-0.0112 -2.59961,0.18164 -0.74616,0.19282 -1.40157,0.55733 -1.8125,1.1582 -0.24912,0.36427 -0.2916,0.8011 -0.23633,1.18946 0.0553,0.38836 0.1979,0.76445 0.39453,1.16601 0.39327,0.80312 1.02182,1.70927 1.82813,2.73438 1.61262,2.05022 4.13167,4.77132 6.61422,7.42486 l 0.89945,-1.23932 c -2.47928,-2.65003 -4.78771,-5.1474 -6.33399,-7.11328 -0.77313,-0.98293 -1.35533,-1.83835 -1.66211,-2.46484 -0.15338,-0.31325 -0.23454,-0.56898 -0.25586,-0.71875 -0.0213,-0.14977 0.007,-0.15701 -0.01,-0.13281 0.15331,-0.22417 0.4312,-0.41887 0.94922,-0.55274 0.51802,-0.13387 1.24925,-0.18503 2.14062,-0.13476 1.78275,0.10052 4.20457,0.5936 7.03906,1.36132 5.669,1.53545 13.00641,4.15594 20.62891,6.80469 4.95309,1.72116 9.81942,3.36945 14.31641,5.05469 l 0.52539,-1.4043 c -4.52907,-1.69726 -9.40393,-3.34782 -14.34961,-5.0664 -7.6145,-2.64597 -14.96164,-5.27345 -20.73047,-6.83594 -2.88442,-0.78124 -5.3684,-1.30061 -7.3457,-1.41211 z m -131.247885,-0.1263 -1.530521,0.0978 c 0.476296,9.29669 4.816869,19.98509 8.325278,29.26483 1.754204,4.63987 3.306045,8.96404 4.083984,12.59961 0.777939,3.63557 0.742848,6.52955 -0.40039,8.3789 -1.255136,2.03037 -3.330475,3.04875 -6.029297,3.37891 -2.698822,0.33016 -6.584429,-0.21684 -9.9388,-1.06778 l 0.606526,1.64416 c 3.465783,0.87918 6.525659,1.27942 9.513914,0.91385 2.988256,-0.36556 5.592737,-1.60141 7.125,-4.08007 1.488907,-2.40853 1.401901,-5.68741 0.589844,-9.48243 -0.812057,-3.79501 -2.388945,-8.1606 -4.148437,-12.81445 -3.518984,-9.3077 -7.882391,-20.01466 -8.197101,-28.83336 z m 142.550615,5.68102 c -3.61564,6.55842 -7.32338,10.77372 -10.74609,14.56445 -3.42271,3.79073 -6.5797,7.16946 -8.94141,11.98047 -1.30795,2.66441 -2.28761,5.20291 -2.98242,7.61719 l 1.39101,0.65886 c 0.66847,-2.32276 1.66472,-5.02391 2.93711,-7.61589 2.25107,-4.58562 5.27667,-7.8334 8.70899,-11.63477 3.43232,-3.80137 7.25311,-8.14487 10.94726,-14.8457 z m -80.721573,0.14769 0.110246,1.64528 c 6.303327,1.62445 11.27359,4.38126 14.460938,7.79101 3.187347,3.40976 4.617411,7.43174 3.931641,11.80664 -0.646349,4.1234 -3.96085,7.27565 -8.396485,9.37696 -4.435636,2.1013 -9.931785,3.09339 -14.578125,2.91601 C 60.984187,215.47612 52.398055,202.9769 48.646605,196.33829 l -1.187621,0.9464 c 3.837314,6.79056 12.677378,19.65935 28.558594,20.26563 4.901137,0.1871 10.578505,-0.83168 15.279297,-3.0586 4.700792,-2.22691 8.485197,-5.72059 9.234375,-10.5 0.75808,-4.83618 -0.874878,-9.38082 -4.316406,-13.0625 -3.441533,-3.68167 -9.15194,-6.73386 -15.666887,-8.41285 z m 116.057513,9.25074 -0.56445,1.39063 c 7.44912,3.02673 13.45219,6.30683 16.48437,10.23633 7.26814,9.41904 9.59445,23.85796 1.27148,38.35742 -3.70436,6.45337 -9.39905,9.993 -15.27929,11.41602 -5.88025,1.42301 -11.94044,0.68798 -16.19922,-1.39063 -1.55899,-0.76091 -2.97269,-1.81119 -4.20056,-3.14588 l -1.62715,0.63298 c 1.35068,1.46817 3.43715,3.01698 5.16951,3.86251 4.63298,2.26126 10.98869,3.00335 17.20898,1.49805 6.22029,-1.5053 12.31058,-5.29956 16.22852,-12.125 8.59819,-14.97893 6.24357,-30.13565 -1.38477,-40.02149 -3.36222,-4.35721 -9.57289,-7.6495 -17.10742,-10.71094 z m -38.63571,0.83518 -0.90335,1.17654 c 1.63671,1.76542 3.23991,3.53263 4.65039,5.20118 6.74305,7.9768 9.50889,12.21806 17.76367,16.32031 5.53745,2.75184 11.85845,4.64349 18.2207,4.51758 6.36225,-0.12592 12.76751,-2.29854 18.31836,-7.60352 l -0.76334,-1.34254 c -5.28413,5.21737 -11.53984,7.32643 -17.58432,7.44606 -6.04447,0.11962 -12.15091,-1.68852 -17.52539,-4.35938 -8.00869,-3.97995 -10.50106,-7.92423 -17.2832,-15.94726 -1.43536,-1.69799 -3.24983,-3.63603 -4.89352,-5.40897 z M 24.863471,208.04516 c -4.986867,2.58916 -10.093153,5.4201 -13.515815,9.98364 -1.5473036,2.06308 -2.0057426,4.80136 -1.7207026,7.7461 0.28504,2.94474 1.3120976,6.12755 2.8398436,9.19726 3.055491,6.13944 8.090059,11.85135 13.552734,14.01758 5.713404,2.26566 15.94401,2.06609 25.744141,-1.65039 9.800131,-3.71648 19.153185,-11.06245 22.582031,-23.25391 0.459129,-1.63246 0.989022,-3.63001 1.392162,-5.27036 l -1.544035,-0.13223 c -0.39916,1.62415 -0.836836,3.37981 -1.291486,4.99634 -3.279201,11.65939 -12.186375,18.66066 -21.671875,22.25782 -9.485501,3.59716 -19.5642,3.67824 -24.658203,1.6582 -4.902626,-1.94415 -9.837135,-7.41462 -12.761719,-13.29102 -1.462293,-2.9382 -2.427929,-5.97202 -2.689454,-8.67382 -0.261524,-2.70181 0.178065,-5.03755 1.425782,-6.70118 3.183016,-4.24402 7.929679,-6.9052 12.889889,-9.48051 z m 155.107229,9.0813 c -1.58458,2.75434 -3.06646,5.3563 -4.33203,7.7207 -4.22993,7.90257 -4.07421,15.29027 -1.4082,20.72461 l 1.42821,-0.48896 c -2.44081,-4.97531 -2.73808,-11.98027 1.30226,-19.52862 1.25155,-2.3382 2.78144,-5.01795 4.36411,-7.76896 z m -42.33632,3.51882 c -1.27267,8.47325 1.07338,15.64256 4.65273,20.3972 3.57935,4.75463 8.29308,7.61758 11.82031,8.65039 5.04969,1.47859 13.44015,0.80353 20.75977,-1.31055 3.6598,-1.05704 7.03789,-2.48067 9.57226,-4.25195 2.53438,-1.77128 4.28746,-3.94902 4.36524,-6.5 0.0675,-2.21364 -1.28776,-4.01627 -3.39063,-5.39454 -2.10287,-1.37826 -5.00135,-2.45166 -8.41797,-3.42968 l -0.57518,1.43133 c 3.35044,0.95908 6.30334,2.03018 8.17089,3.25421 1.86754,1.22404 2.76167,2.49173 2.71289,4.0918 -0.0574,1.88137 -1.39677,3.68947 -3.72461,5.31641 -2.32785,1.62693 -5.57925,3.01579 -9.12891,4.04101 -7.09931,2.05046 -15.44272,2.62404 -19.92187,1.3125 -3.14663,-0.92136 -7.6732,-3.63703 -11.04297,-8.11328 -3.36977,-4.47625 -5.63281,-10.68718 -4.41797,-18.77539 z"
       id="path6"
       inkscape:label="knots_path"
       sodipodi:nodetypes="cscccsccccccsccsssscssccssscscccssccsscccccsccsccsssscccssssssssssccsssssssccscccssssccsssccssccssccccccccsssccscssssccscccsssscccsscssssccssccccssssccssssccccscccsccccssssccsssscccsssscccsssccccsscccsscccsssssccsssssscccccccccccsssssccccssssccc" />
  </g>
</svg>
