<?xml version="1.0" encoding="UTF-8" standalone="no"?>
<!-- Created with Inkscape (http://www.inkscape.org/) -->

<svg
   width="83.763397mm"
   height="82.634132mm"
   viewBox="0 0 83.763397 82.634132"
   version="1.1"
   id="svg1"
   inkscape:version="1.4.2 (ebf0e940d0, 2025-05-08)"
   sodipodi:docname="four_term_south.svg"
   inkscape:export-filename="../four_term_south.pdf"
   inkscape:export-xdpi="96"
   inkscape:export-ydpi="96"
   xmlns:inkscape="http://www.inkscape.org/namespaces/inkscape"
   xmlns:sodipodi="http://sodipodi.sourceforge.net/DTD/sodipodi-0.dtd"
   xmlns="http://www.w3.org/2000/svg"
   xmlns:svg="http://www.w3.org/2000/svg">
  <sodipodi:namedview
     id="namedview1"
     pagecolor="#ffffff"
     bordercolor="#000000"
     borderopacity="0.25"
     inkscape:showpageshadow="2"
     inkscape:pageopacity="0.0"
     inkscape:pagecheckerboard="0"
     inkscape:deskcolor="#d1d1d1"
     inkscape:document-units="mm"
     inkscape:zoom="1.0716961"
     inkscape:cx="192.21867"
     inkscape:cy="136.6992"
     inkscape:window-width="2560"
     inkscape:window-height="1412"
     inkscape:window-x="0"
     inkscape:window-y="0"
     inkscape:window-maximized="1"
     inkscape:current-layer="layer1" />
  <defs
     id="defs1" />
  <g
     inkscape:label="Layer 1"
     inkscape:groupmode="layer"
     id="layer1"
     transform="translate(-53.975,-112.44791)">
    <path
       fill="none"
       stroke-width="1.35467"
       stroke-linecap="butt"
       stroke-linejoin="miter"
       stroke="#000000"
       stroke-opacity="1"
       stroke-miterlimit="10"
       d="m 137.06106,153.76498 c 0,-22.44547 -18.19426,-40.63973 -40.639729,-40.63973 -22.445472,0 -40.639729,18.19426 -40.639729,40.63973 0,22.44547 18.194257,40.63973 40.639729,40.63973 22.445469,0 40.639729,-18.19426 40.639729,-40.63973"
       id="path1" />
    <path
       fill-rule="nonzero"
       fill="#000000"
       fill-opacity="1"
       d="m 119.17274,118.8827 c 0,-2.40881 -3.61322,-2.40881 -3.61322,0 0,2.40743 3.61322,2.40743 3.61322,0"
       id="path6-6"
       style="stroke-width:0.352778" />
    <path
       fill-rule="nonzero"
       fill="#000000"
       fill-opacity="1"
       d="m 119.15179,188.61235 c 0,-2.40881 -3.61321,-2.40881 -3.61321,0 0,2.40743 3.61321,2.40743 3.61321,0"
       id="path6-5"
       style="stroke-width:0.352778" />
    <path
       fill-rule="nonzero"
       fill="#000000"
       fill-opacity="1"
       d="m 129.9246,128.32814 c 0,-2.40881 -3.61322,-2.40881 -3.61322,0 0,2.40743 3.61322,2.40743 3.61322,0"
       id="path6-5-2"
       style="stroke-width:0.352778" />
    <path
       fill-rule="nonzero"
       fill="#000000"
       fill-opacity="1"
       d="m 57.588216,153.76498 c 0,-2.40881 -3.613216,-2.40881 -3.613216,0 0,2.40881 3.613216,2.40881 3.613216,0"
       id="path10"
       style="stroke-width:0.352778" />
    <path
       style="fill:none;stroke:#000000;stroke-width:0.903111;stroke-linecap:butt;stroke-linejoin:miter;stroke-dasharray:none;stroke-opacity:1"
       d="m 117.34518,188.61183 c -12.6225,-22.48737 -12.6225,-47.26099 0.0209,-69.72965"
       id="path16"
       sodipodi:nodetypes="cc" />
    <path
       style="fill:none;stroke:#000000;stroke-width:0.903111;stroke-linecap:butt;stroke-linejoin:miter;stroke-dasharray:none;stroke-opacity:1"
       d="m 128.11799,128.32762 c -23.87195,19.15785 -37.68122,25.43736 -72.336387,25.43736"
       id="path16-1"
       sodipodi:nodetypes="cc" />
  </g>
</svg>
