<?xml version="1.0" encoding="UTF-8" standalone="no"?>
<!-- Created with Inkscape (http://www.inkscape.org/) -->

<svg
   width="83.763374mm"
   height="82.956573mm"
   viewBox="0 0 83.763374 82.956573"
   version="1.1"
   id="svg1"
   inkscape:version="1.4.2 (ebf0e940d0, 2025-05-08)"
   sodipodi:docname="four_term_north.svg"
   inkscape:export-filename="four_term_north.pdf"
   inkscape:export-xdpi="96"
   inkscape:export-ydpi="96"
   xmlns:inkscape="http://www.inkscape.org/namespaces/inkscape"
   xmlns:sodipodi="http://sodipodi.sourceforge.net/DTD/sodipodi-0.dtd"
   xmlns="http://www.w3.org/2000/svg"
   xmlns:svg="http://www.w3.org/2000/svg">
  <sodipodi:namedview
     id="namedview1"
     pagecolor="#ffffff"
     bordercolor="#000000"
     borderopacity="0.25"
     inkscape:showpageshadow="2"
     inkscape:pageopacity="0.0"
     inkscape:pagecheckerboard="0"
     inkscape:deskcolor="#d1d1d1"
     inkscape:document-units="mm"
     inkscape:zoom="1.0716961"
     inkscape:cx="-258.4688"
     inkscape:cy="-48.054668"
     inkscape:window-width="2560"
     inkscape:window-height="1412"
     inkscape:window-x="0"
     inkscape:window-y="0"
     inkscape:window-maximized="1"
     inkscape:current-layer="layer1" />
  <defs
     id="defs1" />
  <g
     inkscape:label="Layer 1"
     inkscape:groupmode="layer"
     id="layer1"
     transform="translate(-173.30208,-161.13124)">
    <path
       fill="none"
       stroke-width="1.35467"
       stroke-linecap="butt"
       stroke-linejoin="miter"
       stroke="#000000"
       stroke-opacity="1"
       stroke-miterlimit="10"
       d="m 256.38812,202.44831 c 0,22.44547 -18.19423,40.63973 -40.63972,40.63973 -22.44546,0 -40.63972,-18.19426 -40.63972,-40.63973 0,-22.44547 18.19426,-40.63973 40.63972,-40.63973 22.44549,0 40.63972,18.19426 40.63972,40.63973"
       id="path1-37" />
    <path
       fill-rule="nonzero"
       fill="#000000"
       fill-opacity="1"
       d="m 238.49982,237.33059 c 0,2.40881 -3.61322,2.40881 -3.61322,0 0,-2.40743 3.61322,-2.40743 3.61322,0"
       id="path6-6-4"
       style="stroke-width:0.352778" />
    <path
       fill-rule="nonzero"
       fill="#000000"
       fill-opacity="1"
       d="m 238.47886,167.60094 c 0,2.40881 -3.61322,2.40881 -3.61322,0 0,-2.40743 3.61322,-2.40743 3.61322,0"
       id="path6-5-5"
       style="stroke-width:0.352778" />
    <path
       fill-rule="nonzero"
       fill="#000000"
       fill-opacity="1"
       d="m 176.91529,202.44831 c 0,2.40881 -3.61321,2.40881 -3.61321,0 0,-2.40881 3.61321,-2.40881 3.61321,0"
       id="path10-54"
       style="stroke-width:0.352778" />
    <path
       style="fill:none;stroke:#000000;stroke-width:0.903111;stroke-linecap:butt;stroke-linejoin:miter;stroke-dasharray:none;stroke-opacity:1"
       d="m 236.67225,167.60146 c -12.62249,22.48737 -12.62249,47.26099 0.0208,69.72965"
       id="path16-7"
       sodipodi:nodetypes="cc" />
    <path
       fill-rule="nonzero"
       fill="#000000"
       fill-opacity="1"
       d="m 225.61126,242.28121 c 0,2.40881 -3.61322,2.40881 -3.61322,0 0,-2.40743 3.61322,-2.40743 3.61322,0"
       id="path6-5-2-6-44"
       style="stroke-width:0.352778" />
    <path
       style="fill:none;stroke:#000000;stroke-width:0.903111;stroke-linecap:butt;stroke-linejoin:miter;stroke-dasharray:none;stroke-opacity:1"
       d="m 223.80465,242.28173 c -5.23593,-25.88881 -22.6351,-39.83342 -48.46443,-39.8872"
       id="path20-0"
       sodipodi:nodetypes="cc" />
  </g>
</svg>
