<?xml version="1.0" encoding="UTF-8" standalone="no"?>
<svg
   width="256pt"
   height="256pt"
   viewBox="0 0 256 256"
   version="1.1"
   id="svg16"
   sodipodi:docname="local_jacobi_tth.svg"
   inkscape:version="1.4.2 (ebf0e940d0, 2025-05-08)"
   inkscape:export-filename="/home/damian/Projects/mphil-thesis/graphics/local_jacobi_tth.pdf"
   inkscape:export-xdpi="96"
   inkscape:export-ydpi="96"
   xmlns:inkscape="http://www.inkscape.org/namespaces/inkscape"
   xmlns:sodipodi="http://sodipodi.sourceforge.net/DTD/sodipodi-0.dtd"
   xmlns="http://www.w3.org/2000/svg"
   xmlns:svg="http://www.w3.org/2000/svg">
  <defs
     id="defs16" />
  <sodipodi:namedview
     id="namedview16"
     pagecolor="#ffffff"
     bordercolor="#000000"
     borderopacity="0.25"
     inkscape:showpageshadow="2"
     inkscape:pageopacity="0.0"
     inkscape:pagecheckerboard="0"
     inkscape:deskcolor="#d1d1d1"
     inkscape:document-units="pt"
     inkscape:zoom="1.9286615"
     inkscape:cx="131.9568"
     inkscape:cy="143.88217"
     inkscape:window-width="2556"
     inkscape:window-height="1394"
     inkscape:window-x="0"
     inkscape:window-y="0"
     inkscape:window-maximized="0"
     inkscape:current-layer="svg16"
     showguides="true">
    <sodipodi:guide
       position="127.861,191.79683"
       orientation="0,-1"
       id="guide1"
       inkscape:locked="false" />
    <sodipodi:guide
       position="32.072221,191.79683"
       orientation="1,0"
       id="guide2"
       inkscape:locked="false" />
    <sodipodi:guide
       position="32.072221,64.159849"
       orientation="0,-1"
       id="guide3"
       inkscape:locked="false" />
    <sodipodi:guide
       position="128,128"
       orientation="0,-1"
       id="guide4"
       inkscape:locked="false" />
    <sodipodi:guide
       position="128,128"
       orientation="1,0"
       id="guide6"
       inkscape:locked="false" />
    <sodipodi:guide
       position="135.67132,191.79683"
       orientation="0.70710678,-0.70710678"
       id="guide7"
       inkscape:locked="false" />
    <sodipodi:guide
       position="128,184.12551"
       orientation="-0.70710678,-0.70710678"
       id="guide8"
       inkscape:locked="false" />
    <sodipodi:guide
       position="128,128"
       orientation="0.70710678,-0.70710678"
       id="guide5"
       inkscape:locked="false" />
    <sodipodi:guide
       position="128,128"
       orientation="-0.70710678,-0.70710678"
       id="guide9"
       inkscape:locked="false" />
    <sodipodi:guide
       position="99.937245,156.06275"
       orientation="1,0"
       id="guide10"
       inkscape:locked="false" />
    <sodipodi:guide
       position="156.06276,156.06275"
       orientation="1,0"
       id="guide11"
       inkscape:locked="false" />
    <sodipodi:guide
       position="58.290359,80.600498"
       orientation="-0.94600851,0.32414178"
       id="guide12"
       inkscape:locked="false" />
    <sodipodi:guide
       position="56.234211,181.22807"
       orientation="0.94568642,0.3250803"
       id="guide13"
       inkscape:locked="false" />
  </sodipodi:namedview>
  <path
     fill-rule="nonzero"
     fill="#000000"
     fill-opacity="1"
     d="m 71.823763,148.52757 c -2.1088,-6.49022 -11.846,-3.32642 -9.7372,3.1638 2.11001,6.49393 11.8472,3.33013 9.7372,-3.1638"
     id="path12-5-2" />
  <path
     fill-rule="nonzero"
     fill="#000000"
     fill-opacity="1"
     d="m 71.801828,104.31352 c -2.1088,-6.490221 -11.846,-3.32642 -9.7372,3.1638 2.11001,6.49393 11.8472,3.33013 9.7372,-3.1638"
     id="path12-5-2-5" />
  <path
     fill-rule="nonzero"
     fill="#000000"
     fill-opacity="1"
     d="m 102.77256,126.41678 c -2.1088,-6.49022 -11.846004,-3.32642 -9.737204,3.1638 2.11001,6.49393 11.847204,3.33013 9.737204,-3.1638"
     id="path12-5-2-56" />
  <path
     fill="none"
     stroke-width="2.56"
     stroke-linecap="butt"
     stroke-linejoin="miter"
     stroke="#000000"
     stroke-opacity="1"
     stroke-miterlimit="10"
     d="M 46.591299,209.54324 66.95532,150.11079"
     id="path14"
     sodipodi:nodetypes="cc"
     style="stroke-linecap:butt" />
  <path
     fill="none"
     stroke-width="2.56"
     stroke-linecap="butt"
     stroke-linejoin="miter"
     stroke="#000000"
     stroke-opacity="1"
     stroke-miterlimit="10"
     d="M 66.933386,105.89674 46.523954,46.523947"
     id="path14-9"
     sodipodi:nodetypes="cc"
     style="stroke-linecap:butt" />
  <path
     fill="none"
     stroke-width="2.56"
     stroke-linecap="butt"
     stroke-linejoin="miter"
     stroke="#000000"
     stroke-opacity="1"
     stroke-miterlimit="10"
     d="m 158.09589,128 -60.191777,0"
     id="path14-9-6"
     sodipodi:nodetypes="cc"
     style="stroke-linecap:butt" />
  <path
     fill="none"
     stroke-width="2.56"
     stroke-linecap="butt"
     stroke-linejoin="miter"
     stroke="#000000"
     stroke-opacity="1"
     stroke-miterlimit="10"
     d="M 189.06662,105.89674 209.47605,46.52395"
     id="path14-0"
     sodipodi:nodetypes="cc"
     style="stroke-linecap:butt" />
  <path
     fill="none"
     stroke-width="2.56"
     stroke-linecap="butt"
     stroke-linejoin="miter"
     stroke="#000000"
     stroke-opacity="1"
     stroke-miterlimit="10"
     d="m 189.06661,150.10324 20.40944,59.37281"
     id="path14-3"
     sodipodi:nodetypes="cc"
     style="stroke-linecap:butt" />
  <path
     fill="none"
     stroke-width="3.84"
     stroke-linecap="butt"
     stroke-linejoin="miter"
     stroke="#000000"
     stroke-opacity="1"
     stroke-miterlimit="10"
     d="M 237.56098,92.401479 C 217.89979,31.890546 152.91241,-1.2221751 92.401479,18.439019 31.890546,38.100213 -1.2221751,103.08759 18.439019,163.59852 c 19.661194,60.51093 84.648571,93.62366 145.159501,73.96246 60.51093,-19.66119 93.62366,-84.64857 73.96246,-145.159501"
     id="path1"
     style="stroke-width:2.56;stroke-dasharray:20.47999955,5.11999988;stroke-dashoffset:0;stroke-linecap:butt;stroke:#b3b3b3" />
  <path
     id="path11"
     style="opacity:1;vector-effect:none;fill:none;fill-rule:evenodd;stroke:#000000;stroke-width:2.56;stroke-miterlimit:10;stop-color:#000000;stop-opacity:1"
     d="M 97.904113,128 A 23.372717,23.372717 0 0 1 74.531396,151.37272 23.372717,23.372717 0 0 1 51.158679,128 23.372717,23.372717 0 0 1 74.531396,104.62728 23.372717,23.372717 0 0 1 97.904113,128 Z" />
  <path
     fill-rule="nonzero"
     fill="#000000"
     fill-opacity="1"
     d="m 193.93505,148.52002 c -2.1088,-6.49022 -11.846,-3.32642 -9.7372,3.1638 2.11002,6.49393 11.84721,3.33013 9.7372,-3.1638"
     id="path12-5-2-9" />
  <path
     fill-rule="nonzero"
     fill="#000000"
     fill-opacity="1"
     d="m 193.93505,104.31355 c -2.1088,-6.49022 -11.846,-3.32642 -9.7372,3.1638 2.11001,6.49393 11.8472,3.33013 9.7372,-3.1638"
     id="path12-5-2-5-1" />
  <path
     fill-rule="nonzero"
     fill="#000000"
     fill-opacity="1"
     d="m 162.96433,126.41678 c -2.1088,-6.49022 -11.846,-3.32642 -9.7372,3.1638 2.11001,6.49393 11.8472,3.33013 9.7372,-3.1638"
     id="path12-5-2-56-2" />
  <path
     id="path11-7"
     style="vector-effect:none;fill:none;fill-rule:evenodd;stroke:#000000;stroke-width:2.56;stroke-miterlimit:10;stop-color:#000000"
     d="M 204.84133,128 A 23.372717,23.372717 0 0 1 181.46861,151.37272 23.372717,23.372717 0 0 1 158.09589,128 23.372717,23.372717 0 0 1 181.46861,104.62728 23.372717,23.372717 0 0 1 204.84133,128 Z" />
</svg>
