<?xml version="1.0" encoding="UTF-8" standalone="no"?>
<svg
   width="454.56293pt"
   height="196.54126pt"
   viewBox="0 0 454.56293 196.54125"
   version="1.1"
   id="svg10"
   sodipodi:docname="long_jacobi_diagram_example_diff_cc.svg"
   inkscape:version="1.4.3 (0d15f75042, 2025-12-25)"
   inkscape:export-filename="/home/damian/Projects/mphil-thesis/graphics/long_jacobi_diagram_example_diff_cc.pdf"
   inkscape:export-xdpi="96"
   inkscape:export-ydpi="96"
   xmlns:inkscape="http://www.inkscape.org/namespaces/inkscape"
   xmlns:sodipodi="http://sodipodi.sourceforge.net/DTD/sodipodi-0.dtd"
   xmlns="http://www.w3.org/2000/svg"
   xmlns:svg="http://www.w3.org/2000/svg">
  <defs
     id="defs10" />
  <sodipodi:namedview
     id="namedview10"
     pagecolor="#ffffff"
     bordercolor="#000000"
     borderopacity="0.25"
     inkscape:showpageshadow="2"
     inkscape:pageopacity="0.0"
     inkscape:pagecheckerboard="0"
     inkscape:deskcolor="#d1d1d1"
     inkscape:document-units="pt"
     inkscape:zoom="2.4641147"
     inkscape:cx="233.14661"
     inkscape:cy="127.22622"
     inkscape:window-width="1916"
     inkscape:window-height="1034"
     inkscape:window-x="0"
     inkscape:window-y="0"
     inkscape:window-maximized="0"
     inkscape:current-layer="svg10"
     showguides="true">
    <sodipodi:guide
       position="242.64234,-10.503141"
       orientation="0,-1"
       id="guide6"
       inkscape:locked="false" />
    <sodipodi:guide
       position="156.41979,92.96785"
       orientation="0,-1"
       id="guide9"
       inkscape:locked="false" />
  </sodipodi:namedview>
  <rect
     style="fill:#b3b3b3;stroke:#000000;stroke-width:0.421482;stroke-linejoin:round;stroke-dasharray:none;stroke-dashoffset:0"
     id="rect1"
     width="119.17606"
     height="92.483536"
     x="116.72757"
     y="40.897522" />
  <path
     fill="none"
     stroke-width="2.56"
     stroke-linecap="butt"
     stroke-linejoin="miter"
     stroke="#000000"
     stroke-opacity="1"
     stroke-miterlimit="10"
     d="m 123.50087,175.89604 c 0,0 0.88455,-103.470993 32.91893,-103.470992"
     id="path2"
     sodipodi:nodetypes="cc" />
  <path
     fill="none"
     stroke-width="2.56"
     stroke-linecap="butt"
     stroke-linejoin="miter"
     stroke="#000000"
     stroke-opacity="1"
     stroke-miterlimit="10"
     d="m 229.13033,175.89604 c 0,0 -0.88456,-103.470992 -32.91893,-103.470992"
     id="path2-5"
     sodipodi:nodetypes="cc" />
  <path
     fill="none"
     stroke-width="2.56"
     stroke-linecap="butt"
     stroke-linejoin="miter"
     stroke="#000000"
     stroke-opacity="1"
     stroke-miterlimit="10"
     d="M 176.3156,175.89604 V 92.320848"
     id="path2-6"
     sodipodi:nodetypes="cc" />
  <path
     fill-rule="nonzero"
     fill="#000000"
     fill-opacity="1"
     d="m 127.93587,178.45659 c 3.41406,-5.91333 -5.45593,-11.03442 -8.86999,-5.1211 -3.41406,5.91333 5.45593,11.03442 8.86999,5.1211"
     id="path4" />
  <path
     fill-rule="nonzero"
     fill="#000000"
     fill-opacity="1"
     d="m 180.75059,178.45659 c 3.41406,-5.91333 -5.45593,-11.03442 -8.86999,-5.1211 -3.41406,5.91333 5.45593,11.03442 8.86999,5.1211"
     id="path4-5" />
  <path
     fill-rule="nonzero"
     fill="#000000"
     fill-opacity="1"
     d="m 233.56532,178.45659 c 3.41406,-5.91333 -5.45593,-11.03442 -8.86999,-5.1211 -3.41406,5.91333 5.45593,11.03442 8.86999,5.1211"
     id="path4-5-7" />
  <path
     fill-rule="nonzero"
     fill="#000000"
     fill-opacity="1"
     d="m 180.7506,94.881398 c 3.41406,-5.91333 -5.45593,-11.03442 -8.86999,-5.1211 -3.41406,5.91333 5.45593,11.034422 8.86999,5.1211"
     id="path4-5-6" />
  <path
     style="fill:none;stroke:#000000;stroke-width:3.84;stroke-linecap:butt;stroke-linejoin:miter;stroke-dasharray:none;stroke-opacity:1"
     d="M 4.6039839e-5,175.89604 454.56288,175.90694"
     id="path8"
     sodipodi:nodetypes="cc" />
  <circle
     style="font-variation-settings:normal;opacity:1;fill:none;fill-opacity:1;fill-rule:evenodd;stroke:#000000;stroke-width:2.56;stroke-linecap:butt;stroke-linejoin:miter;stroke-miterlimit:10;stroke-dasharray:none;stroke-dashoffset:0;stroke-opacity:1;stop-color:#000000;stop-opacity:1"
     id="path9"
     cx="176.3156"
     cy="72.425049"
     r="19.8958" />
  <path
     fill-rule="nonzero"
     fill="#000000"
     fill-opacity="1"
     d="m 200.64639,74.985598 c 3.41406,-5.91333 -5.45593,-11.03442 -8.86999,-5.1211 -3.41406,5.91333 5.45593,11.03442 8.86999,5.1211"
     id="path4-5-3" />
  <path
     fill-rule="nonzero"
     fill="#000000"
     fill-opacity="1"
     d="m 160.85477,74.985598 c 3.41406,-5.91333 -5.45593,-11.03442 -8.86999,-5.1211 -3.41406,5.91333 5.45593,11.03442 8.86999,5.1211"
     id="path4-5-5" />
  <path
     fill="none"
     stroke-width="2.56"
     stroke-linecap="butt"
     stroke-linejoin="miter"
     stroke="#000000"
     stroke-opacity="1"
     stroke-miterlimit="10"
     d="m 333.03608,72.425053 c -42.62291,-3e-6 -67.55409,-51.056702 -153.81456,-51.056702 -67.37948,0 -88.921101,12.921526 -101.369351,42.360025 -16.471343,38.952594 0.626945,83.198414 19.589412,83.198414"
     id="path2-9"
     sodipodi:nodetypes="cssc" />
  <path
     fill="none"
     stroke-width="2.56"
     stroke-linecap="butt"
     stroke-linejoin="miter"
     stroke="#000000"
     stroke-opacity="1"
     stroke-miterlimit="10"
     d="m 405.74661,175.89604 c 0,0 -0.88456,-103.470987 -32.91893,-103.470987"
     id="path2-5-4"
     sodipodi:nodetypes="cc" />
  <path
     fill="none"
     stroke-width="2.56"
     stroke-linecap="butt"
     stroke-linejoin="miter"
     stroke="#000000"
     stroke-opacity="1"
     stroke-miterlimit="10"
     d="m 200.92861,175.90698 c 0,-43.16465 152.00327,-49.17107 152.00327,-83.586128"
     id="path2-6-8"
     sodipodi:nodetypes="cc" />
  <path
     fill="none"
     stroke-width="2.56"
     stroke-linecap="butt"
     stroke-linejoin="miter"
     stroke="#000000"
     stroke-opacity="1"
     stroke-miterlimit="10"
     d="M 338.52356,86.145239 C 349.14038,76.02211 352.93187,65.619817 352.93187,52.529256"
     id="path2-6-8-8"
     sodipodi:nodetypes="cc" />
  <path
     fill-rule="nonzero"
     fill="#000000"
     fill-opacity="1"
     d="m 205.36361,178.46753 c 3.41406,-5.91333 -5.45593,-11.03442 -8.86999,-5.1211 -3.41406,5.91333 5.45593,11.03442 8.86999,5.1211"
     id="path4-5-2" />
  <path
     fill-rule="nonzero"
     fill="#000000"
     fill-opacity="1"
     d="m 410.1816,178.45659 c 3.41406,-5.91333 -5.45593,-11.03442 -8.86999,-5.1211 -3.41406,5.91333 5.45593,11.03442 8.86999,5.1211"
     id="path4-5-7-9" />
  <path
     fill-rule="nonzero"
     fill="#000000"
     fill-opacity="1"
     d="m 357.36688,94.881402 c 3.41406,-5.91333 -5.45593,-11.034419 -8.86999,-5.1211 -3.41406,5.91333 5.45593,11.034418 8.86999,5.1211"
     id="path4-5-6-3" />
  <path
     fill-rule="nonzero"
     fill="#000000"
     fill-opacity="1"
     d="m 342.95856,88.705789 c 3.41406,-5.91333 -5.45593,-11.034419 -8.86999,-5.1211 -3.41406,5.91333 5.45593,11.03442 8.86999,5.1211"
     id="path4-5-6-3-0" />
  <circle
     style="font-variation-settings:normal;fill:none;fill-opacity:1;fill-rule:evenodd;stroke:#000000;stroke-width:2.56;stroke-linecap:butt;stroke-linejoin:miter;stroke-miterlimit:10;stroke-dasharray:none;stroke-dashoffset:0;stroke-opacity:1;stop-color:#000000"
     id="path9-9"
     cx="352.93188"
     cy="72.425056"
     r="19.8958" />
  <path
     fill-rule="nonzero"
     fill="#000000"
     fill-opacity="1"
     d="m 377.26267,74.985603 c 3.41406,-5.91333 -5.45593,-11.03442 -8.86999,-5.1211 -3.41406,5.91333 5.45593,11.03442 8.86999,5.1211"
     id="path4-5-3-0" />
  <path
     fill-rule="nonzero"
     fill="#000000"
     fill-opacity="1"
     d="m 337.47105,74.985603 c 3.41406,-5.91333 -5.45593,-11.03442 -8.86999,-5.1211 -3.41406,5.91333 5.45593,11.03442 8.86999,5.1211"
     id="path4-5-5-8" />
  <path
     fill-rule="nonzero"
     fill="#000000"
     fill-opacity="1"
     d="m 357.36687,55.089806 c 3.41406,-5.91333 -5.45593,-11.034419 -8.86999,-5.1211 -3.41406,5.91333 5.45593,11.03442 8.86999,5.1211"
     id="path4-5-6-3-6" />
  <path
     style="fill:none;stroke:#000000;stroke-width:2.56;stroke-linecap:butt;stroke-linejoin:miter;stroke-dasharray:2.56, 2.56;stroke-dashoffset:0;stroke-opacity:1"
     d="M 113.50793,146.92679 H 95.094849"
     id="path1"
     sodipodi:nodetypes="cc" />
</svg>
