<?xml version="1.0" encoding="UTF-8" standalone="no"?>
<svg
   width="454.56293pt"
   height="214.65524pt"
   viewBox="0 0 454.56293 214.65523"
   version="1.1"
   id="svg10"
   sodipodi:docname="long_jacobi_diagram_example_lollipop.svg"
   inkscape:version="1.4.2 (ebf0e940d0, 2025-05-08)"
   inkscape:export-filename="/home/damian/Projects/mphil-thesis/graphics/long_jacobi_diagram_example_lollipop.pdf"
   inkscape:export-xdpi="96"
   inkscape:export-ydpi="96"
   xmlns:inkscape="http://www.inkscape.org/namespaces/inkscape"
   xmlns:sodipodi="http://sodipodi.sourceforge.net/DTD/sodipodi-0.dtd"
   xmlns="http://www.w3.org/2000/svg"
   xmlns:svg="http://www.w3.org/2000/svg">
  <defs
     id="defs10" />
  <sodipodi:namedview
     id="namedview10"
     pagecolor="#ffffff"
     bordercolor="#000000"
     borderopacity="0.25"
     inkscape:showpageshadow="2"
     inkscape:pageopacity="0.0"
     inkscape:pagecheckerboard="0"
     inkscape:deskcolor="#d1d1d1"
     inkscape:document-units="pt"
     inkscape:zoom="3.8573229"
     inkscape:cx="320.81836"
     inkscape:cy="302.15256"
     inkscape:window-width="2556"
     inkscape:window-height="1394"
     inkscape:window-x="0"
     inkscape:window-y="0"
     inkscape:window-maximized="0"
     inkscape:current-layer="svg10"
     showguides="true">
    <sodipodi:guide
       position="242.64234,16.65796"
       orientation="0,-1"
       id="guide6"
       inkscape:locked="false" />
    <sodipodi:guide
       position="156.41979,120.12895"
       orientation="0,-1"
       id="guide9"
       inkscape:locked="false" />
  </sodipodi:namedview>
  <path
     fill="none"
     stroke-width="2.56"
     stroke-linecap="butt"
     stroke-linejoin="miter"
     stroke="#000000"
     stroke-opacity="1"
     stroke-miterlimit="10"
     d="m 123.50087,194.15524 c 0,0 0.88455,-103.470992 32.91893,-103.470991"
     id="path2"
     sodipodi:nodetypes="cc" />
  <path
     fill="none"
     stroke-width="2.56"
     stroke-linecap="butt"
     stroke-linejoin="miter"
     stroke="#000000"
     stroke-opacity="1"
     stroke-miterlimit="10"
     d="m 229.13033,194.15524 c 0,0 -0.88456,-103.470991 -32.91893,-103.470991"
     id="path2-5"
     sodipodi:nodetypes="cc" />
  <path
     fill="none"
     stroke-width="2.56"
     stroke-linecap="butt"
     stroke-linejoin="miter"
     stroke="#000000"
     stroke-opacity="1"
     stroke-miterlimit="10"
     d="M 176.3156,194.15524 V 110.58005"
     id="path2-6"
     sodipodi:nodetypes="cc" />
  <path
     fill-rule="nonzero"
     fill="#000000"
     fill-opacity="1"
     d="m 127.93587,196.71579 c 3.41406,-5.91333 -5.45593,-11.03442 -8.86999,-5.1211 -3.41406,5.91333 5.45593,11.03442 8.86999,5.1211"
     id="path4" />
  <path
     fill-rule="nonzero"
     fill="#000000"
     fill-opacity="1"
     d="m 180.75059,196.71579 c 3.41406,-5.91333 -5.45593,-11.03442 -8.86999,-5.1211 -3.41406,5.91333 5.45593,11.03442 8.86999,5.1211"
     id="path4-5" />
  <path
     fill-rule="nonzero"
     fill="#000000"
     fill-opacity="1"
     d="m 233.56532,196.71579 c 3.41406,-5.91333 -5.45593,-11.03442 -8.86999,-5.1211 -3.41406,5.91333 5.45593,11.03442 8.86999,5.1211"
     id="path4-5-7" />
  <path
     fill-rule="nonzero"
     fill="#000000"
     fill-opacity="1"
     d="m 180.7506,113.1406 c 3.41406,-5.91333 -5.45593,-11.03442 -8.86999,-5.1211 -3.41406,5.91333 5.45593,11.03442 8.86999,5.1211"
     id="path4-5-6" />
  <path
     style="fill:none;stroke:#000000;stroke-width:3.84;stroke-linecap:butt;stroke-linejoin:miter;stroke-dasharray:none;stroke-opacity:1"
     d="M 4.6039839e-5,194.15524 454.56288,194.16614"
     id="path8"
     sodipodi:nodetypes="cc" />
  <circle
     style="font-variation-settings:normal;opacity:1;fill:none;fill-opacity:1;fill-rule:evenodd;stroke:#000000;stroke-width:2.56;stroke-linecap:butt;stroke-linejoin:miter;stroke-miterlimit:10;stroke-dasharray:none;stroke-dashoffset:0;stroke-opacity:1;stop-color:#000000;stop-opacity:1"
     id="path9"
     cx="176.3156"
     cy="90.68425"
     r="19.8958" />
  <path
     fill-rule="nonzero"
     fill="#000000"
     fill-opacity="1"
     d="m 200.64639,93.244799 c 3.41406,-5.91333 -5.45593,-11.03442 -8.86999,-5.1211 -3.41406,5.91333 5.45593,11.03442 8.86999,5.1211"
     id="path4-5-3" />
  <path
     fill-rule="nonzero"
     fill="#000000"
     fill-opacity="1"
     d="m 160.85477,93.244799 c 3.41406,-5.91333 -5.45593,-11.03442 -8.86999,-5.1211 -3.41406,5.91333 5.45593,11.03442 8.86999,5.1211"
     id="path4-5-5" />
  <path
     fill="none"
     stroke-width="2.56"
     stroke-linecap="butt"
     stroke-linejoin="miter"
     stroke="#000000"
     stroke-opacity="1"
     stroke-miterlimit="10"
     d="m 299.71845,41.071599 c 0,19.803357 0.1141,49.612652 33.31763,49.612655"
     id="path2-9"
     sodipodi:nodetypes="cc" />
  <path
     fill="none"
     stroke-width="2.56"
     stroke-linecap="butt"
     stroke-linejoin="miter"
     stroke="#000000"
     stroke-opacity="1"
     stroke-miterlimit="10"
     d="m 405.74661,194.15524 c 0,0 -0.88456,-103.470986 -32.91893,-103.470986"
     id="path2-5-4"
     sodipodi:nodetypes="cc" />
  <path
     fill="none"
     stroke-width="2.56"
     stroke-linecap="butt"
     stroke-linejoin="miter"
     stroke="#000000"
     stroke-opacity="1"
     stroke-miterlimit="10"
     d="m 200.92861,194.16618 c 0,-43.16465 152.00327,-49.17107 152.00327,-83.58613"
     id="path2-6-8"
     sodipodi:nodetypes="cc" />
  <path
     fill="none"
     stroke-width="2.56"
     stroke-linecap="butt"
     stroke-linejoin="miter"
     stroke="#000000"
     stroke-opacity="1"
     stroke-miterlimit="10"
     d="M 338.52356,104.40444 C 349.14038,94.281311 352.93187,83.879018 352.93187,70.788457"
     id="path2-6-8-8"
     sodipodi:nodetypes="cc" />
  <path
     fill-rule="nonzero"
     fill="#000000"
     fill-opacity="1"
     d="m 205.36361,196.72673 c 3.41406,-5.91333 -5.45593,-11.03442 -8.86999,-5.1211 -3.41406,5.91333 5.45593,11.03442 8.86999,5.1211"
     id="path4-5-2" />
  <path
     fill-rule="nonzero"
     fill="#000000"
     fill-opacity="1"
     d="m 410.1816,196.71579 c 3.41406,-5.91333 -5.45593,-11.03442 -8.86999,-5.1211 -3.41406,5.91333 5.45593,11.03442 8.86999,5.1211"
     id="path4-5-7-9" />
  <path
     fill-rule="nonzero"
     fill="#000000"
     fill-opacity="1"
     d="m 357.36688,113.1406 c 3.41406,-5.91333 -5.45593,-11.03442 -8.86999,-5.1211 -3.41406,5.91333 5.45593,11.03442 8.86999,5.1211"
     id="path4-5-6-3" />
  <path
     fill-rule="nonzero"
     fill="#000000"
     fill-opacity="1"
     d="m 342.95856,106.96499 c 3.41406,-5.91333 -5.45593,-11.034419 -8.86999,-5.1211 -3.41406,5.91333 5.45593,11.03442 8.86999,5.1211"
     id="path4-5-6-3-0" />
  <circle
     style="font-variation-settings:normal;fill:none;fill-opacity:1;fill-rule:evenodd;stroke:#000000;stroke-width:2.56;stroke-linecap:butt;stroke-linejoin:miter;stroke-miterlimit:10;stroke-dasharray:none;stroke-dashoffset:0;stroke-opacity:1;stop-color:#000000"
     id="path9-9"
     cx="352.93188"
     cy="90.684258"
     r="19.8958" />
  <circle
     style="font-variation-settings:normal;fill:none;fill-opacity:1;fill-rule:evenodd;stroke:#000000;stroke-width:2.56;stroke-linecap:butt;stroke-linejoin:miter;stroke-miterlimit:10;stroke-dasharray:none;stroke-dashoffset:0;stroke-opacity:1;stop-color:#000000"
     id="path9-9-7"
     cx="299.71844"
     cy="21.1758"
     r="19.8958" />
  <path
     fill-rule="nonzero"
     fill="#000000"
     fill-opacity="1"
     d="m 377.26267,93.244804 c 3.41406,-5.91333 -5.45593,-11.03442 -8.86999,-5.1211 -3.41406,5.91333 5.45593,11.03442 8.86999,5.1211"
     id="path4-5-3-0" />
  <path
     fill-rule="nonzero"
     fill="#000000"
     fill-opacity="1"
     d="m 337.47105,93.244804 c 3.41406,-5.91333 -5.45593,-11.03442 -8.86999,-5.1211 -3.41406,5.91333 5.45593,11.03442 8.86999,5.1211"
     id="path4-5-5-8" />
  <path
     fill-rule="nonzero"
     fill="#000000"
     fill-opacity="1"
     d="m 357.36687,73.349007 c 3.41406,-5.91333 -5.45593,-11.034419 -8.86999,-5.1211 -3.41406,5.91333 5.45593,11.03442 8.86999,5.1211"
     id="path4-5-6-3-6" />
  <path
     fill-rule="nonzero"
     fill="#000000"
     fill-opacity="1"
     d="m 304.15344,43.632149 c 3.41406,-5.91333 -5.45593,-11.034419 -8.86999,-5.1211 -3.41406,5.91333 5.45593,11.03442 8.86999,5.1211"
     id="path4-5-6-3-6-3" />
</svg>
