<?xml version="1.0" encoding="UTF-8" standalone="no"?>
<svg
   width="454.56293pt"
   height="167.47456pt"
   viewBox="0 0 454.56294 167.47456"
   version="1.1"
   id="svg10"
   sodipodi:docname="long_jacobi_diagram_example.svg"
   inkscape:version="1.4.2 (ebf0e940d0, 2025-05-08)"
   inkscape:export-filename="/home/damian/Projects/mphil-thesis/graphics/long_jacobi_diagram_example.pdf"
   inkscape:export-xdpi="96"
   inkscape:export-ydpi="96"
   xmlns:inkscape="http://www.inkscape.org/namespaces/inkscape"
   xmlns:sodipodi="http://sodipodi.sourceforge.net/DTD/sodipodi-0.dtd"
   xmlns="http://www.w3.org/2000/svg"
   xmlns:svg="http://www.w3.org/2000/svg">
  <defs
     id="defs10" />
  <sodipodi:namedview
     id="namedview10"
     pagecolor="#ffffff"
     bordercolor="#000000"
     borderopacity="0.25"
     inkscape:showpageshadow="2"
     inkscape:pageopacity="0.0"
     inkscape:pagecheckerboard="0"
     inkscape:deskcolor="#d1d1d1"
     inkscape:document-units="pt"
     inkscape:zoom="1.3637696"
     inkscape:cx="182.9488"
     inkscape:cy="120.62155"
     inkscape:window-width="2556"
     inkscape:window-height="1394"
     inkscape:window-x="0"
     inkscape:window-y="0"
     inkscape:window-maximized="0"
     inkscape:current-layer="svg10"
     showguides="true">
    <sodipodi:guide
       position="242.64235,-107.14205"
       orientation="0,-1"
       id="guide6"
       inkscape:locked="false" />
    <sodipodi:guide
       position="156.4198,-3.6710568"
       orientation="0,-1"
       id="guide9"
       inkscape:locked="false" />
    <sodipodi:guide
       position="16.843817,-33.622439"
       orientation="0,-1"
       id="guide1"
       inkscape:locked="false" />
  </sodipodi:namedview>
  <path
     fill="none"
     stroke-width="2.56"
     stroke-linecap="butt"
     stroke-linejoin="miter"
     stroke="#000000"
     stroke-opacity="1"
     stroke-miterlimit="10"
     d="m 123.50087,144.93776 c 0,0 0.88455,-103.470996 32.91893,-103.470996"
     id="path2"
     sodipodi:nodetypes="cc" />
  <path
     fill="none"
     stroke-width="2.56"
     stroke-linecap="butt"
     stroke-linejoin="miter"
     stroke="#000000"
     stroke-opacity="1"
     stroke-miterlimit="10"
     d="m 229.13033,144.93776 c 0,0 -0.88456,-103.470996 -32.91893,-103.470996"
     id="path2-5"
     sodipodi:nodetypes="cc" />
  <path
     fill="none"
     stroke-width="2.56"
     stroke-linecap="butt"
     stroke-linejoin="miter"
     stroke="#000000"
     stroke-opacity="1"
     stroke-miterlimit="10"
     d="M 176.3156,144.93776 V 61.362565"
     id="path2-6"
     sodipodi:nodetypes="cc" />
  <path
     fill-rule="nonzero"
     fill="#000000"
     fill-opacity="1"
     d="m 127.93587,147.49831 c 3.41406,-5.91333 -5.45593,-11.03442 -8.86999,-5.1211 -3.41406,5.91333 5.45593,11.03442 8.86999,5.1211"
     id="path4" />
  <path
     fill-rule="nonzero"
     fill="#000000"
     fill-opacity="1"
     d="m 180.75059,147.49831 c 3.41406,-5.91333 -5.45593,-11.03442 -8.86999,-5.1211 -3.41406,5.91333 5.45593,11.03442 8.86999,5.1211"
     id="path4-5" />
  <path
     fill-rule="nonzero"
     fill="#000000"
     fill-opacity="1"
     d="m 233.56532,147.49831 c 3.41406,-5.91333 -5.45593,-11.03442 -8.86999,-5.1211 -3.41406,5.91333 5.45593,11.03442 8.86999,5.1211"
     id="path4-5-7" />
  <path
     fill-rule="nonzero"
     fill="#000000"
     fill-opacity="1"
     d="m 180.7506,63.923115 c 3.41406,-5.91333 -5.45593,-11.03442 -8.86999,-5.1211 -3.41406,5.91333 5.45593,11.03442 8.86999,5.1211"
     id="path4-5-6" />
  <path
     style="fill:none;stroke:#000000;stroke-width:3.84;stroke-linecap:butt;stroke-linejoin:miter;stroke-dasharray:none;stroke-opacity:1"
     d="M 4.6039839e-5,144.93776 454.56288,144.94866"
     id="path8"
     sodipodi:nodetypes="cc" />
  <circle
     style="font-variation-settings:normal;opacity:1;fill:none;fill-opacity:1;fill-rule:evenodd;stroke:#000000;stroke-width:2.56;stroke-linecap:butt;stroke-linejoin:miter;stroke-miterlimit:10;stroke-dasharray:none;stroke-dashoffset:0;stroke-opacity:1;stop-color:#000000;stop-opacity:1"
     id="path9"
     cx="176.3156"
     cy="41.466766"
     r="19.8958" />
  <path
     fill-rule="nonzero"
     fill="#000000"
     fill-opacity="1"
     d="m 200.64639,44.027314 c 3.41406,-5.91333 -5.45593,-11.03442 -8.86999,-5.1211 -3.41406,5.91333 5.45593,11.034421 8.86999,5.1211"
     id="path4-5-3" />
  <path
     fill-rule="nonzero"
     fill="#000000"
     fill-opacity="1"
     d="m 160.85477,44.027314 c 3.41406,-5.91333 -5.45593,-11.03442 -8.86999,-5.1211 -3.41406,5.91333 5.45593,11.034421 8.86999,5.1211"
     id="path4-5-5" />
  <path
     fill="none"
     stroke-width="2.56"
     stroke-linecap="butt"
     stroke-linejoin="miter"
     stroke="#000000"
     stroke-opacity="1"
     stroke-miterlimit="10"
     d="m 48.791699,144.9487 c 0,-32.58432 13.659202,-122.317306 73.429221,-140.0760859 59.77001,-17.7587801 165.65082,36.4566699 210.81516,36.5941599"
     id="path2-9"
     sodipodi:nodetypes="csc" />
  <path
     fill="none"
     stroke-width="2.56"
     stroke-linecap="butt"
     stroke-linejoin="miter"
     stroke="#000000"
     stroke-opacity="1"
     stroke-miterlimit="10"
     d="m 405.74661,144.93776 c 0,0 -0.88456,-103.470986 -32.91893,-103.470986"
     id="path2-5-4"
     sodipodi:nodetypes="cc" />
  <path
     fill="none"
     stroke-width="2.56"
     stroke-linecap="butt"
     stroke-linejoin="miter"
     stroke="#000000"
     stroke-opacity="1"
     stroke-miterlimit="10"
     d="m 200.92861,144.9487 c 0,-43.16465 152.00327,-49.17107 152.00327,-83.586131"
     id="path2-6-8"
     sodipodi:nodetypes="cc" />
  <path
     fill="none"
     stroke-width="2.56"
     stroke-linecap="butt"
     stroke-linejoin="miter"
     stroke="#000000"
     stroke-opacity="1"
     stroke-miterlimit="10"
     d="M 338.52356,55.186956 C 349.14038,45.063827 352.93187,34.661534 352.93187,21.570974"
     id="path2-6-8-8"
     sodipodi:nodetypes="cc" />
  <path
     fill-rule="nonzero"
     fill="#000000"
     fill-opacity="1"
     d="m 53.226694,147.50925 c 3.41406,-5.91333 -5.45593,-11.03442 -8.86999,-5.1211 -3.41406,5.91333 5.45593,11.03442 8.86999,5.1211"
     id="path4-1" />
  <path
     fill-rule="nonzero"
     fill="#000000"
     fill-opacity="1"
     d="m 205.36361,147.50925 c 3.41406,-5.91333 -5.45593,-11.03442 -8.86999,-5.1211 -3.41406,5.91333 5.45593,11.03442 8.86999,5.1211"
     id="path4-5-2" />
  <path
     fill-rule="nonzero"
     fill="#000000"
     fill-opacity="1"
     d="m 410.1816,147.49831 c 3.41406,-5.91333 -5.45593,-11.03442 -8.86999,-5.1211 -3.41406,5.91333 5.45593,11.03442 8.86999,5.1211"
     id="path4-5-7-9" />
  <path
     fill-rule="nonzero"
     fill="#000000"
     fill-opacity="1"
     d="m 357.36688,63.923119 c 3.41406,-5.91333 -5.45593,-11.034419 -8.86999,-5.1211 -3.41406,5.91333 5.45593,11.03442 8.86999,5.1211"
     id="path4-5-6-3" />
  <path
     fill-rule="nonzero"
     fill="#000000"
     fill-opacity="1"
     d="m 342.95856,57.747506 c 3.41406,-5.91333 -5.45593,-11.034419 -8.86999,-5.1211 -3.41406,5.91333 5.45593,11.03442 8.86999,5.1211"
     id="path4-5-6-3-0" />
  <circle
     style="font-variation-settings:normal;fill:none;fill-opacity:1;fill-rule:evenodd;stroke:#000000;stroke-width:2.56;stroke-linecap:butt;stroke-linejoin:miter;stroke-miterlimit:10;stroke-dasharray:none;stroke-dashoffset:0;stroke-opacity:1;stop-color:#000000"
     id="path9-9"
     cx="352.93188"
     cy="41.466774"
     r="19.8958" />
  <path
     fill-rule="nonzero"
     fill="#000000"
     fill-opacity="1"
     d="m 377.26267,44.027324 c 3.41406,-5.91333 -5.45593,-11.03442 -8.86999,-5.1211 -3.41406,5.91333 5.45593,11.034416 8.86999,5.1211"
     id="path4-5-3-0" />
  <path
     fill-rule="nonzero"
     fill="#000000"
     fill-opacity="1"
     d="m 337.47105,44.027324 c 3.41406,-5.91333 -5.45593,-11.03442 -8.86999,-5.1211 -3.41406,5.91333 5.45593,11.034416 8.86999,5.1211"
     id="path4-5-5-8" />
  <path
     fill-rule="nonzero"
     fill="#000000"
     fill-opacity="1"
     d="m 357.36687,24.131524 c 3.41406,-5.91333 -5.45593,-11.03442 -8.86999,-5.1211 -3.41406,5.91333 5.45593,11.03442 8.86999,5.1211"
     id="path4-5-6-3-6" />
  <path
     sodipodi:type="star"
     style="fill:#000000;fill-opacity:1;stroke:none;stroke-width:2.56;stroke-linejoin:round;stroke-dashoffset:17.7493"
     id="path1"
     inkscape:flatsided="false"
     sodipodi:sides="5"
     sodipodi:cx="16.498388"
     sodipodi:cy="53.069817"
     sodipodi:r1="3.8156312"
     sodipodi:r2="1.699535"
     sodipodi:arg1="0.94308787"
     sodipodi:arg2="1.5714063"
     inkscape:rounded="0"
     inkscape:randomized="0"
     d="m 18.739276,56.158095 -2.241924,-1.388744 -2.243618,1.386007 0.62798,-2.561342 -2.011487,-1.705508 2.630039,-0.194253 1.00045,-2.440069 0.997472,2.441287 2.6298,0.197463 -2.013567,1.703052 z"
     inkscape:transform-center-x="-0.18249387"
     inkscape:transform-center-y="-0.36298764"
     transform="matrix(1.6621542,0,0,1.6621542,21.367638,74.131146)" />
</svg>
