<?xml version="1.0" encoding="UTF-8" standalone="no"?>
<!-- Created with Inkscape (http://www.inkscape.org/) -->

<svg
   width="243.00064mm"
   height="104.51683mm"
   viewBox="0 0 243.00064 104.51683"
   version="1.1"
   id="svg1"
   inkscape:version="1.4.2 (ebf0e940d0, 2025-05-08)"
   sodipodi:docname="one_term_isotopy_singularity.svg"
   inkscape:export-filename="../one_term_isotopy_singularity.pdf"
   inkscape:export-xdpi="96"
   inkscape:export-ydpi="96"
   xmlns:inkscape="http://www.inkscape.org/namespaces/inkscape"
   xmlns:sodipodi="http://sodipodi.sourceforge.net/DTD/sodipodi-0.dtd"
   xmlns="http://www.w3.org/2000/svg"
   xmlns:svg="http://www.w3.org/2000/svg">
  <sodipodi:namedview
     id="namedview1"
     pagecolor="#ffffff"
     bordercolor="#000000"
     borderopacity="0.25"
     inkscape:showpageshadow="2"
     inkscape:pageopacity="0.0"
     inkscape:pagecheckerboard="0"
     inkscape:deskcolor="#d1d1d1"
     inkscape:document-units="mm"
     inkscape:zoom="1.4142136"
     inkscape:cx="444.41661"
     inkscape:cy="206.12163"
     inkscape:window-width="2556"
     inkscape:window-height="1394"
     inkscape:window-x="0"
     inkscape:window-y="0"
     inkscape:window-maximized="0"
     inkscape:current-layer="svg1" />
  <defs
     id="defs1">
    <inkscape:path-effect
       effect="knot"
       id="path-effect5"
       is_visible="true"
       lpeversion="1"
       switcher_size="15"
       interruption_width="3"
       prop_to_stroke_width="true"
       add_stroke_width="inkscape_1.0_and_up"
       both="false"
       inverse_width="false"
       add_other_stroke_width="inkscape_1.0_and_up"
       crossing_points_vector="147.69227 | 228.10066 | 0 | 0 | 0 | 3 | 2.0772964 | 4.856608 | -1 | 183.87451 | 219.38657 | 0 | 0 | 1 | 14 | 2.6053068 | 15.899405 | 1 | 194.03498 | 234.67515 | 0 | 0 | 2 | 13 | 3.4672829 | 15.301923 | 1 | 149.52138 | 195.77685 | 0 | 0 | 4 | 9 | 5.6955013 | 10.279427 | -1 | 150.28807 | 182.88832 | 0 | 0 | 5 | 10 | 5.9942621 | 11.658389 | -1 | 164.44029 | 150.06844 | 0 | 0 | 6 | 17 | 6.8331807 | 17.33806 | -1 | 211.85134 | 182.06603 | 0 | 0 | 7 | 12 | 8.1490625 | 13.217689 | 1 | 183.60464 | 204.21067 | 0 | 0 | 8 | 15 | 8.9529358 | 16.212815 | 1 | 182.89257 | 177.24923 | 0 | 0 | 11 | 16 | 12.375947 | 16.673948 | 1 | 75.048583 | 177.99866 | 0 | 0 | 18 | 23 | 22.030057 | 26.546989 | -1 | 43.206528 | 189.38336 | 0 | 0 | 19 | 28 | 22.662145 | 32.955 | -1 | 23.47175 | 202.86524 | 0 | 0 | 20 | 25 | 23.329814 | 28.614916 | 1 | 7.6128182 | 224.54536 | 0 | 0 | 21 | 26 | 24.357828 | 29.4946 | 1 | 71.947924 | 211.80121 | 0 | 0 | 22 | 29 | 26.09141 | 33.988111 | -1 | 14.413563 | 169.70656 | 0 | 0 | 24 | 27 | 28.134268 | 32.010193 | 1" />
    <inkscape:path-effect
       effect="knot"
       id="path-effect2"
       is_visible="true"
       lpeversion="1"
       switcher_size="15"
       interruption_width="3"
       prop_to_stroke_width="true"
       add_stroke_width="inkscape_1.0_and_up"
       both="false"
       inverse_width="false"
       add_other_stroke_width="inkscape_1.0_and_up"
       crossing_points_vector="147.69227 | 228.10066 | 0 | 0 | 0 | 3 | 2.0772964 | 4.856608 | -1 | 183.87451 | 219.38657 | 0 | 0 | 1 | 14 | 2.6053068 | 15.899405 | 1 | 194.03498 | 234.67515 | 0 | 0 | 2 | 13 | 3.4672829 | 15.301923 | 1 | 149.52138 | 195.77685 | 0 | 0 | 4 | 9 | 5.6955013 | 10.279427 | -1 | 150.28807 | 182.88832 | 0 | 0 | 5 | 10 | 5.9942621 | 11.658389 | -1 | 164.44029 | 150.06844 | 0 | 0 | 6 | 17 | 6.8331807 | 17.33806 | -1 | 211.85134 | 182.06603 | 0 | 0 | 7 | 12 | 8.1490625 | 13.217689 | 1 | 183.60464 | 204.21067 | 0 | 0 | 8 | 15 | 8.9529358 | 16.212815 | 1 | 182.89257 | 177.24923 | 0 | 0 | 11 | 16 | 12.375947 | 16.673948 | 1 | 75.048583 | 177.99866 | 0 | 0 | 18 | 23 | 22.030057 | 26.546989 | -1 | 43.206528 | 189.38336 | 0 | 0 | 19 | 28 | 22.662145 | 32.955 | -1 | 23.47175 | 202.86524 | 0 | 0 | 20 | 25 | 23.329814 | 28.614916 | 1 | 7.6128182 | 224.54536 | 0 | 0 | 21 | 26 | 24.357828 | 29.4946 | 1 | 71.947924 | 211.80121 | 0 | 0 | 22 | 29 | 26.09141 | 33.988111 | -1 | 14.413563 | 169.70656 | 0 | 0 | 24 | 27 | 28.134268 | 32.010193 | 1" />
    <inkscape:path-effect
       effect="knot"
       id="path-effect4"
       is_visible="true"
       lpeversion="1"
       switcher_size="15"
       interruption_width="3"
       prop_to_stroke_width="true"
       add_stroke_width="inkscape_1.0_and_up"
       both="false"
       inverse_width="false"
       add_other_stroke_width="inkscape_1.0_and_up"
       crossing_points_vector="147.69227 | 228.10066 | 0 | 0 | 0 | 3 | 2.0772964 | 4.856608 | -1 | 183.87451 | 219.38657 | 0 | 0 | 1 | 14 | 2.6053068 | 15.899405 | 1 | 194.03498 | 234.67515 | 0 | 0 | 2 | 13 | 3.4672829 | 15.301923 | 1 | 149.52138 | 195.77685 | 0 | 0 | 4 | 9 | 5.6955013 | 10.279427 | -1 | 150.28807 | 182.88832 | 0 | 0 | 5 | 10 | 5.9942621 | 11.658389 | -1 | 164.44029 | 150.06844 | 0 | 0 | 6 | 17 | 6.8331807 | 17.33806 | -1 | 211.85134 | 182.06603 | 0 | 0 | 7 | 12 | 8.1490625 | 13.217689 | 1 | 183.60464 | 204.21067 | 0 | 0 | 8 | 15 | 8.9529358 | 16.212815 | 1 | 182.89257 | 177.24923 | 0 | 0 | 11 | 16 | 12.375947 | 16.673948 | 1 | 75.048583 | 177.99866 | 0 | 0 | 18 | 23 | 22.030057 | 26.546989 | -1 | 43.206528 | 189.38336 | 0 | 0 | 19 | 28 | 22.662145 | 32.955 | -1 | 23.47175 | 202.86524 | 0 | 0 | 20 | 25 | 23.329814 | 28.614916 | 1 | 7.6128182 | 224.54536 | 0 | 0 | 21 | 26 | 24.357828 | 29.4946 | 1 | 71.947924 | 211.80121 | 0 | 0 | 22 | 29 | 26.09141 | 33.988111 | -1 | 14.413563 | 169.70656 | 0 | 0 | 24 | 27 | 28.134268 | 32.010193 | 1" />
  </defs>
  <path
     id="path3"
     style="display:none;opacity:0.678832;fill:none;stroke:#ff9955;stroke-width:4;stroke-dasharray:none"
     inkscape:label="knots_thick"
     d="m 119.07182,167.95771 c 3.04048,-5.39869 7.91531,-9.85427 13.56139,-13.89272 12.7067,-9.08867 35.01085,-9.79763 46.08092,8.34355 6.81628,11.17024 4.57296,37.42639 4.82243,52.89356 0.22964,14.23762 9.64484,21.50953 18.21804,21.05026 9.88017,-0.52929 23.13976,-9.49143 23.34665,-24.80103 0.22964,-16.9933 -9.00734,-28.78875 -20.20826,-33.60387 -8.40992,-3.61531 -23.32456,-0.61121 -39.21409,2.16783 -15.88953,2.77904 -30.76375,5.10338 -31.13204,9.08449 -0.23246,2.51285 14.06515,5.90668 23.76598,9.57398 9.79849,3.70422 14.08621,6.00319 23.15696,5.58221 15.06362,-0.69912 31.61367,-8.26701 31.30748,-31.76675 -0.30619,-23.49975 -23.49974,-34.36933 -43.40181,-25.18376 -9.95103,4.59278 -19.97447,12.99638 -19.09831,35.1922 0.66871,16.9406 -4.81406,24.27733 -4.24834,35.30702 1.37905,26.88719 21.5775,30.73238 29.85309,28.85799 9.68365,-2.19331 28.03166,-18.45353 23.95902,-26.33196 -4.9011,-9.48108 -36.51262,9.18557 -57.1036,7.65464 -4.68703,-0.34848 -12.34468,-2.25311 -19.1883,-7.47791 -10.31796,-7.8773 -8.61161,-15.78666 -16.62655,-23.79572 -7.164447,-7.15919 -13.022809,-16.0175 -30.276277,-18.48939 -17.99769,-2.57851 -36.894249,14.16143 -44.906635,19.75147 -8.012389,5.59004 -17.701799,8.0124 -23.2918432,15.46579 -5.5900405,7.45339 3.9824802,25.70317 14.3477812,29.81355 10.807407,4.2857 40.620943,-0.559 47.32899,-24.40984 7.299114,-25.95246 7.639714,-53.47807 -3.913027,-63.91281 -11.552744,-10.43475 -41.925284,-11.36642 -50.124016,6.70805 -8.198732,18.07447 16.583793,50.49671 10.248411,60.74512 -6.335381,10.24841 -32.2133094,-2.78621 -36.1489333,-6.52172 -10.9937467,-10.43474 -6.3911697,-24.99004 0.5590057,-33.72658 6.5056214,-8.17774 16.7701165,-11.92543 23.1054966,-12.48443 18.488835,-1.63136 26.645848,14.5341 29.813538,20.49682 3.167687,5.96271 11.946927,20.68338 28.881872,21.61483 13.217485,0.72698 26.720849,-5.57679 34.375637,-15.05086 8.11669,-10.04575 5.29842,-16.68946 12.14934,-28.85401 z"
     sodipodi:nodetypes="sssssssssssssssssssssssssssssssssss"
     transform="translate(17.145212,-143.40436)"
     sodipodi:insensitive="true" />
  <circle
     style="fill:#000000;stroke:none;stroke-width:1.5;image-rendering:auto"
     id="path19"
     cx="92.218361"
     cy="34.905903"
     r="3" />
  <circle
     style="fill:#000000;stroke:none;stroke-width:1.5;image-rendering:auto"
     id="path19-9"
     cx="124.13882"
     cy="53.539093"
     r="3" />
  <circle
     style="fill:#000000;stroke:none;stroke-width:1.5;image-rendering:auto"
     id="path19-2"
     cx="40.60601"
     cy="59.431355"
     r="3" />
  <circle
     style="fill:#000000;stroke:none;stroke-width:1.5;image-rendering:auto"
     id="path19-3"
     cx="201.05914"
     cy="76.230537"
     r="3" />
  <circle
     style="fill:#000000;stroke:none;stroke-width:1.5;image-rendering:auto"
     id="path19-26"
     cx="167.46812"
     cy="39.477024"
     r="3" />
  <path
     style="baseline-shift:baseline;display:inline;overflow:visible;opacity:1;vector-effect:none;enable-background:accumulate;stop-color:#000000;stop-opacity:1"
     d="m 184.52539,143.41016 c -5.09276,-0.0966 -10.3879,0.97125 -15.46484,3.31445 -4.89273,2.25818 -9.86511,5.45782 -13.57227,10.75391 -3.70716,5.29609 -6.12052,12.65994 -6.01172,23.13476 l 1.5,-0.0156 c -0.10634,-10.23831 2.23136,-17.24696 5.74024,-22.25977 3.50887,-5.01281 8.21766,-8.05734 12.97265,-10.25195 9.74819,-4.49916 20.27555,-4.07254 28.37891,0.31445 8.10336,4.38699 13.80908,12.69452 13.95898,24.19922 0.0322,2.47074 -0.1248,4.75651 -0.44726,6.86914 l 1.39698,0.76058 c 0.33585,-2.20033 0.58346,-5.1029 0.55028,-7.64925 -0.15629,-11.99505 -6.20061,-20.87366 -14.74609,-25.5 -4.27274,-2.31317 -9.1631,-3.57334 -14.25586,-3.66992 z m -144.687499,3.53515 c -10.239278,0.73477 -20.188298,5.12543 -24.433594,14.48438 -0.841417,1.85494 -1.414619,4.13903 -1.651954,6.22031 l 1.558204,-0.12461 c 0.222415,-1.95043 0.691033,-3.78358 1.458984,-5.47656 3.953436,-8.71553 13.29092,-12.89809 23.175781,-13.60742 9.884862,-0.70933 20.221679,2.1408 25.763672,7.14648 4.869362,4.39814 7.632458,12.11705 8.519532,21.63867 0.887073,9.52162 -0.110951,20.98702 -2.548705,32.40228 l 1.488158,0.13093 c 2.462747,-11.5323 3.461291,-22.94063 2.554687,-32.67188 -0.906604,-9.73125 -3.704969,-17.82361 -9.007812,-22.61328 -6.010751,-5.42907 -16.637676,-8.26406 -26.876953,-7.5293 z m 65.282939,50.82034 c -0.5119,0.55434 -1.29644,1.37062 -1.84933,1.89833 -1.10579,1.05541 -2.29054,2.05566 -3.542172,2.99314 -1.251634,0.93749 -2.570149,1.81221 -3.943457,2.61658 -1.373307,0.80437 -2.801408,1.53839 -4.272213,2.19445 -1.470804,0.65607 -2.984313,1.23418 -4.528437,1.72675 -1.544124,0.49257 -3.118863,0.8996 -4.712129,1.21349 -1.593265,0.31388 -3.205058,0.53463 -4.823287,0.65465 -1.61823,0.12001 -3.242898,0.13929 -4.861914,0.0502 C 57.224157,210.26825 48.708063,197.75453 45.064453,191.25 l -1.308594,0.73242 c 3.729915,6.6586 12.607745,19.74107 28.75,20.62891 1.685355,0.0927 3.374003,0.074 5.054068,-0.0486 1.680064,-0.12258 3.351546,-0.34905 5.002567,-0.67194 1.651021,-0.32288 3.281583,-0.74218 4.879808,-1.2504 1.598224,-0.50822 3.164113,-1.10537 4.685788,-1.78396 1.521675,-0.67859 2.999137,-1.43862 4.420509,-2.27261 1.421373,-0.83399 2.786655,-1.74193 4.083971,-2.71635 1.29732,-0.97442 2.52667,-2.01531 3.67617,-3.11519 0.57476,-0.54994 1.36341,-1.41864 1.89676,-1.99714 m 2.55182,-3.10513 c 0.43592,-0.61713 1.00919,-1.47518 1.37399,-2.07314 0.36479,-0.59795 0.6965,-1.18721 1.0001,-1.76955 0.30359,-0.58235 0.57907,-1.15777 0.8314,-1.72805 0.25233,-0.57028 0.48151,-1.13541 0.6925,-1.69718 0.21099,-0.56177 0.4038,-1.12017 0.58338,-1.67698 0.17959,-0.55682 0.34595,-1.11204 0.50406,-1.66744 0.15811,-0.55541 0.30796,-1.11101 0.45452,-1.66856 1.17249,-4.46044 2.15211,-9.04987 5.52734,-15.04297 2.95886,-5.25377 7.74579,-9.64496 13.3457,-13.65039 7.51997,-5.37878 18.42718,-7.84033 28.30573,-4.9095 l 1.35666,-1.13737 c -2.59508,-0.76992 -6.04394,-1.41838 -8.70145,-1.53125 -7.97253,-0.33863 -15.90001,2.11305 -21.83398,6.35742 -5.69225,4.07147 -10.6572,8.59115 -13.7793,14.13476 -3.47569,6.17146 -4.51161,10.98445 -5.67188,15.39844 -0.14503,0.55175 -0.29171,1.09719 -0.44511,1.63891 -0.15341,0.54172 -0.31356,1.07972 -0.48554,1.61656 -0.17199,0.53685 -0.35581,1.07255 -0.55657,1.60968 -0.20075,0.53713 -0.41845,1.07568 -0.65818,1.61825 -0.23973,0.54257 -0.50149,1.08914 -0.79039,1.6423 -0.2889,0.55316 -0.60494,1.11291 -0.95321,1.68182 -0.34827,0.56891 -0.79894,1.19375 -1.21678,1.78356 m 59.58039,-44.05788 -1.33138,1.01485 c 4.42648,2.28712 9.07063,6.15896 12.1849,11.2625 2.43216,3.98572 3.72679,10.18636 4.3418,17.17578 0.615,6.98942 0.596,15.0008 0.49401,22.19786 l 1.47864,-0.21347 c 0.10212,-7.20641 0.1455,-15.02344 -0.47851,-22.11523 -0.62401,-7.09179 -1.89247,-13.46023 -4.55664,-17.82617 -3.25104,-5.32767 -7.46977,-9.08674 -12.13282,-11.4961 z M 13.785156,169.00391 c -6.5570822,0.57856 -16.9515528,4.37251 -23.6269529,12.76367 -3.5512031,4.46395 -6.5010901,10.39547 -7.1660151,16.61523 -0.664926,6.21977 1.016662,12.74983 6.677734,18.12305 1.0100298,0.95867 3.0085265,2.24802 5.6699218,3.67383 2.6613952,1.42581 6.7564725,3.24998 10.2302173,4.50326 L 5.2792969,222.9707 c -3.393751,-1.22441 -6.6319909,-2.72117 -9.2304688,-4.11328 -2.5984779,-1.3921 -4.5868304,-2.71916 -5.3457031,-3.43945 -5.332675,-5.06152 -6.846174,-11.02625 -6.220703,-16.87695 0.62547,-5.85071 3.450637,-11.5653 6.8496092,-15.8379 6.3358427,-7.96432 16.4722598,-11.66563 22.5859378,-12.20507 7.90919,-0.69787 13.801878,1.92015 18.269531,5.59179 4.467653,3.67165 7.472358,8.41496 9.416016,11.91016 l 1.310546,-0.72852 c -1.981846,-3.56387 -5.072066,-8.47807 -9.773437,-12.34179 -4.701371,-3.86373 -11.050456,-6.65858 -19.355469,-5.92578 z m 1.41211,2.77447 -1.498047,0.21969 c 0.476296,9.29669 4.806044,19.83354 8.314453,29.11328 1.754204,4.63987 3.306045,8.96404 4.083984,12.59961 0.777939,3.63557 0.742848,6.52955 -0.40039,8.3789 -1.255136,2.03037 -3.330475,3.04875 -6.029297,3.37891 -2.698822,0.33016 -6.742122,-0.26195 -10.0964932,-1.11289 l 0.7636842,1.66654 c 3.465783,0.87918 6.526194,1.30215 9.514449,0.93658 2.988256,-0.36556 5.592737,-1.60141 7.125,-4.08007 1.488907,-2.40853 1.401901,-5.68741 0.589844,-9.48243 -0.812057,-3.79501 -2.388945,-8.1606 -4.148437,-12.81445 -3.518984,-9.3077 -8.21875,-19.90618 -8.21875,-28.80365 z m 181.044924,3.7724 c -3.39797,-0.11276 -7.17266,0.17064 -11.20899,0.66406 l 0.18164,1.48828 c 7.98115,-0.97565 14.82293,-1.02663 19.38282,0.9336 10.93008,4.69869 19.97981,16.18739 19.7539,32.9043 -0.10054,7.44031 -3.35749,13.30054 -7.80469,17.40234 -4.44719,4.10179 -10.09984,6.40665 -14.83203,6.66016 -1.73229,0.0928 -3.5067,-0.14722 -5.22851,-0.7168 l -1.08999,1.28789 c 1.89403,0.62654 4.47365,1.03007 6.39858,0.92695 5.14799,-0.27578 11.06516,-2.71764 15.76953,-7.05664 4.70437,-4.339 8.18077,-10.61509 8.28711,-18.48437 0.23338,-17.2697 -9.19035,-29.37119 -20.66211,-34.30274 -2.5281,-1.0868 -5.5493,-1.59427 -8.94726,-1.70703 z m -15.68946,1.27734 c -4.78303,0.71817 -9.84642,1.6468 -15.0039,2.54883 -7.9406,1.38879 -15.63652,2.66301 -21.4375,4.10157 -2.90049,0.71927 -5.32327,1.47422 -7.10547,2.33789 -0.8911,0.43183 -1.62524,0.88872 -2.18359,1.41992 -0.55836,0.53119 -0.95443,1.16968 -1.02149,1.89453 -0.0406,0.43942 0.13402,0.84177 0.37109,1.1543 0.23708,0.31252 0.54509,0.57277 0.91211,0.82812 0.73406,0.51071 1.72286,0.99606 2.92579,1.5 2.40584,1.00789 5.91069,2.12977 9.37005,3.24206 l 0.20416,-1.48815 c -3.45479,-1.11083 -6.68727,-2.1703 -8.99414,-3.13672 -1.15343,-0.48321 -2.07777,-0.94927 -2.65039,-1.34766 -0.2863,-0.19919 -0.48084,-0.38338 -0.57226,-0.5039 -0.0914,-0.12053 -0.0715,-0.13857 -0.0742,-0.10938 0.025,-0.27042 0.17486,-0.57653 0.5625,-0.94531 0.38764,-0.36878 1.00127,-0.76886 1.80469,-1.1582 1.60684,-0.77869 3.9622,-1.52365 6.8125,-2.23047 5.70058,-1.41366 13.387,-2.69179 21.33593,-4.08203 5.16521,-0.90339 10.21764,-1.82795 14.9668,-2.54102 z m -107.757808,0.47657 c -8.610891,0.007 -17.121125,3.78649 -24.416016,8.17578 -7.29489,4.38929 -13.403993,9.42198 -17.068359,11.97851 -1.973365,1.37677 -4.063378,2.56654 -6.181641,3.69336 l 0.705078,1.32422 c 2.143303,-1.14014 4.285673,-2.35805 6.333985,-3.78711 3.778077,-2.63587 9.806814,-7.60513 16.984375,-11.92383 7.177561,-4.31869 15.474554,-7.95385 23.644531,-7.96093 z m 32.003908,18.40234 c 0,0 1.14483,1.10519 1.65975,1.65114 0.51492,0.54595 1.43205,1.61058 1.43205,1.61058 L 109.03711,198 l -3.1543,-3.32813 m 0,0 C 99.492654,187.98513 93.121812,180.12879 77.455078,177.68555 l -0.230469,1.48242 c 15.249998,2.37825 21.120995,9.78632 27.574221,16.53906 m 105.88665,-12.02725 c -2.16324,6.98181 -6.59209,12.17609 -11.81634,15.21866 -5.22425,3.04256 -11.43851,4.43074 -17.43359,4.70898 -8.9335,0.41461 -13.03062,-1.82023 -22.85743,-5.53515 -2.07973,-0.78623 -4.53927,-1.65319 -6.8375,-2.40365 l -0.28554,1.52279 c 2.28847,0.74727 4.54813,1.51061 6.59179,2.2832 9.77018,3.69351 14.24904,6.05821 23.45704,5.63086 6.17687,-0.28668 12.62024,-1.70764 18.11914,-4.91016 5.4989,-3.20252 10.04007,-8.2146 12.3125,-15.54883 z m -59.6015,1.49014 -1.5,0.006 c 0.0281,7.489 -1.16582,12.97471 -2.31445,17.95117 -1.14863,4.97647 -2.26476,9.46402 -1.99023,14.81641 0.15203,2.96424 0.53136,5.65981 1.09765,8.10742 l 1.51434,-0.007 c -0.54483,-2.35483 -0.96604,-5.29314 -1.11395,-8.17679 -0.26166,-5.10164 0.80323,-9.41191 1.95508,-14.40235 1.15185,-4.99044 2.38022,-10.64331 2.35156,-18.29492 z M 109.03711,198 l -1.14648,0.96875 m 0,0 c 3.05822,3.61405 4.39638,7.21889 6.20117,10.94531 1.80478,3.72642 4.09816,7.54524 9.00195,11.28906 6.98823,5.33521 14.75959,7.27188 19.58789,7.63086 12.02075,0.89374 27.35273,-4.85263 39.20703,-8.13671 L 181.48828,219.25 c -11.96278,3.31414 -27.25134,8.93874 -38.69531,8.08789 -4.54576,-0.33798 -12.09005,-2.21177 -18.78906,-7.32617 -4.69525,-3.58461 -6.79794,-7.10858 -8.5625,-10.75195 -1.76457,-3.64338 -3.16813,-7.43543 -6.4043,-11.25977 m -87.923829,5.24023 c -4.986867,2.58916 -9.842963,5.28607 -13.2656248,9.84961 -1.547304,2.06308 -2.0057428,4.80136 -1.7207031,7.7461 0.2850398,2.94474 1.3120981,6.12755 2.8398438,9.19726 3.0554911,6.13944 8.0900591,11.85135 13.5527341,14.01758 5.713404,2.26566 15.94401,2.06609 25.744141,-1.65039 9.800131,-3.71648 19.153185,-11.06245 22.582031,-23.25391 0.460614,-1.63774 0.990693,-3.45296 1.394951,-5.09862 L 70.6875,213.86133 c -0.400267,1.62941 -0.829035,3.25714 -1.285156,4.8789 -3.279201,11.65939 -12.186375,18.66066 -21.671875,22.25782 -9.485501,3.59716 -19.5642,3.67824 -24.658203,1.6582 -4.902626,-1.94415 -9.837135,-7.41462 -12.761719,-13.29102 -1.4622922,-2.9382 -2.4279286,-5.97202 -2.6894533,-8.67382 -0.2615246,-2.70181 0.1780651,-5.03755 1.4257813,-6.70118 3.183016,-4.24402 7.795649,-6.84265 12.755859,-9.41796 z m 161.707029,3.22266 c -0.046,3.17729 -0.0764,6.17011 -0.0332,8.85156 0.14455,8.96225 3.87241,15.34355 8.84375,18.79688 l 1.03672,-1.02096 c -4.55142,-3.16163 -8.2424,-9.24077 -8.38047,-17.80131 -0.0428,-2.65174 -0.0128,-5.82348 0.0332,-8.99694 z m 12.10156,10.55664 c -2.50767,-0.18236 -5.56219,0.28971 -9.02343,1.0957 l 0.33984,1.46094 c 3.3942,-0.79038 6.34912,-1.2225 8.57617,-1.06055 2.22705,0.16196 3.62427,0.83772 4.35938,2.25977 0.86434,1.67205 0.57363,3.90373 -0.66992,6.45703 -1.24356,2.55331 -3.41184,5.34546 -6.01563,7.9668 -5.20758,5.24268 -12.21956,9.80104 -16.77148,10.83203 -3.19775,0.72428 -8.47308,0.5513 -13.59375,-1.72266 -5.12068,-2.27395 -10.11854,-6.60277 -12.98828,-14.26172 l -1.58587,0.14286 c 3.00635,8.02355 8.52563,13.07458 13.96477,15.48996 5.43914,2.41537 10.94867,2.62633 14.5332,1.81445 5.13174,-1.16232 12.13668,-5.83096 17.50586,-11.23633 2.68459,-2.70268 4.94495,-5.5893 6.29883,-8.36914 1.35389,-2.77984 1.82823,-5.53557 0.65625,-7.80273 -1.01699,-1.96735 -3.07826,-2.88405 -5.58594,-3.06641 z"
     id="path1"
     transform="translate(17.145212,-143.40436)"
     inkscape:label="knots"
     sodipodi:nodetypes="sssccssssccssssssccssssccssscssssssssccssssssssccsssssssssccsssssssssscccssccsssccssssccscssssccscccssssccssssscsccssssccssssscsssscsssccssscsssscccssccssccczccccccccsssccsssccccssccsssccccsssccsssccssssssccssssssccccccsccsccssssssccssssss" />
  <path
     id="path2"
     style="display:none;opacity:1;fill:none;stroke:#000000;stroke-width:1.5;stroke-dasharray:none"
     inkscape:label="knots_backup"
     d="m 44.411093,191.61655 c 3.686762,6.58156 12.382756,19.37959 28.13575,20.24603 13.217485,0.72698 26.720849,-5.57679 34.375637,-15.05086 8.11669,-10.04575 5.29842,-16.68946 12.14934,-28.85401 3.04048,-5.39869 7.91531,-9.85427 13.56139,-13.89272 7.71597,-5.51897 18.97085,-7.94804 29.10028,-4.94278 m 5.142,2.06497 c 4.54476,2.34824 8.65599,6.00576 11.83864,11.22136 5.09633,8.35166 5.12825,25.13652 4.92413,39.53999 m -0.0677,4.52431 c -0.046,3.17538 -0.0771,6.16266 -0.034,8.82926 0.14131,8.76139 3.76101,14.88502 8.52239,18.1925 m 4.19221,2.1039 c 1.80792,0.59806 3.67483,0.85182 5.50344,0.75386 9.88017,-0.52929 23.13976,-9.49143 23.34665,-24.80103 0.22964,-16.9933 -9.00734,-28.78875 -20.20826,-33.60387 -4.80805,-2.06691 -11.74219,-1.97025 -19.76909,-0.989 m -4.45908,0.61205 c -4.76609,0.71562 -9.82458,1.64207 -14.98592,2.54478 -15.88953,2.77904 -30.76375,5.10338 -31.13204,9.08449 -0.1518,1.64093 5.89246,3.65754 12.80661,5.88066 m 4.335,1.398 c 2.29334,0.74886 4.56267,1.51592 6.62437,2.29532 9.79849,3.70422 14.08621,6.00319 23.15696,5.58221 12.17196,-0.56491 25.31445,-5.61461 29.75012,-19.93065 m 1.10149,-4.84407 c 0.32916,-2.15648 0.48856,-4.48348 0.45587,-6.99203 -0.30619,-23.49975 -23.49974,-34.36933 -43.40181,-25.18376 -9.64772,4.45279 -19.36351,12.48763 -19.14836,33.20076 m 0.10622,4.56733 c 0.0567,15.14061 -4.8407,22.2771 -4.30451,32.73113 0.14997,2.92395 0.5225,5.57539 1.07806,7.97661 m 1.32622,4.42956 c 5.87609,15.6825 20.66654,17.98798 27.44881,16.45182 9.68365,-2.19331 28.03166,-18.45353 23.95902,-26.33196 -1.7521,-3.3894 -6.91778,-3.18153 -13.77322,-1.58515 m -4.3793,1.12811 c -11.90854,3.29911 -27.21872,8.98398 -38.95108,8.11168 -4.68703,-0.34848 -12.34468,-2.25311 -19.1883,-7.47791 -9.59904,-7.32843 -8.79102,-14.68461 -15.08541,-22.12301 m -3.12314,-3.29485 C 98.918788,188.46984 92.797853,180.83677 77.339487,178.42603 m -4.54336,-0.37167 c -16.780868,0.0146 -33.614116,14.82703 -41.056559,20.01944 -2.010838,1.40291 -4.127302,2.60631 -6.258085,3.73979 m -4.02347,2.09251 c -4.973539,2.58223 -9.707449,5.22971 -13.0102882,9.63349 -5.5900405,7.45339 3.9824802,25.70317 14.3477812,29.81355 10.807407,4.2857 40.620943,-0.559 47.32899,-24.40984 0.458367,-1.62975 0.889294,-3.26571 1.291556,-4.90325 m 1.018624,-4.43614 c 4.900501,-22.94756 3.948997,-45.38562 -6.223207,-54.57342 -11.552744,-10.43475 -41.925284,-11.36642 -50.124016,6.70805 -0.804684,1.77396 -1.291663,3.68613 -1.521538,5.70199 m -0.118462,4.51911 c 0.931543,18.18251 17.152701,42.00826 11.888411,50.52402 -2.787399,4.50903 -9.357778,4.51101 -16.177931,2.78091 M 5.0248761,223.6761 c -6.8674958,-2.47769 -13.0690428,-6.0352 -14.8379454,-7.71416 -10.9937467,-10.43474 -6.3911697,-24.99004 0.5590057,-33.72658 6.5056214,-8.17774 16.7701165,-11.92543 23.1054966,-12.48443 16.214203,-1.43066 24.482397,10.82588 28.407901,17.88495"
     sodipodi:nodetypes="sssssssssssssssssssssssssssssssssss"
     inkscape:path-effect="#path-effect5"
     inkscape:original-d="m 119.07182,167.95771 c 3.04048,-5.39869 7.91531,-9.85427 13.56139,-13.89272 12.7067,-9.08867 35.01085,-9.79763 46.08092,8.34355 6.81628,11.17024 4.57296,37.42639 4.82243,52.89356 0.22964,14.23762 9.64484,21.50953 18.21804,21.05026 9.88017,-0.52929 23.13976,-9.49143 23.34665,-24.80103 0.22964,-16.9933 -9.00734,-28.78875 -20.20826,-33.60387 -8.40992,-3.61531 -23.32456,-0.61121 -39.21409,2.16783 -15.88953,2.77904 -30.76375,5.10338 -31.13204,9.08449 -0.23246,2.51285 14.06515,5.90668 23.76598,9.57398 9.79849,3.70422 14.08621,6.00319 23.15696,5.58221 15.06362,-0.69912 31.61367,-8.26701 31.30748,-31.76675 -0.30619,-23.49975 -23.49974,-34.36933 -43.40181,-25.18376 -9.95103,4.59278 -19.97447,12.99638 -19.09831,35.1922 0.66871,16.9406 -4.81406,24.27733 -4.24834,35.30702 1.37905,26.88719 21.5775,30.73238 29.85309,28.85799 9.68365,-2.19331 28.03166,-18.45353 23.95902,-26.33196 -4.9011,-9.48108 -36.51262,9.18557 -57.1036,7.65464 -4.68703,-0.34848 -12.34468,-2.25311 -19.1883,-7.47791 -10.31796,-7.8773 -8.61161,-15.78666 -16.62655,-23.79572 -7.164447,-7.15919 -13.022809,-16.0175 -30.276277,-18.48939 -17.99769,-2.57851 -36.894249,14.16143 -44.906635,19.75147 -8.012389,5.59004 -17.701799,8.0124 -23.2918432,15.46579 -5.5900405,7.45339 3.9824802,25.70317 14.3477812,29.81355 10.807407,4.2857 40.620943,-0.559 47.32899,-24.40984 7.299114,-25.95246 7.639714,-53.47807 -3.913027,-63.91281 -11.552744,-10.43475 -41.925284,-11.36642 -50.124016,6.70805 -8.198732,18.07447 16.583793,50.49671 10.248411,60.74512 -6.335381,10.24841 -32.2133094,-2.78621 -36.1489333,-6.52172 -10.9937467,-10.43474 -6.3911697,-24.99004 0.5590057,-33.72658 6.5056214,-8.17774 16.7701165,-11.92543 23.1054966,-12.48443 18.488835,-1.63136 26.645848,14.5341 29.813538,20.49682 3.167687,5.96271 11.946927,20.68338 28.881872,21.61483 13.217485,0.72698 26.720849,-5.57679 34.375637,-15.05086 8.11669,-10.04575 5.29842,-16.68946 12.14934,-28.85401 z"
     transform="translate(17.145212,-143.40436)"
     sodipodi:insensitive="true" />
</svg>
