<?xml version="1.0" encoding="UTF-8" standalone="no"?>
<!-- Created with Inkscape (http://www.inkscape.org/) -->

<svg
   width="101.50096mm"
   height="40.006027mm"
   viewBox="0 0 101.50096 40.006027"
   version="1.1"
   id="svg1"
   xml:space="preserve"
   inkscape:version="1.4.2 (ebf0e940d0, 2025-05-08)"
   sodipodi:docname="reidemeister_3.svg"
   inkscape:export-filename="../reidemeister_3.pdf"
   inkscape:export-xdpi="96"
   inkscape:export-ydpi="96"
   xmlns:inkscape="http://www.inkscape.org/namespaces/inkscape"
   xmlns:sodipodi="http://sodipodi.sourceforge.net/DTD/sodipodi-0.dtd"
   xmlns="http://www.w3.org/2000/svg"
   xmlns:svg="http://www.w3.org/2000/svg"><sodipodi:namedview
     id="namedview1"
     pagecolor="#ffffff"
     bordercolor="#000000"
     borderopacity="0.25"
     inkscape:showpageshadow="2"
     inkscape:pageopacity="0.0"
     inkscape:pagecheckerboard="0"
     inkscape:deskcolor="#d1d1d1"
     inkscape:document-units="mm"
     inkscape:zoom="1.7944437"
     inkscape:cx="202.01247"
     inkscape:cy="114.52017"
     inkscape:window-width="2556"
     inkscape:window-height="1394"
     inkscape:window-x="0"
     inkscape:window-y="0"
     inkscape:window-maximized="0"
     inkscape:current-layer="svg1"
     showguides="true"><sodipodi:guide
       position="58.674772,187.62612"
       orientation="0,-1"
       id="guide2"
       inkscape:locked="false" /><sodipodi:guide
       position="20.500975,39.998163"
       orientation="0,1"
       id="guide1"
       inkscape:locked="false"
       inkscape:label=""
       inkscape:color="rgb(0,134,229)" /><sodipodi:guide
       position="1.7757195,29.998163"
       orientation="0,1"
       id="guide3"
       inkscape:locked="false"
       inkscape:label=""
       inkscape:color="rgb(0,134,229)" /><sodipodi:guide
       position="5.7795455,-0.0018372121"
       orientation="0,1"
       id="guide5"
       inkscape:locked="false"
       inkscape:label=""
       inkscape:color="rgb(0,134,229)" /><sodipodi:guide
       position="20.500975,47.498161"
       orientation="1,0"
       id="guide6"
       inkscape:locked="false" /><sodipodi:guide
       position="40.500974,47.498161"
       orientation="-1,0"
       id="guide7"
       inkscape:locked="false"
       inkscape:label=""
       inkscape:color="rgb(0,134,229)" /><sodipodi:guide
       position="14.433125,19.998162"
       orientation="0,1"
       id="guide8"
       inkscape:locked="false"
       inkscape:label=""
       inkscape:color="rgb(0,134,229)" /><sodipodi:guide
       position="40.500975,9.9981622"
       orientation="0,1"
       id="guide9"
       inkscape:locked="false"
       inkscape:label=""
       inkscape:color="rgb(0,134,229)" /><sodipodi:guide
       position="40.500975,4.9981627"
       orientation="0,1"
       id="guide10"
       inkscape:locked="false"
       inkscape:label=""
       inkscape:color="rgb(0,134,229)" /><sodipodi:guide
       position="13.724605,34.998163"
       orientation="0,1"
       id="guide11"
       inkscape:locked="false"
       inkscape:label=""
       inkscape:color="rgb(0,134,229)" /><sodipodi:guide
       position="8.8034116,24.998162"
       orientation="0,1"
       id="guide12"
       inkscape:locked="false"
       inkscape:label=""
       inkscape:color="rgb(0,134,229)" /><sodipodi:guide
       position="12.723547,14.998162"
       orientation="0,1"
       id="guide13"
       inkscape:locked="false"
       inkscape:label=""
       inkscape:color="rgb(0,134,229)" /><sodipodi:guide
       position="40.500975,-5.001837"
       orientation="0,-1"
       id="guide23"
       inkscape:locked="false" /><sodipodi:guide
       position="0.50097582,39.998161"
       orientation="1,0"
       id="guide24"
       inkscape:locked="false" /><sodipodi:guide
       position="20.500975,17.498163"
       orientation="0,-1"
       id="guide25"
       inkscape:locked="false" /></sodipodi:namedview><defs
     id="defs1"><inkscape:path-effect
       effect="knot"
       id="path-effect32"
       is_visible="true"
       lpeversion="1"
       switcher_size="5"
       interruption_width="3.5"
       prop_to_stroke_width="true"
       add_stroke_width="inkscape_1.0_and_up"
       both="false"
       inverse_width="false"
       add_other_stroke_width="inkscape_1.0_and_up"
       crossing_points_vector="38.065576 | 198.97077 | 0 | 1 | 1 | 1 | 0.67641538 | 1.4951437 | -1 | 53.057991 | 188.99454 | 0 | 2 | 0 | 1 | 0.41886117 | 0.58113883 | -1 | 38.06892 | 179.02055 | 1 | 2 | 0 | 0 | 0.50474501 | 0.32364818 | -1" /><inkscape:path-effect
       effect="knot"
       id="path-effect30"
       is_visible="true"
       lpeversion="1"
       switcher_size="5"
       interruption_width="3.5"
       prop_to_stroke_width="true"
       add_stroke_width="inkscape_1.0_and_up"
       both="false"
       inverse_width="false"
       add_other_stroke_width="inkscape_1.0_and_up"
       crossing_points_vector="38.065576 | 198.97077 | 0 | 1 | 1 | 1 | 0.67641538 | 1.4951437 | -1 | 53.057991 | 188.99454 | 0 | 2 | 0 | 1 | 0.41886117 | 0.58113883 | -1 | 38.06892 | 179.02055 | 1 | 2 | 0 | 0 | 0.50474501 | 0.32364818 | -1" /><inkscape:path-effect
       effect="knot"
       id="path-effect28"
       is_visible="true"
       lpeversion="1"
       switcher_size="5"
       interruption_width="3.5"
       prop_to_stroke_width="true"
       add_stroke_width="inkscape_1.0_and_up"
       both="false"
       inverse_width="false"
       add_other_stroke_width="inkscape_1.0_and_up"
       crossing_points_vector="38.065576 | 198.97077 | 0 | 1 | 1 | 1 | 0.67641538 | 1.4951437 | -1 | 53.057991 | 188.99454 | 0 | 2 | 0 | 1 | 0.41886117 | 0.58113883 | -1 | 38.06892 | 179.02055 | 1 | 2 | 0 | 0 | 0.50474501 | 0.32364818 | -1" /><inkscape:path-effect
       effect="knot"
       id="path-effect26"
       is_visible="true"
       lpeversion="1"
       switcher_size="5"
       interruption_width="3.5"
       prop_to_stroke_width="true"
       add_stroke_width="inkscape_1.0_and_up"
       both="false"
       inverse_width="false"
       add_other_stroke_width="inkscape_1.0_and_up"
       crossing_points_vector="38.065576 | 198.97077 | 0 | 1 | 1 | 1 | 0.67641538 | 1.4951437 | -1 | 53.057991 | 188.99454 | 0 | 2 | 0 | 1 | 0.41886117 | 0.58113883 | -1 | 38.06892 | 179.02055 | 1 | 2 | 0 | 0 | 0.50474501 | 0.32364818 | -1" /><inkscape:path-effect
       effect="knot"
       id="path-effect25"
       is_visible="true"
       lpeversion="1"
       switcher_size="5"
       interruption_width="3"
       prop_to_stroke_width="true"
       add_stroke_width="inkscape_1.0_and_up"
       both="false"
       inverse_width="false"
       add_other_stroke_width="inkscape_1.0_and_up"
       crossing_points_vector="38.065576 | 198.97077 | 0 | 1 | 0 | 0 | 0.67641538 | 1.4951437 | 1" /><inkscape:path-effect
       effect="knot"
       id="path-effect23"
       is_visible="true"
       lpeversion="1"
       switcher_size="15"
       interruption_width="3.5"
       prop_to_stroke_width="true"
       add_stroke_width="inkscape_1.0_and_up"
       both="false"
       inverse_width="false"
       add_other_stroke_width="inkscape_1.0_and_up"
       crossing_points_vector="58.225582 | 178.99205 | 0 | 1 | 0 | 0 | 0.49999996 | 0.50000004 | -1 | 58.225584 | 198.99207 | 0 | 1 | 1 | 1 | 1.5 | 1.5 | 1" /><inkscape:path-effect
       effect="knot"
       id="path-effect21"
       is_visible="true"
       lpeversion="1"
       switcher_size="15"
       interruption_width="3"
       prop_to_stroke_width="true"
       add_stroke_width="inkscape_1.0_and_up"
       both="false"
       inverse_width="false"
       add_other_stroke_width="inkscape_1.0_and_up"
       crossing_points_vector="58.225582 | 178.99205 | 0 | 1 | 0 | 0 | 0.49999996 | 0.50000004 | -1 | 58.225584 | 198.99207 | 0 | 1 | 1 | 1 | 1.5 | 1.5 | 1" /><inkscape:path-effect
       effect="knot"
       id="path-effect19"
       is_visible="true"
       lpeversion="1"
       switcher_size="15"
       interruption_width="3"
       prop_to_stroke_width="true"
       add_stroke_width="inkscape_1.0_and_up"
       both="false"
       inverse_width="false"
       add_other_stroke_width="inkscape_1.0_and_up"
       crossing_points_vector="58.225582 | 178.99205 | 0 | 1 | 0 | 0 | 0.49999996 | 0.50000004 | -1 | 58.225584 | 198.99207 | 0 | 1 | 1 | 1 | 1.5 | 1.5 | 1" /><inkscape:path-effect
       effect="knot"
       id="path-effect17"
       is_visible="true"
       lpeversion="1"
       switcher_size="15"
       interruption_width="4"
       prop_to_stroke_width="true"
       add_stroke_width="inkscape_1.0_and_up"
       both="false"
       inverse_width="false"
       add_other_stroke_width="inkscape_1.0_and_up"
       crossing_points_vector="54.302535 | 178.99205 | 0 | 0 | 0 | 1 | 0.3660254 | 1.6339745 | -1 | 54.302535 | 198.99205 | 0 | 0 | 2 | 3 | 2.3660254 | 3.6339745 | 1" /><inkscape:path-effect
       effect="knot"
       id="path-effect8"
       is_visible="true"
       lpeversion="1"
       switcher_size="15"
       interruption_width="3"
       prop_to_stroke_width="true"
       add_stroke_width="inkscape_1.0_and_up"
       both="false"
       inverse_width="false"
       add_other_stroke_width="inkscape_1.0_and_up"
       crossing_points_vector="84.792825 | 246.1885 | 0 | 0 | 0 | 3 | 1.0772964 | 3.8566079 | -1 | 120.97507 | 237.47441 | 0 | 0 | 1 | 14 | 1.6053068 | 14.899405 | 1 | 131.13554 | 252.76299 | 0 | 0 | 2 | 13 | 2.4672829 | 14.301923 | 1 | 86.621936 | 213.86468 | 0 | 0 | 4 | 9 | 4.6955013 | 9.2794271 | -1 | 87.388621 | 200.97617 | 0 | 0 | 5 | 10 | 4.9942621 | 10.658389 | -1 | 101.54085 | 168.15628 | 0 | 0 | 6 | 17 | 5.8331807 | 16.33806 | -1 | 148.9519 | 200.15387 | 0 | 0 | 7 | 12 | 7.1490625 | 12.217689 | 1 | 120.7052 | 222.29851 | 0 | 0 | 8 | 15 | 7.9529358 | 15.212815 | 1 | 119.99313 | 195.33707 | 0 | 0 | 11 | 16 | 11.375947 | 15.673948 | 1" /><inkscape:path-effect
       effect="knot"
       id="path-effect6"
       is_visible="true"
       lpeversion="1"
       switcher_size="15"
       interruption_width="4"
       prop_to_stroke_width="true"
       add_stroke_width="inkscape_1.0_and_up"
       both="false"
       inverse_width="false"
       add_other_stroke_width="inkscape_1.0_and_up"
       crossing_points_vector="84.792825 | 246.1885 | 0 | 0 | 0 | 3 | 1.0772964 | 3.8566079 | -1 | 120.97507 | 237.47441 | 0 | 0 | 1 | 14 | 1.6053068 | 14.899405 | 1 | 131.13554 | 252.76299 | 0 | 0 | 2 | 13 | 2.4672829 | 14.301923 | 1 | 86.621936 | 213.86468 | 0 | 0 | 4 | 9 | 4.6955013 | 9.2794271 | -1 | 87.388621 | 200.97617 | 0 | 0 | 5 | 10 | 4.9942621 | 10.658389 | -1 | 101.54085 | 168.15628 | 0 | 0 | 6 | 17 | 5.8331807 | 16.33806 | -1 | 148.9519 | 200.15387 | 0 | 0 | 7 | 12 | 7.1490625 | 12.217689 | 1 | 120.7052 | 222.29851 | 0 | 0 | 8 | 15 | 7.9529358 | 15.212815 | 1 | 119.99313 | 195.33707 | 0 | 0 | 11 | 16 | 11.375947 | 15.673948 | 1" /><inkscape:path-effect
       effect="knot"
       id="path-effect4"
       is_visible="true"
       lpeversion="1"
       switcher_size="15"
       interruption_width="3"
       prop_to_stroke_width="true"
       add_stroke_width="inkscape_1.0_and_up"
       both="false"
       inverse_width="false"
       add_other_stroke_width="inkscape_1.0_and_up"
       crossing_points_vector="84.792825 | 246.1885 | 0 | 0 | 0 | 3 | 1.0772964 | 3.8566079 | -1 | 120.97507 | 237.47441 | 0 | 0 | 1 | 14 | 1.6053068 | 14.899405 | 1 | 131.13554 | 252.76299 | 0 | 0 | 2 | 13 | 2.4672829 | 14.301923 | 1 | 86.621936 | 213.86468 | 0 | 0 | 4 | 9 | 4.6955013 | 9.2794271 | -1 | 87.388621 | 200.97617 | 0 | 0 | 5 | 10 | 4.9942621 | 10.658389 | -1 | 101.54085 | 168.15628 | 0 | 0 | 6 | 17 | 5.8331807 | 16.33806 | -1 | 148.9519 | 200.15387 | 0 | 0 | 7 | 12 | 7.1490625 | 12.217689 | 1 | 120.7052 | 222.29851 | 0 | 0 | 8 | 15 | 7.9529358 | 15.212815 | 1 | 119.99313 | 195.33707 | 0 | 0 | 11 | 16 | 11.375947 | 15.673948 | 1" /><inkscape:path-effect
       effect="knot"
       id="path-effect2"
       is_visible="true"
       lpeversion="1"
       switcher_size="15"
       interruption_width="4"
       prop_to_stroke_width="true"
       add_stroke_width="inkscape_1.0_and_up"
       both="false"
       inverse_width="false"
       add_other_stroke_width="inkscape_1.0_and_up"
       crossing_points_vector="" /><inkscape:path-effect
       effect="knot"
       id="path-effect26-3"
       is_visible="true"
       lpeversion="1"
       switcher_size="5"
       interruption_width="3.5"
       prop_to_stroke_width="true"
       add_stroke_width="inkscape_1.0_and_up"
       both="false"
       inverse_width="false"
       add_other_stroke_width="inkscape_1.0_and_up"
       crossing_points_vector="38.065576 | 198.97077 | 0 | 1 | 1 | 1 | 0.67641538 | 1.4951437 | 1 | 53.057991 | 188.99454 | 0 | 2 | 0 | 1 | 0.41886117 | 0.58113883 | 1 | 38.06892 | 179.02055 | 1 | 2 | 0 | 0 | 0.50474501 | 0.32364818 | 1" /></defs><text
     xml:space="preserve"
     style="font-weight:500;font-size:0.39371px;line-height:1.25;font-family:'CMU Serif';-inkscape-font-specification:'CMU Serif Medium';font-variant-ligatures:none;text-align:center;text-decoration-color:#000000;text-anchor:middle;fill:#000000;stroke-width:0.0246068;-inkscape-stroke:none;stop-color:#000000"
     x="48.192635"
     y="20.960024"
     id="text1-3"
     transform="scale(1.0478981,0.95429127)"><tspan
       sodipodi:role="line"
       id="tspan1-5"
       style="stroke-width:0.0246068"
       x="48.192635"
       y="20.960024">\raisebox{-.5\height}{\(\sim\)}</tspan></text><path
     id="path26"
     style="display:none;fill:none;stroke:#ff6600;stroke-width:4;stroke-linecap:butt;stroke-linejoin:miter;stroke-dasharray:none;stroke-opacity:1"
     d="m 40.529207,0.001976 c 0,17.78 -40.056465,31.115 -40.056465,40.005 m 20.028232,-40.005 c 0,8.89 -20.028232,10.97557 -20.028232,20.0025 0,9.02693 20.028232,11.12351 20.028232,20.0025 M 0.472742,0.001976 c 0,8.89 40.056465,22.225 40.056464,40.005"
     inkscape:label="thick"
     sodipodi:insensitive="true" /><path
     id="path28"
     style="display:none;fill:none;stroke:#808080;stroke-width:0.943533;stroke-linecap:butt;stroke-linejoin:miter;stroke-dasharray:none;stroke-opacity:1"
     d="m 40.529207,0.001976 c 0,17.78 -40.056465,31.115 -40.056465,40.005 m 20.028232,-40.005 c 0,8.89 -20.028232,10.97557 -20.028232,20.0025 0,9.02693 20.028232,11.12351 20.028232,20.0025 M 0.472742,0.001976 c 0,8.89 40.056465,22.225 40.056464,40.005"
     inkscape:label="behind"
     sodipodi:insensitive="true" /><path
     style="baseline-shift:baseline;display:inline;overflow:visible;opacity:1;vector-effect:none;enable-background:accumulate;stop-color:#000000;stop-opacity:1"
     d="m 0,0.002126 c 0,1.51413 0.963085,3.0001 2.476563,4.53711 1.513478,1.537 3.164191,2.90116 5.616806,4.59829 L 9.082032,8.601736 C 6.65101,6.919546 4.584722,5.335736 3.148438,3.877126 1.712154,2.418516 0.945313,1.099906 0.945313,0.002126 Z m 20.029297,0 c 0,2.04536 -1.140431,3.706 -2.96289,5.24609 -1.82246,1.54009 -4.302751,2.91031 -6.806641,4.29102 -2.50389,1.3807 -5.031699,2.77258 -6.964844,4.42382 C 1.361777,15.614306 0,17.572896 0,20.004076 c 0,2.14411 1.063595,3.93056 2.636719,5.44727 1.573124,1.5167 3.304757,2.62759 5.492164,3.86397 l 0.824242,-0.64718 c -2.166832,-1.22474 -4.199483,-2.48631 -5.662109,-3.89648 -1.462626,-1.41017 -2.345703,-2.93118 -2.345703,-4.76758 0,-2.08228 1.140742,-3.76778 2.96289,-5.32422 1.822149,-1.55643 4.303473,-2.93415 6.806641,-4.31445 2.503168,-1.38031 5.028103,-2.76312 6.960938,-4.39649 1.932834,-1.63336 3.296875,-3.56715 3.296875,-5.96679 z m 20.027344,0 c 0,4.26786 -2.413891,8.33021 -6.125,12.17383 -3.711109,3.84361 -8.694412,7.44248 -13.691406,10.76953 -4.996994,3.32705 -10.005562,6.38264 -13.789063,9.18164 -1.89175,1.39949 -3.477714,2.73345 -4.611328,4.02734 C 0.706231,37.448366 0,38.717636 0,40.006026 h 0.945313 c 0,-0.93411 0.546541,-2.02405 1.603515,-3.23047 1.056975,-1.20641 2.599348,-2.51199 4.462891,-3.89062 3.727086,-2.75726 8.732878,-5.81385 13.75,-9.1543 5.017122,-3.34045 10.048178,-6.9633 13.847656,-10.89843 C 38.408854,8.897066 41,4.624266 41,0.002126 Z m -27.644314,10.88523 -0.775608,0.56789 c 3.74607,2.46327 7.760127,4.96145 11.78887,7.78242 l 0.756052,-0.63007 c -4.056078,-2.84011 -8.036887,-5.26594 -11.769314,-7.72024 z m 14.798785,9.902 -0.75994,0.61902 c 7.51898,5.60619 13.605469,11.85934 13.605469,18.59765 H 41 c 10e-7,-7.29766 -6.198164,-13.55698 -13.788888,-19.21667 z m -14.702477,9.845436 -0.77426,0.656394 c 2.226433,1.24625 4.33132,2.51826 5.851563,3.93555 1.520243,1.41728 2.443359,2.93842 2.443359,4.77929 h 0.94336 c 0,-2.16059 -1.111288,-3.95025 -2.742188,-5.4707 -1.630899,-1.52045 -3.479175,-2.645194 -5.721834,-3.900534 z"
     id="path25"
     sodipodi:nodetypes="ccccscccsccscccsscccccccscsccsssccccccccccccccccccsc" /><path
     style="baseline-shift:baseline;display:inline;overflow:visible;vector-effect:none;enable-background:accumulate;stop-color:#000000"
     d="m 101.50096,40.0039 c 0,-1.51413 -0.96308,-3.0001 -2.476558,-4.53711 -1.513478,-1.537 -3.164191,-2.90116 -5.616806,-4.59829 l -0.988663,0.53579 c 2.431022,1.68219 4.49731,3.266 5.933594,4.72461 1.436284,1.45861 2.203123,2.77722 2.203123,3.875 z m -20.029292,0 c 0,-2.04536 1.140431,-3.706 2.96289,-5.24609 1.82246,-1.54009 4.302751,-2.91031 6.806641,-4.29102 2.50389,-1.3807 5.031699,-2.77258 6.964844,-4.42382 1.933147,-1.65125 3.294917,-3.60984 3.294917,-6.04102 0,-2.14411 -1.06359,-3.93056 -2.636714,-5.44727 -1.573124,-1.5167 -3.304757,-2.62759 -5.492164,-3.86397 l -0.824242,0.64718 c 2.166832,1.22474 4.199483,2.48631 5.662109,3.89648 1.462626,1.41017 2.345701,2.93118 2.345701,4.76758 0,2.08228 -1.14074,3.76778 -2.962888,5.32422 -1.822149,1.55643 -4.303473,2.93415 -6.806641,4.31445 -2.503168,1.38031 -5.028103,2.76312 -6.960938,4.39649 -1.932834,1.63336 -3.296875,3.56715 -3.296875,5.96679 z m -20.027344,0 c 0,-4.26786 2.413891,-8.33021 6.125,-12.17383 C 71.280433,23.98646 76.263736,20.38759 81.26073,17.06054 86.257724,13.73349 91.266292,10.6779 95.049793,7.8789 96.941543,6.47941 98.527507,5.14545 99.661121,3.85156 100.79473,2.55766 101.50096,1.28839 101.50096,0 h -0.94531 c 0,0.93411 -0.54654,2.02405 -1.603513,3.23047 -1.056975,1.20641 -2.599348,2.51199 -4.462891,3.89062 -3.727086,2.75726 -8.732878,5.81385 -13.75,9.1543 -5.017122,3.34045 -10.048178,6.9633 -13.847656,10.89843 -3.799479,3.93514 -6.390625,8.20794 -6.390625,12.83008 z m 27.644314,-10.88523 0.775608,-0.56789 c -3.74607,-2.46327 -7.760127,-4.96145 -11.78887,-7.78242 l -0.756052,0.63007 c 4.056078,2.84011 8.036887,5.26594 11.769314,7.72024 z m -14.798785,-9.902 0.75994,-0.61902 C 67.530813,12.99146 61.444324,6.73831 61.444324,0 h -0.943359 c -10e-7,7.29766 6.198164,13.55698 13.788888,19.21667 z M 88.99233,9.37123 89.76659,8.71484 C 87.540157,7.46859 85.43527,6.19658 83.915027,4.77929 82.394784,3.36201 81.471668,1.84087 81.471668,0 h -0.94336 c 0,2.16059 1.111288,3.95025 2.742188,5.4707 1.630899,1.52045 3.479175,2.64519 5.721834,3.90053 z"
     id="path25-0"
     sodipodi:nodetypes="ccccscccsccscccsscccccccscsccsssccccccccccccccccccsc" /><path
     id="path30"
     style="display:none;fill:none;stroke:#000000;stroke-width:0.943533;stroke-linecap:butt;stroke-linejoin:miter;stroke-dasharray:none;stroke-opacity:1"
     d="m 68.253816,168.99204 c 0,17.78 -40.056465,31.115 -40.056465,40.005 m 20.028232,-40.005 c 0,8.89 -20.028232,10.97557 -20.028232,20.0025 0,3.9805 3.89438,6.61344 8.24862,9.07456 m 3.242781,1.80094 c 4.469091,2.50158 8.536831,5.12554 8.536831,9.127 m -20.028232,-40.005 c 0,2.61192 3.457706,5.60753 8.341343,8.98684 m 3.081858,2.07154 c 3.739248,2.45878 7.972616,5.10344 12.015026,7.93398 m 2.822673,2.03624 c 7.554852,5.63295 13.795564,11.95841 13.795564,18.9764"
     inkscape:path-effect="#path-effect32"
     inkscape:original-d="m 68.253816,168.99204 c 0,17.78 -40.056465,31.115 -40.056465,40.005 m 20.028232,-40.005 c 0,8.89 -20.028232,10.97557 -20.028232,20.0025 0,9.02693 20.028232,11.12351 20.028232,20.0025 m -20.028232,-40.005 c 0,8.89 40.056465,22.225 40.056464,40.005"
     transform="translate(-27.724609,-168.99006)"
     inkscape:label="backup" /></svg>
