<?xml version="1.0" encoding="UTF-8" standalone="no"?>
<!-- Created with Inkscape (http://www.inkscape.org/) -->

<svg
   width="101.4944mm"
   height="40.005878mm"
   viewBox="0 0 101.4944 40.005878"
   version="1.1"
   id="svg1"
   xml:space="preserve"
   inkscape:version="1.4.2 (ebf0e940d0, 2025-05-08)"
   sodipodi:docname="reidemeister_virtual_4.svg"
   inkscape:export-filename="../knot_9_33.pdf"
   inkscape:export-xdpi="96"
   inkscape:export-ydpi="96"
   xmlns:inkscape="http://www.inkscape.org/namespaces/inkscape"
   xmlns:sodipodi="http://sodipodi.sourceforge.net/DTD/sodipodi-0.dtd"
   xmlns="http://www.w3.org/2000/svg"
   xmlns:svg="http://www.w3.org/2000/svg"><sodipodi:namedview
     id="namedview1"
     pagecolor="#ffffff"
     bordercolor="#000000"
     borderopacity="0.25"
     inkscape:showpageshadow="2"
     inkscape:pageopacity="0.0"
     inkscape:pagecheckerboard="0"
     inkscape:deskcolor="#d1d1d1"
     inkscape:document-units="mm"
     inkscape:zoom="0.89722184"
     inkscape:cx="27.306513"
     inkscape:cy="87.492297"
     inkscape:window-width="2556"
     inkscape:window-height="1394"
     inkscape:window-x="0"
     inkscape:window-y="0"
     inkscape:window-maximized="0"
     inkscape:current-layer="svg1"
     showguides="true"><sodipodi:guide
       position="58.674772,187.62627"
       orientation="0,-1"
       id="guide2"
       inkscape:locked="false" /><sodipodi:guide
       position="20.500975,39.998313"
       orientation="0,1"
       id="guide1"
       inkscape:locked="false"
       inkscape:label=""
       inkscape:color="rgb(0,134,229)" /><sodipodi:guide
       position="1.7757195,29.998313"
       orientation="0,1"
       id="guide3"
       inkscape:locked="false"
       inkscape:label=""
       inkscape:color="rgb(0,134,229)" /><sodipodi:guide
       position="5.7795455,-0.0016872121"
       orientation="0,1"
       id="guide5"
       inkscape:locked="false"
       inkscape:label=""
       inkscape:color="rgb(0,134,229)" /><sodipodi:guide
       position="20.500975,47.498311"
       orientation="1,0"
       id="guide6"
       inkscape:locked="false" /><sodipodi:guide
       position="40.500974,47.498311"
       orientation="-1,0"
       id="guide7"
       inkscape:locked="false"
       inkscape:label=""
       inkscape:color="rgb(0,134,229)" /><sodipodi:guide
       position="14.433125,19.998312"
       orientation="0,1"
       id="guide8"
       inkscape:locked="false"
       inkscape:label=""
       inkscape:color="rgb(0,134,229)" /><sodipodi:guide
       position="40.500975,9.9983122"
       orientation="0,1"
       id="guide9"
       inkscape:locked="false"
       inkscape:label=""
       inkscape:color="rgb(0,134,229)" /><sodipodi:guide
       position="40.500975,4.9983127"
       orientation="0,1"
       id="guide10"
       inkscape:locked="false"
       inkscape:label=""
       inkscape:color="rgb(0,134,229)" /><sodipodi:guide
       position="13.724605,34.998313"
       orientation="0,1"
       id="guide11"
       inkscape:locked="false"
       inkscape:label=""
       inkscape:color="rgb(0,134,229)" /><sodipodi:guide
       position="8.8034116,24.998312"
       orientation="0,1"
       id="guide12"
       inkscape:locked="false"
       inkscape:label=""
       inkscape:color="rgb(0,134,229)" /><sodipodi:guide
       position="12.723547,14.998312"
       orientation="0,1"
       id="guide13"
       inkscape:locked="false"
       inkscape:label=""
       inkscape:color="rgb(0,134,229)" /><sodipodi:guide
       position="40.500975,-5.001687"
       orientation="0,-1"
       id="guide23"
       inkscape:locked="false" /><sodipodi:guide
       position="0.50097582,39.998311"
       orientation="1,0"
       id="guide24"
       inkscape:locked="false" /><sodipodi:guide
       position="20.500975,17.498313"
       orientation="0,-1"
       id="guide25"
       inkscape:locked="false" /></sodipodi:namedview><defs
     id="defs1"><inkscape:path-effect
       effect="knot"
       id="path-effect1"
       is_visible="true"
       lpeversion="1"
       switcher_size="15"
       interruption_width="3.5"
       prop_to_stroke_width="true"
       add_stroke_width="inkscape_1.0_and_up"
       both="false"
       inverse_width="false"
       add_other_stroke_width="inkscape_1.0_and_up"
       crossing_points_vector="38.065576 | 198.97077 | 0 | 1 | 1 | 1 | 0.67641538 | 1.4951437 | 0 | 53.057991 | 188.99454 | 0 | 2 | 0 | 1 | 0.41886117 | 0.58113883 | 1 | 38.06892 | 179.02055 | 1 | 2 | 0 | 0 | 0.50474501 | 0.32364818 | 0" /><inkscape:path-effect
       effect="knot"
       id="path-effect32"
       is_visible="true"
       lpeversion="1"
       switcher_size="5"
       interruption_width="3.5"
       prop_to_stroke_width="true"
       add_stroke_width="inkscape_1.0_and_up"
       both="false"
       inverse_width="false"
       add_other_stroke_width="inkscape_1.0_and_up"
       crossing_points_vector="38.065576 | 198.97077 | 0 | 1 | 1 | 1 | 0.67641538 | 1.4951437 | -1 | 53.057991 | 188.99454 | 0 | 2 | 0 | 1 | 0.41886117 | 0.58113883 | -1 | 38.06892 | 179.02055 | 1 | 2 | 0 | 0 | 0.50474501 | 0.32364818 | -1" /><inkscape:path-effect
       effect="knot"
       id="path-effect30"
       is_visible="true"
       lpeversion="1"
       switcher_size="5"
       interruption_width="3.5"
       prop_to_stroke_width="true"
       add_stroke_width="inkscape_1.0_and_up"
       both="false"
       inverse_width="false"
       add_other_stroke_width="inkscape_1.0_and_up"
       crossing_points_vector="38.065576 | 198.97077 | 0 | 1 | 1 | 1 | 0.67641538 | 1.4951437 | -1 | 53.057991 | 188.99454 | 0 | 2 | 0 | 1 | 0.41886117 | 0.58113883 | -1 | 38.06892 | 179.02055 | 1 | 2 | 0 | 0 | 0.50474501 | 0.32364818 | -1" /><inkscape:path-effect
       effect="knot"
       id="path-effect28"
       is_visible="true"
       lpeversion="1"
       switcher_size="5"
       interruption_width="3.5"
       prop_to_stroke_width="true"
       add_stroke_width="inkscape_1.0_and_up"
       both="false"
       inverse_width="false"
       add_other_stroke_width="inkscape_1.0_and_up"
       crossing_points_vector="38.065576 | 198.97077 | 0 | 1 | 1 | 1 | 0.67641538 | 1.4951437 | -1 | 53.057991 | 188.99454 | 0 | 2 | 0 | 1 | 0.41886117 | 0.58113883 | -1 | 38.06892 | 179.02055 | 1 | 2 | 0 | 0 | 0.50474501 | 0.32364818 | -1" /><inkscape:path-effect
       effect="knot"
       id="path-effect26"
       is_visible="true"
       lpeversion="1"
       switcher_size="5"
       interruption_width="3.5"
       prop_to_stroke_width="true"
       add_stroke_width="inkscape_1.0_and_up"
       both="false"
       inverse_width="false"
       add_other_stroke_width="inkscape_1.0_and_up"
       crossing_points_vector="38.065576 | 198.97077 | 0 | 1 | 1 | 1 | 0.67641538 | 1.4951437 | -1 | 53.057991 | 188.99454 | 0 | 2 | 0 | 1 | 0.41886117 | 0.58113883 | -1 | 38.06892 | 179.02055 | 1 | 2 | 0 | 0 | 0.50474501 | 0.32364818 | -1" /><inkscape:path-effect
       effect="knot"
       id="path-effect25"
       is_visible="true"
       lpeversion="1"
       switcher_size="5"
       interruption_width="3"
       prop_to_stroke_width="true"
       add_stroke_width="inkscape_1.0_and_up"
       both="false"
       inverse_width="false"
       add_other_stroke_width="inkscape_1.0_and_up"
       crossing_points_vector="38.065576 | 198.97077 | 0 | 1 | 0 | 0 | 0.67641538 | 1.4951437 | 1" /><inkscape:path-effect
       effect="knot"
       id="path-effect23"
       is_visible="true"
       lpeversion="1"
       switcher_size="15"
       interruption_width="3.5"
       prop_to_stroke_width="true"
       add_stroke_width="inkscape_1.0_and_up"
       both="false"
       inverse_width="false"
       add_other_stroke_width="inkscape_1.0_and_up"
       crossing_points_vector="58.225582 | 178.99205 | 0 | 1 | 0 | 0 | 0.49999996 | 0.50000004 | -1 | 58.225584 | 198.99207 | 0 | 1 | 1 | 1 | 1.5 | 1.5 | 1" /><inkscape:path-effect
       effect="knot"
       id="path-effect21"
       is_visible="true"
       lpeversion="1"
       switcher_size="15"
       interruption_width="3"
       prop_to_stroke_width="true"
       add_stroke_width="inkscape_1.0_and_up"
       both="false"
       inverse_width="false"
       add_other_stroke_width="inkscape_1.0_and_up"
       crossing_points_vector="58.225582 | 178.99205 | 0 | 1 | 0 | 0 | 0.49999996 | 0.50000004 | -1 | 58.225584 | 198.99207 | 0 | 1 | 1 | 1 | 1.5 | 1.5 | 1" /><inkscape:path-effect
       effect="knot"
       id="path-effect19"
       is_visible="true"
       lpeversion="1"
       switcher_size="15"
       interruption_width="3"
       prop_to_stroke_width="true"
       add_stroke_width="inkscape_1.0_and_up"
       both="false"
       inverse_width="false"
       add_other_stroke_width="inkscape_1.0_and_up"
       crossing_points_vector="58.225582 | 178.99205 | 0 | 1 | 0 | 0 | 0.49999996 | 0.50000004 | -1 | 58.225584 | 198.99207 | 0 | 1 | 1 | 1 | 1.5 | 1.5 | 1" /><inkscape:path-effect
       effect="knot"
       id="path-effect17"
       is_visible="true"
       lpeversion="1"
       switcher_size="15"
       interruption_width="4"
       prop_to_stroke_width="true"
       add_stroke_width="inkscape_1.0_and_up"
       both="false"
       inverse_width="false"
       add_other_stroke_width="inkscape_1.0_and_up"
       crossing_points_vector="54.302535 | 178.99205 | 0 | 0 | 0 | 1 | 0.3660254 | 1.6339745 | -1 | 54.302535 | 198.99205 | 0 | 0 | 2 | 3 | 2.3660254 | 3.6339745 | 1" /><inkscape:path-effect
       effect="knot"
       id="path-effect8"
       is_visible="true"
       lpeversion="1"
       switcher_size="15"
       interruption_width="3"
       prop_to_stroke_width="true"
       add_stroke_width="inkscape_1.0_and_up"
       both="false"
       inverse_width="false"
       add_other_stroke_width="inkscape_1.0_and_up"
       crossing_points_vector="84.792825 | 246.1885 | 0 | 0 | 0 | 3 | 1.0772964 | 3.8566079 | -1 | 120.97507 | 237.47441 | 0 | 0 | 1 | 14 | 1.6053068 | 14.899405 | 1 | 131.13554 | 252.76299 | 0 | 0 | 2 | 13 | 2.4672829 | 14.301923 | 1 | 86.621936 | 213.86468 | 0 | 0 | 4 | 9 | 4.6955013 | 9.2794271 | -1 | 87.388621 | 200.97617 | 0 | 0 | 5 | 10 | 4.9942621 | 10.658389 | -1 | 101.54085 | 168.15628 | 0 | 0 | 6 | 17 | 5.8331807 | 16.33806 | -1 | 148.9519 | 200.15387 | 0 | 0 | 7 | 12 | 7.1490625 | 12.217689 | 1 | 120.7052 | 222.29851 | 0 | 0 | 8 | 15 | 7.9529358 | 15.212815 | 1 | 119.99313 | 195.33707 | 0 | 0 | 11 | 16 | 11.375947 | 15.673948 | 1" /><inkscape:path-effect
       effect="knot"
       id="path-effect6"
       is_visible="true"
       lpeversion="1"
       switcher_size="15"
       interruption_width="4"
       prop_to_stroke_width="true"
       add_stroke_width="inkscape_1.0_and_up"
       both="false"
       inverse_width="false"
       add_other_stroke_width="inkscape_1.0_and_up"
       crossing_points_vector="84.792825 | 246.1885 | 0 | 0 | 0 | 3 | 1.0772964 | 3.8566079 | -1 | 120.97507 | 237.47441 | 0 | 0 | 1 | 14 | 1.6053068 | 14.899405 | 1 | 131.13554 | 252.76299 | 0 | 0 | 2 | 13 | 2.4672829 | 14.301923 | 1 | 86.621936 | 213.86468 | 0 | 0 | 4 | 9 | 4.6955013 | 9.2794271 | -1 | 87.388621 | 200.97617 | 0 | 0 | 5 | 10 | 4.9942621 | 10.658389 | -1 | 101.54085 | 168.15628 | 0 | 0 | 6 | 17 | 5.8331807 | 16.33806 | -1 | 148.9519 | 200.15387 | 0 | 0 | 7 | 12 | 7.1490625 | 12.217689 | 1 | 120.7052 | 222.29851 | 0 | 0 | 8 | 15 | 7.9529358 | 15.212815 | 1 | 119.99313 | 195.33707 | 0 | 0 | 11 | 16 | 11.375947 | 15.673948 | 1" /><inkscape:path-effect
       effect="knot"
       id="path-effect4"
       is_visible="true"
       lpeversion="1"
       switcher_size="15"
       interruption_width="3"
       prop_to_stroke_width="true"
       add_stroke_width="inkscape_1.0_and_up"
       both="false"
       inverse_width="false"
       add_other_stroke_width="inkscape_1.0_and_up"
       crossing_points_vector="84.792825 | 246.1885 | 0 | 0 | 0 | 3 | 1.0772964 | 3.8566079 | -1 | 120.97507 | 237.47441 | 0 | 0 | 1 | 14 | 1.6053068 | 14.899405 | 1 | 131.13554 | 252.76299 | 0 | 0 | 2 | 13 | 2.4672829 | 14.301923 | 1 | 86.621936 | 213.86468 | 0 | 0 | 4 | 9 | 4.6955013 | 9.2794271 | -1 | 87.388621 | 200.97617 | 0 | 0 | 5 | 10 | 4.9942621 | 10.658389 | -1 | 101.54085 | 168.15628 | 0 | 0 | 6 | 17 | 5.8331807 | 16.33806 | -1 | 148.9519 | 200.15387 | 0 | 0 | 7 | 12 | 7.1490625 | 12.217689 | 1 | 120.7052 | 222.29851 | 0 | 0 | 8 | 15 | 7.9529358 | 15.212815 | 1 | 119.99313 | 195.33707 | 0 | 0 | 11 | 16 | 11.375947 | 15.673948 | 1" /><inkscape:path-effect
       effect="knot"
       id="path-effect2"
       is_visible="true"
       lpeversion="1"
       switcher_size="15"
       interruption_width="4"
       prop_to_stroke_width="true"
       add_stroke_width="inkscape_1.0_and_up"
       both="false"
       inverse_width="false"
       add_other_stroke_width="inkscape_1.0_and_up"
       crossing_points_vector="" /><inkscape:path-effect
       effect="knot"
       id="path-effect26-3"
       is_visible="true"
       lpeversion="1"
       switcher_size="5"
       interruption_width="3.5"
       prop_to_stroke_width="true"
       add_stroke_width="inkscape_1.0_and_up"
       both="false"
       inverse_width="false"
       add_other_stroke_width="inkscape_1.0_and_up"
       crossing_points_vector="38.065576 | 198.97077 | 0 | 1 | 1 | 1 | 0.67641538 | 1.4951437 | 1 | 53.057991 | 188.99454 | 0 | 2 | 0 | 1 | 0.41886117 | 0.58113883 | 1 | 38.06892 | 179.02055 | 1 | 2 | 0 | 0 | 0.50474501 | 0.32364818 | 1" /><inkscape:path-effect
       effect="knot"
       id="path-effect1-7"
       is_visible="true"
       lpeversion="1"
       switcher_size="15"
       interruption_width="3.5"
       prop_to_stroke_width="true"
       add_stroke_width="inkscape_1.0_and_up"
       both="false"
       inverse_width="false"
       add_other_stroke_width="inkscape_1.0_and_up"
       crossing_points_vector="38.065576 | 198.97077 | 0 | 1 | 1 | 1 | 0.67641538 | 1.4951437 | 0 | 53.057991 | 188.99454 | 0 | 2 | 0 | 1 | 0.41886117 | 0.58113883 | -1 | 38.06892 | 179.02055 | 1 | 2 | 0 | 0 | 0.50474501 | 0.32364818 | 0" /></defs><text
     xml:space="preserve"
     style="font-weight:500;font-size:0.39371px;line-height:1.25;font-family:'CMU Serif';-inkscape-font-specification:'CMU Serif Medium';font-variant-ligatures:none;text-align:center;text-decoration-color:#000000;text-anchor:middle;fill:#000000;stroke-width:0.0246068;-inkscape-stroke:none;stop-color:#000000"
     x="48.192635"
     y="20.959867"
     id="text1-3"
     transform="scale(1.0478981,0.95429127)"><tspan
       sodipodi:role="line"
       id="tspan1-5"
       style="stroke-width:0.0246068"
       x="48.192635"
       y="20.959867">\raisebox{-.5\height}{\(\sim\)}</tspan></text><path
     id="path26"
     style="display:none;fill:none;stroke:#ff6600;stroke-width:4;stroke-linecap:butt;stroke-linejoin:miter;stroke-dasharray:none;stroke-opacity:1"
     d="m 40.529207,0.001826 c 0,17.78 -40.056465,31.115 -40.056465,40.005 m 20.028232,-40.005 c 0,8.89 -20.028232,10.97557 -20.028232,20.0025 0,9.02693 20.028232,11.12351 20.028232,20.0025 M 0.472742,0.001826 c 0,8.89 40.056465,22.225 40.056464,40.005"
     inkscape:label="thick"
     sodipodi:insensitive="true" /><path
     id="path28"
     style="display:none;fill:none;stroke:#808080;stroke-width:0.943533;stroke-linecap:butt;stroke-linejoin:miter;stroke-dasharray:none;stroke-opacity:1"
     d="m 40.529207,0.001826 c 0,17.78 -40.056465,31.115 -40.056465,40.005 m 20.028232,-40.005 c 0,8.89 -20.028232,10.97557 -20.028232,20.0025 0,9.02693 20.028232,11.12351 20.028232,20.0025 M 0.472742,0.001826 c 0,8.89 40.056465,22.225 40.056464,40.005"
     inkscape:label="behind"
     sodipodi:insensitive="true" /><path
     style="baseline-shift:baseline;display:inline;overflow:visible;opacity:1;vector-effect:none;enable-background:accumulate;stop-color:#000000;stop-opacity:1"
     d="m 0,0.00198 c 0,1.28839 0.706231,2.55962 1.839844,3.85351 1.133614,1.2939 2.719578,2.62785 4.611328,4.02735 0.849989,0.62881 2.02078,1.47002 2.980364,2.12487 -2.261808,1.25187 -4.389401,2.46278 -6.136614,3.9552 C 1.361777,15.61416 0,17.57275 0,20.00393 c 0,2.43119 1.361807,4.39282 3.294922,6.04492 1.73095,1.47933 3.951188,2.7429 6.191406,3.98438 C 8.9754,30.38111 8.273182,30.81974 7.791016,31.16018 5.53742,32.75134 3.619939,34.2579 2.244141,35.70901 0.868343,37.16012 0,38.57062 0,40.00588 h 0.945313 c 0,-1.04059 0.685934,-2.27696 1.984375,-3.64648 1.29844,-1.36952 3.174679,-2.85546 5.404297,-4.42969 0.579812,-0.40938 1.437088,-0.94745 2.060547,-1.36914 2.45307,1.3536 4.885563,2.69603 6.671875,4.20508 1.822513,1.53963 2.96289,3.19785 2.96289,5.24023 h 0.94336 c 0,-2.3971 -1.364096,-4.32815 -3.296875,-5.96093 -1.784672,-1.50767 -4.083398,-2.79745 -6.394532,-4.07422 4.005918,-2.67297 8.403855,-5.42179 12.900391,-8.57032 L 23.432105,20.77229 C 18.837028,23.98981 14.470979,26.69542 10.367188,29.44924 7.986421,28.1337 5.64377,26.81338 3.908203,25.3301 2.086026,23.77281 0.945313,22.08621 0.945313,20.00393 c 0,-2.08228 1.140742,-3.76778 2.96289,-5.32422 1.750656,-1.49537 4.011432,-2.77044 6.413759,-4.09668 3.121951,2.09796 6.362204,4.11183 9.918273,6.47949 4.996994,3.32705 9.980297,6.92592 13.691406,10.76954 3.711109,3.84361 6.125,7.90596 6.125,12.17382 H 41 C 41.000001,35.38374 38.408854,31.1129 34.609375,27.17776 30.809897,23.24262 25.778841,19.61782 20.761719,16.27737 17.325384,13.98942 14.274776,12.08211 11.256204,10.06544 13.54584,8.80054 15.907357,7.4632 17.675782,5.96877 19.608616,4.33541 20.972657,2.40162 20.972657,0.00198 h -0.94336 c 0,2.04536 -1.140431,3.706 -2.96289,5.24609 C 15.296232,6.74398 12.79784,8.14222 10.367532,9.48285 9.293587,8.755 7.945141,7.81361 7.011719,7.12307 5.148176,5.74444 3.605803,4.43886 2.548828,3.23245 1.491854,2.02603 0.945313,0.93609 0.945313,0.00198 Z m 40.056641,0 c 0,6.73831 -6.086489,12.99146 -13.605469,18.59765 l 0.779489,0.62554 C 34.821385,13.56548 41,7.29964 41,0.00198 Z"
     id="path30"
     sodipodi:nodetypes="cccccssccsccsscsccscccccssccsccssccccscccccccccc" /><path
     id="path26-3"
     style="display:none;fill:none;stroke:#ff6600;stroke-width:4;stroke-linecap:butt;stroke-linejoin:miter;stroke-dasharray:none;stroke-opacity:1"
     d="m 63.11875,-1.5e-4 c 0,17.78 40.05647,31.115 40.05647,40.005 M 83.146988,-1.5e-4 c 0,8.89 20.028232,10.97557 20.028232,20.0025 0,9.02693 -20.028232,11.12351 -20.028232,20.0025 m 20.028232,-40.005 c 0,8.89 -40.05647,22.225 -40.05646,40.005"
     inkscape:label="thick"
     sodipodi:insensitive="true" /><path
     id="path28-5"
     style="display:none;fill:none;stroke:#808080;stroke-width:0.943533;stroke-linecap:butt;stroke-linejoin:miter;stroke-dasharray:none;stroke-opacity:1"
     d="m 63.11875,-1.5e-4 c 0,17.78 40.05647,31.115 40.05647,40.005 M 83.146988,-1.5e-4 c 0,8.89 20.028232,10.97557 20.028232,20.0025 0,9.02693 -20.028232,11.12351 -20.028232,20.0025 m 20.028232,-40.005 c 0,8.89 -40.05647,22.225 -40.05646,40.005"
     inkscape:label="behind"
     sodipodi:insensitive="true" /><path
     style="baseline-shift:baseline;display:inline;overflow:visible;opacity:1;vector-effect:none;enable-background:accumulate;stop-color:#000000;stop-opacity:1"
     d="m 101.4944,0 c 0,1.43526 -0.86834,2.84576 -2.244118,4.29687 -1.375792,1.45111 -3.293273,2.95962 -5.546869,4.55078 -0.483193,0.34116 -1.187145,0.78027 -1.699219,1.12891 2.241455,1.24143 4.463393,2.50501 6.195313,3.98437 1.933123,1.65125 3.294893,3.60984 3.294893,6.04102 0,2.43119 -1.3618,4.39282 -3.294893,6.04492 -1.746239,1.4924 -3.989429,2.76566 -6.25,4.01758 0.958287,0.65401 2.244807,1.43251 3.09375,2.06055 1.89175,1.39949 3.477718,2.73345 4.611322,4.02734 1.133591,1.2939 1.839821,2.56317 1.839821,3.85156 h -0.94531 c 0,-0.93411 -0.54654,-2.02405 -1.603488,-3.23047 -1.056976,-1.20641 -2.599349,-2.51199 -4.462892,-3.89062 -0.9322,-0.68963 -2.367072,-1.56221 -3.439453,-2.28906 -2.431731,1.34205 -4.844023,2.67363 -6.615235,4.16992 -1.822513,1.53963 -2.96289,3.19785 -2.96289,5.24023 h -0.94336 c 0,-2.3971 1.364096,-4.32815 3.296875,-5.96093 1.769366,-1.49474 4.045022,-2.77488 6.335938,-4.04102 C 87.134963,27.98444 84.17069,26.01756 80.73271,23.72851 75.715588,20.38806 70.684532,16.76521 66.885054,12.83008 63.085575,8.89494 60.494429,4.62214 60.494429,0 h 0.943359 c 0,4.26786 2.413891,8.33021 6.125,12.17383 3.711109,3.84361 8.694412,7.44248 13.691406,10.76953 3.55747,2.3686 6.693572,4.43843 9.816407,6.53711 2.400983,-1.32622 4.765867,-2.65695 6.515625,-4.15235 1.822176,-1.55729 2.962864,-3.24389 2.962864,-5.32617 0,-2.08228 -1.140718,-3.76778 -2.962864,-5.32422 -1.736096,-1.48293 -4.079351,-2.80189 -6.460938,-4.11719 -4.103349,2.75344 -8.382296,5.40787 -12.976592,8.62484 L 77.312788,18.60547 C 81.807593,15.45816 86.202393,12.70923 90.207319,10.03711 87.898261,8.76201 85.601773,7.47364 83.818647,5.96679 81.885813,4.33343 80.521772,2.39964 80.521772,0 h 0.94336 c 0,2.04536 1.140431,3.706 2.96289,5.24609 1.7849,1.50835 4.214892,2.85124 6.666016,4.20313 C 91.719385,9.0263 92.578982,8.48671 93.160444,8.07617 95.390062,6.50194 97.266301,5.01795 98.564745,3.64843 99.863179,2.27892 100.54909,1.0406 100.54909,0 Z m -27.209119,20.78862 0.757976,0.61763 C 67.524276,27.01245 61.437788,33.26559 61.437788,40.0039 h -0.943359 c 0,-7.29766 6.200128,-13.55559 13.790852,-19.21528 z"
     id="path30-6"
     sodipodi:nodetypes="csscssscssccsscsccscssccsscsssccccsccscssccccccc" /></svg>
