<?xml version="1.0" encoding="UTF-8" standalone="no"?>
<!-- Created with Inkscape (http://www.inkscape.org/) -->

<svg
   width="86.488785mm"
   height="40.000149mm"
   viewBox="0 0 86.488784 40.000149"
   version="1.1"
   id="svg1"
   xml:space="preserve"
   inkscape:version="1.4.2 (ebf0e940d0, 2025-05-08)"
   sodipodi:docname="reidemeister_1_framed.svg"
   inkscape:export-filename="/home/damian/Projects/mphil-thesis/graphics/reidemeister_1_framed.pdf"
   inkscape:export-xdpi="96"
   inkscape:export-ydpi="96"
   xmlns:inkscape="http://www.inkscape.org/namespaces/inkscape"
   xmlns:sodipodi="http://sodipodi.sourceforge.net/DTD/sodipodi-0.dtd"
   xmlns="http://www.w3.org/2000/svg"
   xmlns:svg="http://www.w3.org/2000/svg"><sodipodi:namedview
     id="namedview1"
     pagecolor="#ffffff"
     bordercolor="#000000"
     borderopacity="0.25"
     inkscape:showpageshadow="2"
     inkscape:pageopacity="0.0"
     inkscape:pagecheckerboard="0"
     inkscape:deskcolor="#d1d1d1"
     inkscape:document-units="mm"
     inkscape:zoom="3.5888874"
     inkscape:cx="126.64092"
     inkscape:cy="89.582081"
     inkscape:window-width="2556"
     inkscape:window-height="1394"
     inkscape:window-x="0"
     inkscape:window-y="0"
     inkscape:window-maximized="0"
     inkscape:current-layer="g19"
     showguides="true"><sodipodi:guide
       position="38.674771,177.62795"
       orientation="0,-1"
       id="guide2"
       inkscape:locked="false" /><sodipodi:guide
       position="0.500974,29.99999"
       orientation="0,1"
       id="guide1"
       inkscape:locked="false"
       inkscape:label=""
       inkscape:color="rgb(0,134,229)" /><sodipodi:guide
       position="-18.224282,19.99999"
       orientation="0,1"
       id="guide3"
       inkscape:locked="false"
       inkscape:label=""
       inkscape:color="rgb(0,134,229)" /><sodipodi:guide
       position="-14.220455,-10.00001"
       orientation="0,1"
       id="guide5"
       inkscape:locked="false"
       inkscape:label=""
       inkscape:color="rgb(0,134,229)" /><sodipodi:guide
       position="0.500974,37.499989"
       orientation="1,0"
       id="guide6"
       inkscape:locked="false" /><sodipodi:guide
       position="20.500974,37.499989"
       orientation="-1,0"
       id="guide7"
       inkscape:locked="false"
       inkscape:label=""
       inkscape:color="rgb(0,134,229)" /><sodipodi:guide
       position="-5.5668757,9.99999"
       orientation="0,1"
       id="guide8"
       inkscape:locked="false"
       inkscape:label=""
       inkscape:color="rgb(0,134,229)" /><sodipodi:guide
       position="20.500975,-1e-05"
       orientation="0,1"
       id="guide9"
       inkscape:locked="false"
       inkscape:label=""
       inkscape:color="rgb(0,134,229)" /><sodipodi:guide
       position="20.500975,-5.00001"
       orientation="0,1"
       id="guide10"
       inkscape:locked="false"
       inkscape:label=""
       inkscape:color="rgb(0,134,229)" /><sodipodi:guide
       position="-6.2753955,24.99999"
       orientation="0,1"
       id="guide11"
       inkscape:locked="false"
       inkscape:label=""
       inkscape:color="rgb(0,134,229)" /><sodipodi:guide
       position="-11.196589,14.99999"
       orientation="0,1"
       id="guide12"
       inkscape:locked="false"
       inkscape:label=""
       inkscape:color="rgb(0,134,229)" /><sodipodi:guide
       position="-7.2764543,4.99999"
       orientation="0,1"
       id="guide13"
       inkscape:locked="false"
       inkscape:label=""
       inkscape:color="rgb(0,134,229)" /></sodipodi:namedview><defs
     id="defs1"><inkscape:path-effect
       effect="knot"
       id="path-effect17"
       is_visible="true"
       lpeversion="1"
       switcher_size="15"
       interruption_width="4"
       prop_to_stroke_width="true"
       add_stroke_width="inkscape_1.0_and_up"
       both="false"
       inverse_width="false"
       add_other_stroke_width="inkscape_1.0_and_up"
       crossing_points_vector="54.302535 | 178.99205 | 0 | 0 | 0 | 1 | 0.3660254 | 1.6339745 | -1 | 54.302535 | 198.99205 | 0 | 0 | 2 | 3 | 2.3660254 | 3.6339745 | 1" /><inkscape:path-effect
       effect="knot"
       id="path-effect8"
       is_visible="true"
       lpeversion="1"
       switcher_size="15"
       interruption_width="3"
       prop_to_stroke_width="true"
       add_stroke_width="inkscape_1.0_and_up"
       both="false"
       inverse_width="false"
       add_other_stroke_width="inkscape_1.0_and_up"
       crossing_points_vector="84.792825 | 246.1885 | 0 | 0 | 0 | 3 | 1.0772964 | 3.8566079 | -1 | 120.97507 | 237.47441 | 0 | 0 | 1 | 14 | 1.6053068 | 14.899405 | 1 | 131.13554 | 252.76299 | 0 | 0 | 2 | 13 | 2.4672829 | 14.301923 | 1 | 86.621936 | 213.86468 | 0 | 0 | 4 | 9 | 4.6955013 | 9.2794271 | -1 | 87.388621 | 200.97617 | 0 | 0 | 5 | 10 | 4.9942621 | 10.658389 | -1 | 101.54085 | 168.15628 | 0 | 0 | 6 | 17 | 5.8331807 | 16.33806 | -1 | 148.9519 | 200.15387 | 0 | 0 | 7 | 12 | 7.1490625 | 12.217689 | 1 | 120.7052 | 222.29851 | 0 | 0 | 8 | 15 | 7.9529358 | 15.212815 | 1 | 119.99313 | 195.33707 | 0 | 0 | 11 | 16 | 11.375947 | 15.673948 | 1" /><inkscape:path-effect
       effect="knot"
       id="path-effect6"
       is_visible="true"
       lpeversion="1"
       switcher_size="15"
       interruption_width="4"
       prop_to_stroke_width="true"
       add_stroke_width="inkscape_1.0_and_up"
       both="false"
       inverse_width="false"
       add_other_stroke_width="inkscape_1.0_and_up"
       crossing_points_vector="84.792825 | 246.1885 | 0 | 0 | 0 | 3 | 1.0772964 | 3.8566079 | -1 | 120.97507 | 237.47441 | 0 | 0 | 1 | 14 | 1.6053068 | 14.899405 | 1 | 131.13554 | 252.76299 | 0 | 0 | 2 | 13 | 2.4672829 | 14.301923 | 1 | 86.621936 | 213.86468 | 0 | 0 | 4 | 9 | 4.6955013 | 9.2794271 | -1 | 87.388621 | 200.97617 | 0 | 0 | 5 | 10 | 4.9942621 | 10.658389 | -1 | 101.54085 | 168.15628 | 0 | 0 | 6 | 17 | 5.8331807 | 16.33806 | -1 | 148.9519 | 200.15387 | 0 | 0 | 7 | 12 | 7.1490625 | 12.217689 | 1 | 120.7052 | 222.29851 | 0 | 0 | 8 | 15 | 7.9529358 | 15.212815 | 1 | 119.99313 | 195.33707 | 0 | 0 | 11 | 16 | 11.375947 | 15.673948 | 1" /><inkscape:path-effect
       effect="knot"
       id="path-effect4"
       is_visible="true"
       lpeversion="1"
       switcher_size="15"
       interruption_width="3"
       prop_to_stroke_width="true"
       add_stroke_width="inkscape_1.0_and_up"
       both="false"
       inverse_width="false"
       add_other_stroke_width="inkscape_1.0_and_up"
       crossing_points_vector="84.792825 | 246.1885 | 0 | 0 | 0 | 3 | 1.0772964 | 3.8566079 | -1 | 120.97507 | 237.47441 | 0 | 0 | 1 | 14 | 1.6053068 | 14.899405 | 1 | 131.13554 | 252.76299 | 0 | 0 | 2 | 13 | 2.4672829 | 14.301923 | 1 | 86.621936 | 213.86468 | 0 | 0 | 4 | 9 | 4.6955013 | 9.2794271 | -1 | 87.388621 | 200.97617 | 0 | 0 | 5 | 10 | 4.9942621 | 10.658389 | -1 | 101.54085 | 168.15628 | 0 | 0 | 6 | 17 | 5.8331807 | 16.33806 | -1 | 148.9519 | 200.15387 | 0 | 0 | 7 | 12 | 7.1490625 | 12.217689 | 1 | 120.7052 | 222.29851 | 0 | 0 | 8 | 15 | 7.9529358 | 15.212815 | 1 | 119.99313 | 195.33707 | 0 | 0 | 11 | 16 | 11.375947 | 15.673948 | 1" /><inkscape:path-effect
       effect="knot"
       id="path-effect2"
       is_visible="true"
       lpeversion="1"
       switcher_size="15"
       interruption_width="4"
       prop_to_stroke_width="true"
       add_stroke_width="inkscape_1.0_and_up"
       both="false"
       inverse_width="false"
       add_other_stroke_width="inkscape_1.0_and_up"
       crossing_points_vector="" /></defs><g
     inkscape:label="Layer 1"
     inkscape:groupmode="layer"
     id="layer1"
     transform="translate(-47.724609,-168.99204)"><path
       style="display:none;fill:none;stroke:#ff6600;stroke-width:4.5;stroke-linecap:butt;stroke-linejoin:miter;stroke-dasharray:none;stroke-opacity:1"
       d="m 48.225583,168.99205 c 0,10 20,20 20,10 0,-10 -20,0 -20,10 0,10 20,20 20,10 0,-10 -20,0 -20,10"
       id="path17"
       sodipodi:nodetypes="csssc"
       inkscape:label="thick" /><path
       style="display:none;fill:none;stroke:#666666;stroke-width:1;stroke-linecap:butt;stroke-linejoin:miter;stroke-dasharray:none;stroke-opacity:1"
       d="m 48.225583,168.99205 c 0,10 20,20 20,10 0,-10 -20,0 -20,10 0,10 20,20 20,10 0,-10 -20,0 -20,10"
       id="path18"
       sodipodi:nodetypes="csssc"
       inkscape:label="backup" /><path
       style="baseline-shift:baseline;display:inline;overflow:visible;opacity:1;vector-effect:none;enable-background:accumulate;stop-color:#000000;stop-opacity:1"
       d="m 47.724609,168.99219 c 0,3.29077 1.901201,6.36398 4.595616,8.92047 l 0.785244,-0.61579 c -2.570771,-2.43917 -4.38086,-5.42526 -4.38086,-8.30468 z m 17.458985,5.44336 c -2.052729,-0.34212 -4.622012,0.32956 -7.181641,1.60937 -2.559628,1.27982 -5.105207,3.18655 -7.03125,5.4336 -1.926042,2.24705 -3.246094,4.847 -3.246094,7.51367 0,2.66666 1.320052,5.26662 3.246094,7.51367 1.926043,2.24705 4.471622,4.15378 7.03125,5.43359 2.559629,1.27982 5.128912,1.94955 7.181641,1.60742 1.026364,-0.17106 1.934102,-0.61459 2.568359,-1.38476 0.634258,-0.77017 0.972656,-1.83659 0.972656,-3.16992 0,-1.53336 -0.453572,-2.71772 -1.27539,-3.4961 -0.821819,-0.77837 -1.960562,-1.12096 -3.222657,-1.14453 -2.524188,-0.0471 -5.932206,1.31634 -8.802704,3.19212 l 0.841767,0.65163 c 2.750176,-1.79715 5.754088,-2.88459 7.941406,-2.84375 1.093659,0.0204 1.95903,0.30878 2.552735,0.8711 0.593704,0.56232 0.964843,1.42784 0.964843,2.76953 0,1.16666 -0.284648,1.97525 -0.74414,2.5332 -0.459493,0.55796 -1.114255,0.89372 -1.962891,1.03516 -1.697271,0.28288 -4.127988,-0.29544 -6.568359,-1.51563 -2.440372,-1.22018 -4.894793,-3.06345 -6.71875,-5.1914 -1.823958,-2.12795 -3.00586,-4.528 -3.00586,-6.86133 0,-2.33334 1.181902,-4.73338 3.00586,-6.86133 1.823957,-2.12795 4.278378,-3.97122 6.71875,-5.19141 2.440371,-1.22018 4.871088,-1.80045 6.568359,-1.51758 0.848636,0.14144 1.503398,0.47916 1.962891,1.03711 0.459492,0.55796 0.74414,1.36654 0.74414,2.53321 0,1.34168 -0.371139,2.20721 -0.964843,2.76953 -0.593705,0.56232 -1.459076,0.85067 -2.552735,0.87109 -2.187318,0.0409 -5.19123,-1.04854 -7.941406,-2.8457 l -0.807525,0.6815 c 2.870498,1.87578 6.244274,3.21134 8.768462,3.1642 1.262095,-0.0236 2.400838,-0.36811 3.222657,-1.14648 0.821818,-0.77838 1.27539,-1.96079 1.27539,-3.49414 0,-1.33334 -0.338398,-2.39975 -0.972656,-3.16992 -0.634257,-0.77017 -1.541995,-1.21566 -2.568359,-1.38672 z m -12.863369,25.60358 c -2.694415,2.55648 -4.595616,5.66228 -4.595616,8.95306 h 1 c 0,-2.87943 1.810089,-5.86552 4.38086,-8.30469 z"
       id="path7"
       sodipodi:nodetypes="cccccscssscssscccccsssscssscccsscccccsssccccc" /><path
       style="baseline-shift:baseline;display:inline;overflow:visible;vector-effect:none;enable-background:accumulate;stop-color:#000000"
       d="m 134.21339,168.99206 c 0,3.29077 -1.9012,6.36398 -4.59562,8.92047 l -0.78524,-0.6158 c 2.57077,-2.43916 4.38086,-5.42526 4.38086,-8.30467 z m -17.45899,5.44336 c 2.05273,-0.34212 4.62202,0.32956 7.18164,1.60937 2.55963,1.27982 5.10521,3.18655 7.03125,5.4336 1.92605,2.24705 3.2461,4.847 3.2461,7.51367 0,2.66666 -1.32005,5.26662 -3.2461,7.51367 -1.92604,2.24705 -4.47162,4.15378 -7.03125,5.43359 -2.55962,1.27982 -5.12891,1.94955 -7.18164,1.60742 -1.02636,-0.17106 -1.9341,-0.61459 -2.56836,-1.38476 -0.63425,-0.77017 -0.97265,-1.83659 -0.97265,-3.16992 0,-1.53336 0.45357,-2.71772 1.27539,-3.4961 0.82182,-0.77837 1.96056,-1.12096 3.22266,-1.14453 2.52418,-0.0471 5.9322,1.31634 8.8027,3.19212 l -0.84177,0.65163 c -2.75017,-1.79715 -5.75409,-2.88459 -7.9414,-2.84375 -1.09366,0.0204 -1.95903,0.30878 -2.55274,0.8711 -0.5937,0.56232 -0.96484,1.42784 -0.96484,2.76953 0,1.16666 0.28465,1.97525 0.74414,2.5332 0.45949,0.55796 1.11425,0.89372 1.96289,1.03516 1.69727,0.28288 4.12799,-0.29544 6.56836,-1.51563 2.44037,-1.22018 4.89479,-3.06345 6.71875,-5.1914 1.82396,-2.12795 3.00586,-4.528 3.00586,-6.86133 0,-2.33334 -1.1819,-4.73338 -3.00586,-6.86133 -1.82396,-2.12795 -4.27838,-3.97122 -6.71875,-5.19141 -2.44037,-1.22018 -4.87109,-1.80045 -6.56836,-1.51758 -0.84864,0.14144 -1.5034,0.47916 -1.96289,1.03711 -0.45949,0.55796 -0.74414,1.36654 -0.74414,2.53321 0,1.34168 0.37114,2.20721 0.96484,2.76953 0.59371,0.56232 1.45908,0.85067 2.55274,0.87109 2.18731,0.0409 5.19123,-1.04854 7.9414,-2.8457 l 0.80753,0.6815 c -2.8705,1.87578 -6.24428,3.21134 -8.76846,3.1642 -1.2621,-0.0236 -2.40084,-0.36811 -3.22266,-1.14648 -0.82182,-0.77838 -1.27539,-1.96079 -1.27539,-3.49414 0,-1.33334 0.3384,-2.39975 0.97265,-3.16992 0.63426,-0.77017 1.542,-1.21566 2.56836,-1.38672 z m 12.86337,25.60358 c 2.69442,2.55648 4.59562,5.66228 4.59562,8.95306 h -1 c 0,-2.87944 -1.81009,-5.86552 -4.38086,-8.30469 z"
       id="path7-3"
       sodipodi:nodetypes="cccccscssscssscccccsssscssscccsscccccsssccccc" /><g
       id="svg10-5"
       transform="matrix(0.03438065,0,0,0.03130949,10.897735,182.36331)"><text
         xml:space="preserve"
         style="font-weight:500;font-size:12px;line-height:1.25;font-family:'CMU Serif';-inkscape-font-specification:'CMU Serif Medium';font-variant-ligatures:none;text-align:center;text-decoration-color:#000000;text-anchor:middle;fill:#000000;stroke-width:0.749999;-inkscape-stroke:none;stop-color:#000000"
         x="1958.3062"
         y="211.7162"
         id="text1-3"><tspan
           sodipodi:role="line"
           id="tspan1-5"
           style="stroke-width:0.749999"
           x="1958.3062"
           y="211.7162">\raisebox{-.5\height}{\(\sim\)}</tspan></text></g><g
       id="svg10-5-9"
       transform="matrix(0.03438065,0,0,0.03130949,35.897712,182.36333)"><text
         xml:space="preserve"
         style="font-weight:500;font-size:12px;line-height:1.25;font-family:'CMU Serif';-inkscape-font-specification:'CMU Serif Medium';font-variant-ligatures:none;text-align:center;text-decoration-color:#000000;text-anchor:middle;fill:#000000;stroke-width:0.749999;-inkscape-stroke:none;stop-color:#000000"
         x="1958.3062"
         y="211.7162"
         id="text1-3-3"><tspan
           sodipodi:role="line"
           id="tspan1-5-1"
           style="stroke-width:0.749999"
           x="1958.3062"
           y="211.7162">\raisebox{-.5\height}{\(\sim\)}</tspan></text></g><path
       style="fill:none;stroke:#000000;stroke-width:1;stroke-linecap:butt;stroke-linejoin:miter;stroke-dasharray:none;stroke-opacity:1"
       d="m 90.725563,168.99204 v 40"
       id="path15" /><g
       id="g19"
       inkscape:label="spacers"
       style="display:none"><path
         style="fill:none;stroke:#000000;stroke-width:0.264583px;stroke-linecap:butt;stroke-linejoin:miter;stroke-opacity:1"
         d="m 78.225573,188.99204 -9.99999,1e-5"
         id="path13" /><path
         style="fill:none;stroke:#000000;stroke-width:0.264583px;stroke-linecap:butt;stroke-linejoin:miter;stroke-opacity:1"
         d="m 88.225563,188.99203 -9.99999,1e-5"
         id="path13-9" /><path
         style="fill:none;stroke:#000000;stroke-width:0.264583px;stroke-linecap:butt;stroke-linejoin:miter;stroke-opacity:1"
         d="m 103.22555,188.99206 -9.999986,1e-5"
         id="path13-94" /><path
         style="fill:none;stroke:#000000;stroke-width:0.264583px;stroke-linecap:butt;stroke-linejoin:miter;stroke-opacity:1"
         d="m 113.22554,188.99205 -9.99999,1e-5"
         id="path13-9-7" /><path
         style="fill:none;stroke:#000000;stroke-width:0.264583px;stroke-linecap:butt;stroke-linejoin:miter;stroke-opacity:1"
         d="m 88.225562,188.99203 2.500001,2e-5"
         id="path16" /><path
         style="fill:none;stroke:#000000;stroke-width:0.264583px;stroke-linecap:butt;stroke-linejoin:miter;stroke-opacity:1"
         d="m 90.725563,188.99205 2.500001,2e-5"
         id="path16-3" /></g></g></svg>
