<?xml version="1.0" encoding="UTF-8" standalone="no"?>
<!-- Created with Inkscape (http://www.inkscape.org/) -->

<svg
   width="101.49492mm"
   height="40.007687mm"
   viewBox="0 0 101.49492 40.007686"
   version="1.1"
   id="svg1"
   xml:space="preserve"
   inkscape:version="1.4.2 (ebf0e940d0, 2025-05-08)"
   sodipodi:docname="reidemeister_overcrossings_commute.svg"
   inkscape:export-filename="../knot_9_33.pdf"
   inkscape:export-xdpi="96"
   inkscape:export-ydpi="96"
   xmlns:inkscape="http://www.inkscape.org/namespaces/inkscape"
   xmlns:sodipodi="http://sodipodi.sourceforge.net/DTD/sodipodi-0.dtd"
   xmlns="http://www.w3.org/2000/svg"
   xmlns:svg="http://www.w3.org/2000/svg"><sodipodi:namedview
     id="namedview1"
     pagecolor="#ffffff"
     bordercolor="#000000"
     borderopacity="0.25"
     inkscape:showpageshadow="2"
     inkscape:pageopacity="0.0"
     inkscape:pagecheckerboard="0"
     inkscape:deskcolor="#d1d1d1"
     inkscape:document-units="mm"
     inkscape:zoom="2.5377266"
     inkscape:cx="144.02655"
     inkscape:cy="67.580172"
     inkscape:window-width="2556"
     inkscape:window-height="1394"
     inkscape:window-x="0"
     inkscape:window-y="0"
     inkscape:window-maximized="0"
     inkscape:current-layer="svg1"
     showguides="true"><sodipodi:guide
       position="58.674772,187.62825"
       orientation="0,-1"
       id="guide2"
       inkscape:locked="false" /><sodipodi:guide
       position="20.500975,40.000293"
       orientation="0,1"
       id="guide1"
       inkscape:locked="false"
       inkscape:label=""
       inkscape:color="rgb(0,134,229)" /><sodipodi:guide
       position="1.7757195,30.000293"
       orientation="0,1"
       id="guide3"
       inkscape:locked="false"
       inkscape:label=""
       inkscape:color="rgb(0,134,229)" /><sodipodi:guide
       position="5.7795455,0.00029278787"
       orientation="0,1"
       id="guide5"
       inkscape:locked="false"
       inkscape:label=""
       inkscape:color="rgb(0,134,229)" /><sodipodi:guide
       position="20.500975,47.500291"
       orientation="1,0"
       id="guide6"
       inkscape:locked="false" /><sodipodi:guide
       position="40.500974,47.500291"
       orientation="-1,0"
       id="guide7"
       inkscape:locked="false"
       inkscape:label=""
       inkscape:color="rgb(0,134,229)" /><sodipodi:guide
       position="14.433125,20.000292"
       orientation="0,1"
       id="guide8"
       inkscape:locked="false"
       inkscape:label=""
       inkscape:color="rgb(0,134,229)" /><sodipodi:guide
       position="40.500975,10.000292"
       orientation="0,1"
       id="guide9"
       inkscape:locked="false"
       inkscape:label=""
       inkscape:color="rgb(0,134,229)" /><sodipodi:guide
       position="40.500975,5.0002927"
       orientation="0,1"
       id="guide10"
       inkscape:locked="false"
       inkscape:label=""
       inkscape:color="rgb(0,134,229)" /><sodipodi:guide
       position="13.724605,35.000293"
       orientation="0,1"
       id="guide11"
       inkscape:locked="false"
       inkscape:label=""
       inkscape:color="rgb(0,134,229)" /><sodipodi:guide
       position="8.8034116,25.000292"
       orientation="0,1"
       id="guide12"
       inkscape:locked="false"
       inkscape:label=""
       inkscape:color="rgb(0,134,229)" /><sodipodi:guide
       position="12.723547,15.000292"
       orientation="0,1"
       id="guide13"
       inkscape:locked="false"
       inkscape:label=""
       inkscape:color="rgb(0,134,229)" /><sodipodi:guide
       position="40.500975,-4.999707"
       orientation="0,-1"
       id="guide23"
       inkscape:locked="false" /><sodipodi:guide
       position="0.50097582,40.000291"
       orientation="1,0"
       id="guide24"
       inkscape:locked="false" /><sodipodi:guide
       position="20.500975,17.500293"
       orientation="0,-1"
       id="guide25"
       inkscape:locked="false" /></sodipodi:namedview><defs
     id="defs1"><inkscape:path-effect
       effect="knot"
       id="path-effect3"
       is_visible="true"
       lpeversion="1"
       switcher_size="5"
       interruption_width="3.5"
       prop_to_stroke_width="true"
       add_stroke_width="inkscape_1.0_and_up"
       both="false"
       inverse_width="false"
       add_other_stroke_width="inkscape_1.0_and_up"
       crossing_points_vector="38.065576 | 198.97077 | 0 | 1 | 1 | 1 | 0.67641538 | 1.4951437 | 1 | 53.057991 | 188.99454 | 0 | 2 | 0 | 1 | 0.41886117 | 0.58113883 | 0 | 38.06892 | 179.02055 | 1 | 2 | 0 | 0 | 0.50474501 | 0.32364818 | -1" /><inkscape:path-effect
       effect="knot"
       id="path-effect32"
       is_visible="true"
       lpeversion="1"
       switcher_size="5"
       interruption_width="3.5"
       prop_to_stroke_width="true"
       add_stroke_width="inkscape_1.0_and_up"
       both="false"
       inverse_width="false"
       add_other_stroke_width="inkscape_1.0_and_up"
       crossing_points_vector="38.065576 | 198.97077 | 0 | 1 | 1 | 1 | 0.67641538 | 1.4951437 | 1 | 53.057991 | 188.99454 | 0 | 2 | 0 | 1 | 0.41886117 | 0.58113883 | 0 | 38.06892 | 179.02055 | 1 | 2 | 0 | 0 | 0.50474501 | 0.32364818 | -1" /><inkscape:path-effect
       effect="knot"
       id="path-effect30"
       is_visible="true"
       lpeversion="1"
       switcher_size="5"
       interruption_width="3.5"
       prop_to_stroke_width="true"
       add_stroke_width="inkscape_1.0_and_up"
       both="false"
       inverse_width="false"
       add_other_stroke_width="inkscape_1.0_and_up"
       crossing_points_vector="38.065576 | 198.97077 | 0 | 1 | 1 | 1 | 0.67641538 | 1.4951437 | -1 | 53.057991 | 188.99454 | 0 | 2 | 0 | 1 | 0.41886117 | 0.58113883 | -1 | 38.06892 | 179.02055 | 1 | 2 | 0 | 0 | 0.50474501 | 0.32364818 | -1" /><inkscape:path-effect
       effect="knot"
       id="path-effect28"
       is_visible="true"
       lpeversion="1"
       switcher_size="5"
       interruption_width="3.5"
       prop_to_stroke_width="true"
       add_stroke_width="inkscape_1.0_and_up"
       both="false"
       inverse_width="false"
       add_other_stroke_width="inkscape_1.0_and_up"
       crossing_points_vector="38.065576 | 198.97077 | 0 | 1 | 1 | 1 | 0.67641538 | 1.4951437 | -1 | 53.057991 | 188.99454 | 0 | 2 | 0 | 1 | 0.41886117 | 0.58113883 | -1 | 38.06892 | 179.02055 | 1 | 2 | 0 | 0 | 0.50474501 | 0.32364818 | -1" /><inkscape:path-effect
       effect="knot"
       id="path-effect26"
       is_visible="true"
       lpeversion="1"
       switcher_size="5"
       interruption_width="3.5"
       prop_to_stroke_width="true"
       add_stroke_width="inkscape_1.0_and_up"
       both="false"
       inverse_width="false"
       add_other_stroke_width="inkscape_1.0_and_up"
       crossing_points_vector="38.065576 | 198.97077 | 0 | 1 | 1 | 1 | 0.67641538 | 1.4951437 | -1 | 53.057991 | 188.99454 | 0 | 2 | 0 | 1 | 0.41886117 | 0.58113883 | -1 | 38.06892 | 179.02055 | 1 | 2 | 0 | 0 | 0.50474501 | 0.32364818 | -1" /><inkscape:path-effect
       effect="knot"
       id="path-effect25"
       is_visible="true"
       lpeversion="1"
       switcher_size="5"
       interruption_width="3"
       prop_to_stroke_width="true"
       add_stroke_width="inkscape_1.0_and_up"
       both="false"
       inverse_width="false"
       add_other_stroke_width="inkscape_1.0_and_up"
       crossing_points_vector="38.065576 | 198.97077 | 0 | 1 | 0 | 0 | 0.67641538 | 1.4951437 | 1" /><inkscape:path-effect
       effect="knot"
       id="path-effect23"
       is_visible="true"
       lpeversion="1"
       switcher_size="15"
       interruption_width="3.5"
       prop_to_stroke_width="true"
       add_stroke_width="inkscape_1.0_and_up"
       both="false"
       inverse_width="false"
       add_other_stroke_width="inkscape_1.0_and_up"
       crossing_points_vector="58.225582 | 178.99205 | 0 | 1 | 0 | 0 | 0.49999996 | 0.50000004 | -1 | 58.225584 | 198.99207 | 0 | 1 | 1 | 1 | 1.5 | 1.5 | 1" /><inkscape:path-effect
       effect="knot"
       id="path-effect21"
       is_visible="true"
       lpeversion="1"
       switcher_size="15"
       interruption_width="3"
       prop_to_stroke_width="true"
       add_stroke_width="inkscape_1.0_and_up"
       both="false"
       inverse_width="false"
       add_other_stroke_width="inkscape_1.0_and_up"
       crossing_points_vector="58.225582 | 178.99205 | 0 | 1 | 0 | 0 | 0.49999996 | 0.50000004 | -1 | 58.225584 | 198.99207 | 0 | 1 | 1 | 1 | 1.5 | 1.5 | 1" /><inkscape:path-effect
       effect="knot"
       id="path-effect19"
       is_visible="true"
       lpeversion="1"
       switcher_size="15"
       interruption_width="3"
       prop_to_stroke_width="true"
       add_stroke_width="inkscape_1.0_and_up"
       both="false"
       inverse_width="false"
       add_other_stroke_width="inkscape_1.0_and_up"
       crossing_points_vector="58.225582 | 178.99205 | 0 | 1 | 0 | 0 | 0.49999996 | 0.50000004 | -1 | 58.225584 | 198.99207 | 0 | 1 | 1 | 1 | 1.5 | 1.5 | 1" /><inkscape:path-effect
       effect="knot"
       id="path-effect17"
       is_visible="true"
       lpeversion="1"
       switcher_size="15"
       interruption_width="4"
       prop_to_stroke_width="true"
       add_stroke_width="inkscape_1.0_and_up"
       both="false"
       inverse_width="false"
       add_other_stroke_width="inkscape_1.0_and_up"
       crossing_points_vector="54.302535 | 178.99205 | 0 | 0 | 0 | 1 | 0.3660254 | 1.6339745 | -1 | 54.302535 | 198.99205 | 0 | 0 | 2 | 3 | 2.3660254 | 3.6339745 | 1" /><inkscape:path-effect
       effect="knot"
       id="path-effect8"
       is_visible="true"
       lpeversion="1"
       switcher_size="15"
       interruption_width="3"
       prop_to_stroke_width="true"
       add_stroke_width="inkscape_1.0_and_up"
       both="false"
       inverse_width="false"
       add_other_stroke_width="inkscape_1.0_and_up"
       crossing_points_vector="84.792825 | 246.1885 | 0 | 0 | 0 | 3 | 1.0772964 | 3.8566079 | -1 | 120.97507 | 237.47441 | 0 | 0 | 1 | 14 | 1.6053068 | 14.899405 | 1 | 131.13554 | 252.76299 | 0 | 0 | 2 | 13 | 2.4672829 | 14.301923 | 1 | 86.621936 | 213.86468 | 0 | 0 | 4 | 9 | 4.6955013 | 9.2794271 | -1 | 87.388621 | 200.97617 | 0 | 0 | 5 | 10 | 4.9942621 | 10.658389 | -1 | 101.54085 | 168.15628 | 0 | 0 | 6 | 17 | 5.8331807 | 16.33806 | -1 | 148.9519 | 200.15387 | 0 | 0 | 7 | 12 | 7.1490625 | 12.217689 | 1 | 120.7052 | 222.29851 | 0 | 0 | 8 | 15 | 7.9529358 | 15.212815 | 1 | 119.99313 | 195.33707 | 0 | 0 | 11 | 16 | 11.375947 | 15.673948 | 1" /><inkscape:path-effect
       effect="knot"
       id="path-effect6"
       is_visible="true"
       lpeversion="1"
       switcher_size="15"
       interruption_width="4"
       prop_to_stroke_width="true"
       add_stroke_width="inkscape_1.0_and_up"
       both="false"
       inverse_width="false"
       add_other_stroke_width="inkscape_1.0_and_up"
       crossing_points_vector="84.792825 | 246.1885 | 0 | 0 | 0 | 3 | 1.0772964 | 3.8566079 | -1 | 120.97507 | 237.47441 | 0 | 0 | 1 | 14 | 1.6053068 | 14.899405 | 1 | 131.13554 | 252.76299 | 0 | 0 | 2 | 13 | 2.4672829 | 14.301923 | 1 | 86.621936 | 213.86468 | 0 | 0 | 4 | 9 | 4.6955013 | 9.2794271 | -1 | 87.388621 | 200.97617 | 0 | 0 | 5 | 10 | 4.9942621 | 10.658389 | -1 | 101.54085 | 168.15628 | 0 | 0 | 6 | 17 | 5.8331807 | 16.33806 | -1 | 148.9519 | 200.15387 | 0 | 0 | 7 | 12 | 7.1490625 | 12.217689 | 1 | 120.7052 | 222.29851 | 0 | 0 | 8 | 15 | 7.9529358 | 15.212815 | 1 | 119.99313 | 195.33707 | 0 | 0 | 11 | 16 | 11.375947 | 15.673948 | 1" /><inkscape:path-effect
       effect="knot"
       id="path-effect4"
       is_visible="true"
       lpeversion="1"
       switcher_size="15"
       interruption_width="3"
       prop_to_stroke_width="true"
       add_stroke_width="inkscape_1.0_and_up"
       both="false"
       inverse_width="false"
       add_other_stroke_width="inkscape_1.0_and_up"
       crossing_points_vector="84.792825 | 246.1885 | 0 | 0 | 0 | 3 | 1.0772964 | 3.8566079 | -1 | 120.97507 | 237.47441 | 0 | 0 | 1 | 14 | 1.6053068 | 14.899405 | 1 | 131.13554 | 252.76299 | 0 | 0 | 2 | 13 | 2.4672829 | 14.301923 | 1 | 86.621936 | 213.86468 | 0 | 0 | 4 | 9 | 4.6955013 | 9.2794271 | -1 | 87.388621 | 200.97617 | 0 | 0 | 5 | 10 | 4.9942621 | 10.658389 | -1 | 101.54085 | 168.15628 | 0 | 0 | 6 | 17 | 5.8331807 | 16.33806 | -1 | 148.9519 | 200.15387 | 0 | 0 | 7 | 12 | 7.1490625 | 12.217689 | 1 | 120.7052 | 222.29851 | 0 | 0 | 8 | 15 | 7.9529358 | 15.212815 | 1 | 119.99313 | 195.33707 | 0 | 0 | 11 | 16 | 11.375947 | 15.673948 | 1" /><inkscape:path-effect
       effect="knot"
       id="path-effect2"
       is_visible="true"
       lpeversion="1"
       switcher_size="15"
       interruption_width="4"
       prop_to_stroke_width="true"
       add_stroke_width="inkscape_1.0_and_up"
       both="false"
       inverse_width="false"
       add_other_stroke_width="inkscape_1.0_and_up"
       crossing_points_vector="" /><inkscape:path-effect
       effect="knot"
       id="path-effect26-3"
       is_visible="true"
       lpeversion="1"
       switcher_size="5"
       interruption_width="3.5"
       prop_to_stroke_width="true"
       add_stroke_width="inkscape_1.0_and_up"
       both="false"
       inverse_width="false"
       add_other_stroke_width="inkscape_1.0_and_up"
       crossing_points_vector="38.065576 | 198.97077 | 0 | 1 | 1 | 1 | 0.67641538 | 1.4951437 | 1 | 53.057991 | 188.99454 | 0 | 2 | 0 | 1 | 0.41886117 | 0.58113883 | 1 | 38.06892 | 179.02055 | 1 | 2 | 0 | 0 | 0.50474501 | 0.32364818 | 1" /></defs><text
     xml:space="preserve"
     style="font-weight:500;font-size:0.39371px;line-height:1.25;font-family:'CMU Serif';-inkscape-font-specification:'CMU Serif Medium';font-variant-ligatures:none;text-align:center;text-decoration-color:#000000;text-anchor:middle;fill:#000000;stroke-width:0.0246068;-inkscape-stroke:none;stop-color:#000000"
     x="48.192635"
     y="20.957792"
     id="text1-3"
     transform="scale(1.0478981,0.95429127)"><tspan
       sodipodi:role="line"
       id="tspan1-5"
       style="stroke-width:0.0246068"
       x="48.192635"
       y="20.957792">\raisebox{-.5\height}{\(\sim\)}</tspan></text><path
     id="path26"
     style="display:none;fill:none;stroke:#ff6600;stroke-width:4;stroke-linecap:butt;stroke-linejoin:miter;stroke-dasharray:none;stroke-opacity:1"
     d="m 40.529207,-1.54e-4 c 0,17.78 -40.056465,31.115 -40.056465,40.005 m 20.028232,-40.005 c 0,8.89 -20.028232,10.97557 -20.028232,20.0025 0,9.02693 20.028232,11.12351 20.028232,20.0025 M 0.472742,-1.54e-4 c 0,8.89 40.056465,22.225 40.056464,40.005"
     inkscape:label="thick"
     sodipodi:insensitive="true" /><path
     id="path28"
     style="display:none;fill:none;stroke:#808080;stroke-width:0.943533;stroke-linecap:butt;stroke-linejoin:miter;stroke-dasharray:none;stroke-opacity:1"
     d="m 40.529207,-1.54e-4 c 0,17.78 -40.056465,31.115 -40.056465,40.005 m 20.028232,-40.005 c 0,8.89 -20.028232,10.97557 -20.028232,20.0025 0,9.02693 20.028232,11.12351 20.028232,20.0025 M 0.472742,-1.54e-4 c 0,8.89 40.056465,22.225 40.056464,40.005"
     inkscape:label="behind"
     sodipodi:insensitive="true" /><path
     id="path1"
     style="display:none;fill:none;stroke:#000000;stroke-width:0.943533;stroke-linecap:butt;stroke-linejoin:miter;stroke-dasharray:none;stroke-opacity:1"
     d="m 68.253816,168.99204 c 0,11.51358 -16.796934,21.16324 -28.636823,28.94896 m -3.081418,2.07136 c -4.88199,3.37842 -8.338224,6.37332 -8.338224,8.98468 m 20.028232,-40.005 c 0,8.89 -20.028232,10.97557 -20.028232,20.0025 0,9.02693 20.028232,11.12351 20.028232,20.0025 m -20.028232,-40.005 c 0,2.61192 3.457706,5.60753 8.341343,8.98684 m 3.081858,2.07154 c 11.839695,7.78532 28.633264,17.43419 28.633263,28.94662"
     inkscape:path-effect="#path-effect3"
     inkscape:original-d="m 68.253816,168.99204 c 0,17.78 -40.056465,31.115 -40.056465,40.005 m 20.028232,-40.005 c 0,8.89 -20.028232,10.97557 -20.028232,20.0025 0,9.02693 20.028232,11.12351 20.028232,20.0025 m -20.028232,-40.005 c 0,8.89 40.056465,22.225 40.056464,40.005"
     transform="translate(-27.724609,-168.99219)"
     inkscape:label="backup" /><path
     style="baseline-shift:baseline;display:inline;overflow:visible;opacity:1;vector-effect:none;enable-background:accumulate;stop-color:#000000;stop-opacity:1"
     d="m 0,0 c 0,1.51413 0.963085,3.0001 2.476563,4.53711 1.513478,1.537 3.182622,2.84817 5.635237,4.5453 L 8.953017,8.49824 C 6.521995,6.81605 4.584722,5.33361 3.148438,3.875 1.712154,2.41639 0.945313,1.09778 0.945313,0 Z m 20.029297,0 c 0,2.04536 -1.140431,3.706 -2.96289,5.24609 -1.82246,1.54009 -4.302751,2.91031 -6.806641,4.29102 -2.50389,1.3807 -5.031699,2.77258 -6.964844,4.42382 C 1.361777,15.61218 0,17.57077 0,20.00195 c 0,2.43119 1.361807,4.39282 3.294922,6.04492 1.933116,1.65211 4.460925,3.04438 6.964844,4.42578 2.503919,1.38141 4.984127,2.75139 6.806641,4.29102 1.822513,1.53963 2.96289,3.19785 2.96289,5.24023 h 0.94336 c 0,-2.3971 -1.364096,-4.32815 -3.296875,-5.96093 -1.93278,-1.63279 -4.457799,-3.01551 -6.960938,-4.39649 C 8.211705,28.2655 5.730381,26.88542 3.908203,25.32812 2.086026,23.77083 0.945313,22.08423 0.945313,20.00195 c 0,-2.08228 1.140742,-3.76778 2.96289,-5.32422 C 5.730352,13.1213 8.211676,11.74358 10.714844,10.36328 13.218012,8.98297 15.742947,7.60016 17.675782,5.96679 19.608616,4.33343 20.972657,2.39964 20.972657,0 Z m 20.027344,0 c 0,5.52737 -4.073961,10.72473 -9.710938,15.51367 -1.604632,1.36323 -3.477505,2.61016 -5.263671,3.90234 -4.361674,-3.11729 -8.693399,-5.96266 -12.742022,-8.62488 l -0.807551,0.59031 c 3.987579,2.62208 8.49927,5.59411 12.756604,8.62051 -4.25862,3.02732 -8.66779,5.92999 -12.65625,8.55273 l 0.855892,0.56329 c 4.048931,-2.66252 8.230872,-5.41039 12.593327,-8.52813 1.786535,1.29247 3.660732,2.54075 5.265625,3.9043 5.636108,4.78854 9.708984,9.98294 9.708984,15.50976 H 41 c 10e-7,-5.9856 -4.322369,-11.37014 -10.042968,-16.23047 -1.558703,-1.3243 -3.364561,-2.52047 -5.083985,-3.77148 1.719064,-1.25073 3.525544,-2.44554 5.083985,-3.76953 C 36.678495,11.3717 41,5.98621 41,0 Z M 8.174354,30.90006 C 5.722557,32.59675 3.987515,33.9321 2.47461,35.46875 0.961705,37.0054 0,38.49009 0,40.0039 h 0.945313 c 0,-1.09754 0.765462,-2.4148 2.201172,-3.87304 1.435709,-1.45825 3.503401,-3.04092 5.933593,-4.72266 z"
     id="path30"
     sodipodi:nodetypes="ccccscccsccsccsccsscsccccccsccccccccccscscccsccccc" /><path
     style="baseline-shift:baseline;display:inline;overflow:visible;vector-effect:none;enable-background:accumulate;stop-color:#000000"
     d="m 101.49492,0.00378491 c 0,1.51412999 -0.96309,3.00009999 -2.476583,4.53710999 -1.51348,1.537 -3.18262,2.84817 -5.63524,4.5453 l -0.84122,-0.58417 c 2.43103,-1.68219 4.3683,-3.16463 5.80458,-4.62324 1.436289,-1.45861 2.203153,-2.77722 2.203153,-3.87499999 z m -20.02932,0 c 0,2.04535999 1.140431,3.70599999 2.96289,5.24608999 1.82246,1.54009 4.302747,2.91031 6.806637,4.29102 2.50389,1.3807001 5.0317,2.7725801 6.96485,4.4238201 1.933163,1.65125 3.294943,3.60984 3.294943,6.04102 0,2.43119 -1.36181,4.39282 -3.294943,6.04492 -1.93312,1.65211 -4.46093,3.04438 -6.96485,4.42578 -2.50391,1.38141 -4.984123,2.75139 -6.806637,4.29102 -1.822513,1.53963 -2.96289,3.19785 -2.96289,5.24023 h -0.94336 c 0,-2.3971 1.364096,-4.32815 3.296875,-5.96093 1.93278,-1.63279 4.457802,-3.01551 6.960942,-4.39649 2.50314,-1.38098 4.98446,-2.76106 6.80664,-4.31836 1.822169,-1.55729 2.962913,-3.24389 2.962913,-5.32617 0,-2.08228 -1.140764,-3.76778 -2.962913,-5.32422 -1.82215,-1.55643 -4.30348,-2.93415 -6.80664,-4.31445 C 88.276887,8.9867549 85.75195,7.6039449 83.819115,5.9705749 81.886281,4.3372149 80.52224,2.4034249 80.52224,0.00378491 Z m -20.027343,0 c 0,5.52736999 4.07396,10.72473009 9.71094,15.51367009 1.60463,1.36323 3.477502,2.61016 5.263668,3.90234 4.361674,-3.11729 8.693399,-5.96266 12.742022,-8.62488 l 0.80755,0.59031 c -3.987578,2.62208 -8.499269,5.59411 -12.756603,8.62051 4.25862,3.02732 8.66779,5.92999 12.656253,8.55273 l -0.85589,0.56329 c -4.048936,-2.66252 -8.230877,-5.41039 -12.593332,-8.52813 -1.786535,1.29247 -3.660728,2.54075 -5.265628,3.9043 -5.6361,4.78854 -9.70898,9.98294 -9.70898,15.50976 h -0.94336 c 0,-5.9856 4.32237,-11.37014 10.04297,-16.23047 1.5587,-1.3243 3.364559,-2.52047 5.083983,-3.77148 -1.719064,-1.25073 -3.525543,-2.44554 -5.083983,-3.76953 C 64.816397,11.375485 60.494897,5.9899949 60.494897,0.00378491 Z M 93.320547,30.903845 c 2.45179,1.69669 4.18684,3.03204 5.69974,4.56869 1.512933,1.53665 2.474633,3.02134 2.474633,4.53515 h -0.94531 c 0,-1.09754 -0.765484,-2.4148 -2.201193,-3.87304 -1.43571,-1.45825 -3.50341,-3.04092 -5.9336,-4.72266 z"
     id="path30-5"
     sodipodi:nodetypes="ccccscccsccsccsccsscsccccccsccccccccccscscccsccccc" /></svg>
