<?xml version="1.0" encoding="UTF-8" standalone="no"?>
<!-- Created with Inkscape (http://www.inkscape.org/) -->

<svg
   width="210mm"
   height="297mm"
   viewBox="0 0 210 297"
   version="1.1"
   id="svg1"
   inkscape:version="1.4.1 (93de688d07, 2025-03-30)"
   sodipodi:docname="stratification.svg"
   inkscape:export-filename="../stratification.pdf"
   inkscape:export-xdpi="96"
   inkscape:export-ydpi="96"
   xmlns:inkscape="http://www.inkscape.org/namespaces/inkscape"
   xmlns:sodipodi="http://sodipodi.sourceforge.net/DTD/sodipodi-0.dtd"
   xmlns="http://www.w3.org/2000/svg"
   xmlns:svg="http://www.w3.org/2000/svg">
  <sodipodi:namedview
     id="namedview1"
     pagecolor="#ffffff"
     bordercolor="#000000"
     borderopacity="0.25"
     inkscape:showpageshadow="2"
     inkscape:pageopacity="0.0"
     inkscape:pagecheckerboard="0"
     inkscape:deskcolor="#d1d1d1"
     inkscape:document-units="mm"
     showguides="true"
     inkscape:zoom="1.0716961"
     inkscape:cx="305.59035"
     inkscape:cy="658.30228"
     inkscape:window-width="2560"
     inkscape:window-height="1412"
     inkscape:window-x="1440"
     inkscape:window-y="560"
     inkscape:window-maximized="1"
     inkscape:current-layer="layer1">
    <sodipodi:guide
       position="0,296.55562"
       orientation="-1,0"
       id="guide1"
       inkscape:locked="false"
       inkscape:label=""
       inkscape:color="rgb(0,134,229)" />
    <sodipodi:guide
       position="7.83346e-06,-0.0059797461"
       orientation="0,-1"
       id="guide2"
       inkscape:locked="false" />
    <sodipodi:guide
       position="209.60349,-12.591022"
       orientation="1,0"
       id="guide3"
       inkscape:locked="false" />
  </sodipodi:namedview>
  <defs
     id="defs1">
    <marker
       style="overflow:visible"
       id="marker13"
       refX="0"
       refY="0"
       orient="auto-start-reverse"
       inkscape:stockid="Dart arrow"
       markerWidth="1"
       markerHeight="1"
       viewBox="0 0 1 1"
       inkscape:isstock="true"
       inkscape:collect="always"
       preserveAspectRatio="xMidYMid">
      <path
         style="fill:context-stroke;fill-rule:evenodd;stroke:none"
         d="M 0,0 5,-5 -12.5,0 5,5 Z"
         transform="scale(-0.5)"
         id="path13" />
    </marker>
    <marker
       style="overflow:visible"
       id="DartArrow"
       refX="0"
       refY="0"
       orient="auto-start-reverse"
       inkscape:stockid="Dart arrow"
       markerWidth="1"
       markerHeight="1"
       viewBox="0 0 1 1"
       inkscape:isstock="true"
       inkscape:collect="always"
       preserveAspectRatio="xMidYMid">
      <path
         style="fill:context-stroke;fill-rule:evenodd;stroke:none"
         d="M 0,0 5,-5 -12.5,0 5,5 Z"
         transform="scale(-0.5)"
         id="path12" />
    </marker>
    <inkscape:path-effect
       effect="knot"
       id="path-effect5"
       is_visible="true"
       lpeversion="1"
       switcher_size="15"
       interruption_width="3"
       prop_to_stroke_width="true"
       add_stroke_width="inkscape_1.0_and_up"
       both="false"
       inverse_width="false"
       add_other_stroke_width="inkscape_1.0_and_up"
       crossing_points_vector="66.59463 | 182.78335 | 0 | 0 | 0 | 3 | 0.28071867 | 3.7159025 | 1 | 101.04729 | 239.18317 | 0 | 0 | 1 | 4 | 1.7444628 | 4.3141602 | 1 | 134.39225 | 182.70515 | 0 | 0 | 2 | 5 | 2.2643156 | 5.7138437 | 1" />
    <inkscape:path-effect
       effect="knot"
       id="path-effect5-6"
       is_visible="true"
       lpeversion="1"
       switcher_size="15"
       interruption_width="3"
       prop_to_stroke_width="true"
       add_stroke_width="inkscape_1.0_and_up"
       both="false"
       inverse_width="false"
       add_other_stroke_width="inkscape_1.0_and_up"
       crossing_points_vector="66.59463 | 182.78335 | 0 | 0 | 0 | 3 | 0.28071867 | 3.7159025 | 1 | 101.04729 | 239.18317 | 0 | 0 | 1 | 4 | 1.7444628 | 4.3141602 | 1 | 134.39225 | 182.70515 | 0 | 0 | 2 | 5 | 2.2643156 | 5.7138437 | -1" />
    <inkscape:path-effect
       effect="knot"
       id="path-effect5-1"
       is_visible="true"
       lpeversion="1"
       switcher_size="15"
       interruption_width="3"
       prop_to_stroke_width="true"
       add_stroke_width="inkscape_1.0_and_up"
       both="false"
       inverse_width="false"
       add_other_stroke_width="inkscape_1.0_and_up"
       crossing_points_vector="66.59463 | 182.78335 | 0 | 0 | 0 | 3 | 0.28071867 | 3.7159025 | 1 | 101.04729 | 239.18317 | 0 | 0 | 1 | 4 | 1.7444628 | 4.3141602 | 1 | 134.39225 | 182.70515 | 0 | 0 | 2 | 5 | 2.2643156 | 5.7138437 | 0" />
    <inkscape:path-effect
       effect="knot"
       id="path-effect5-1-3"
       is_visible="true"
       lpeversion="1"
       switcher_size="15"
       interruption_width="3"
       prop_to_stroke_width="true"
       add_stroke_width="inkscape_1.0_and_up"
       both="false"
       inverse_width="false"
       add_other_stroke_width="inkscape_1.0_and_up"
       crossing_points_vector="66.59463 | 182.78335 | 0 | 0 | 0 | 3 | 0.28071867 | 3.7159025 | 0 | 101.04729 | 239.18317 | 0 | 0 | 1 | 4 | 1.7444628 | 4.3141602 | 1 | 134.39225 | 182.70515 | 0 | 0 | 2 | 5 | 2.2643156 | 5.7138437 | 0" />
  </defs>
  <g
     inkscape:label="Layer 1"
     inkscape:groupmode="layer"
     id="layer1">
    <circle
       style="fill:none;stroke:#000000;stroke-width:0.7;stroke-miterlimit:2.7;stroke-dasharray:2.79999995,1.39999998;stroke-dashoffset:0"
       id="path1"
       cx="103.94359"
       cy="190.41655"
       r="93.111504" />
    <path
       style="fill:none;stroke:#000000;stroke-width:1.2;stroke-linecap:butt;stroke-linejoin:miter;stroke-dasharray:none;stroke-opacity:1"
       d="m 48.812878,115.38085 c 16.665923,16.94492 4.383488,110.18733 18.39753,126.40205 13.319358,15.41096 48.083152,13.19589 86.488192,27.33684"
       id="path3"
       sodipodi:nodetypes="csc" />
    <path
       style="fill:none;stroke:#000000;stroke-width:1.2;stroke-linecap:butt;stroke-linejoin:miter;stroke-dasharray:none;stroke-opacity:1"
       d="m 89.064525,282.33154 c 1.104228,-4.0407 11.924615,-13.0731 13.556215,-26.08066 4.68011,-37.31116 21.5729,-31.77265 30.3664,-73.12302 3.95969,-18.61996 27.05197,-32.94315 50.88655,-40.4704"
       id="path4"
       sodipodi:nodetypes="cssc" />
    <path
       style="fill:none;stroke:#000000;stroke-width:1.2;stroke-linecap:butt;stroke-linejoin:miter;stroke-dasharray:none;stroke-opacity:1"
       d="m 193.83554,166.14333 c -22.49888,24.2719 -15.6177,50.57589 -8.82701,70.07963"
       id="path5"
       sodipodi:nodetypes="cc" />
    <path
       style="fill:none;stroke:#000000;stroke-width:1.2;stroke-linecap:butt;stroke-linejoin:miter;stroke-dasharray:none;stroke-opacity:1"
       d="m 14.114626,165.91125 c 22.022755,29.78886 54.025024,-11.59353 92.291854,7.40047 38.26684,18.994 77.10492,13.19534 90.15097,26.71862"
       id="path6"
       sodipodi:nodetypes="csc" />
    <path
       style="fill:none;stroke:#000000;stroke-width:1.2;stroke-linecap:butt;stroke-linejoin:miter;stroke-dasharray:none;stroke-opacity:1"
       d="m 82.599749,99.784364 c 1.00065,11.132466 4.487127,22.012346 32.240101,19.716966 26.47378,-2.18959 28.32148,5.00238 40.56048,-6.68604"
       id="path7"
       sodipodi:nodetypes="csc" />
    <circle
       style="fill:none;stroke:#000000;stroke-width:0.5;stroke-miterlimit:2.7;stroke-dasharray:2, 1.5;stroke-dashoffset:0"
       id="path8"
       cx="90.952271"
       cy="205.33495"
       r="18.853828" />
    <circle
       style="fill:none;stroke:#000000;stroke-width:0.5;stroke-miterlimit:2.7;stroke-dasharray:2, 1.5;stroke-dashoffset:0"
       id="path8-8"
       cx="-12.986309"
       cy="148.47423"
       r="18.853828" />
    <circle
       style="fill:none;stroke:#000000;stroke-width:0.5;stroke-miterlimit:2.7;stroke-dasharray:2, 1.5;stroke-dashoffset:0"
       id="path8-3"
       cx="105.48434"
       cy="143.15729"
       r="18.853828" />
    <path
       style="display:inline;fill:none;stroke:#000000;stroke-width:3.52699;stroke-dasharray:none"
       d="m 105.53924,242.32872 c 18.36366,12.00639 39.72669,15.61526 53.93242,-3.17227 17.56529,-23.23066 -15.61548,-65.65128 -58.63454,-65.03892 -10.562954,-0.0192 -20.4466,2.31115 -29.171136,6.1785 m -10.094596,5.46363 c -22.029693,14.28194 -32.952138,38.43445 -21.512104,53.39679 17.446323,22.81792 55.047584,20.14699 84.961996,-28.74692 4.23158,-6.91635 7.03586,-14.48824 8.52011,-22.12446 m 1.24934,-11.41131 c 0.61859,-24.20894 -11.77326,-46.04669 -33.64301,-46.04669 -31.529973,0 -47.683238,47.60342 -22.509059,84.9317 4.770172,7.07321 11.070387,14.09543 18.173906,20.06499"
       id="path4-3"
       sodipodi:nodetypes="csssssc"
       inkscape:path-effect="#path-effect5"
       inkscape:original-d="m 100.83712,174.11753 c -45.122812,-0.082 -77.849438,42.71109 -60.777836,65.03892 17.446323,22.81792 55.047584,20.14699 84.961996,-28.74692 19.90704,-32.53726 8.22588,-79.58246 -23.87356,-79.58246 -31.529973,0 -47.683238,47.60342 -22.509059,84.9317 18.139898,26.89784 58.405899,53.05823 80.832999,23.39768 17.56529,-23.23066 -15.61548,-65.65128 -58.63454,-65.03892 z"
       inkscape:label="knot"
       transform="matrix(0.22682254,0,0,0.22682254,68.300044,159.31989)" />
    <path
       style="display:inline;fill:none;stroke:#000000;stroke-width:3.52699;stroke-dasharray:none"
       d="m 105.53924,242.32872 c 18.36366,12.00639 39.72669,15.61526 53.93242,-3.17227 17.56529,-23.23066 -15.61548,-65.65128 -58.63454,-65.03892 -10.562954,-0.0192 -20.4466,2.31115 -29.171136,6.1785 m -10.094596,5.46363 c -22.029693,14.28194 -32.952138,38.43445 -21.512104,53.39679 17.446323,22.81792 55.047584,20.14699 84.961996,-28.74692 19.90704,-32.53726 8.22588,-79.58246 -23.87356,-79.58246 -31.529973,0 -47.683238,47.60342 -22.509059,84.9317 4.770172,7.07321 11.070387,14.09543 18.173906,20.06499"
       id="path4-3-6"
       sodipodi:nodetypes="csssssc"
       inkscape:path-effect="#path-effect5-1"
       inkscape:original-d="m 100.83712,174.11753 c -45.122812,-0.082 -77.849438,42.71109 -60.777836,65.03892 17.446323,22.81792 55.047584,20.14699 84.961996,-28.74692 19.90704,-32.53726 8.22588,-79.58246 -23.87356,-79.58246 -31.529973,0 -47.683238,47.60342 -22.509059,84.9317 18.139898,26.89784 58.405899,53.05823 80.832999,23.39768 17.56529,-23.23066 -15.61548,-65.65128 -58.63454,-65.03892 z"
       inkscape:label="knot"
       transform="matrix(0.22682254,0,0,0.22682254,-35.401298,102.94072)" />
    <circle
       style="fill:none;stroke:#000000;stroke-width:0.5;stroke-miterlimit:2.7;stroke-dasharray:2, 1.5;stroke-dashoffset:0"
       id="path8-8-6"
       cx="225.32437"
       cy="148.5616"
       r="18.853828" />
    <path
       style="display:inline;fill:none;stroke:#000000;stroke-width:3.52699;stroke-dasharray:none"
       d="m 105.53924,242.32872 c 18.36366,12.00639 39.72669,15.61526 53.93242,-3.17227 17.56529,-23.23066 -15.61548,-65.65128 -58.63454,-65.03892 -45.122812,-0.082 -77.849438,42.71109 -60.777836,65.03892 17.446323,22.81792 55.047584,20.14699 84.961996,-28.74692 19.90704,-32.53726 8.22588,-79.58246 -23.87356,-79.58246 -31.529973,0 -47.683238,47.60342 -22.509059,84.9317 4.770172,7.07321 11.070387,14.09543 18.173906,20.06499"
       id="path4-3-6-0"
       sodipodi:nodetypes="csssssc"
       inkscape:path-effect="#path-effect5-1-3"
       inkscape:original-d="m 100.83712,174.11753 c -45.122812,-0.082 -77.849438,42.71109 -60.777836,65.03892 17.446323,22.81792 55.047584,20.14699 84.961996,-28.74692 19.90704,-32.53726 8.22588,-79.58246 -23.87356,-79.58246 -31.529973,0 -47.683238,47.60342 -22.509059,84.9317 18.139898,26.89784 58.405899,53.05823 80.832999,23.39768 17.56529,-23.23066 -15.61548,-65.65128 -58.63454,-65.03892 z"
       inkscape:label="knot"
       transform="matrix(0.22682254,0,0,0.22682254,202.90937,103.02809)" />
    <path
       style="display:inline;fill:none;stroke:#000000;stroke-width:3.52699;stroke-dasharray:none"
       d="m 129.3515,180.16418 c -8.57795,-3.89663 -18.26704,-6.19252 -28.51438,-6.04665 -10.562954,-0.0192 -20.4466,2.31115 -29.171136,6.1785 m -10.094596,5.46363 c -22.029693,14.28194 -32.952138,38.43445 -21.512104,53.39679 17.446323,22.81792 55.047584,20.14699 84.961996,-28.74692 19.90704,-32.53726 8.22588,-79.58246 -23.87356,-79.58246 -31.529973,0 -47.683238,47.60342 -22.509059,84.9317 4.770172,7.07321 11.070387,14.09543 18.173906,20.06499 m 8.726673,6.50496 c 18.36366,12.00639 39.72669,15.61526 53.93242,-3.17227 11.65229,-15.41053 0.97326,-39.26581 -20.09518,-53.40151"
       id="path4-3-1"
       sodipodi:nodetypes="csssssc"
       inkscape:path-effect="#path-effect5-6"
       inkscape:original-d="m 100.83712,174.11753 c -45.122812,-0.082 -77.849438,42.71109 -60.777836,65.03892 17.446323,22.81792 55.047584,20.14699 84.961996,-28.74692 19.90704,-32.53726 8.22588,-79.58246 -23.87356,-79.58246 -31.529973,0 -47.683238,47.60342 -22.509059,84.9317 18.139898,26.89784 58.405899,53.05823 80.832999,23.39768 17.56529,-23.23066 -15.61548,-65.65128 -58.63454,-65.03892 z"
       inkscape:label="knot"
       transform="matrix(0.22682254,0,0,0.22682254,83.194221,97.551929)" />
    <path
       style="fill:none;stroke:#000000;stroke-width:0.3;stroke-linecap:butt;stroke-linejoin:miter;stroke-dasharray:none;stroke-opacity:1;marker-end:url(#DartArrow)"
       d="M 7.5519862,151.65195 79.870869,166.75812"
       id="path9"
       sodipodi:nodetypes="cc" />
    <path
       style="fill:none;stroke:#000000;stroke-width:0.3;stroke-linecap:butt;stroke-linejoin:miter;stroke-dasharray:none;stroke-opacity:1;marker-start:url(#marker13)"
       d="m 135.57941,181.92431 70.07395,-27.1288"
       id="path10"
       sodipodi:nodetypes="cc" />
    <circle
       style="fill:#000000;stroke:none;stroke-width:1.3038;stroke-miterlimit:2.7;stroke-dasharray:none;stroke-dashoffset:0"
       id="path14"
       cx="-4.8255248"
       cy="144.42867"
       r="1.291604" />
    <circle
       style="fill:#000000;stroke:none;stroke-width:1.3038;stroke-miterlimit:2.7;stroke-dasharray:none;stroke-dashoffset:0"
       id="path14-9"
       cx="218.01454"
       cy="144.48747"
       r="1.291604" />
    <circle
       style="fill:#000000;stroke:none;stroke-width:1.3038;stroke-miterlimit:2.7;stroke-dasharray:none;stroke-dashoffset:0"
       id="path14-3"
       cx="233.39256"
       cy="144.46974"
       r="1.291604" />
  </g>
</svg>
