<?xml version="1.0" encoding="UTF-8" standalone="no"?>
<!-- Created with Inkscape (http://www.inkscape.org/) -->

<svg
   width="62.950569mm"
   height="105.89676mm"
   viewBox="0 0 62.950569 105.89676"
   version="1.1"
   id="svg1"
   xml:space="preserve"
   inkscape:version="1.4.2 (ebf0e940d0, 2025-05-08)"
   sodipodi:docname="twist_sequence_trefoil_detector_not_vassiliev.svg"
   inkscape:export-filename="/home/damian/Projects/mphil-thesis/graphics/twist_sequence_trefoil_detector_not_vassiliev.pdf"
   inkscape:export-xdpi="96"
   inkscape:export-ydpi="96"
   xmlns:inkscape="http://www.inkscape.org/namespaces/inkscape"
   xmlns:sodipodi="http://sodipodi.sourceforge.net/DTD/sodipodi-0.dtd"
   xmlns="http://www.w3.org/2000/svg"
   xmlns:svg="http://www.w3.org/2000/svg"><sodipodi:namedview
     id="namedview1"
     pagecolor="#ffffff"
     bordercolor="#000000"
     borderopacity="0.25"
     inkscape:showpageshadow="2"
     inkscape:pageopacity="0.0"
     inkscape:pagecheckerboard="0"
     inkscape:deskcolor="#d1d1d1"
     inkscape:document-units="mm"
     inkscape:zoom="5.0754532"
     inkscape:cx="69.057872"
     inkscape:cy="249.92842"
     inkscape:window-width="2556"
     inkscape:window-height="1394"
     inkscape:window-x="0"
     inkscape:window-y="0"
     inkscape:window-maximized="0"
     inkscape:current-layer="layer1"
     showguides="true"><sodipodi:guide
       position="59.649081,138.91308"
       orientation="0,-1"
       id="guide2"
       inkscape:locked="false" /><sodipodi:guide
       position="21.475285,-8.7148697"
       orientation="0,1"
       id="guide1"
       inkscape:locked="false"
       inkscape:label=""
       inkscape:color="rgb(0,134,229)" /><sodipodi:guide
       position="2.7500298,-18.71487"
       orientation="0,1"
       id="guide3"
       inkscape:locked="false"
       inkscape:label=""
       inkscape:color="rgb(0,134,229)" /><sodipodi:guide
       position="6.7538558,-48.714869"
       orientation="0,1"
       id="guide5"
       inkscape:locked="false"
       inkscape:label=""
       inkscape:color="rgb(0,134,229)" /><sodipodi:guide
       position="21.475285,-1.2148717"
       orientation="1,0"
       id="guide6"
       inkscape:locked="false" /><sodipodi:guide
       position="41.475284,-1.2148717"
       orientation="-1,0"
       id="guide7"
       inkscape:locked="false"
       inkscape:label=""
       inkscape:color="rgb(0,134,229)" /><sodipodi:guide
       position="15.407435,-28.71487"
       orientation="0,1"
       id="guide8"
       inkscape:locked="false"
       inkscape:label=""
       inkscape:color="rgb(0,134,229)" /><sodipodi:guide
       position="41.475285,-38.71487"
       orientation="0,1"
       id="guide9"
       inkscape:locked="false"
       inkscape:label=""
       inkscape:color="rgb(0,134,229)" /><sodipodi:guide
       position="41.475285,-43.714869"
       orientation="0,1"
       id="guide10"
       inkscape:locked="false"
       inkscape:label=""
       inkscape:color="rgb(0,134,229)" /><sodipodi:guide
       position="14.698916,-13.71487"
       orientation="0,1"
       id="guide11"
       inkscape:locked="false"
       inkscape:label=""
       inkscape:color="rgb(0,134,229)" /><sodipodi:guide
       position="9.7777218,-23.71487"
       orientation="0,1"
       id="guide12"
       inkscape:locked="false"
       inkscape:label=""
       inkscape:color="rgb(0,134,229)" /><sodipodi:guide
       position="13.697857,-33.71487"
       orientation="0,1"
       id="guide13"
       inkscape:locked="false"
       inkscape:label=""
       inkscape:color="rgb(0,134,229)" /><sodipodi:guide
       position="31.47527,-12.948226"
       orientation="0,-1"
       id="guide4"
       inkscape:locked="false" /><sodipodi:guide
       position="57.28215,67.18174"
       orientation="0,-1"
       id="guide14"
       inkscape:locked="false" /><sodipodi:guide
       position="57.124084,79.68576"
       orientation="0,-1"
       id="guide15"
       inkscape:locked="false" /><sodipodi:guide
       position="21.475285,97.462972"
       orientation="0,-1"
       id="guide16"
       inkscape:locked="false" /></sodipodi:namedview><defs
     id="defs1"><inkscape:path-effect
       effect="knot"
       id="path-effect7"
       is_visible="true"
       lpeversion="1"
       switcher_size="15"
       interruption_width="3"
       prop_to_stroke_width="true"
       add_stroke_width="inkscape_1.0_and_up"
       both="false"
       inverse_width="false"
       add_other_stroke_width="inkscape_1.0_and_up"
       crossing_points_vector="58.225582 | 147.45863 | 0 | 1 | 0 | 0 | 0.49999996 | 0.50000004 | 1" /><inkscape:path-effect
       effect="knot"
       id="path-effect1"
       is_visible="true"
       lpeversion="1"
       switcher_size="15"
       interruption_width="3"
       prop_to_stroke_width="true"
       add_stroke_width="inkscape_1.0_and_up"
       both="false"
       inverse_width="false"
       add_other_stroke_width="inkscape_1.0_and_up"
       crossing_points_vector="58.225582 | 147.45863 | 0 | 1 | 0 | 0 | 0.49999996 | 0.50000004 | 1" /><inkscape:path-effect
       effect="knot"
       id="path-effect23"
       is_visible="true"
       lpeversion="1"
       switcher_size="15"
       interruption_width="3.5"
       prop_to_stroke_width="true"
       add_stroke_width="inkscape_1.0_and_up"
       both="false"
       inverse_width="false"
       add_other_stroke_width="inkscape_1.0_and_up"
       crossing_points_vector="58.225582 | 178.99205 | 0 | 1 | 0 | 0 | 0.49999996 | 0.50000004 | -1 | 58.225584 | 198.99207 | 0 | 1 | 1 | 1 | 1.5 | 1.5 | 1" /><inkscape:path-effect
       effect="knot"
       id="path-effect21"
       is_visible="true"
       lpeversion="1"
       switcher_size="15"
       interruption_width="3"
       prop_to_stroke_width="true"
       add_stroke_width="inkscape_1.0_and_up"
       both="false"
       inverse_width="false"
       add_other_stroke_width="inkscape_1.0_and_up"
       crossing_points_vector="58.225582 | 178.99205 | 0 | 1 | 0 | 0 | 0.49999996 | 0.50000004 | -1 | 58.225584 | 198.99207 | 0 | 1 | 1 | 1 | 1.5 | 1.5 | 1" /><inkscape:path-effect
       effect="knot"
       id="path-effect19"
       is_visible="true"
       lpeversion="1"
       switcher_size="15"
       interruption_width="3"
       prop_to_stroke_width="true"
       add_stroke_width="inkscape_1.0_and_up"
       both="false"
       inverse_width="false"
       add_other_stroke_width="inkscape_1.0_and_up"
       crossing_points_vector="58.225582 | 178.99205 | 0 | 1 | 0 | 0 | 0.49999996 | 0.50000004 | -1 | 58.225584 | 198.99207 | 0 | 1 | 1 | 1 | 1.5 | 1.5 | 1" /><inkscape:path-effect
       effect="knot"
       id="path-effect17"
       is_visible="true"
       lpeversion="1"
       switcher_size="15"
       interruption_width="4"
       prop_to_stroke_width="true"
       add_stroke_width="inkscape_1.0_and_up"
       both="false"
       inverse_width="false"
       add_other_stroke_width="inkscape_1.0_and_up"
       crossing_points_vector="54.302535 | 178.99205 | 0 | 0 | 0 | 1 | 0.3660254 | 1.6339745 | -1 | 54.302535 | 198.99205 | 0 | 0 | 2 | 3 | 2.3660254 | 3.6339745 | 1" /><inkscape:path-effect
       effect="knot"
       id="path-effect8"
       is_visible="true"
       lpeversion="1"
       switcher_size="15"
       interruption_width="3"
       prop_to_stroke_width="true"
       add_stroke_width="inkscape_1.0_and_up"
       both="false"
       inverse_width="false"
       add_other_stroke_width="inkscape_1.0_and_up"
       crossing_points_vector="84.792825 | 246.1885 | 0 | 0 | 0 | 3 | 1.0772964 | 3.8566079 | -1 | 120.97507 | 237.47441 | 0 | 0 | 1 | 14 | 1.6053068 | 14.899405 | 1 | 131.13554 | 252.76299 | 0 | 0 | 2 | 13 | 2.4672829 | 14.301923 | 1 | 86.621936 | 213.86468 | 0 | 0 | 4 | 9 | 4.6955013 | 9.2794271 | -1 | 87.388621 | 200.97617 | 0 | 0 | 5 | 10 | 4.9942621 | 10.658389 | -1 | 101.54085 | 168.15628 | 0 | 0 | 6 | 17 | 5.8331807 | 16.33806 | -1 | 148.9519 | 200.15387 | 0 | 0 | 7 | 12 | 7.1490625 | 12.217689 | 1 | 120.7052 | 222.29851 | 0 | 0 | 8 | 15 | 7.9529358 | 15.212815 | 1 | 119.99313 | 195.33707 | 0 | 0 | 11 | 16 | 11.375947 | 15.673948 | 1" /><inkscape:path-effect
       effect="knot"
       id="path-effect6"
       is_visible="true"
       lpeversion="1"
       switcher_size="15"
       interruption_width="4"
       prop_to_stroke_width="true"
       add_stroke_width="inkscape_1.0_and_up"
       both="false"
       inverse_width="false"
       add_other_stroke_width="inkscape_1.0_and_up"
       crossing_points_vector="84.792825 | 246.1885 | 0 | 0 | 0 | 3 | 1.0772964 | 3.8566079 | -1 | 120.97507 | 237.47441 | 0 | 0 | 1 | 14 | 1.6053068 | 14.899405 | 1 | 131.13554 | 252.76299 | 0 | 0 | 2 | 13 | 2.4672829 | 14.301923 | 1 | 86.621936 | 213.86468 | 0 | 0 | 4 | 9 | 4.6955013 | 9.2794271 | -1 | 87.388621 | 200.97617 | 0 | 0 | 5 | 10 | 4.9942621 | 10.658389 | -1 | 101.54085 | 168.15628 | 0 | 0 | 6 | 17 | 5.8331807 | 16.33806 | -1 | 148.9519 | 200.15387 | 0 | 0 | 7 | 12 | 7.1490625 | 12.217689 | 1 | 120.7052 | 222.29851 | 0 | 0 | 8 | 15 | 7.9529358 | 15.212815 | 1 | 119.99313 | 195.33707 | 0 | 0 | 11 | 16 | 11.375947 | 15.673948 | 1" /><inkscape:path-effect
       effect="knot"
       id="path-effect4"
       is_visible="true"
       lpeversion="1"
       switcher_size="15"
       interruption_width="3"
       prop_to_stroke_width="true"
       add_stroke_width="inkscape_1.0_and_up"
       both="false"
       inverse_width="false"
       add_other_stroke_width="inkscape_1.0_and_up"
       crossing_points_vector="84.792825 | 246.1885 | 0 | 0 | 0 | 3 | 1.0772964 | 3.8566079 | -1 | 120.97507 | 237.47441 | 0 | 0 | 1 | 14 | 1.6053068 | 14.899405 | 1 | 131.13554 | 252.76299 | 0 | 0 | 2 | 13 | 2.4672829 | 14.301923 | 1 | 86.621936 | 213.86468 | 0 | 0 | 4 | 9 | 4.6955013 | 9.2794271 | -1 | 87.388621 | 200.97617 | 0 | 0 | 5 | 10 | 4.9942621 | 10.658389 | -1 | 101.54085 | 168.15628 | 0 | 0 | 6 | 17 | 5.8331807 | 16.33806 | -1 | 148.9519 | 200.15387 | 0 | 0 | 7 | 12 | 7.1490625 | 12.217689 | 1 | 120.7052 | 222.29851 | 0 | 0 | 8 | 15 | 7.9529358 | 15.212815 | 1 | 119.99313 | 195.33707 | 0 | 0 | 11 | 16 | 11.375947 | 15.673948 | 1" /><inkscape:path-effect
       effect="knot"
       id="path-effect2"
       is_visible="true"
       lpeversion="1"
       switcher_size="15"
       interruption_width="4"
       prop_to_stroke_width="true"
       add_stroke_width="inkscape_1.0_and_up"
       both="false"
       inverse_width="false"
       add_other_stroke_width="inkscape_1.0_and_up"
       crossing_points_vector="" /></defs><g
     inkscape:label="Layer 1"
     inkscape:groupmode="layer"
     id="layer1"
     transform="translate(-26.750298,-120.27703)"><rect
       style="fill:#b3b3b3;stroke:#000000;stroke-width:0.178252;stroke-linejoin:round;stroke-dasharray:none;stroke-dashoffset:0"
       id="rect1"
       width="43.804703"
       height="45.003719"
       x="30.342567"
       y="166.4902" /><path
       style="display:none;fill:none;stroke:#ff0000;stroke-width:3.5;stroke-linecap:butt;stroke-linejoin:miter;stroke-dasharray:none;stroke-opacity:1"
       d="m 48.225583,137.45863 c 0,10 20,10 20,20 m 0,-20.00001 c 0,10.00001 -20,10.00001 -20,20.00001"
       id="path4"
       sodipodi:nodetypes="cccc" /><path
       style="display:none;fill:none;stroke:#ff6600;stroke-width:4.5;stroke-linecap:butt;stroke-linejoin:miter;stroke-dasharray:none;stroke-opacity:1"
       d="m 48.225583,168.99205 c 0,10 20,10 20,20 0,10 -20,10 -20,20.00014 m 20,-40.00015 c 0,10.00001 -20,10.00001 -20,20.00001 0,10 20,10 20,20.00013"
       id="path20"
       sodipodi:nodetypes="csccsc"
       sodipodi:insensitive="true" /><path
       style="display:inline;fill:none;stroke:#000000;stroke-width:1;stroke-linecap:butt;stroke-linejoin:miter;stroke-dasharray:none;stroke-opacity:1"
       d="m 68.225583,188.99205 c 0,10 -20,10 -20,20.00014 m 0,-20.00014 c 0,10 20,10 20,20.00013"
       id="path19"
       sodipodi:nodetypes="cccc" /><path
       style="baseline-shift:baseline;display:inline;overflow:visible;vector-effect:none;enable-background:accumulate;stop-color:#000000"
       d="m 104.53245,198.99205 c 0,2.66667 -1.36447,4.70184 -3.30664,6.32032 -1.942169,1.61847 -4.470705,2.87695 -6.970705,4.12695 -2.5,1.25 -4.971464,2.49152 -6.779297,3.99805 -1.807833,1.50652 -2.943359,3.22135 -2.943359,5.55468 h -1 c 0,-2.66666 1.36252,-4.70379 3.304687,-6.32226 1.942167,-1.61847 4.470703,-2.875 6.970703,-4.125 2.5,-1.25 4.971464,-2.49347 6.779301,-4 1.80783,-1.50653 2.94531,-3.2194 2.94531,-5.55274 z m -20.000001,0 c 0,2.07247 0.894935,3.64625 2.363281,5.03711 1.468346,1.39087 3.512583,2.55779 5.693359,3.67578 l -0.93728,0.60392 c -2.204695,-1.13026 -3.843324,-2.03732 -5.443579,-3.55313 -1.600255,-1.51582 -2.675781,-3.39515 -2.675781,-5.76368 z m 11.969914,10.64411 c 2.204695,1.13025 3.752097,2.07641 5.352347,3.59222 1.60026,1.51582 2.67774,3.39515 2.67774,5.76367 h -1 c 0,-2.07245 -0.89689,-3.64819 -2.36524,-5.03906 -1.468341,-1.39086 -3.51258,-2.55583 -5.693355,-3.67383 z"
       id="path19-3-2"
       sodipodi:nodetypes="ccscccssscccccccccccccccc" /><path
       style="baseline-shift:baseline;display:inline;overflow:visible;vector-effect:none;enable-background:accumulate;stop-color:#000000"
       d="m 104.53245,178.99205 c 0,2.66667 -1.36447,4.70184 -3.30664,6.32032 -1.942169,1.61847 -4.470705,2.87695 -6.970705,4.12695 -2.5,1.25 -4.971464,2.49152 -6.779297,3.99805 -1.807833,1.50652 -2.943359,3.22135 -2.943359,5.55468 h -1 c 0,-2.66666 1.36252,-4.70379 3.304687,-6.32226 1.942167,-1.61847 4.470703,-2.875 6.970703,-4.125 2.5,-1.25 4.971464,-2.49347 6.779301,-4 1.80783,-1.50653 2.94531,-3.2194 2.94531,-5.55274 z m -20.000001,0 c 0,2.07247 0.894935,3.64625 2.363281,5.03711 1.468346,1.39087 3.512583,2.55779 5.693359,3.67578 l -0.93728,0.60392 c -2.204695,-1.13026 -3.843324,-2.03732 -5.443579,-3.55313 -1.600255,-1.51582 -2.675781,-3.39515 -2.675781,-5.76368 z m 11.969914,10.64411 c 2.204695,1.13025 3.752097,2.07641 5.352347,3.59222 1.60026,1.51582 2.67774,3.39515 2.67774,5.76367 h -1 c 0,-2.07245 -0.89689,-3.64819 -2.36524,-5.03906 -1.468341,-1.39086 -3.51258,-2.55583 -5.693355,-3.67383 z"
       id="path19-3-6"
       sodipodi:nodetypes="ccscccssscccccccccccccccc" /><path
       style="baseline-shift:baseline;display:inline;overflow:visible;vector-effect:none;enable-background:accumulate;stop-color:#000000"
       d="m 104.53244,158.99205 c 0,2.66668 -1.36447,4.70184 -3.30663,6.32033 -1.942169,1.61847 -4.470705,2.87694 -6.970705,4.12694 -2.5,1.25 -4.971464,2.49153 -6.779297,3.99806 -1.807833,1.50651 -2.943359,3.22135 -2.943359,5.55467 h -1 c 0,-2.66666 1.36252,-4.70379 3.304687,-6.32226 1.942167,-1.61847 4.470703,-2.875 6.970703,-4.125 2.5,-1.25 4.971464,-2.49347 6.779301,-4 1.80783,-1.50653 2.94531,-3.2194 2.94531,-5.55274 z m -19.999991,0 c 0,2.07248 0.894935,3.64626 2.363281,5.03712 1.468346,1.39087 3.512583,2.55779 5.693359,3.67578 l -0.93728,0.60391 c -2.204695,-1.13025 -3.843324,-2.03731 -5.443579,-3.55313 -1.600255,-1.51582 -2.675781,-3.39515 -2.675781,-5.76368 z m 11.969914,10.64412 c 2.204695,1.13024 3.752097,2.07641 5.352347,3.59222 1.60026,1.51581 2.67773,3.39515 2.67773,5.76366 h -0.99999 c 0,-2.07245 -0.89689,-3.64819 -2.36524,-5.03906 -1.468341,-1.39086 -3.51258,-2.55582 -5.693355,-3.67383 z"
       id="path19-3-1"
       sodipodi:nodetypes="ccscccssscccccccccccccccc" /><circle
       style="fill:#000000;stroke:none;stroke-width:0.667;stroke-dasharray:none;image-rendering:auto"
       id="path19-9-6"
       cx="58.225552"
       cy="198.99205"
       r="2.0009999" /><text
       xml:space="preserve"
       style="font-weight:500;font-size:0.576509px;line-height:1.25;font-family:'CMU Serif';-inkscape-font-specification:'CMU Serif Medium';font-variant-ligatures:none;text-align:center;text-decoration-color:#000000;text-anchor:middle;fill:#000000;stroke-width:0.0360317;-inkscape-stroke:none;stop-color:#000000"
       x="39.403976"
       y="189.13618"
       id="text17-3-2"><tspan
         sodipodi:role="line"
         id="tspan17-5-9"
         style="stroke-width:0.0360317"
         x="39.403976"
         y="189.13618">\raisebox{-.5\height}{\(\scriptstyle i \times\)}</tspan></text><path
       style="baseline-shift:baseline;display:inline;overflow:visible;opacity:1;vector-effect:none;enable-background:accumulate;stop-color:#000000;stop-opacity:1"
       d="m 68.724609,168.99205 c 0,2.66667 -1.364474,4.70184 -3.306641,6.32032 -1.942167,1.61847 -4.470703,2.87695 -6.970703,4.12695 -2.5,1.25 -4.971464,2.49152 -6.779297,3.99805 -1.807833,1.50652 -2.943359,3.22135 -2.943359,5.55468 h -1 c 0,-2.66666 1.36252,-4.70379 3.304687,-6.32226 1.942167,-1.61847 4.470703,-2.875 6.970703,-4.125 2.5,-1.25 4.971464,-2.49347 6.779297,-4 1.807833,-1.50653 2.945313,-3.2194 2.945313,-5.55274 z m -20,0 c 0,2.07247 0.894935,3.64625 2.363281,5.03711 1.468346,1.39087 3.512583,2.55779 5.693359,3.67578 l -0.93728,0.60392 c -2.204695,-1.13026 -3.843324,-2.03732 -5.443579,-3.55313 -1.600255,-1.51582 -2.675781,-3.39515 -2.675781,-5.76368 z m 11.969914,10.64411 c 2.204695,1.13025 3.752096,2.07641 5.352351,3.59222 1.600255,1.51582 2.677735,3.39515 2.677735,5.76367 h -1 c 0,-2.07245 -0.896889,-3.64819 -2.365235,-5.03906 -1.468345,-1.39086 -3.512584,-2.55583 -5.693359,-3.67383 z"
       id="path2"
       sodipodi:nodetypes="ccscccssscccccccccccccccc" /><path
       style="fill:none;stroke:#000000;stroke-width:1;stroke-linecap:butt;stroke-linejoin:miter;stroke-opacity:1;stroke-dasharray:none"
       d="m 84.032449,158.99205 c 0,-12.50402 -15.806867,-12.50402 -15.806867,0"
       id="path14"
       sodipodi:nodetypes="cc" /><path
       style="fill:none;stroke:#000000;stroke-width:1;stroke-linecap:butt;stroke-linejoin:miter;stroke-dasharray:none;stroke-opacity:1"
       d="m 104.03244,158.99205 c 0,-30.28123 -55.806857,-30.28123 -55.806857,0"
       id="path14-7"
       sodipodi:nodetypes="cc" /><path
       style="fill:none;stroke:#000000;stroke-width:1;stroke-linecap:butt;stroke-linejoin:miter;stroke-dasharray:none;stroke-opacity:1"
       d="m 84.032449,218.99205 c 0,12.50402 -15.806867,12.50402 -15.806867,0"
       id="path14-8"
       sodipodi:nodetypes="cc" /><path
       style="fill:none;stroke:#000000;stroke-width:1;stroke-linecap:butt;stroke-linejoin:miter;stroke-dasharray:none;stroke-opacity:1"
       d="m 104.03244,218.99205 c 0,30.28123 -55.806857,30.28123 -55.806857,0"
       id="path14-7-9"
       sodipodi:nodetypes="cc" /><path
       style="fill:none;stroke:#000000;stroke-width:1;stroke-linecap:butt;stroke-linejoin:miter;stroke-opacity:1;stroke-dasharray:none"
       d="m 68.225582,158.99204 v 7.49243"
       id="path17" /><path
       style="fill:none;stroke:#000000;stroke-width:1;stroke-linecap:butt;stroke-linejoin:miter;stroke-opacity:1;stroke-dasharray:none"
       d="m 48.225583,158.99205 v 7.49242"
       id="path18" /><path
       style="fill:none;stroke:#000000;stroke-width:1;stroke-linecap:butt;stroke-linejoin:miter;stroke-opacity:1;stroke-dasharray:none"
       d="m 48.357874,211.58304 -0.132291,7.40901"
       id="path21" /><path
       style="fill:none;stroke:#000000;stroke-width:1;stroke-linecap:butt;stroke-linejoin:miter;stroke-opacity:1;stroke-dasharray:none"
       d="m 68.225582,211.49965 v 7.4924"
       id="path22" /></g></svg>
