<?xml version="1.0" encoding="UTF-8" standalone="no"?>
<svg
   width="256pt"
   height="256pt"
   viewBox="0 0 256 256"
   version="1.1"
   id="svg10"
   sodipodi:docname="unitrivalent_diagram_example_1.svg"
   inkscape:version="1.4.2 (ebf0e940d0, 2025-05-08)"
   inkscape:export-filename="../unitrivalent_diagram_example_1.pdf"
   inkscape:export-xdpi="96"
   inkscape:export-ydpi="96"
   xmlns:inkscape="http://www.inkscape.org/namespaces/inkscape"
   xmlns:sodipodi="http://sodipodi.sourceforge.net/DTD/sodipodi-0.dtd"
   xmlns="http://www.w3.org/2000/svg"
   xmlns:svg="http://www.w3.org/2000/svg">
  <defs
     id="defs10" />
  <sodipodi:namedview
     id="namedview10"
     pagecolor="#ffffff"
     bordercolor="#000000"
     borderopacity="0.25"
     inkscape:showpageshadow="2"
     inkscape:pageopacity="0.0"
     inkscape:pagecheckerboard="0"
     inkscape:deskcolor="#d1d1d1"
     inkscape:document-units="pt"
     inkscape:zoom="1.9286614"
     inkscape:cx="108.62456"
     inkscape:cy="160.99249"
     inkscape:window-width="2556"
     inkscape:window-height="1394"
     inkscape:window-x="0"
     inkscape:window-y="0"
     inkscape:window-maximized="0"
     inkscape:current-layer="svg10"
     showguides="true">
    <sodipodi:guide
       position="127.99952,12.799535"
       orientation="1,0"
       id="guide5"
       inkscape:locked="false" />
    <sodipodi:guide
       position="128,128"
       orientation="0,-1"
       id="guide6"
       inkscape:locked="false" />
    <sodipodi:guide
       position="28.234539,185.59961"
       orientation="0.50000177,0.86602438"
       id="guide7"
       inkscape:locked="false" />
    <sodipodi:guide
       position="227.76592,185.60085"
       orientation="0.50000451,-0.8660228"
       id="guide8"
       inkscape:locked="false" />
  </sodipodi:namedview>
  <path
     fill="none"
     stroke-width="3.84"
     stroke-linecap="butt"
     stroke-linejoin="miter"
     stroke="#000000"
     stroke-opacity="1"
     stroke-miterlimit="10"
     d="M 227.76546,185.59962 C 259.57794,130.49879 240.70045,60.04702 185.59962,28.23454 130.49879,-3.5779399 60.04702,15.299553 28.23454,70.400384 -3.5779399,125.50121 15.299553,195.95298 70.400384,227.76546 125.50121,259.57794 195.95298,240.70045 227.76546,185.59962"
     id="path1" />
  <path
     fill="none"
     stroke-width="2.56"
     stroke-linecap="butt"
     stroke-linejoin="miter"
     stroke="#000000"
     stroke-opacity="1"
     stroke-miterlimit="10"
     d="M 88.517692,105.20515 28.23454,70.400384"
     id="path2"
     sodipodi:nodetypes="cc" />
  <path
     fill="none"
     stroke-width="2.56"
     stroke-linecap="butt"
     stroke-linejoin="miter"
     stroke="#000000"
     stroke-opacity="1"
     stroke-miterlimit="10"
     d="M 227.78243,70.389613 167.48812,105.20097"
     id="path2-6"
     sodipodi:nodetypes="cc" />
  <path
     fill="none"
     stroke-width="2.56"
     stroke-linecap="butt"
     stroke-linejoin="miter"
     stroke="#000000"
     stroke-opacity="1"
     stroke-miterlimit="10"
     d="m 127.99952,243.20046 0,-69.60282"
     id="path2-5"
     sodipodi:nodetypes="cc" />
  <path
     fill-rule="nonzero"
     fill="#000000"
     fill-opacity="1"
     d="m 132.43452,176.15818 c 3.41406,-5.91332 -5.45594,-11.03442 -8.87,-5.12109 -3.41406,5.91333 5.45594,11.03442 8.87,5.12109"
     id="path3" />
  <path
     fill-rule="nonzero"
     fill="#000000"
     fill-opacity="1"
     d="m 32.669547,72.960938 c 3.41406,-5.913326 -5.455934,-11.034419 -8.869994,-5.121094 -3.41406,5.913325 5.455934,11.034419 8.869994,5.121094"
     id="path4" />
  <path
     fill-rule="nonzero"
     fill="#000000"
     fill-opacity="1"
     d="m 232.19884,72.959809 c 3.41407,-5.913329 -5.45254,-11.032469 -8.86661,-5.11914 -3.41211,5.909947 5.4545,11.029087 8.86661,5.11914"
     id="path6" />
  <path
     fill-rule="nonzero"
     fill="#000000"
     fill-opacity="1"
     d="m 132.43322,245.75894 c 3.41211,-5.90994 -5.4545,-11.02908 -8.86661,-5.11914 -3.41406,5.91333 5.45255,11.03247 8.86661,5.11914"
     id="path7" />
  <path
     fill-rule="nonzero"
     fill="#000000"
     fill-opacity="1"
     d="m 171.92104,107.76163 c 3.41407,-5.91332 -5.45255,-11.032468 -8.86661,-5.11914 -3.41211,5.90995 5.4545,11.02909 8.86661,5.11914"
     id="path9" />
  <path
     fill-rule="nonzero"
     fill="#000000"
     fill-opacity="1"
     d="m 92.95143,107.76355 c 3.41211,-5.90994 -5.4545,-11.029085 -8.86661,-5.11914 -3.41406,5.91333 5.45255,11.03247 8.86661,5.11914"
     id="path10" />
  <path
     fill="none"
     stroke-width="1.51967"
     stroke-linecap="butt"
     stroke-linejoin="miter"
     stroke="#000000"
     stroke-opacity="1"
     stroke-miterlimit="10"
     d="m 167.48135,150.79485 c 12.58968,-21.80596 5.11898,-49.68701 -16.68698,-62.276684 -21.80596,-12.589679 -49.68701,-5.118976 -62.276678,16.686984 -12.589679,21.80596 -5.118976,49.68701 16.686978,62.27668 21.80596,12.58968 49.68701,5.11898 62.27668,-16.68698"
     id="path5"
     style="stroke-width:2.56;stroke-dasharray:none" />
</svg>
