<?xml version="1.0" encoding="UTF-8" standalone="no"?>
<svg
   width="256pt"
   height="256pt"
   viewBox="0 0 256 256"
   version="1.1"
   id="svg10"
   sodipodi:docname="unitrivalent_diagram_example_2.svg"
   inkscape:version="1.4.2 (ebf0e940d0, 2025-05-08)"
   inkscape:export-filename="../../unitrivalent_diagram_example_2.pdf"
   inkscape:export-xdpi="96"
   inkscape:export-ydpi="96"
   xmlns:inkscape="http://www.inkscape.org/namespaces/inkscape"
   xmlns:sodipodi="http://sodipodi.sourceforge.net/DTD/sodipodi-0.dtd"
   xmlns="http://www.w3.org/2000/svg"
   xmlns:svg="http://www.w3.org/2000/svg">
  <defs
     id="defs10" />
  <sodipodi:namedview
     id="namedview10"
     pagecolor="#ffffff"
     bordercolor="#000000"
     borderopacity="0.25"
     inkscape:showpageshadow="2"
     inkscape:pageopacity="0.0"
     inkscape:pagecheckerboard="0"
     inkscape:deskcolor="#d1d1d1"
     inkscape:document-units="pt"
     inkscape:zoom="2.7275391"
     inkscape:cx="106.50626"
     inkscape:cy="153.43501"
     inkscape:window-width="2556"
     inkscape:window-height="1394"
     inkscape:window-x="0"
     inkscape:window-y="0"
     inkscape:window-maximized="0"
     inkscape:current-layer="svg10"
     showguides="true">
    <sodipodi:guide
       position="127.99952,12.799535"
       orientation="1,0"
       id="guide5"
       inkscape:locked="false" />
    <sodipodi:guide
       position="128,128"
       orientation="0,-1"
       id="guide6"
       inkscape:locked="false" />
    <sodipodi:guide
       position="28.234539,185.59961"
       orientation="0.50000177,0.86602438"
       id="guide7"
       inkscape:locked="false" />
    <sodipodi:guide
       position="227.76592,185.60085"
       orientation="0.50000451,-0.8660228"
       id="guide8"
       inkscape:locked="false" />
    <sodipodi:guide
       position="112.13426,208.40171"
       orientation="0,-1"
       id="guide1"
       inkscape:locked="false" />
    <sodipodi:guide
       position="106.4146,168.14608"
       orientation="0,-1"
       id="guide2"
       inkscape:locked="false" />
    <sodipodi:guide
       position="88.517735,150.79493"
       orientation="0,-1"
       id="guide3"
       inkscape:locked="false" />
    <sodipodi:guide
       position="237.96114,93.573582"
       orientation="-0.63030232,-0.77634978"
       id="guide9"
       inkscape:locked="false" />
    <sodipodi:guide
       position="84.691443,100.11459"
       orientation="-0.82568564,0.5641305"
       id="guide10"
       inkscape:locked="false" />
    <sodipodi:guide
       position="34.494371,60.663026"
       orientation="-0.54010216,0.84159946"
       id="guide11"
       inkscape:locked="false" />
  </sodipodi:namedview>
  <path
     fill="none"
     stroke-width="3.84"
     stroke-linecap="butt"
     stroke-linejoin="miter"
     stroke="#000000"
     stroke-opacity="1"
     stroke-miterlimit="10"
     d="M 227.76546,185.59962 C 259.57794,130.49879 240.70045,60.04702 185.59962,28.23454 130.49879,-3.5779399 60.04702,15.299553 28.23454,70.400384 -3.5779399,125.50121 15.299553,195.95298 70.400384,227.76546 125.50121,259.57794 195.95298,240.70045 227.76546,185.59962"
     id="path1" />
  <path
     fill="none"
     stroke-width="2.56"
     stroke-linecap="butt"
     stroke-linejoin="miter"
     stroke="#000000"
     stroke-opacity="1"
     stroke-miterlimit="10"
     d="m 127.99952,243.20046 0,-69.60282"
     id="path2-5"
     sodipodi:nodetypes="cc" />
  <path
     fill="none"
     stroke-width="2.56"
     stroke-linecap="butt"
     stroke-linejoin="miter"
     stroke="#000000"
     stroke-opacity="1"
     stroke-miterlimit="10"
     d="M 127.99952,173.59763 88.517738,105.20507"
     id="path2-5-5"
     sodipodi:nodetypes="cc" />
  <path
     fill="none"
     stroke-width="2.56"
     stroke-linecap="butt"
     stroke-linejoin="miter"
     stroke="#000000"
     stroke-opacity="1"
     stroke-miterlimit="10"
     d="M 117.75558,107.49137 84.691446,155.88541"
     id="path2-5-5-8"
     sodipodi:nodetypes="cc" />
  <path
     fill="none"
     stroke-width="2.56"
     stroke-linecap="butt"
     stroke-linejoin="miter"
     stroke="#000000"
     stroke-opacity="1"
     stroke-miterlimit="10"
     d="M 58.446193,179.96573 34.494374,195.33697"
     id="path2-5-5-8-3"
     sodipodi:nodetypes="cc" />
  <path
     fill="none"
     stroke-width="2.56"
     stroke-linecap="butt"
     stroke-linejoin="miter"
     stroke="#000000"
     stroke-opacity="1"
     stroke-miterlimit="10"
     d="m 127.99952,173.59764 39.4886,-68.39667"
     id="path2-5-2"
     sodipodi:nodetypes="cc" />
  <path
     fill="none"
     stroke-width="2.56"
     stroke-linecap="butt"
     stroke-linejoin="miter"
     stroke="#000000"
     stroke-opacity="1"
     stroke-miterlimit="10"
     d="m 127.99953,73.150848 -10e-6,-60.370162"
     id="path2-5-2-7"
     sodipodi:nodetypes="cc" />
  <path
     fill="none"
     stroke-width="2.56"
     stroke-linecap="butt"
     stroke-linejoin="miter"
     stroke="#000000"
     stroke-opacity="1"
     stroke-miterlimit="10"
     d="m 88.517725,105.20506 c 0,0 -2.21532,-25.581781 -13.634473,-28.473639 -11.419153,-2.891857 -42.23168,16.072011 -54.880445,11.122494"
     id="path2-5-1"
     sodipodi:nodetypes="csc" />
  <path
     fill="none"
     stroke-width="2.56"
     stroke-linecap="butt"
     stroke-linejoin="miter"
     stroke="#000000"
     stroke-opacity="1"
     stroke-miterlimit="10"
     d="m 88.517731,105.20507 c 0,0 -20.726604,24.0833 -31.840329,18.76696 C 33.465429,112.86839 74.607212,66.708917 45.460059,47.598284"
     id="path2-5-7"
     sodipodi:nodetypes="csc" />
  <path
     fill="none"
     stroke-width="2.56"
     stroke-linecap="butt"
     stroke-linejoin="miter"
     stroke="#000000"
     stroke-opacity="1"
     stroke-miterlimit="10"
     d="M 167.48812,105.20097 210.54269,47.598284"
     id="path2-5-9"
     sodipodi:nodetypes="cc" />
  <path
     fill="none"
     stroke-width="2.56"
     stroke-linecap="butt"
     stroke-linejoin="miter"
     stroke="#000000"
     stroke-opacity="1"
     stroke-miterlimit="10"
     d="m 167.48103,105.20507 24.45633,19.85559"
     id="path2-5-6"
     sodipodi:nodetypes="cc" />
  <path
     fill="none"
     stroke-width="2.56"
     stroke-linecap="butt"
     stroke-linejoin="miter"
     stroke="#000000"
     stroke-opacity="1"
     stroke-miterlimit="10"
     d="m 220.97001,148.63166 16.99114,13.79476"
     id="path2-5-6-6"
     sodipodi:nodetypes="cc" />
  <path
     fill-rule="nonzero"
     fill="#000000"
     fill-opacity="1"
     d="m 132.43452,176.15818 c 3.41406,-5.91332 -5.45594,-11.03442 -8.87,-5.12109 -3.41406,5.91333 5.45594,11.03442 8.87,5.12109"
     id="path3" />
  <path
     fill-rule="nonzero"
     fill="#000000"
     fill-opacity="1"
     d="m 24.437804,90.414462 c 3.41406,-5.913326 -5.455934,-11.034419 -8.869994,-5.121094 -3.41406,5.913325 5.455934,11.034419 8.869994,5.121094"
     id="path4" />
  <path
     fill-rule="nonzero"
     fill="#000000"
     fill-opacity="1"
     d="m 242.39406,164.98708 c 3.41407,-5.91333 -5.45254,-11.03247 -8.86661,-5.11914 -3.41211,5.90994 5.4545,11.02908 8.86661,5.11914"
     id="path6" />
  <path
     fill-rule="nonzero"
     fill="#000000"
     fill-opacity="1"
     d="m 225.40293,151.19233 c 3.41407,-5.91333 -5.45254,-11.03247 -8.86661,-5.11914 -3.41211,5.90994 5.4545,11.02908 8.86661,5.11914"
     id="path6-6" />
  <path
     fill-rule="nonzero"
     fill="#000000"
     fill-opacity="1"
     d="m 196.37028,127.62133 c 3.41407,-5.91333 -5.45254,-11.03247 -8.86661,-5.11914 -3.41211,5.90994 5.4545,11.02908 8.86661,5.11914"
     id="path6-8" />
  <path
     fill-rule="nonzero"
     fill="#000000"
     fill-opacity="1"
     d="m 132.43322,245.75894 c 3.41211,-5.90994 -5.4545,-11.02908 -8.86661,-5.11914 -3.41406,5.91333 5.45255,11.03247 8.86661,5.11914"
     id="path7" />
  <path
     fill-rule="nonzero"
     fill="#000000"
     fill-opacity="1"
     d="m 171.92104,107.76163 c 3.41407,-5.91332 -5.45255,-11.032468 -8.86661,-5.11914 -3.41211,5.90995 5.4545,11.02909 8.86661,5.11914"
     id="path9" />
  <path
     fill-rule="nonzero"
     fill="#000000"
     fill-opacity="1"
     d="m 214.97561,50.158944 c 3.41407,-5.91332 -5.45255,-11.032468 -8.86661,-5.11914 -3.41211,5.90995 5.4545,11.02909 8.86661,5.11914"
     id="path9-6" />
  <path
     fill-rule="nonzero"
     fill="#000000"
     fill-opacity="1"
     d="m 49.892976,50.158944 c 3.41407,-5.91332 -5.45255,-11.03247 -8.86661,-5.11914 -3.41211,5.90995 5.4545,11.02909 8.86661,5.11914"
     id="path9-5" />
  <path
     fill-rule="nonzero"
     fill="#000000"
     fill-opacity="1"
     d="m 92.95143,107.76355 c 3.41211,-5.90994 -5.4545,-11.029085 -8.86661,-5.11914 -3.41406,5.91333 5.45255,11.03247 8.86661,5.11914"
     id="path10" />
  <path
     fill-rule="nonzero"
     fill="#000000"
     fill-opacity="1"
     d="m 89.125137,158.44388 c 3.41211,-5.90994 -5.4545,-11.02909 -8.86661,-5.11914 -3.41406,5.91333 5.45255,11.03247 8.86661,5.11914"
     id="path10-3" />
  <path
     fill-rule="nonzero"
     fill="#000000"
     fill-opacity="1"
     d="m 38.928064,197.89545 c 3.41211,-5.90994 -5.4545,-11.02909 -8.86661,-5.11914 -3.41406,5.91333 5.45255,11.03247 8.86661,5.11914"
     id="path10-3-2" />
  <path
     fill-rule="nonzero"
     fill="#000000"
     fill-opacity="1"
     d="m 62.879885,182.52421 c 3.41211,-5.90994 -5.4545,-11.02909 -8.86661,-5.11914 -3.41406,5.91333 5.45255,11.03247 8.86661,5.11914"
     id="path10-3-2-9" />
  <path
     fill-rule="nonzero"
     fill="#000000"
     fill-opacity="1"
     d="m 122.18924,110.04983 c 3.41212,-5.90994 -5.4545,-11.029077 -8.8666,-5.11914 -3.41406,5.91333 5.45255,11.03247 8.8666,5.11914"
     id="path10-5" />
  <path
     fill-rule="nonzero"
     fill="#000000"
     fill-opacity="1"
     d="m 132.43321,75.709324 c 3.41212,-5.90994 -5.4545,-11.029078 -8.8666,-5.11914 -3.41406,5.91333 5.45255,11.03247 8.8666,5.11914"
     id="path10-5-2" />
  <path
     fill-rule="nonzero"
     fill="#000000"
     fill-opacity="1"
     d="m 132.4332,15.339161 c 3.41212,-5.9099398 -5.4545,-11.0290778 -8.8666,-5.11914 -3.41406,5.91333 5.45255,11.03247 8.8666,5.11914"
     id="path10-5-2-6" />
  <circle
     style="font-variation-settings:normal;opacity:1;vector-effect:none;fill:none;fill-opacity:1;fill-rule:evenodd;stroke:#000000;stroke-width:2.56;stroke-linecap:butt;stroke-linejoin:miter;stroke-miterlimit:10;stroke-dasharray:none;stroke-dashoffset:0;stroke-opacity:1;-inkscape-stroke:none;stop-color:#000000;stop-opacity:1"
     id="path5"
     cx="206.45369"
     cy="136.84616"
     r="18.698174" />
  <circle
     style="font-variation-settings:normal;vector-effect:none;fill:none;fill-opacity:1;fill-rule:evenodd;stroke:#000000;stroke-width:2.56;stroke-linecap:butt;stroke-linejoin:miter;stroke-miterlimit:10;stroke-dasharray:none;stroke-dashoffset:0;stroke-opacity:1;-inkscape-stroke:none;stop-color:#000000"
     id="path5-9"
     cx="74.182564"
     cy="169.86681"
     r="18.698174" />
  <circle
     style="font-variation-settings:normal;vector-effect:none;fill:none;fill-opacity:1;fill-rule:evenodd;stroke:#000000;stroke-width:2.56;stroke-linecap:butt;stroke-linejoin:miter;stroke-miterlimit:10;stroke-dasharray:none;stroke-dashoffset:0;stroke-opacity:1;-inkscape-stroke:none;stop-color:#000000"
     id="path5-0"
     cx="127.99953"
     cy="91.849022"
     r="18.698174" />
</svg>
